%TF.GenerationSoftware,KiCad,Pcbnew,9.0.4*%
%TF.CreationDate,2025-11-06T12:38:59+01:00*%
%TF.ProjectId,pwr_board,7077725f-626f-4617-9264-2e6b69636164,rev?*%
%TF.SameCoordinates,Original*%
%TF.FileFunction,Copper,L2,Bot*%
%TF.FilePolarity,Positive*%
%FSLAX46Y46*%
G04 Gerber Fmt 4.6, Leading zero omitted, Abs format (unit mm)*
G04 Created by KiCad (PCBNEW 9.0.4) date 2025-11-06 12:38:59*
%MOMM*%
%LPD*%
G01*
G04 APERTURE LIST*
G04 Aperture macros list*
%AMRoundRect*
0 Rectangle with rounded corners*
0 $1 Rounding radius*
0 $2 $3 $4 $5 $6 $7 $8 $9 X,Y pos of 4 corners*
0 Add a 4 corners polygon primitive as box body*
4,1,4,$2,$3,$4,$5,$6,$7,$8,$9,$2,$3,0*
0 Add four circle primitives for the rounded corners*
1,1,$1+$1,$2,$3*
1,1,$1+$1,$4,$5*
1,1,$1+$1,$6,$7*
1,1,$1+$1,$8,$9*
0 Add four rect primitives between the rounded corners*
20,1,$1+$1,$2,$3,$4,$5,0*
20,1,$1+$1,$4,$5,$6,$7,0*
20,1,$1+$1,$6,$7,$8,$9,0*
20,1,$1+$1,$8,$9,$2,$3,0*%
G04 Aperture macros list end*
%TA.AperFunction,ComponentPad*%
%ADD10R,1.700000X1.700000*%
%TD*%
%TA.AperFunction,ComponentPad*%
%ADD11C,1.700000*%
%TD*%
%TA.AperFunction,ComponentPad*%
%ADD12C,7.000000*%
%TD*%
%TA.AperFunction,ComponentPad*%
%ADD13RoundRect,0.250000X-0.750000X0.600000X-0.750000X-0.600000X0.750000X-0.600000X0.750000X0.600000X0*%
%TD*%
%TA.AperFunction,ComponentPad*%
%ADD14O,2.000000X1.700000*%
%TD*%
%TA.AperFunction,ViaPad*%
%ADD15C,0.600000*%
%TD*%
%TA.AperFunction,Conductor*%
%ADD16C,0.200000*%
%TD*%
G04 APERTURE END LIST*
D10*
%TO.P,J3,1,Pin_1*%
%TO.N,Net-(J3-Pin_1)*%
X161589200Y-77800000D03*
D11*
%TO.P,J3,2,Pin_2*%
%TO.N,+5V*%
X164129200Y-77800000D03*
%TD*%
D12*
%TO.P,H1,1,1*%
%TO.N,GND*%
X140400000Y-77500000D03*
%TD*%
%TO.P,H3,1,1*%
%TO.N,GND*%
X182600000Y-77500000D03*
%TD*%
%TO.P,H2,1,1*%
%TO.N,GND*%
X140400000Y-95100000D03*
%TD*%
D13*
%TO.P,J4,1,Pin_1*%
%TO.N,GND*%
X142300000Y-84900000D03*
D14*
%TO.P,J4,2,Pin_2*%
%TO.N,+5V*%
X142300000Y-87400000D03*
%TD*%
D13*
%TO.P,J2,1,Pin_1*%
%TO.N,GND*%
X181700000Y-85000000D03*
D14*
%TO.P,J2,2,Pin_2*%
%TO.N,Net-(J2-Pin_2)*%
X181700000Y-87500000D03*
%TD*%
D10*
%TO.P,J1,1,Pin_1*%
%TO.N,STATUS*%
X151429200Y-77800000D03*
D11*
%TO.P,J1,2,Pin_2*%
%TO.N,GND*%
X153969200Y-77800000D03*
%TO.P,J1,3,Pin_3*%
%TO.N,Net-(D1-A)*%
X156509200Y-77800000D03*
%TD*%
D12*
%TO.P,H4,1,1*%
%TO.N,GND*%
X182600000Y-95100000D03*
%TD*%
D10*
%TO.P,J5,1,Pin_1*%
%TO.N,Net-(J5-Pin_1)*%
X169260000Y-77800000D03*
D11*
%TO.P,J5,2,Pin_2*%
%TO.N,GND*%
X171800000Y-77800000D03*
%TD*%
D15*
%TO.N,Net-(Q1-D)*%
X164900000Y-94200000D03*
X171000000Y-89400000D03*
%TD*%
D16*
%TO.N,Net-(Q1-D)*%
X164900000Y-94200000D02*
X164900000Y-89800000D01*
X164900000Y-89800000D02*
X165100000Y-89600000D01*
X165300000Y-89400000D02*
X171000000Y-89400000D01*
X165100000Y-89600000D02*
X165300000Y-89400000D01*
%TD*%
%TA.AperFunction,Conductor*%
%TO.N,GND*%
G36*
X186179339Y-73907385D02*
G01*
X186225094Y-73960189D01*
X186236300Y-74011700D01*
X186236300Y-98662700D01*
X186216615Y-98729739D01*
X186163811Y-98775494D01*
X186112300Y-98786700D01*
X136861300Y-98786700D01*
X136794261Y-98767015D01*
X136748506Y-98714211D01*
X136737300Y-98662700D01*
X136737300Y-94134108D01*
X164399500Y-94134108D01*
X164399500Y-94265891D01*
X164433608Y-94393187D01*
X164466554Y-94450250D01*
X164499500Y-94507314D01*
X164592686Y-94600500D01*
X164706814Y-94666392D01*
X164834108Y-94700500D01*
X164834110Y-94700500D01*
X164965890Y-94700500D01*
X164965892Y-94700500D01*
X165093186Y-94666392D01*
X165207314Y-94600500D01*
X165300500Y-94507314D01*
X165366392Y-94393186D01*
X165400500Y-94265892D01*
X165400500Y-94134108D01*
X165366392Y-94006814D01*
X165300500Y-93892686D01*
X165236818Y-93829004D01*
X165203334Y-93767680D01*
X165200500Y-93741323D01*
X165200500Y-89975833D01*
X165209144Y-89946392D01*
X165215668Y-89916406D01*
X165219422Y-89911390D01*
X165220185Y-89908794D01*
X165236819Y-89888152D01*
X165388152Y-89736819D01*
X165449475Y-89703334D01*
X165475833Y-89700500D01*
X170541324Y-89700500D01*
X170608363Y-89720185D01*
X170629005Y-89736819D01*
X170692686Y-89800500D01*
X170806814Y-89866392D01*
X170934108Y-89900500D01*
X170934110Y-89900500D01*
X171065890Y-89900500D01*
X171065892Y-89900500D01*
X171193186Y-89866392D01*
X171307314Y-89800500D01*
X171400500Y-89707314D01*
X171466392Y-89593186D01*
X171500500Y-89465892D01*
X171500500Y-89334108D01*
X171466392Y-89206814D01*
X171400500Y-89092686D01*
X171307314Y-88999500D01*
X171250250Y-88966554D01*
X171193187Y-88933608D01*
X171129539Y-88916554D01*
X171065892Y-88899500D01*
X170934108Y-88899500D01*
X170806812Y-88933608D01*
X170692686Y-88999500D01*
X170692683Y-88999502D01*
X170629005Y-89063181D01*
X170567682Y-89096666D01*
X170541324Y-89099500D01*
X165260438Y-89099500D01*
X165184010Y-89119978D01*
X165115489Y-89159540D01*
X165115486Y-89159542D01*
X164659541Y-89615487D01*
X164659535Y-89615495D01*
X164619982Y-89684004D01*
X164619979Y-89684009D01*
X164599500Y-89760439D01*
X164599500Y-93741323D01*
X164579815Y-93808362D01*
X164563182Y-93829004D01*
X164499500Y-93892686D01*
X164433608Y-94006812D01*
X164399500Y-94134108D01*
X136737300Y-94134108D01*
X136737300Y-83216228D01*
X139449500Y-83216228D01*
X139449500Y-83383771D01*
X139482182Y-83548074D01*
X139482184Y-83548082D01*
X139546295Y-83702860D01*
X139639373Y-83842162D01*
X139757837Y-83960626D01*
X139850494Y-84022537D01*
X139897137Y-84053703D01*
X140051918Y-84117816D01*
X140216228Y-84150499D01*
X140216232Y-84150500D01*
X140216233Y-84150500D01*
X140383768Y-84150500D01*
X140383769Y-84150499D01*
X140548082Y-84117816D01*
X140633313Y-84082511D01*
X140702778Y-84075043D01*
X140765258Y-84106317D01*
X140800911Y-84166406D01*
X140804121Y-84209674D01*
X140800000Y-84250008D01*
X140800000Y-84650000D01*
X141866988Y-84650000D01*
X141834075Y-84707007D01*
X141800000Y-84834174D01*
X141800000Y-84965826D01*
X141834075Y-85092993D01*
X141866988Y-85150000D01*
X140800001Y-85150000D01*
X140800001Y-85549986D01*
X140810494Y-85652697D01*
X140865641Y-85819119D01*
X140865643Y-85819124D01*
X140957684Y-85968345D01*
X141081654Y-86092315D01*
X141230875Y-86184356D01*
X141230880Y-86184358D01*
X141397302Y-86239505D01*
X141397309Y-86239506D01*
X141500019Y-86249999D01*
X141571471Y-86249999D01*
X141638511Y-86269683D01*
X141684267Y-86322486D01*
X141694211Y-86391644D01*
X141665187Y-86455200D01*
X141640364Y-86477101D01*
X141480345Y-86584022D01*
X141480341Y-86584025D01*
X141334024Y-86730342D01*
X141219058Y-86902403D01*
X141139870Y-87093579D01*
X141139868Y-87093587D01*
X141099500Y-87296530D01*
X141099500Y-87503469D01*
X141139868Y-87706412D01*
X141139870Y-87706420D01*
X141219058Y-87897596D01*
X141334024Y-88069657D01*
X141480342Y-88215975D01*
X141480345Y-88215977D01*
X141652402Y-88330941D01*
X141843580Y-88410130D01*
X142046530Y-88450499D01*
X142046534Y-88450500D01*
X142046535Y-88450500D01*
X142553466Y-88450500D01*
X142553467Y-88450499D01*
X142756420Y-88410130D01*
X142947598Y-88330941D01*
X143119655Y-88215977D01*
X143265977Y-88069655D01*
X143380941Y-87897598D01*
X143460130Y-87706420D01*
X143500500Y-87503465D01*
X143500500Y-87296535D01*
X143460130Y-87093580D01*
X143380941Y-86902402D01*
X143265977Y-86730345D01*
X143265975Y-86730342D01*
X143119657Y-86584024D01*
X143029060Y-86523490D01*
X142959632Y-86477100D01*
X142914829Y-86423490D01*
X142906121Y-86354165D01*
X142936275Y-86291137D01*
X142995718Y-86254417D01*
X143028524Y-86249999D01*
X143099971Y-86249999D01*
X143099987Y-86249998D01*
X143202697Y-86239505D01*
X143369119Y-86184358D01*
X143369124Y-86184356D01*
X143518345Y-86092315D01*
X143642315Y-85968345D01*
X143734356Y-85819124D01*
X143734358Y-85819119D01*
X143789505Y-85652697D01*
X143789506Y-85652690D01*
X143799999Y-85549986D01*
X143800000Y-85549973D01*
X143800000Y-85150000D01*
X142733012Y-85150000D01*
X142765925Y-85092993D01*
X142800000Y-84965826D01*
X142800000Y-84834174D01*
X142765925Y-84707007D01*
X142733012Y-84650000D01*
X143799999Y-84650000D01*
X143799999Y-84250028D01*
X143799998Y-84250013D01*
X143789505Y-84147302D01*
X143734358Y-83980880D01*
X143734356Y-83980875D01*
X143642315Y-83831654D01*
X143518345Y-83707684D01*
X143369124Y-83615643D01*
X143369119Y-83615641D01*
X143202697Y-83560494D01*
X143202690Y-83560493D01*
X143099986Y-83550000D01*
X142550000Y-83550000D01*
X142550000Y-84466988D01*
X142492993Y-84434075D01*
X142365826Y-84400000D01*
X142234174Y-84400000D01*
X142107007Y-84434075D01*
X142050000Y-84466988D01*
X142050000Y-83550000D01*
X141500028Y-83550000D01*
X141500012Y-83550001D01*
X141397302Y-83560494D01*
X141297623Y-83593525D01*
X141263464Y-83594700D01*
X141229341Y-83596313D01*
X141228623Y-83595898D01*
X141227795Y-83595927D01*
X141198429Y-83578451D01*
X141168845Y-83561356D01*
X141168465Y-83560618D01*
X141167753Y-83560195D01*
X141152498Y-83529620D01*
X141136851Y-83499242D01*
X141136854Y-83498264D01*
X141136560Y-83497675D01*
X141135185Y-83463987D01*
X141135781Y-83457761D01*
X141150500Y-83383767D01*
X141150500Y-83316228D01*
X178849500Y-83316228D01*
X178849500Y-83483771D01*
X178882182Y-83648074D01*
X178882184Y-83648082D01*
X178946295Y-83802860D01*
X179039373Y-83942162D01*
X179157837Y-84060626D01*
X179243430Y-84117817D01*
X179297137Y-84153703D01*
X179451918Y-84217816D01*
X179613760Y-84250008D01*
X179616228Y-84250499D01*
X179616232Y-84250500D01*
X179616233Y-84250500D01*
X179783768Y-84250500D01*
X179783769Y-84250499D01*
X179948082Y-84217816D01*
X180033313Y-84182511D01*
X180102778Y-84175043D01*
X180165258Y-84206317D01*
X180200911Y-84266406D01*
X180204121Y-84309674D01*
X180200000Y-84350008D01*
X180200000Y-84750000D01*
X181266988Y-84750000D01*
X181234075Y-84807007D01*
X181200000Y-84934174D01*
X181200000Y-85065826D01*
X181234075Y-85192993D01*
X181266988Y-85250000D01*
X180200001Y-85250000D01*
X180200001Y-85649986D01*
X180210494Y-85752697D01*
X180265641Y-85919119D01*
X180265643Y-85919124D01*
X180357684Y-86068345D01*
X180481654Y-86192315D01*
X180630875Y-86284356D01*
X180630880Y-86284358D01*
X180797302Y-86339505D01*
X180797309Y-86339506D01*
X180900019Y-86349999D01*
X180971471Y-86349999D01*
X181038511Y-86369683D01*
X181084267Y-86422486D01*
X181094211Y-86491644D01*
X181065187Y-86555200D01*
X181040364Y-86577101D01*
X180880345Y-86684022D01*
X180880341Y-86684025D01*
X180734024Y-86830342D01*
X180619058Y-87002403D01*
X180539870Y-87193579D01*
X180539868Y-87193587D01*
X180499500Y-87396530D01*
X180499500Y-87603469D01*
X180539868Y-87806412D01*
X180539870Y-87806420D01*
X180619058Y-87997596D01*
X180734024Y-88169657D01*
X180880342Y-88315975D01*
X180880345Y-88315977D01*
X181052402Y-88430941D01*
X181243580Y-88510130D01*
X181446530Y-88550499D01*
X181446534Y-88550500D01*
X181446535Y-88550500D01*
X181953466Y-88550500D01*
X181953467Y-88550499D01*
X182156420Y-88510130D01*
X182347598Y-88430941D01*
X182519655Y-88315977D01*
X182665977Y-88169655D01*
X182780941Y-87997598D01*
X182860130Y-87806420D01*
X182900500Y-87603465D01*
X182900500Y-87396535D01*
X182860130Y-87193580D01*
X182780941Y-87002402D01*
X182665977Y-86830345D01*
X182665975Y-86830342D01*
X182519657Y-86684024D01*
X182474618Y-86653930D01*
X182359632Y-86577100D01*
X182314829Y-86523490D01*
X182306121Y-86454165D01*
X182336275Y-86391137D01*
X182395718Y-86354417D01*
X182428524Y-86349999D01*
X182499971Y-86349999D01*
X182499987Y-86349998D01*
X182602697Y-86339505D01*
X182769119Y-86284358D01*
X182769124Y-86284356D01*
X182918345Y-86192315D01*
X183042315Y-86068345D01*
X183134356Y-85919124D01*
X183134358Y-85919119D01*
X183189505Y-85752697D01*
X183189506Y-85752690D01*
X183199999Y-85649986D01*
X183200000Y-85649973D01*
X183200000Y-85250000D01*
X182133012Y-85250000D01*
X182165925Y-85192993D01*
X182200000Y-85065826D01*
X182200000Y-84934174D01*
X182165925Y-84807007D01*
X182133012Y-84750000D01*
X183199999Y-84750000D01*
X183199999Y-84350028D01*
X183199998Y-84350013D01*
X183189505Y-84247302D01*
X183134358Y-84080880D01*
X183134356Y-84080875D01*
X183042315Y-83931654D01*
X182918345Y-83807684D01*
X182769124Y-83715643D01*
X182769119Y-83715641D01*
X182602697Y-83660494D01*
X182602690Y-83660493D01*
X182499986Y-83650000D01*
X181950000Y-83650000D01*
X181950000Y-84566988D01*
X181892993Y-84534075D01*
X181765826Y-84500000D01*
X181634174Y-84500000D01*
X181507007Y-84534075D01*
X181450000Y-84566988D01*
X181450000Y-83650000D01*
X180900028Y-83650000D01*
X180900012Y-83650001D01*
X180797302Y-83660494D01*
X180697623Y-83693525D01*
X180627795Y-83695927D01*
X180567753Y-83660195D01*
X180536560Y-83597675D01*
X180537002Y-83551628D01*
X180547616Y-83498264D01*
X180550500Y-83483767D01*
X180550500Y-83316233D01*
X180517816Y-83151918D01*
X180453703Y-82997137D01*
X180422537Y-82950494D01*
X180360626Y-82857837D01*
X180242162Y-82739373D01*
X180102860Y-82646295D01*
X179948082Y-82582184D01*
X179948074Y-82582182D01*
X179783771Y-82549500D01*
X179783767Y-82549500D01*
X179616233Y-82549500D01*
X179616228Y-82549500D01*
X179451925Y-82582182D01*
X179451917Y-82582184D01*
X179297139Y-82646295D01*
X179157837Y-82739373D01*
X179039373Y-82857837D01*
X178946295Y-82997139D01*
X178882184Y-83151917D01*
X178882182Y-83151925D01*
X178849500Y-83316228D01*
X141150500Y-83316228D01*
X141150500Y-83216233D01*
X141117816Y-83051918D01*
X141053703Y-82897137D01*
X141022537Y-82850494D01*
X140960626Y-82757837D01*
X140842162Y-82639373D01*
X140702860Y-82546295D01*
X140548082Y-82482184D01*
X140548074Y-82482182D01*
X140383771Y-82449500D01*
X140383767Y-82449500D01*
X140216233Y-82449500D01*
X140216228Y-82449500D01*
X140051925Y-82482182D01*
X140051917Y-82482184D01*
X139897139Y-82546295D01*
X139757837Y-82639373D01*
X139639373Y-82757837D01*
X139546295Y-82897139D01*
X139482184Y-83051917D01*
X139482182Y-83051925D01*
X139449500Y-83216228D01*
X136737300Y-83216228D01*
X136737300Y-76930247D01*
X150378700Y-76930247D01*
X150378700Y-78669752D01*
X150390331Y-78728229D01*
X150390332Y-78728230D01*
X150434647Y-78794552D01*
X150500969Y-78838867D01*
X150500970Y-78838868D01*
X150559447Y-78850499D01*
X150559450Y-78850500D01*
X150559452Y-78850500D01*
X152298950Y-78850500D01*
X152298951Y-78850499D01*
X152313768Y-78847552D01*
X152357429Y-78838868D01*
X152357429Y-78838867D01*
X152357431Y-78838867D01*
X152423752Y-78794552D01*
X152468067Y-78728231D01*
X152468067Y-78728229D01*
X152468068Y-78728229D01*
X152479699Y-78669752D01*
X152479700Y-78669750D01*
X152479700Y-78366048D01*
X152499385Y-78299009D01*
X152552189Y-78253254D01*
X152621347Y-78243310D01*
X152684903Y-78272335D01*
X152715138Y-78314264D01*
X152715894Y-78313879D01*
X152814575Y-78507550D01*
X152853928Y-78561716D01*
X153486237Y-77929408D01*
X153503275Y-77992993D01*
X153569101Y-78107007D01*
X153662193Y-78200099D01*
X153776207Y-78265925D01*
X153839790Y-78282962D01*
X153207482Y-78915269D01*
X153207482Y-78915270D01*
X153261649Y-78954624D01*
X153450982Y-79051095D01*
X153653070Y-79116757D01*
X153862954Y-79150000D01*
X154075446Y-79150000D01*
X154285327Y-79116757D01*
X154285330Y-79116757D01*
X154487417Y-79051095D01*
X154676754Y-78954622D01*
X154730916Y-78915270D01*
X154730917Y-78915270D01*
X154098608Y-78282962D01*
X154162193Y-78265925D01*
X154276207Y-78200099D01*
X154369299Y-78107007D01*
X154435125Y-77992993D01*
X154452162Y-77929408D01*
X155084470Y-78561717D01*
X155084470Y-78561716D01*
X155123822Y-78507554D01*
X155220295Y-78318217D01*
X155277543Y-78142026D01*
X155316980Y-78084351D01*
X155381339Y-78057152D01*
X155450185Y-78069066D01*
X155501661Y-78116310D01*
X155510035Y-78132891D01*
X155578258Y-78297596D01*
X155693224Y-78469657D01*
X155839542Y-78615975D01*
X155839545Y-78615977D01*
X156011602Y-78730941D01*
X156202780Y-78810130D01*
X156347252Y-78838867D01*
X156405730Y-78850499D01*
X156405734Y-78850500D01*
X156405735Y-78850500D01*
X156612666Y-78850500D01*
X156612667Y-78850499D01*
X156815620Y-78810130D01*
X157006798Y-78730941D01*
X157178855Y-78615977D01*
X157325177Y-78469655D01*
X157440141Y-78297598D01*
X157519330Y-78106420D01*
X157559700Y-77903465D01*
X157559700Y-77696535D01*
X157519330Y-77493580D01*
X157440141Y-77302402D01*
X157325177Y-77130345D01*
X157325175Y-77130342D01*
X157178857Y-76984024D01*
X157098373Y-76930247D01*
X160538700Y-76930247D01*
X160538700Y-78669752D01*
X160550331Y-78728229D01*
X160550332Y-78728230D01*
X160594647Y-78794552D01*
X160660969Y-78838867D01*
X160660970Y-78838868D01*
X160719447Y-78850499D01*
X160719450Y-78850500D01*
X160719452Y-78850500D01*
X162458950Y-78850500D01*
X162458951Y-78850499D01*
X162473768Y-78847552D01*
X162517429Y-78838868D01*
X162517429Y-78838867D01*
X162517431Y-78838867D01*
X162583752Y-78794552D01*
X162628067Y-78728231D01*
X162628067Y-78728229D01*
X162628068Y-78728229D01*
X162639699Y-78669752D01*
X162639700Y-78669750D01*
X162639700Y-77696530D01*
X163078700Y-77696530D01*
X163078700Y-77903469D01*
X163119068Y-78106412D01*
X163119070Y-78106420D01*
X163198258Y-78297596D01*
X163313224Y-78469657D01*
X163459542Y-78615975D01*
X163459545Y-78615977D01*
X163631602Y-78730941D01*
X163822780Y-78810130D01*
X163967252Y-78838867D01*
X164025730Y-78850499D01*
X164025734Y-78850500D01*
X164025735Y-78850500D01*
X164232666Y-78850500D01*
X164232667Y-78850499D01*
X164435620Y-78810130D01*
X164626798Y-78730941D01*
X164798855Y-78615977D01*
X164945177Y-78469655D01*
X165060141Y-78297598D01*
X165139330Y-78106420D01*
X165179700Y-77903465D01*
X165179700Y-77696535D01*
X165139330Y-77493580D01*
X165060141Y-77302402D01*
X164945177Y-77130345D01*
X164945175Y-77130342D01*
X164798857Y-76984024D01*
X164718373Y-76930247D01*
X168209500Y-76930247D01*
X168209500Y-78669752D01*
X168221131Y-78728229D01*
X168221132Y-78728230D01*
X168265447Y-78794552D01*
X168331769Y-78838867D01*
X168331770Y-78838868D01*
X168390247Y-78850499D01*
X168390250Y-78850500D01*
X168390252Y-78850500D01*
X170129750Y-78850500D01*
X170129751Y-78850499D01*
X170144568Y-78847552D01*
X170188229Y-78838868D01*
X170188229Y-78838867D01*
X170188231Y-78838867D01*
X170254552Y-78794552D01*
X170298867Y-78728231D01*
X170298867Y-78728229D01*
X170298868Y-78728229D01*
X170310499Y-78669752D01*
X170310500Y-78669750D01*
X170310500Y-78366048D01*
X170330185Y-78299009D01*
X170382989Y-78253254D01*
X170452147Y-78243310D01*
X170515703Y-78272335D01*
X170545938Y-78314264D01*
X170546694Y-78313879D01*
X170645375Y-78507550D01*
X170684728Y-78561716D01*
X171317037Y-77929408D01*
X171334075Y-77992993D01*
X171399901Y-78107007D01*
X171492993Y-78200099D01*
X171607007Y-78265925D01*
X171670590Y-78282962D01*
X171038282Y-78915269D01*
X171038282Y-78915270D01*
X171092449Y-78954624D01*
X171281782Y-79051095D01*
X171483870Y-79116757D01*
X171693754Y-79150000D01*
X171906246Y-79150000D01*
X172116127Y-79116757D01*
X172116130Y-79116757D01*
X172318217Y-79051095D01*
X172507554Y-78954622D01*
X172561716Y-78915270D01*
X172561717Y-78915270D01*
X171929408Y-78282962D01*
X171992993Y-78265925D01*
X172107007Y-78200099D01*
X172200099Y-78107007D01*
X172265925Y-77992993D01*
X172282962Y-77929408D01*
X172915270Y-78561717D01*
X172915270Y-78561716D01*
X172954622Y-78507554D01*
X173051095Y-78318217D01*
X173116757Y-78116130D01*
X173116757Y-78116127D01*
X173150000Y-77906246D01*
X173150000Y-77693753D01*
X173116757Y-77483872D01*
X173116757Y-77483869D01*
X173051095Y-77281782D01*
X172954624Y-77092449D01*
X172915270Y-77038282D01*
X172915269Y-77038282D01*
X172282962Y-77670590D01*
X172265925Y-77607007D01*
X172200099Y-77492993D01*
X172107007Y-77399901D01*
X171992993Y-77334075D01*
X171929409Y-77317037D01*
X172561716Y-76684728D01*
X172507550Y-76645375D01*
X172318217Y-76548904D01*
X172116129Y-76483242D01*
X171906246Y-76450000D01*
X171693754Y-76450000D01*
X171483872Y-76483242D01*
X171483869Y-76483242D01*
X171281782Y-76548904D01*
X171092439Y-76645380D01*
X171038282Y-76684727D01*
X171038282Y-76684728D01*
X171670591Y-77317037D01*
X171607007Y-77334075D01*
X171492993Y-77399901D01*
X171399901Y-77492993D01*
X171334075Y-77607007D01*
X171317037Y-77670591D01*
X170684728Y-77038282D01*
X170684727Y-77038282D01*
X170645380Y-77092439D01*
X170546694Y-77286121D01*
X170545678Y-77285603D01*
X170505212Y-77335813D01*
X170438916Y-77357872D01*
X170371218Y-77340588D01*
X170323612Y-77289447D01*
X170310500Y-77233951D01*
X170310500Y-76930249D01*
X170310499Y-76930247D01*
X170298868Y-76871770D01*
X170298867Y-76871769D01*
X170254552Y-76805447D01*
X170188230Y-76761132D01*
X170188229Y-76761131D01*
X170129752Y-76749500D01*
X170129748Y-76749500D01*
X168390252Y-76749500D01*
X168390247Y-76749500D01*
X168331770Y-76761131D01*
X168331769Y-76761132D01*
X168265447Y-76805447D01*
X168221132Y-76871769D01*
X168221131Y-76871770D01*
X168209500Y-76930247D01*
X164718373Y-76930247D01*
X164630855Y-76871770D01*
X164626798Y-76869059D01*
X164435620Y-76789870D01*
X164435612Y-76789868D01*
X164232669Y-76749500D01*
X164232665Y-76749500D01*
X164025735Y-76749500D01*
X164025730Y-76749500D01*
X163822787Y-76789868D01*
X163822779Y-76789870D01*
X163631603Y-76869058D01*
X163459542Y-76984024D01*
X163313224Y-77130342D01*
X163198258Y-77302403D01*
X163119070Y-77493579D01*
X163119068Y-77493587D01*
X163078700Y-77696530D01*
X162639700Y-77696530D01*
X162639700Y-76930249D01*
X162639699Y-76930247D01*
X162628068Y-76871770D01*
X162628067Y-76871769D01*
X162583752Y-76805447D01*
X162517430Y-76761132D01*
X162517429Y-76761131D01*
X162458952Y-76749500D01*
X162458948Y-76749500D01*
X160719452Y-76749500D01*
X160719447Y-76749500D01*
X160660970Y-76761131D01*
X160660969Y-76761132D01*
X160594647Y-76805447D01*
X160550332Y-76871769D01*
X160550331Y-76871770D01*
X160538700Y-76930247D01*
X157098373Y-76930247D01*
X157010855Y-76871770D01*
X157006798Y-76869059D01*
X156815620Y-76789870D01*
X156815612Y-76789868D01*
X156612669Y-76749500D01*
X156612665Y-76749500D01*
X156405735Y-76749500D01*
X156405730Y-76749500D01*
X156202787Y-76789868D01*
X156202779Y-76789870D01*
X156011603Y-76869058D01*
X155839542Y-76984024D01*
X155693224Y-77130342D01*
X155578257Y-77302403D01*
X155510035Y-77467108D01*
X155466194Y-77521511D01*
X155399900Y-77543576D01*
X155332200Y-77526297D01*
X155284590Y-77475159D01*
X155277543Y-77457973D01*
X155220295Y-77281782D01*
X155123824Y-77092449D01*
X155084470Y-77038282D01*
X155084469Y-77038282D01*
X154452162Y-77670590D01*
X154435125Y-77607007D01*
X154369299Y-77492993D01*
X154276207Y-77399901D01*
X154162193Y-77334075D01*
X154098609Y-77317037D01*
X154730916Y-76684728D01*
X154676750Y-76645375D01*
X154487417Y-76548904D01*
X154285329Y-76483242D01*
X154075446Y-76450000D01*
X153862954Y-76450000D01*
X153653072Y-76483242D01*
X153653069Y-76483242D01*
X153450982Y-76548904D01*
X153261639Y-76645380D01*
X153207482Y-76684727D01*
X153207482Y-76684728D01*
X153839791Y-77317037D01*
X153776207Y-77334075D01*
X153662193Y-77399901D01*
X153569101Y-77492993D01*
X153503275Y-77607007D01*
X153486237Y-77670591D01*
X152853928Y-77038282D01*
X152853927Y-77038282D01*
X152814580Y-77092439D01*
X152715894Y-77286121D01*
X152714878Y-77285603D01*
X152674412Y-77335813D01*
X152608116Y-77357872D01*
X152540418Y-77340588D01*
X152492812Y-77289447D01*
X152479700Y-77233951D01*
X152479700Y-76930249D01*
X152479699Y-76930247D01*
X152468068Y-76871770D01*
X152468067Y-76871769D01*
X152423752Y-76805447D01*
X152357430Y-76761132D01*
X152357429Y-76761131D01*
X152298952Y-76749500D01*
X152298948Y-76749500D01*
X150559452Y-76749500D01*
X150559447Y-76749500D01*
X150500970Y-76761131D01*
X150500969Y-76761132D01*
X150434647Y-76805447D01*
X150390332Y-76871769D01*
X150390331Y-76871770D01*
X150378700Y-76930247D01*
X136737300Y-76930247D01*
X136737300Y-74011700D01*
X136756985Y-73944661D01*
X136809789Y-73898906D01*
X136861300Y-73887700D01*
X186112300Y-73887700D01*
X186179339Y-73907385D01*
G37*
%TD.AperFunction*%
%TD*%
M02*
