%TF.GenerationSoftware,KiCad,Pcbnew,9.0.4*%
%TF.CreationDate,2025-11-06T12:38:59+01:00*%
%TF.ProjectId,pwr_board,7077725f-626f-4617-9264-2e6b69636164,rev?*%
%TF.SameCoordinates,Original*%
%TF.FileFunction,Legend,Top*%
%TF.FilePolarity,Positive*%
%FSLAX46Y46*%
G04 Gerber Fmt 4.6, Leading zero omitted, Abs format (unit mm)*
G04 Created by KiCad (PCBNEW 9.0.4) date 2025-11-06 12:38:59*
%MOMM*%
%LPD*%
G01*
G04 APERTURE LIST*
%ADD10C,0.200000*%
%ADD11C,0.150000*%
%ADD12C,0.120000*%
%ADD13C,0.203200*%
%ADD14C,0.010000*%
G04 APERTURE END LIST*
D10*
X167750073Y-75584419D02*
X167750073Y-74584419D01*
X167750073Y-74584419D02*
X168131025Y-74584419D01*
X168131025Y-74584419D02*
X168226263Y-74632038D01*
X168226263Y-74632038D02*
X168273882Y-74679657D01*
X168273882Y-74679657D02*
X168321501Y-74774895D01*
X168321501Y-74774895D02*
X168321501Y-74917752D01*
X168321501Y-74917752D02*
X168273882Y-75012990D01*
X168273882Y-75012990D02*
X168226263Y-75060609D01*
X168226263Y-75060609D02*
X168131025Y-75108228D01*
X168131025Y-75108228D02*
X167750073Y-75108228D01*
X168654835Y-74584419D02*
X168892930Y-75584419D01*
X168892930Y-75584419D02*
X169083406Y-74870133D01*
X169083406Y-74870133D02*
X169273882Y-75584419D01*
X169273882Y-75584419D02*
X169511978Y-74584419D01*
X170464358Y-75584419D02*
X170131025Y-75108228D01*
X169892930Y-75584419D02*
X169892930Y-74584419D01*
X169892930Y-74584419D02*
X170273882Y-74584419D01*
X170273882Y-74584419D02*
X170369120Y-74632038D01*
X170369120Y-74632038D02*
X170416739Y-74679657D01*
X170416739Y-74679657D02*
X170464358Y-74774895D01*
X170464358Y-74774895D02*
X170464358Y-74917752D01*
X170464358Y-74917752D02*
X170416739Y-75012990D01*
X170416739Y-75012990D02*
X170369120Y-75060609D01*
X170369120Y-75060609D02*
X170273882Y-75108228D01*
X170273882Y-75108228D02*
X169892930Y-75108228D01*
X172131025Y-75584419D02*
X171654835Y-75584419D01*
X171654835Y-75584419D02*
X171654835Y-74584419D01*
X172464359Y-75060609D02*
X172797692Y-75060609D01*
X172940549Y-75584419D02*
X172464359Y-75584419D01*
X172464359Y-75584419D02*
X172464359Y-74584419D01*
X172464359Y-74584419D02*
X172940549Y-74584419D01*
X173369121Y-75584419D02*
X173369121Y-74584419D01*
X173369121Y-74584419D02*
X173607216Y-74584419D01*
X173607216Y-74584419D02*
X173750073Y-74632038D01*
X173750073Y-74632038D02*
X173845311Y-74727276D01*
X173845311Y-74727276D02*
X173892930Y-74822514D01*
X173892930Y-74822514D02*
X173940549Y-75012990D01*
X173940549Y-75012990D02*
X173940549Y-75155847D01*
X173940549Y-75155847D02*
X173892930Y-75346323D01*
X173892930Y-75346323D02*
X173845311Y-75441561D01*
X173845311Y-75441561D02*
X173750073Y-75536800D01*
X173750073Y-75536800D02*
X173607216Y-75584419D01*
X173607216Y-75584419D02*
X173369121Y-75584419D01*
X148422054Y-75486000D02*
X148564911Y-75533619D01*
X148564911Y-75533619D02*
X148803006Y-75533619D01*
X148803006Y-75533619D02*
X148898244Y-75486000D01*
X148898244Y-75486000D02*
X148945863Y-75438380D01*
X148945863Y-75438380D02*
X148993482Y-75343142D01*
X148993482Y-75343142D02*
X148993482Y-75247904D01*
X148993482Y-75247904D02*
X148945863Y-75152666D01*
X148945863Y-75152666D02*
X148898244Y-75105047D01*
X148898244Y-75105047D02*
X148803006Y-75057428D01*
X148803006Y-75057428D02*
X148612530Y-75009809D01*
X148612530Y-75009809D02*
X148517292Y-74962190D01*
X148517292Y-74962190D02*
X148469673Y-74914571D01*
X148469673Y-74914571D02*
X148422054Y-74819333D01*
X148422054Y-74819333D02*
X148422054Y-74724095D01*
X148422054Y-74724095D02*
X148469673Y-74628857D01*
X148469673Y-74628857D02*
X148517292Y-74581238D01*
X148517292Y-74581238D02*
X148612530Y-74533619D01*
X148612530Y-74533619D02*
X148850625Y-74533619D01*
X148850625Y-74533619D02*
X148993482Y-74581238D01*
X149279197Y-74533619D02*
X149850625Y-74533619D01*
X149564911Y-75533619D02*
X149564911Y-74533619D01*
X150136340Y-75247904D02*
X150612530Y-75247904D01*
X150041102Y-75533619D02*
X150374435Y-74533619D01*
X150374435Y-74533619D02*
X150707768Y-75533619D01*
X150898245Y-74533619D02*
X151469673Y-74533619D01*
X151183959Y-75533619D02*
X151183959Y-74533619D01*
X152041102Y-75866952D02*
X152041102Y-74438380D01*
X153279197Y-74581238D02*
X153183959Y-74533619D01*
X153183959Y-74533619D02*
X153041102Y-74533619D01*
X153041102Y-74533619D02*
X152898245Y-74581238D01*
X152898245Y-74581238D02*
X152803007Y-74676476D01*
X152803007Y-74676476D02*
X152755388Y-74771714D01*
X152755388Y-74771714D02*
X152707769Y-74962190D01*
X152707769Y-74962190D02*
X152707769Y-75105047D01*
X152707769Y-75105047D02*
X152755388Y-75295523D01*
X152755388Y-75295523D02*
X152803007Y-75390761D01*
X152803007Y-75390761D02*
X152898245Y-75486000D01*
X152898245Y-75486000D02*
X153041102Y-75533619D01*
X153041102Y-75533619D02*
X153136340Y-75533619D01*
X153136340Y-75533619D02*
X153279197Y-75486000D01*
X153279197Y-75486000D02*
X153326816Y-75438380D01*
X153326816Y-75438380D02*
X153326816Y-75105047D01*
X153326816Y-75105047D02*
X153136340Y-75105047D01*
X153755388Y-75533619D02*
X153755388Y-74533619D01*
X153755388Y-74533619D02*
X154326816Y-75533619D01*
X154326816Y-75533619D02*
X154326816Y-74533619D01*
X154803007Y-75533619D02*
X154803007Y-74533619D01*
X154803007Y-74533619D02*
X155041102Y-74533619D01*
X155041102Y-74533619D02*
X155183959Y-74581238D01*
X155183959Y-74581238D02*
X155279197Y-74676476D01*
X155279197Y-74676476D02*
X155326816Y-74771714D01*
X155326816Y-74771714D02*
X155374435Y-74962190D01*
X155374435Y-74962190D02*
X155374435Y-75105047D01*
X155374435Y-75105047D02*
X155326816Y-75295523D01*
X155326816Y-75295523D02*
X155279197Y-75390761D01*
X155279197Y-75390761D02*
X155183959Y-75486000D01*
X155183959Y-75486000D02*
X155041102Y-75533619D01*
X155041102Y-75533619D02*
X154803007Y-75533619D01*
X156041102Y-75866952D02*
X156041102Y-74438380D01*
X156755388Y-75533619D02*
X156755388Y-74533619D01*
X157231578Y-75533619D02*
X157231578Y-74533619D01*
X157231578Y-74533619D02*
X157803006Y-75533619D01*
X157803006Y-75533619D02*
X157803006Y-74533619D01*
D11*
X146830180Y-84912969D02*
X146830180Y-84436779D01*
X146830180Y-84436779D02*
X146353990Y-84389160D01*
X146353990Y-84389160D02*
X146401609Y-84436779D01*
X146401609Y-84436779D02*
X146449228Y-84532017D01*
X146449228Y-84532017D02*
X146449228Y-84770112D01*
X146449228Y-84770112D02*
X146401609Y-84865350D01*
X146401609Y-84865350D02*
X146353990Y-84912969D01*
X146353990Y-84912969D02*
X146258752Y-84960588D01*
X146258752Y-84960588D02*
X146020657Y-84960588D01*
X146020657Y-84960588D02*
X145925419Y-84912969D01*
X145925419Y-84912969D02*
X145877800Y-84865350D01*
X145877800Y-84865350D02*
X145830180Y-84770112D01*
X145830180Y-84770112D02*
X145830180Y-84532017D01*
X145830180Y-84532017D02*
X145877800Y-84436779D01*
X145877800Y-84436779D02*
X145925419Y-84389160D01*
X146830180Y-85246303D02*
X145830180Y-85579636D01*
X145830180Y-85579636D02*
X146830180Y-85912969D01*
X145830180Y-87008208D02*
X146830180Y-87008208D01*
X145830180Y-87484398D02*
X146830180Y-87484398D01*
X146830180Y-87484398D02*
X145830180Y-88055826D01*
X145830180Y-88055826D02*
X146830180Y-88055826D01*
D10*
X159774473Y-75584419D02*
X159774473Y-74584419D01*
X159774473Y-74584419D02*
X160155425Y-74584419D01*
X160155425Y-74584419D02*
X160250663Y-74632038D01*
X160250663Y-74632038D02*
X160298282Y-74679657D01*
X160298282Y-74679657D02*
X160345901Y-74774895D01*
X160345901Y-74774895D02*
X160345901Y-74917752D01*
X160345901Y-74917752D02*
X160298282Y-75012990D01*
X160298282Y-75012990D02*
X160250663Y-75060609D01*
X160250663Y-75060609D02*
X160155425Y-75108228D01*
X160155425Y-75108228D02*
X159774473Y-75108228D01*
X160679235Y-74584419D02*
X160917330Y-75584419D01*
X160917330Y-75584419D02*
X161107806Y-74870133D01*
X161107806Y-74870133D02*
X161298282Y-75584419D01*
X161298282Y-75584419D02*
X161536378Y-74584419D01*
X162488758Y-75584419D02*
X162155425Y-75108228D01*
X161917330Y-75584419D02*
X161917330Y-74584419D01*
X161917330Y-74584419D02*
X162298282Y-74584419D01*
X162298282Y-74584419D02*
X162393520Y-74632038D01*
X162393520Y-74632038D02*
X162441139Y-74679657D01*
X162441139Y-74679657D02*
X162488758Y-74774895D01*
X162488758Y-74774895D02*
X162488758Y-74917752D01*
X162488758Y-74917752D02*
X162441139Y-75012990D01*
X162441139Y-75012990D02*
X162393520Y-75060609D01*
X162393520Y-75060609D02*
X162298282Y-75108228D01*
X162298282Y-75108228D02*
X161917330Y-75108228D01*
X164012568Y-75060609D02*
X164155425Y-75108228D01*
X164155425Y-75108228D02*
X164203044Y-75155847D01*
X164203044Y-75155847D02*
X164250663Y-75251085D01*
X164250663Y-75251085D02*
X164250663Y-75393942D01*
X164250663Y-75393942D02*
X164203044Y-75489180D01*
X164203044Y-75489180D02*
X164155425Y-75536800D01*
X164155425Y-75536800D02*
X164060187Y-75584419D01*
X164060187Y-75584419D02*
X163679235Y-75584419D01*
X163679235Y-75584419D02*
X163679235Y-74584419D01*
X163679235Y-74584419D02*
X164012568Y-74584419D01*
X164012568Y-74584419D02*
X164107806Y-74632038D01*
X164107806Y-74632038D02*
X164155425Y-74679657D01*
X164155425Y-74679657D02*
X164203044Y-74774895D01*
X164203044Y-74774895D02*
X164203044Y-74870133D01*
X164203044Y-74870133D02*
X164155425Y-74965371D01*
X164155425Y-74965371D02*
X164107806Y-75012990D01*
X164107806Y-75012990D02*
X164012568Y-75060609D01*
X164012568Y-75060609D02*
X163679235Y-75060609D01*
X164536378Y-74584419D02*
X165107806Y-74584419D01*
X164822092Y-75584419D02*
X164822092Y-74584419D01*
X165441140Y-75584419D02*
X165441140Y-74584419D01*
X165441140Y-74584419D02*
X166012568Y-75584419D01*
X166012568Y-75584419D02*
X166012568Y-74584419D01*
X137582933Y-88792231D02*
X137582933Y-87268422D01*
X138344838Y-88030326D02*
X136821028Y-88030326D01*
X137582933Y-84792231D02*
X137582933Y-83268422D01*
X146064073Y-96148875D02*
X146064073Y-95148875D01*
X146064073Y-95148875D02*
X146445025Y-95148875D01*
X146445025Y-95148875D02*
X146540263Y-95196494D01*
X146540263Y-95196494D02*
X146587882Y-95244113D01*
X146587882Y-95244113D02*
X146635501Y-95339351D01*
X146635501Y-95339351D02*
X146635501Y-95482208D01*
X146635501Y-95482208D02*
X146587882Y-95577446D01*
X146587882Y-95577446D02*
X146540263Y-95625065D01*
X146540263Y-95625065D02*
X146445025Y-95672684D01*
X146445025Y-95672684D02*
X146064073Y-95672684D01*
X146968835Y-95148875D02*
X147206930Y-96148875D01*
X147206930Y-96148875D02*
X147397406Y-95434589D01*
X147397406Y-95434589D02*
X147587882Y-96148875D01*
X147587882Y-96148875D02*
X147825978Y-95148875D01*
X148778358Y-96148875D02*
X148445025Y-95672684D01*
X148206930Y-96148875D02*
X148206930Y-95148875D01*
X148206930Y-95148875D02*
X148587882Y-95148875D01*
X148587882Y-95148875D02*
X148683120Y-95196494D01*
X148683120Y-95196494D02*
X148730739Y-95244113D01*
X148730739Y-95244113D02*
X148778358Y-95339351D01*
X148778358Y-95339351D02*
X148778358Y-95482208D01*
X148778358Y-95482208D02*
X148730739Y-95577446D01*
X148730739Y-95577446D02*
X148683120Y-95625065D01*
X148683120Y-95625065D02*
X148587882Y-95672684D01*
X148587882Y-95672684D02*
X148206930Y-95672684D01*
X150159311Y-95148875D02*
X150349787Y-95148875D01*
X150349787Y-95148875D02*
X150445025Y-95196494D01*
X150445025Y-95196494D02*
X150540263Y-95291732D01*
X150540263Y-95291732D02*
X150587882Y-95482208D01*
X150587882Y-95482208D02*
X150587882Y-95815541D01*
X150587882Y-95815541D02*
X150540263Y-96006017D01*
X150540263Y-96006017D02*
X150445025Y-96101256D01*
X150445025Y-96101256D02*
X150349787Y-96148875D01*
X150349787Y-96148875D02*
X150159311Y-96148875D01*
X150159311Y-96148875D02*
X150064073Y-96101256D01*
X150064073Y-96101256D02*
X149968835Y-96006017D01*
X149968835Y-96006017D02*
X149921216Y-95815541D01*
X149921216Y-95815541D02*
X149921216Y-95482208D01*
X149921216Y-95482208D02*
X149968835Y-95291732D01*
X149968835Y-95291732D02*
X150064073Y-95196494D01*
X150064073Y-95196494D02*
X150159311Y-95148875D01*
X151016454Y-96148875D02*
X151016454Y-95148875D01*
X151016454Y-95148875D02*
X151587882Y-96148875D01*
X151587882Y-96148875D02*
X151587882Y-95148875D01*
X152778358Y-95101256D02*
X151921216Y-96386970D01*
X153302168Y-95148875D02*
X153492644Y-95148875D01*
X153492644Y-95148875D02*
X153587882Y-95196494D01*
X153587882Y-95196494D02*
X153683120Y-95291732D01*
X153683120Y-95291732D02*
X153730739Y-95482208D01*
X153730739Y-95482208D02*
X153730739Y-95815541D01*
X153730739Y-95815541D02*
X153683120Y-96006017D01*
X153683120Y-96006017D02*
X153587882Y-96101256D01*
X153587882Y-96101256D02*
X153492644Y-96148875D01*
X153492644Y-96148875D02*
X153302168Y-96148875D01*
X153302168Y-96148875D02*
X153206930Y-96101256D01*
X153206930Y-96101256D02*
X153111692Y-96006017D01*
X153111692Y-96006017D02*
X153064073Y-95815541D01*
X153064073Y-95815541D02*
X153064073Y-95482208D01*
X153064073Y-95482208D02*
X153111692Y-95291732D01*
X153111692Y-95291732D02*
X153206930Y-95196494D01*
X153206930Y-95196494D02*
X153302168Y-95148875D01*
X154492644Y-95625065D02*
X154159311Y-95625065D01*
X154159311Y-96148875D02*
X154159311Y-95148875D01*
X154159311Y-95148875D02*
X154635501Y-95148875D01*
X155349787Y-95625065D02*
X155016454Y-95625065D01*
X155016454Y-96148875D02*
X155016454Y-95148875D01*
X155016454Y-95148875D02*
X155492644Y-95148875D01*
X156587883Y-96101256D02*
X156730740Y-96148875D01*
X156730740Y-96148875D02*
X156968835Y-96148875D01*
X156968835Y-96148875D02*
X157064073Y-96101256D01*
X157064073Y-96101256D02*
X157111692Y-96053636D01*
X157111692Y-96053636D02*
X157159311Y-95958398D01*
X157159311Y-95958398D02*
X157159311Y-95863160D01*
X157159311Y-95863160D02*
X157111692Y-95767922D01*
X157111692Y-95767922D02*
X157064073Y-95720303D01*
X157064073Y-95720303D02*
X156968835Y-95672684D01*
X156968835Y-95672684D02*
X156778359Y-95625065D01*
X156778359Y-95625065D02*
X156683121Y-95577446D01*
X156683121Y-95577446D02*
X156635502Y-95529827D01*
X156635502Y-95529827D02*
X156587883Y-95434589D01*
X156587883Y-95434589D02*
X156587883Y-95339351D01*
X156587883Y-95339351D02*
X156635502Y-95244113D01*
X156635502Y-95244113D02*
X156683121Y-95196494D01*
X156683121Y-95196494D02*
X156778359Y-95148875D01*
X156778359Y-95148875D02*
X157016454Y-95148875D01*
X157016454Y-95148875D02*
X157159311Y-95196494D01*
X157540264Y-95863160D02*
X158016454Y-95863160D01*
X157445026Y-96148875D02*
X157778359Y-95148875D01*
X157778359Y-95148875D02*
X158111692Y-96148875D01*
X158445026Y-95148875D02*
X158445026Y-95958398D01*
X158445026Y-95958398D02*
X158492645Y-96053636D01*
X158492645Y-96053636D02*
X158540264Y-96101256D01*
X158540264Y-96101256D02*
X158635502Y-96148875D01*
X158635502Y-96148875D02*
X158825978Y-96148875D01*
X158825978Y-96148875D02*
X158921216Y-96101256D01*
X158921216Y-96101256D02*
X158968835Y-96053636D01*
X158968835Y-96053636D02*
X159016454Y-95958398D01*
X159016454Y-95958398D02*
X159016454Y-95148875D01*
X159825978Y-95625065D02*
X159968835Y-95672684D01*
X159968835Y-95672684D02*
X160016454Y-95720303D01*
X160016454Y-95720303D02*
X160064073Y-95815541D01*
X160064073Y-95815541D02*
X160064073Y-95958398D01*
X160064073Y-95958398D02*
X160016454Y-96053636D01*
X160016454Y-96053636D02*
X159968835Y-96101256D01*
X159968835Y-96101256D02*
X159873597Y-96148875D01*
X159873597Y-96148875D02*
X159492645Y-96148875D01*
X159492645Y-96148875D02*
X159492645Y-95148875D01*
X159492645Y-95148875D02*
X159825978Y-95148875D01*
X159825978Y-95148875D02*
X159921216Y-95196494D01*
X159921216Y-95196494D02*
X159968835Y-95244113D01*
X159968835Y-95244113D02*
X160016454Y-95339351D01*
X160016454Y-95339351D02*
X160016454Y-95434589D01*
X160016454Y-95434589D02*
X159968835Y-95529827D01*
X159968835Y-95529827D02*
X159921216Y-95577446D01*
X159921216Y-95577446D02*
X159825978Y-95625065D01*
X159825978Y-95625065D02*
X159492645Y-95625065D01*
X160873597Y-96101256D02*
X160778359Y-96148875D01*
X160778359Y-96148875D02*
X160587883Y-96148875D01*
X160587883Y-96148875D02*
X160492645Y-96101256D01*
X160492645Y-96101256D02*
X160445026Y-96006017D01*
X160445026Y-96006017D02*
X160445026Y-95625065D01*
X160445026Y-95625065D02*
X160492645Y-95529827D01*
X160492645Y-95529827D02*
X160587883Y-95482208D01*
X160587883Y-95482208D02*
X160778359Y-95482208D01*
X160778359Y-95482208D02*
X160873597Y-95529827D01*
X160873597Y-95529827D02*
X160921216Y-95625065D01*
X160921216Y-95625065D02*
X160921216Y-95720303D01*
X160921216Y-95720303D02*
X160445026Y-95815541D01*
X161349788Y-96148875D02*
X161349788Y-95482208D01*
X161349788Y-95672684D02*
X161397407Y-95577446D01*
X161397407Y-95577446D02*
X161445026Y-95529827D01*
X161445026Y-95529827D02*
X161540264Y-95482208D01*
X161540264Y-95482208D02*
X161635502Y-95482208D01*
X161968836Y-96148875D02*
X161968836Y-95482208D01*
X161968836Y-95672684D02*
X162016455Y-95577446D01*
X162016455Y-95577446D02*
X162064074Y-95529827D01*
X162064074Y-95529827D02*
X162159312Y-95482208D01*
X162159312Y-95482208D02*
X162254550Y-95482208D01*
X162492646Y-95482208D02*
X162730741Y-96148875D01*
X162968836Y-95482208D02*
X162730741Y-96148875D01*
X162730741Y-96148875D02*
X162635503Y-96386970D01*
X162635503Y-96386970D02*
X162587884Y-96434589D01*
X162587884Y-96434589D02*
X162492646Y-96482208D01*
X163397408Y-96148875D02*
X163587884Y-96148875D01*
X163587884Y-96148875D02*
X163683122Y-96101256D01*
X163683122Y-96101256D02*
X163730741Y-96053636D01*
X163730741Y-96053636D02*
X163825979Y-95910779D01*
X163825979Y-95910779D02*
X163873598Y-95720303D01*
X163873598Y-95720303D02*
X163873598Y-95339351D01*
X163873598Y-95339351D02*
X163825979Y-95244113D01*
X163825979Y-95244113D02*
X163778360Y-95196494D01*
X163778360Y-95196494D02*
X163683122Y-95148875D01*
X163683122Y-95148875D02*
X163492646Y-95148875D01*
X163492646Y-95148875D02*
X163397408Y-95196494D01*
X163397408Y-95196494D02*
X163349789Y-95244113D01*
X163349789Y-95244113D02*
X163302170Y-95339351D01*
X163302170Y-95339351D02*
X163302170Y-95577446D01*
X163302170Y-95577446D02*
X163349789Y-95672684D01*
X163349789Y-95672684D02*
X163397408Y-95720303D01*
X163397408Y-95720303D02*
X163492646Y-95767922D01*
X163492646Y-95767922D02*
X163683122Y-95767922D01*
X163683122Y-95767922D02*
X163778360Y-95720303D01*
X163778360Y-95720303D02*
X163825979Y-95672684D01*
X163825979Y-95672684D02*
X163873598Y-95577446D01*
X146254549Y-96758819D02*
X146445025Y-96758819D01*
X146445025Y-96758819D02*
X146540263Y-96806438D01*
X146540263Y-96806438D02*
X146635501Y-96901676D01*
X146635501Y-96901676D02*
X146683120Y-97092152D01*
X146683120Y-97092152D02*
X146683120Y-97425485D01*
X146683120Y-97425485D02*
X146635501Y-97615961D01*
X146635501Y-97615961D02*
X146540263Y-97711200D01*
X146540263Y-97711200D02*
X146445025Y-97758819D01*
X146445025Y-97758819D02*
X146254549Y-97758819D01*
X146254549Y-97758819D02*
X146159311Y-97711200D01*
X146159311Y-97711200D02*
X146064073Y-97615961D01*
X146064073Y-97615961D02*
X146016454Y-97425485D01*
X146016454Y-97425485D02*
X146016454Y-97092152D01*
X146016454Y-97092152D02*
X146064073Y-96901676D01*
X146064073Y-96901676D02*
X146159311Y-96806438D01*
X146159311Y-96806438D02*
X146254549Y-96758819D01*
X147111692Y-97235009D02*
X147445025Y-97235009D01*
X147587882Y-97758819D02*
X147111692Y-97758819D01*
X147111692Y-97758819D02*
X147111692Y-96758819D01*
X147111692Y-96758819D02*
X147587882Y-96758819D01*
X148064073Y-97758819D02*
X148254549Y-97758819D01*
X148254549Y-97758819D02*
X148349787Y-97711200D01*
X148349787Y-97711200D02*
X148397406Y-97663580D01*
X148397406Y-97663580D02*
X148492644Y-97520723D01*
X148492644Y-97520723D02*
X148540263Y-97330247D01*
X148540263Y-97330247D02*
X148540263Y-96949295D01*
X148540263Y-96949295D02*
X148492644Y-96854057D01*
X148492644Y-96854057D02*
X148445025Y-96806438D01*
X148445025Y-96806438D02*
X148349787Y-96758819D01*
X148349787Y-96758819D02*
X148159311Y-96758819D01*
X148159311Y-96758819D02*
X148064073Y-96806438D01*
X148064073Y-96806438D02*
X148016454Y-96854057D01*
X148016454Y-96854057D02*
X147968835Y-96949295D01*
X147968835Y-96949295D02*
X147968835Y-97187390D01*
X147968835Y-97187390D02*
X148016454Y-97282628D01*
X148016454Y-97282628D02*
X148064073Y-97330247D01*
X148064073Y-97330247D02*
X148159311Y-97377866D01*
X148159311Y-97377866D02*
X148349787Y-97377866D01*
X148349787Y-97377866D02*
X148445025Y-97330247D01*
X148445025Y-97330247D02*
X148492644Y-97282628D01*
X148492644Y-97282628D02*
X148540263Y-97187390D01*
X148921216Y-97711200D02*
X149064073Y-97758819D01*
X149064073Y-97758819D02*
X149302168Y-97758819D01*
X149302168Y-97758819D02*
X149397406Y-97711200D01*
X149397406Y-97711200D02*
X149445025Y-97663580D01*
X149445025Y-97663580D02*
X149492644Y-97568342D01*
X149492644Y-97568342D02*
X149492644Y-97473104D01*
X149492644Y-97473104D02*
X149445025Y-97377866D01*
X149445025Y-97377866D02*
X149397406Y-97330247D01*
X149397406Y-97330247D02*
X149302168Y-97282628D01*
X149302168Y-97282628D02*
X149111692Y-97235009D01*
X149111692Y-97235009D02*
X149016454Y-97187390D01*
X149016454Y-97187390D02*
X148968835Y-97139771D01*
X148968835Y-97139771D02*
X148921216Y-97044533D01*
X148921216Y-97044533D02*
X148921216Y-96949295D01*
X148921216Y-96949295D02*
X148968835Y-96854057D01*
X148968835Y-96854057D02*
X149016454Y-96806438D01*
X149016454Y-96806438D02*
X149111692Y-96758819D01*
X149111692Y-96758819D02*
X149349787Y-96758819D01*
X149349787Y-96758819D02*
X149492644Y-96806438D01*
X149873597Y-97473104D02*
X150349787Y-97473104D01*
X149778359Y-97758819D02*
X150111692Y-96758819D01*
X150111692Y-96758819D02*
X150445025Y-97758819D01*
X150778359Y-96758819D02*
X150778359Y-97568342D01*
X150778359Y-97568342D02*
X150825978Y-97663580D01*
X150825978Y-97663580D02*
X150873597Y-97711200D01*
X150873597Y-97711200D02*
X150968835Y-97758819D01*
X150968835Y-97758819D02*
X151159311Y-97758819D01*
X151159311Y-97758819D02*
X151254549Y-97711200D01*
X151254549Y-97711200D02*
X151302168Y-97663580D01*
X151302168Y-97663580D02*
X151349787Y-97568342D01*
X151349787Y-97568342D02*
X151349787Y-96758819D01*
X153111692Y-97758819D02*
X152540264Y-97758819D01*
X152825978Y-97758819D02*
X152825978Y-96758819D01*
X152825978Y-96758819D02*
X152730740Y-96901676D01*
X152730740Y-96901676D02*
X152635502Y-96996914D01*
X152635502Y-96996914D02*
X152540264Y-97044533D01*
X154064073Y-97758819D02*
X153492645Y-97758819D01*
X153778359Y-97758819D02*
X153778359Y-96758819D01*
X153778359Y-96758819D02*
X153683121Y-96901676D01*
X153683121Y-96901676D02*
X153587883Y-96996914D01*
X153587883Y-96996914D02*
X153492645Y-97044533D01*
X155206930Y-96711200D02*
X154349788Y-97996914D01*
X155492645Y-96854057D02*
X155540264Y-96806438D01*
X155540264Y-96806438D02*
X155635502Y-96758819D01*
X155635502Y-96758819D02*
X155873597Y-96758819D01*
X155873597Y-96758819D02*
X155968835Y-96806438D01*
X155968835Y-96806438D02*
X156016454Y-96854057D01*
X156016454Y-96854057D02*
X156064073Y-96949295D01*
X156064073Y-96949295D02*
X156064073Y-97044533D01*
X156064073Y-97044533D02*
X156016454Y-97187390D01*
X156016454Y-97187390D02*
X155445026Y-97758819D01*
X155445026Y-97758819D02*
X156064073Y-97758819D01*
X156683121Y-96758819D02*
X156778359Y-96758819D01*
X156778359Y-96758819D02*
X156873597Y-96806438D01*
X156873597Y-96806438D02*
X156921216Y-96854057D01*
X156921216Y-96854057D02*
X156968835Y-96949295D01*
X156968835Y-96949295D02*
X157016454Y-97139771D01*
X157016454Y-97139771D02*
X157016454Y-97377866D01*
X157016454Y-97377866D02*
X156968835Y-97568342D01*
X156968835Y-97568342D02*
X156921216Y-97663580D01*
X156921216Y-97663580D02*
X156873597Y-97711200D01*
X156873597Y-97711200D02*
X156778359Y-97758819D01*
X156778359Y-97758819D02*
X156683121Y-97758819D01*
X156683121Y-97758819D02*
X156587883Y-97711200D01*
X156587883Y-97711200D02*
X156540264Y-97663580D01*
X156540264Y-97663580D02*
X156492645Y-97568342D01*
X156492645Y-97568342D02*
X156445026Y-97377866D01*
X156445026Y-97377866D02*
X156445026Y-97139771D01*
X156445026Y-97139771D02*
X156492645Y-96949295D01*
X156492645Y-96949295D02*
X156540264Y-96854057D01*
X156540264Y-96854057D02*
X156587883Y-96806438D01*
X156587883Y-96806438D02*
X156683121Y-96758819D01*
X157397407Y-96854057D02*
X157445026Y-96806438D01*
X157445026Y-96806438D02*
X157540264Y-96758819D01*
X157540264Y-96758819D02*
X157778359Y-96758819D01*
X157778359Y-96758819D02*
X157873597Y-96806438D01*
X157873597Y-96806438D02*
X157921216Y-96854057D01*
X157921216Y-96854057D02*
X157968835Y-96949295D01*
X157968835Y-96949295D02*
X157968835Y-97044533D01*
X157968835Y-97044533D02*
X157921216Y-97187390D01*
X157921216Y-97187390D02*
X157349788Y-97758819D01*
X157349788Y-97758819D02*
X157968835Y-97758819D01*
X158873597Y-96758819D02*
X158397407Y-96758819D01*
X158397407Y-96758819D02*
X158349788Y-97235009D01*
X158349788Y-97235009D02*
X158397407Y-97187390D01*
X158397407Y-97187390D02*
X158492645Y-97139771D01*
X158492645Y-97139771D02*
X158730740Y-97139771D01*
X158730740Y-97139771D02*
X158825978Y-97187390D01*
X158825978Y-97187390D02*
X158873597Y-97235009D01*
X158873597Y-97235009D02*
X158921216Y-97330247D01*
X158921216Y-97330247D02*
X158921216Y-97568342D01*
X158921216Y-97568342D02*
X158873597Y-97663580D01*
X158873597Y-97663580D02*
X158825978Y-97711200D01*
X158825978Y-97711200D02*
X158730740Y-97758819D01*
X158730740Y-97758819D02*
X158492645Y-97758819D01*
X158492645Y-97758819D02*
X158397407Y-97711200D01*
X158397407Y-97711200D02*
X158349788Y-97663580D01*
X160016455Y-97092152D02*
X160254550Y-97758819D01*
X160254550Y-97758819D02*
X160492645Y-97092152D01*
X161397407Y-97758819D02*
X160825979Y-97758819D01*
X161111693Y-97758819D02*
X161111693Y-96758819D01*
X161111693Y-96758819D02*
X161016455Y-96901676D01*
X161016455Y-96901676D02*
X160921217Y-96996914D01*
X160921217Y-96996914D02*
X160825979Y-97044533D01*
X185382933Y-88992231D02*
X185382933Y-87468422D01*
X186144838Y-88230326D02*
X184621028Y-88230326D01*
X185382933Y-84992231D02*
X185382933Y-83468422D01*
X169069673Y-80286266D02*
X169831578Y-80286266D01*
X169450625Y-80667219D02*
X169450625Y-79905314D01*
X171069673Y-80286266D02*
X171831578Y-80286266D01*
X164330326Y-80313733D02*
X163568422Y-80313733D01*
X163949374Y-79932780D02*
X163949374Y-80694685D01*
X162330326Y-80313733D02*
X161568422Y-80313733D01*
D11*
X158664019Y-78133333D02*
X159378304Y-78133333D01*
X159378304Y-78133333D02*
X159521161Y-78180952D01*
X159521161Y-78180952D02*
X159616400Y-78276190D01*
X159616400Y-78276190D02*
X159664019Y-78419047D01*
X159664019Y-78419047D02*
X159664019Y-78514285D01*
X158664019Y-77752380D02*
X158664019Y-77133333D01*
X158664019Y-77133333D02*
X159044971Y-77466666D01*
X159044971Y-77466666D02*
X159044971Y-77323809D01*
X159044971Y-77323809D02*
X159092590Y-77228571D01*
X159092590Y-77228571D02*
X159140209Y-77180952D01*
X159140209Y-77180952D02*
X159235447Y-77133333D01*
X159235447Y-77133333D02*
X159473542Y-77133333D01*
X159473542Y-77133333D02*
X159568780Y-77180952D01*
X159568780Y-77180952D02*
X159616400Y-77228571D01*
X159616400Y-77228571D02*
X159664019Y-77323809D01*
X159664019Y-77323809D02*
X159664019Y-77609523D01*
X159664019Y-77609523D02*
X159616400Y-77704761D01*
X159616400Y-77704761D02*
X159568780Y-77752380D01*
X172195833Y-86754819D02*
X171862500Y-86278628D01*
X171624405Y-86754819D02*
X171624405Y-85754819D01*
X171624405Y-85754819D02*
X172005357Y-85754819D01*
X172005357Y-85754819D02*
X172100595Y-85802438D01*
X172100595Y-85802438D02*
X172148214Y-85850057D01*
X172148214Y-85850057D02*
X172195833Y-85945295D01*
X172195833Y-85945295D02*
X172195833Y-86088152D01*
X172195833Y-86088152D02*
X172148214Y-86183390D01*
X172148214Y-86183390D02*
X172100595Y-86231009D01*
X172100595Y-86231009D02*
X172005357Y-86278628D01*
X172005357Y-86278628D02*
X171624405Y-86278628D01*
X172529167Y-85754819D02*
X173148214Y-85754819D01*
X173148214Y-85754819D02*
X172814881Y-86135771D01*
X172814881Y-86135771D02*
X172957738Y-86135771D01*
X172957738Y-86135771D02*
X173052976Y-86183390D01*
X173052976Y-86183390D02*
X173100595Y-86231009D01*
X173100595Y-86231009D02*
X173148214Y-86326247D01*
X173148214Y-86326247D02*
X173148214Y-86564342D01*
X173148214Y-86564342D02*
X173100595Y-86659580D01*
X173100595Y-86659580D02*
X173052976Y-86707200D01*
X173052976Y-86707200D02*
X172957738Y-86754819D01*
X172957738Y-86754819D02*
X172672024Y-86754819D01*
X172672024Y-86754819D02*
X172576786Y-86707200D01*
X172576786Y-86707200D02*
X172529167Y-86659580D01*
X156331333Y-83354819D02*
X155998000Y-82878628D01*
X155759905Y-83354819D02*
X155759905Y-82354819D01*
X155759905Y-82354819D02*
X156140857Y-82354819D01*
X156140857Y-82354819D02*
X156236095Y-82402438D01*
X156236095Y-82402438D02*
X156283714Y-82450057D01*
X156283714Y-82450057D02*
X156331333Y-82545295D01*
X156331333Y-82545295D02*
X156331333Y-82688152D01*
X156331333Y-82688152D02*
X156283714Y-82783390D01*
X156283714Y-82783390D02*
X156236095Y-82831009D01*
X156236095Y-82831009D02*
X156140857Y-82878628D01*
X156140857Y-82878628D02*
X155759905Y-82878628D01*
X157236095Y-82354819D02*
X156759905Y-82354819D01*
X156759905Y-82354819D02*
X156712286Y-82831009D01*
X156712286Y-82831009D02*
X156759905Y-82783390D01*
X156759905Y-82783390D02*
X156855143Y-82735771D01*
X156855143Y-82735771D02*
X157093238Y-82735771D01*
X157093238Y-82735771D02*
X157188476Y-82783390D01*
X157188476Y-82783390D02*
X157236095Y-82831009D01*
X157236095Y-82831009D02*
X157283714Y-82926247D01*
X157283714Y-82926247D02*
X157283714Y-83164342D01*
X157283714Y-83164342D02*
X157236095Y-83259580D01*
X157236095Y-83259580D02*
X157188476Y-83307200D01*
X157188476Y-83307200D02*
X157093238Y-83354819D01*
X157093238Y-83354819D02*
X156855143Y-83354819D01*
X156855143Y-83354819D02*
X156759905Y-83307200D01*
X156759905Y-83307200D02*
X156712286Y-83259580D01*
X172195833Y-83354819D02*
X171862500Y-82878628D01*
X171624405Y-83354819D02*
X171624405Y-82354819D01*
X171624405Y-82354819D02*
X172005357Y-82354819D01*
X172005357Y-82354819D02*
X172100595Y-82402438D01*
X172100595Y-82402438D02*
X172148214Y-82450057D01*
X172148214Y-82450057D02*
X172195833Y-82545295D01*
X172195833Y-82545295D02*
X172195833Y-82688152D01*
X172195833Y-82688152D02*
X172148214Y-82783390D01*
X172148214Y-82783390D02*
X172100595Y-82831009D01*
X172100595Y-82831009D02*
X172005357Y-82878628D01*
X172005357Y-82878628D02*
X171624405Y-82878628D01*
X172529167Y-82354819D02*
X173195833Y-82354819D01*
X173195833Y-82354819D02*
X172767262Y-83354819D01*
X167220833Y-83354819D02*
X166887500Y-82878628D01*
X166649405Y-83354819D02*
X166649405Y-82354819D01*
X166649405Y-82354819D02*
X167030357Y-82354819D01*
X167030357Y-82354819D02*
X167125595Y-82402438D01*
X167125595Y-82402438D02*
X167173214Y-82450057D01*
X167173214Y-82450057D02*
X167220833Y-82545295D01*
X167220833Y-82545295D02*
X167220833Y-82688152D01*
X167220833Y-82688152D02*
X167173214Y-82783390D01*
X167173214Y-82783390D02*
X167125595Y-82831009D01*
X167125595Y-82831009D02*
X167030357Y-82878628D01*
X167030357Y-82878628D02*
X166649405Y-82878628D01*
X168077976Y-82354819D02*
X167887500Y-82354819D01*
X167887500Y-82354819D02*
X167792262Y-82402438D01*
X167792262Y-82402438D02*
X167744643Y-82450057D01*
X167744643Y-82450057D02*
X167649405Y-82592914D01*
X167649405Y-82592914D02*
X167601786Y-82783390D01*
X167601786Y-82783390D02*
X167601786Y-83164342D01*
X167601786Y-83164342D02*
X167649405Y-83259580D01*
X167649405Y-83259580D02*
X167697024Y-83307200D01*
X167697024Y-83307200D02*
X167792262Y-83354819D01*
X167792262Y-83354819D02*
X167982738Y-83354819D01*
X167982738Y-83354819D02*
X168077976Y-83307200D01*
X168077976Y-83307200D02*
X168125595Y-83259580D01*
X168125595Y-83259580D02*
X168173214Y-83164342D01*
X168173214Y-83164342D02*
X168173214Y-82926247D01*
X168173214Y-82926247D02*
X168125595Y-82831009D01*
X168125595Y-82831009D02*
X168077976Y-82783390D01*
X168077976Y-82783390D02*
X167982738Y-82735771D01*
X167982738Y-82735771D02*
X167792262Y-82735771D01*
X167792262Y-82735771D02*
X167697024Y-82783390D01*
X167697024Y-82783390D02*
X167649405Y-82831009D01*
X167649405Y-82831009D02*
X167601786Y-82926247D01*
X167433333Y-86754819D02*
X167100000Y-86278628D01*
X166861905Y-86754819D02*
X166861905Y-85754819D01*
X166861905Y-85754819D02*
X167242857Y-85754819D01*
X167242857Y-85754819D02*
X167338095Y-85802438D01*
X167338095Y-85802438D02*
X167385714Y-85850057D01*
X167385714Y-85850057D02*
X167433333Y-85945295D01*
X167433333Y-85945295D02*
X167433333Y-86088152D01*
X167433333Y-86088152D02*
X167385714Y-86183390D01*
X167385714Y-86183390D02*
X167338095Y-86231009D01*
X167338095Y-86231009D02*
X167242857Y-86278628D01*
X167242857Y-86278628D02*
X166861905Y-86278628D01*
X168290476Y-86088152D02*
X168290476Y-86754819D01*
X168052381Y-85707200D02*
X167814286Y-86421485D01*
X167814286Y-86421485D02*
X168433333Y-86421485D01*
X158904761Y-91450057D02*
X158809523Y-91402438D01*
X158809523Y-91402438D02*
X158714285Y-91307200D01*
X158714285Y-91307200D02*
X158571428Y-91164342D01*
X158571428Y-91164342D02*
X158476190Y-91116723D01*
X158476190Y-91116723D02*
X158380952Y-91116723D01*
X158428571Y-91354819D02*
X158333333Y-91307200D01*
X158333333Y-91307200D02*
X158238095Y-91211961D01*
X158238095Y-91211961D02*
X158190476Y-91021485D01*
X158190476Y-91021485D02*
X158190476Y-90688152D01*
X158190476Y-90688152D02*
X158238095Y-90497676D01*
X158238095Y-90497676D02*
X158333333Y-90402438D01*
X158333333Y-90402438D02*
X158428571Y-90354819D01*
X158428571Y-90354819D02*
X158619047Y-90354819D01*
X158619047Y-90354819D02*
X158714285Y-90402438D01*
X158714285Y-90402438D02*
X158809523Y-90497676D01*
X158809523Y-90497676D02*
X158857142Y-90688152D01*
X158857142Y-90688152D02*
X158857142Y-91021485D01*
X158857142Y-91021485D02*
X158809523Y-91211961D01*
X158809523Y-91211961D02*
X158714285Y-91307200D01*
X158714285Y-91307200D02*
X158619047Y-91354819D01*
X158619047Y-91354819D02*
X158428571Y-91354819D01*
X159809523Y-91354819D02*
X159238095Y-91354819D01*
X159523809Y-91354819D02*
X159523809Y-90354819D01*
X159523809Y-90354819D02*
X159428571Y-90497676D01*
X159428571Y-90497676D02*
X159333333Y-90592914D01*
X159333333Y-90592914D02*
X159238095Y-90640533D01*
X172504761Y-90850057D02*
X172409523Y-90802438D01*
X172409523Y-90802438D02*
X172314285Y-90707200D01*
X172314285Y-90707200D02*
X172171428Y-90564342D01*
X172171428Y-90564342D02*
X172076190Y-90516723D01*
X172076190Y-90516723D02*
X171980952Y-90516723D01*
X172028571Y-90754819D02*
X171933333Y-90707200D01*
X171933333Y-90707200D02*
X171838095Y-90611961D01*
X171838095Y-90611961D02*
X171790476Y-90421485D01*
X171790476Y-90421485D02*
X171790476Y-90088152D01*
X171790476Y-90088152D02*
X171838095Y-89897676D01*
X171838095Y-89897676D02*
X171933333Y-89802438D01*
X171933333Y-89802438D02*
X172028571Y-89754819D01*
X172028571Y-89754819D02*
X172219047Y-89754819D01*
X172219047Y-89754819D02*
X172314285Y-89802438D01*
X172314285Y-89802438D02*
X172409523Y-89897676D01*
X172409523Y-89897676D02*
X172457142Y-90088152D01*
X172457142Y-90088152D02*
X172457142Y-90421485D01*
X172457142Y-90421485D02*
X172409523Y-90611961D01*
X172409523Y-90611961D02*
X172314285Y-90707200D01*
X172314285Y-90707200D02*
X172219047Y-90754819D01*
X172219047Y-90754819D02*
X172028571Y-90754819D01*
X173314285Y-90088152D02*
X173314285Y-90754819D01*
X173076190Y-89707200D02*
X172838095Y-90421485D01*
X172838095Y-90421485D02*
X173457142Y-90421485D01*
X161861905Y-82854819D02*
X161861905Y-81854819D01*
X161861905Y-81854819D02*
X162100000Y-81854819D01*
X162100000Y-81854819D02*
X162242857Y-81902438D01*
X162242857Y-81902438D02*
X162338095Y-81997676D01*
X162338095Y-81997676D02*
X162385714Y-82092914D01*
X162385714Y-82092914D02*
X162433333Y-82283390D01*
X162433333Y-82283390D02*
X162433333Y-82426247D01*
X162433333Y-82426247D02*
X162385714Y-82616723D01*
X162385714Y-82616723D02*
X162338095Y-82711961D01*
X162338095Y-82711961D02*
X162242857Y-82807200D01*
X162242857Y-82807200D02*
X162100000Y-82854819D01*
X162100000Y-82854819D02*
X161861905Y-82854819D01*
X163385714Y-82854819D02*
X162814286Y-82854819D01*
X163100000Y-82854819D02*
X163100000Y-81854819D01*
X163100000Y-81854819D02*
X163004762Y-81997676D01*
X163004762Y-81997676D02*
X162909524Y-82092914D01*
X162909524Y-82092914D02*
X162814286Y-82140533D01*
X151183333Y-86559580D02*
X151135714Y-86607200D01*
X151135714Y-86607200D02*
X150992857Y-86654819D01*
X150992857Y-86654819D02*
X150897619Y-86654819D01*
X150897619Y-86654819D02*
X150754762Y-86607200D01*
X150754762Y-86607200D02*
X150659524Y-86511961D01*
X150659524Y-86511961D02*
X150611905Y-86416723D01*
X150611905Y-86416723D02*
X150564286Y-86226247D01*
X150564286Y-86226247D02*
X150564286Y-86083390D01*
X150564286Y-86083390D02*
X150611905Y-85892914D01*
X150611905Y-85892914D02*
X150659524Y-85797676D01*
X150659524Y-85797676D02*
X150754762Y-85702438D01*
X150754762Y-85702438D02*
X150897619Y-85654819D01*
X150897619Y-85654819D02*
X150992857Y-85654819D01*
X150992857Y-85654819D02*
X151135714Y-85702438D01*
X151135714Y-85702438D02*
X151183333Y-85750057D01*
X152135714Y-86654819D02*
X151564286Y-86654819D01*
X151850000Y-86654819D02*
X151850000Y-85654819D01*
X151850000Y-85654819D02*
X151754762Y-85797676D01*
X151754762Y-85797676D02*
X151659524Y-85892914D01*
X151659524Y-85892914D02*
X151564286Y-85940533D01*
X164204761Y-87650057D02*
X164109523Y-87602438D01*
X164109523Y-87602438D02*
X164014285Y-87507200D01*
X164014285Y-87507200D02*
X163871428Y-87364342D01*
X163871428Y-87364342D02*
X163776190Y-87316723D01*
X163776190Y-87316723D02*
X163680952Y-87316723D01*
X163728571Y-87554819D02*
X163633333Y-87507200D01*
X163633333Y-87507200D02*
X163538095Y-87411961D01*
X163538095Y-87411961D02*
X163490476Y-87221485D01*
X163490476Y-87221485D02*
X163490476Y-86888152D01*
X163490476Y-86888152D02*
X163538095Y-86697676D01*
X163538095Y-86697676D02*
X163633333Y-86602438D01*
X163633333Y-86602438D02*
X163728571Y-86554819D01*
X163728571Y-86554819D02*
X163919047Y-86554819D01*
X163919047Y-86554819D02*
X164014285Y-86602438D01*
X164014285Y-86602438D02*
X164109523Y-86697676D01*
X164109523Y-86697676D02*
X164157142Y-86888152D01*
X164157142Y-86888152D02*
X164157142Y-87221485D01*
X164157142Y-87221485D02*
X164109523Y-87411961D01*
X164109523Y-87411961D02*
X164014285Y-87507200D01*
X164014285Y-87507200D02*
X163919047Y-87554819D01*
X163919047Y-87554819D02*
X163728571Y-87554819D01*
X164490476Y-86554819D02*
X165109523Y-86554819D01*
X165109523Y-86554819D02*
X164776190Y-86935771D01*
X164776190Y-86935771D02*
X164919047Y-86935771D01*
X164919047Y-86935771D02*
X165014285Y-86983390D01*
X165014285Y-86983390D02*
X165061904Y-87031009D01*
X165061904Y-87031009D02*
X165109523Y-87126247D01*
X165109523Y-87126247D02*
X165109523Y-87364342D01*
X165109523Y-87364342D02*
X165061904Y-87459580D01*
X165061904Y-87459580D02*
X165014285Y-87507200D01*
X165014285Y-87507200D02*
X164919047Y-87554819D01*
X164919047Y-87554819D02*
X164633333Y-87554819D01*
X164633333Y-87554819D02*
X164538095Y-87507200D01*
X164538095Y-87507200D02*
X164490476Y-87459580D01*
X164304761Y-91450057D02*
X164209523Y-91402438D01*
X164209523Y-91402438D02*
X164114285Y-91307200D01*
X164114285Y-91307200D02*
X163971428Y-91164342D01*
X163971428Y-91164342D02*
X163876190Y-91116723D01*
X163876190Y-91116723D02*
X163780952Y-91116723D01*
X163828571Y-91354819D02*
X163733333Y-91307200D01*
X163733333Y-91307200D02*
X163638095Y-91211961D01*
X163638095Y-91211961D02*
X163590476Y-91021485D01*
X163590476Y-91021485D02*
X163590476Y-90688152D01*
X163590476Y-90688152D02*
X163638095Y-90497676D01*
X163638095Y-90497676D02*
X163733333Y-90402438D01*
X163733333Y-90402438D02*
X163828571Y-90354819D01*
X163828571Y-90354819D02*
X164019047Y-90354819D01*
X164019047Y-90354819D02*
X164114285Y-90402438D01*
X164114285Y-90402438D02*
X164209523Y-90497676D01*
X164209523Y-90497676D02*
X164257142Y-90688152D01*
X164257142Y-90688152D02*
X164257142Y-91021485D01*
X164257142Y-91021485D02*
X164209523Y-91211961D01*
X164209523Y-91211961D02*
X164114285Y-91307200D01*
X164114285Y-91307200D02*
X164019047Y-91354819D01*
X164019047Y-91354819D02*
X163828571Y-91354819D01*
X164638095Y-90450057D02*
X164685714Y-90402438D01*
X164685714Y-90402438D02*
X164780952Y-90354819D01*
X164780952Y-90354819D02*
X165019047Y-90354819D01*
X165019047Y-90354819D02*
X165114285Y-90402438D01*
X165114285Y-90402438D02*
X165161904Y-90450057D01*
X165161904Y-90450057D02*
X165209523Y-90545295D01*
X165209523Y-90545295D02*
X165209523Y-90640533D01*
X165209523Y-90640533D02*
X165161904Y-90783390D01*
X165161904Y-90783390D02*
X164590476Y-91354819D01*
X164590476Y-91354819D02*
X165209523Y-91354819D01*
X176254819Y-87800000D02*
X176254819Y-88276190D01*
X176254819Y-88276190D02*
X176731009Y-88323809D01*
X176731009Y-88323809D02*
X176683390Y-88276190D01*
X176683390Y-88276190D02*
X176635771Y-88180952D01*
X176635771Y-88180952D02*
X176635771Y-87942857D01*
X176635771Y-87942857D02*
X176683390Y-87847619D01*
X176683390Y-87847619D02*
X176731009Y-87800000D01*
X176731009Y-87800000D02*
X176826247Y-87752381D01*
X176826247Y-87752381D02*
X177064342Y-87752381D01*
X177064342Y-87752381D02*
X177159580Y-87800000D01*
X177159580Y-87800000D02*
X177207200Y-87847619D01*
X177207200Y-87847619D02*
X177254819Y-87942857D01*
X177254819Y-87942857D02*
X177254819Y-88180952D01*
X177254819Y-88180952D02*
X177207200Y-88276190D01*
X177207200Y-88276190D02*
X177159580Y-88323809D01*
X176254819Y-87466666D02*
X177254819Y-87133333D01*
X177254819Y-87133333D02*
X176254819Y-86800000D01*
X176254819Y-85514285D02*
X176254819Y-85323809D01*
X176254819Y-85323809D02*
X176302438Y-85228571D01*
X176302438Y-85228571D02*
X176397676Y-85133333D01*
X176397676Y-85133333D02*
X176588152Y-85085714D01*
X176588152Y-85085714D02*
X176921485Y-85085714D01*
X176921485Y-85085714D02*
X177111961Y-85133333D01*
X177111961Y-85133333D02*
X177207200Y-85228571D01*
X177207200Y-85228571D02*
X177254819Y-85323809D01*
X177254819Y-85323809D02*
X177254819Y-85514285D01*
X177254819Y-85514285D02*
X177207200Y-85609523D01*
X177207200Y-85609523D02*
X177111961Y-85704761D01*
X177111961Y-85704761D02*
X176921485Y-85752380D01*
X176921485Y-85752380D02*
X176588152Y-85752380D01*
X176588152Y-85752380D02*
X176397676Y-85704761D01*
X176397676Y-85704761D02*
X176302438Y-85609523D01*
X176302438Y-85609523D02*
X176254819Y-85514285D01*
X176254819Y-84657142D02*
X177064342Y-84657142D01*
X177064342Y-84657142D02*
X177159580Y-84609523D01*
X177159580Y-84609523D02*
X177207200Y-84561904D01*
X177207200Y-84561904D02*
X177254819Y-84466666D01*
X177254819Y-84466666D02*
X177254819Y-84276190D01*
X177254819Y-84276190D02*
X177207200Y-84180952D01*
X177207200Y-84180952D02*
X177159580Y-84133333D01*
X177159580Y-84133333D02*
X177064342Y-84085714D01*
X177064342Y-84085714D02*
X176254819Y-84085714D01*
X176254819Y-83752380D02*
X176254819Y-83180952D01*
X177254819Y-83466666D02*
X176254819Y-83466666D01*
X148504019Y-78133333D02*
X149218304Y-78133333D01*
X149218304Y-78133333D02*
X149361161Y-78180952D01*
X149361161Y-78180952D02*
X149456400Y-78276190D01*
X149456400Y-78276190D02*
X149504019Y-78419047D01*
X149504019Y-78419047D02*
X149504019Y-78514285D01*
X149504019Y-77133333D02*
X149504019Y-77704761D01*
X149504019Y-77419047D02*
X148504019Y-77419047D01*
X148504019Y-77419047D02*
X148646876Y-77514285D01*
X148646876Y-77514285D02*
X148742114Y-77609523D01*
X148742114Y-77609523D02*
X148789733Y-77704761D01*
X166334819Y-78133333D02*
X167049104Y-78133333D01*
X167049104Y-78133333D02*
X167191961Y-78180952D01*
X167191961Y-78180952D02*
X167287200Y-78276190D01*
X167287200Y-78276190D02*
X167334819Y-78419047D01*
X167334819Y-78419047D02*
X167334819Y-78514285D01*
X166334819Y-77180952D02*
X166334819Y-77657142D01*
X166334819Y-77657142D02*
X166811009Y-77704761D01*
X166811009Y-77704761D02*
X166763390Y-77657142D01*
X166763390Y-77657142D02*
X166715771Y-77561904D01*
X166715771Y-77561904D02*
X166715771Y-77323809D01*
X166715771Y-77323809D02*
X166763390Y-77228571D01*
X166763390Y-77228571D02*
X166811009Y-77180952D01*
X166811009Y-77180952D02*
X166906247Y-77133333D01*
X166906247Y-77133333D02*
X167144342Y-77133333D01*
X167144342Y-77133333D02*
X167239580Y-77180952D01*
X167239580Y-77180952D02*
X167287200Y-77228571D01*
X167287200Y-77228571D02*
X167334819Y-77323809D01*
X167334819Y-77323809D02*
X167334819Y-77561904D01*
X167334819Y-77561904D02*
X167287200Y-77657142D01*
X167287200Y-77657142D02*
X167239580Y-77704761D01*
X151404761Y-81550057D02*
X151309523Y-81502438D01*
X151309523Y-81502438D02*
X151214285Y-81407200D01*
X151214285Y-81407200D02*
X151071428Y-81264342D01*
X151071428Y-81264342D02*
X150976190Y-81216723D01*
X150976190Y-81216723D02*
X150880952Y-81216723D01*
X150928571Y-81454819D02*
X150833333Y-81407200D01*
X150833333Y-81407200D02*
X150738095Y-81311961D01*
X150738095Y-81311961D02*
X150690476Y-81121485D01*
X150690476Y-81121485D02*
X150690476Y-80788152D01*
X150690476Y-80788152D02*
X150738095Y-80597676D01*
X150738095Y-80597676D02*
X150833333Y-80502438D01*
X150833333Y-80502438D02*
X150928571Y-80454819D01*
X150928571Y-80454819D02*
X151119047Y-80454819D01*
X151119047Y-80454819D02*
X151214285Y-80502438D01*
X151214285Y-80502438D02*
X151309523Y-80597676D01*
X151309523Y-80597676D02*
X151357142Y-80788152D01*
X151357142Y-80788152D02*
X151357142Y-81121485D01*
X151357142Y-81121485D02*
X151309523Y-81311961D01*
X151309523Y-81311961D02*
X151214285Y-81407200D01*
X151214285Y-81407200D02*
X151119047Y-81454819D01*
X151119047Y-81454819D02*
X150928571Y-81454819D01*
X152261904Y-80454819D02*
X151785714Y-80454819D01*
X151785714Y-80454819D02*
X151738095Y-80931009D01*
X151738095Y-80931009D02*
X151785714Y-80883390D01*
X151785714Y-80883390D02*
X151880952Y-80835771D01*
X151880952Y-80835771D02*
X152119047Y-80835771D01*
X152119047Y-80835771D02*
X152214285Y-80883390D01*
X152214285Y-80883390D02*
X152261904Y-80931009D01*
X152261904Y-80931009D02*
X152309523Y-81026247D01*
X152309523Y-81026247D02*
X152309523Y-81264342D01*
X152309523Y-81264342D02*
X152261904Y-81359580D01*
X152261904Y-81359580D02*
X152214285Y-81407200D01*
X152214285Y-81407200D02*
X152119047Y-81454819D01*
X152119047Y-81454819D02*
X151880952Y-81454819D01*
X151880952Y-81454819D02*
X151785714Y-81407200D01*
X151785714Y-81407200D02*
X151738095Y-81359580D01*
X151115733Y-90054819D02*
X150782400Y-89578628D01*
X150544305Y-90054819D02*
X150544305Y-89054819D01*
X150544305Y-89054819D02*
X150925257Y-89054819D01*
X150925257Y-89054819D02*
X151020495Y-89102438D01*
X151020495Y-89102438D02*
X151068114Y-89150057D01*
X151068114Y-89150057D02*
X151115733Y-89245295D01*
X151115733Y-89245295D02*
X151115733Y-89388152D01*
X151115733Y-89388152D02*
X151068114Y-89483390D01*
X151068114Y-89483390D02*
X151020495Y-89531009D01*
X151020495Y-89531009D02*
X150925257Y-89578628D01*
X150925257Y-89578628D02*
X150544305Y-89578628D01*
X151496686Y-89150057D02*
X151544305Y-89102438D01*
X151544305Y-89102438D02*
X151639543Y-89054819D01*
X151639543Y-89054819D02*
X151877638Y-89054819D01*
X151877638Y-89054819D02*
X151972876Y-89102438D01*
X151972876Y-89102438D02*
X152020495Y-89150057D01*
X152020495Y-89150057D02*
X152068114Y-89245295D01*
X152068114Y-89245295D02*
X152068114Y-89340533D01*
X152068114Y-89340533D02*
X152020495Y-89483390D01*
X152020495Y-89483390D02*
X151449067Y-90054819D01*
X151449067Y-90054819D02*
X152068114Y-90054819D01*
X156554833Y-86754819D02*
X156221500Y-86278628D01*
X155983405Y-86754819D02*
X155983405Y-85754819D01*
X155983405Y-85754819D02*
X156364357Y-85754819D01*
X156364357Y-85754819D02*
X156459595Y-85802438D01*
X156459595Y-85802438D02*
X156507214Y-85850057D01*
X156507214Y-85850057D02*
X156554833Y-85945295D01*
X156554833Y-85945295D02*
X156554833Y-86088152D01*
X156554833Y-86088152D02*
X156507214Y-86183390D01*
X156507214Y-86183390D02*
X156459595Y-86231009D01*
X156459595Y-86231009D02*
X156364357Y-86278628D01*
X156364357Y-86278628D02*
X155983405Y-86278628D01*
X157507214Y-86754819D02*
X156935786Y-86754819D01*
X157221500Y-86754819D02*
X157221500Y-85754819D01*
X157221500Y-85754819D02*
X157126262Y-85897676D01*
X157126262Y-85897676D02*
X157031024Y-85992914D01*
X157031024Y-85992914D02*
X156935786Y-86040533D01*
D12*
%TO.C,J3*%
X160209200Y-79180000D02*
X160209200Y-77800000D01*
X161589200Y-79180000D02*
X160209200Y-79180000D01*
X162859200Y-76420000D02*
X165509200Y-76420000D01*
X162859200Y-79180000D02*
X162859200Y-76420000D01*
X162859200Y-79180000D02*
X165509200Y-79180000D01*
X165509200Y-79180000D02*
X165509200Y-76420000D01*
%TO.C,R3*%
X172234836Y-87065000D02*
X172688964Y-87065000D01*
X172234836Y-88535000D02*
X172688964Y-88535000D01*
%TO.C,R5*%
X156285436Y-83713000D02*
X156739564Y-83713000D01*
X156285436Y-85183000D02*
X156739564Y-85183000D01*
%TO.C,R7*%
X172135436Y-83715000D02*
X172589564Y-83715000D01*
X172135436Y-85185000D02*
X172589564Y-85185000D01*
%TO.C,R6*%
X167160436Y-83713000D02*
X167614564Y-83713000D01*
X167160436Y-85183000D02*
X167614564Y-85183000D01*
%TO.C,R4*%
X167412636Y-87065000D02*
X167866764Y-87065000D01*
X167412636Y-88535000D02*
X167866764Y-88535000D01*
%TO.C,Q1*%
X156999700Y-90606400D02*
X156349700Y-90606400D01*
X156999700Y-90606400D02*
X157649700Y-90606400D01*
X156999700Y-93726400D02*
X156349700Y-93726400D01*
X156999700Y-93726400D02*
X157649700Y-93726400D01*
X155837200Y-90656400D02*
X155597200Y-90326400D01*
X156077200Y-90326400D01*
X155837200Y-90656400D01*
G36*
X155837200Y-90656400D02*
G01*
X155597200Y-90326400D01*
X156077200Y-90326400D01*
X155837200Y-90656400D01*
G37*
D13*
%TO.C,Q4*%
X169331000Y-91109400D02*
X175325400Y-91109800D01*
X169331000Y-97663400D02*
X169331000Y-91109400D01*
X175325400Y-97663000D02*
X169331000Y-97663400D01*
D14*
X169229400Y-94818200D02*
X168467400Y-94818200D01*
X168467400Y-93954600D01*
X169229400Y-93954600D01*
X169229400Y-94818200D01*
G36*
X169229400Y-94818200D02*
G01*
X168467400Y-94818200D01*
X168467400Y-93954600D01*
X169229400Y-93954600D01*
X169229400Y-94818200D01*
G37*
D12*
%TO.C,D1*%
X160820000Y-83188000D02*
X162230000Y-83188000D01*
X160820000Y-85508000D02*
X162230000Y-85508000D01*
X162230000Y-83188000D02*
X162230000Y-83848000D01*
X162230000Y-84848000D02*
X162230000Y-85508000D01*
X160450000Y-83208000D02*
X160210000Y-82878000D01*
X160690000Y-82878000D01*
X160450000Y-83208000D01*
G36*
X160450000Y-83208000D02*
G01*
X160210000Y-82878000D01*
X160690000Y-82878000D01*
X160450000Y-83208000D01*
G37*
%TO.C,C1*%
X151611252Y-87065000D02*
X151088748Y-87065000D01*
X151611252Y-88535000D02*
X151088748Y-88535000D01*
%TO.C,Q3*%
X162381500Y-86834400D02*
X161731500Y-86834400D01*
X162381500Y-86834400D02*
X163031500Y-86834400D01*
X162381500Y-89954400D02*
X161731500Y-89954400D01*
X162381500Y-89954400D02*
X163031500Y-89954400D01*
X161219000Y-86884400D02*
X160979000Y-86554400D01*
X161459000Y-86554400D01*
X161219000Y-86884400D01*
G36*
X161219000Y-86884400D02*
G01*
X160979000Y-86554400D01*
X161459000Y-86554400D01*
X161219000Y-86884400D01*
G37*
%TO.C,J4*%
X138790000Y-82340000D02*
X138790000Y-89960000D01*
X138790000Y-89960000D02*
X144760000Y-89960000D01*
X139550000Y-86150000D02*
X139550000Y-84160000D01*
X139550000Y-89200000D02*
X139550000Y-86150000D01*
X142500000Y-82350000D02*
X142500000Y-83100000D01*
X142500000Y-83100000D02*
X141160000Y-83100000D01*
X142500000Y-89200000D02*
X139550000Y-89200000D01*
X142500000Y-89950000D02*
X142500000Y-89200000D01*
X144000000Y-82350000D02*
X144000000Y-84150000D01*
X144000000Y-84150000D02*
X144750000Y-84150000D01*
X144000000Y-85650000D02*
X144000000Y-86650000D01*
X144000000Y-86650000D02*
X144750000Y-86650000D01*
X144000000Y-88150000D02*
X144000000Y-89950000D01*
X144000000Y-89950000D02*
X144750000Y-89950000D01*
X144750000Y-82350000D02*
X144000000Y-82350000D01*
X144750000Y-84150000D02*
X144750000Y-82350000D01*
X144750000Y-85650000D02*
X144000000Y-85650000D01*
X144750000Y-86650000D02*
X144750000Y-85650000D01*
X144750000Y-88150000D02*
X144000000Y-88150000D01*
X144750000Y-89950000D02*
X144750000Y-88150000D01*
X144760000Y-82340000D02*
X138790000Y-82340000D01*
X144760000Y-89960000D02*
X144760000Y-82340000D01*
X145050000Y-82050000D02*
X143800000Y-82050000D01*
X145050000Y-83300000D02*
X145050000Y-82050000D01*
%TO.C,Q2*%
X162435300Y-90591200D02*
X161785300Y-90591200D01*
X162435300Y-90591200D02*
X163085300Y-90591200D01*
X162435300Y-93711200D02*
X161785300Y-93711200D01*
X162435300Y-93711200D02*
X163085300Y-93711200D01*
X161272800Y-90641200D02*
X161032800Y-90311200D01*
X161512800Y-90311200D01*
X161272800Y-90641200D01*
G36*
X161272800Y-90641200D02*
G01*
X161032800Y-90311200D01*
X161512800Y-90311200D01*
X161272800Y-90641200D01*
G37*
%TO.C,J2*%
X178190000Y-82440000D02*
X178190000Y-90060000D01*
X178190000Y-90060000D02*
X184160000Y-90060000D01*
X178950000Y-86250000D02*
X178950000Y-84260000D01*
X178950000Y-89300000D02*
X178950000Y-86250000D01*
X181900000Y-82450000D02*
X181900000Y-83200000D01*
X181900000Y-83200000D02*
X180560000Y-83200000D01*
X181900000Y-89300000D02*
X178950000Y-89300000D01*
X181900000Y-90050000D02*
X181900000Y-89300000D01*
X183400000Y-82450000D02*
X183400000Y-84250000D01*
X183400000Y-84250000D02*
X184150000Y-84250000D01*
X183400000Y-85750000D02*
X183400000Y-86750000D01*
X183400000Y-86750000D02*
X184150000Y-86750000D01*
X183400000Y-88250000D02*
X183400000Y-90050000D01*
X183400000Y-90050000D02*
X184150000Y-90050000D01*
X184150000Y-82450000D02*
X183400000Y-82450000D01*
X184150000Y-84250000D02*
X184150000Y-82450000D01*
X184150000Y-85750000D02*
X183400000Y-85750000D01*
X184150000Y-86750000D02*
X184150000Y-85750000D01*
X184150000Y-88250000D02*
X183400000Y-88250000D01*
X184150000Y-90050000D02*
X184150000Y-88250000D01*
X184160000Y-82440000D02*
X178190000Y-82440000D01*
X184160000Y-90060000D02*
X184160000Y-82440000D01*
X184450000Y-82150000D02*
X183200000Y-82150000D01*
X184450000Y-83400000D02*
X184450000Y-82150000D01*
%TO.C,J1*%
X150049200Y-79180000D02*
X150049200Y-77800000D01*
X151429200Y-79180000D02*
X150049200Y-79180000D01*
X152699200Y-76420000D02*
X157889200Y-76420000D01*
X152699200Y-79180000D02*
X152699200Y-76420000D01*
X152699200Y-79180000D02*
X157889200Y-79180000D01*
X157889200Y-79180000D02*
X157889200Y-76420000D01*
%TO.C,J5*%
X167880000Y-79180000D02*
X167880000Y-77800000D01*
X169260000Y-79180000D02*
X167880000Y-79180000D01*
X170530000Y-76420000D02*
X173180000Y-76420000D01*
X170530000Y-79180000D02*
X170530000Y-76420000D01*
X170530000Y-79180000D02*
X173180000Y-79180000D01*
X173180000Y-79180000D02*
X173180000Y-76420000D01*
%TO.C,Q5*%
X150962500Y-81940000D02*
X150312500Y-81940000D01*
X150962500Y-81940000D02*
X151612500Y-81940000D01*
X150962500Y-85060000D02*
X150312500Y-85060000D01*
X150962500Y-85060000D02*
X151612500Y-85060000D01*
X152365000Y-85340000D02*
X151885000Y-85340000D01*
X152125000Y-85010000D01*
X152365000Y-85340000D01*
G36*
X152365000Y-85340000D02*
G01*
X151885000Y-85340000D01*
X152125000Y-85010000D01*
X152365000Y-85340000D01*
G37*
%TO.C,R2*%
X151055336Y-90451000D02*
X151509464Y-90451000D01*
X151055336Y-91921000D02*
X151509464Y-91921000D01*
%TO.C,R1*%
X156494436Y-87065000D02*
X156948564Y-87065000D01*
X156494436Y-88535000D02*
X156948564Y-88535000D01*
%TD*%
M02*
