M48
; DRILL file {KiCad 9.0.4} date 2025-09-23T14:36:13+0200
; FORMAT={-:-/ absolute / inch / decimal}
; #@! TF.CreationDate,2025-09-23T14:36:13+02:00
; #@! TF.GenerationSoftware,Kicad,Pcbnew,9.0.4
; #@! TF.FileFunction,Plated,1,2,PTH
FMAT,2
INCH
; #@! TA.AperFunction,Plated,PTH,ComponentDrill
T1C0.0276
; #@! TA.AperFunction,Plated,PTH,ComponentDrill
T2C0.0295
; #@! TA.AperFunction,Plated,PTH,ComponentDrill
T3C0.0315
; #@! TA.AperFunction,Plated,PTH,ComponentDrill
T4C0.0394
; #@! TA.AperFunction,Plated,PTH,ComponentDrill
T5C0.0437
; #@! TA.AperFunction,Plated,PTH,ViaDrill
T6C0.0472
; #@! TA.AperFunction,Plated,PTH,ComponentDrill
T7C0.0520
; #@! TA.AperFunction,Plated,PTH,ComponentDrill
T8C0.1200
%
G90
G05
T1
X4.4Y-4.05
X4.4Y-4.15
X4.7Y-4.05
X4.7Y-4.15
X4.8Y-3.25
X4.8Y-3.55
X4.9Y-3.25
X4.9Y-3.55
X5.15Y-3.15
X5.15Y-3.45
X5.5Y-3.05
X5.5Y-3.35
T2
X4.35Y-3.0
X4.35Y-3.05
X4.35Y-3.1
X4.35Y-3.25
X4.35Y-3.3
X4.35Y-3.35
X4.7Y-3.1
X4.7Y-3.15
X4.7Y-3.2
X5.0Y-3.1
X5.0Y-3.15
X5.0Y-3.2
X5.3Y-3.05
X5.3Y-3.1
X5.3Y-3.15
X5.6Y-2.9
X5.6Y-2.95
X5.6Y-3.0
T3
X5.8Y-2.95
X5.8Y-3.05
X5.8Y-3.15
X5.8Y-3.25
X5.8Y-3.35
X5.8Y-3.45
X5.8Y-3.55
X5.8Y-3.65
X5.8Y-3.75
X5.8Y-3.85
X5.8Y-3.95
X5.8Y-4.05
X5.8Y-4.15
X5.8Y-4.25
X5.8Y-4.35
X6.4Y-2.95
X6.4Y-3.05
X6.4Y-3.15
X6.4Y-3.25
X6.4Y-3.35
X6.4Y-3.45
X6.4Y-3.55
X6.4Y-3.65
X6.4Y-3.75
X6.4Y-3.85
X6.4Y-3.95
X6.4Y-4.05
X6.4Y-4.15
X6.4Y-4.25
X6.4Y-4.35
T4
X4.15Y-2.8
X4.25Y-2.8
X4.35Y-2.8
X4.35Y-3.9
X4.45Y-2.8
X4.45Y-3.9
X4.55Y-2.8
X4.55Y-3.9
X4.65Y-2.8
X4.65Y-3.9
X4.75Y-3.9
X4.8Y-2.9
X4.85Y-3.9
X4.9Y-2.9
X5.0Y-2.9
X5.1Y-2.9
X5.2Y-2.9
X5.2Y-4.05
X5.2Y-4.15
X5.2Y-4.25
X5.2Y-4.35
X5.2Y-4.45
X5.2Y-4.55
X5.3Y-2.9
X5.6Y-4.05
X5.6Y-4.15
X5.6Y-4.25
X5.6Y-4.35
X5.6Y-4.45
X5.6Y-4.55
X6.6Y-3.75
X6.6Y-3.85
X6.6Y-3.95
X6.6Y-4.05
X6.6Y-4.15
X6.6Y-4.25
X7.35Y-2.9
X7.35Y-3.0
X7.35Y-3.1
X7.35Y-3.2
X7.35Y-3.3
X7.35Y-3.4
T5
X6.7Y-2.9
X6.7Y-3.0
X6.7Y-3.1
X6.7Y-3.2
X6.7Y-3.3
X6.7Y-3.4
X7.1Y-2.9
X7.1Y-3.0
X7.1Y-3.1
X7.1Y-3.2
X7.1Y-3.3
X7.1Y-3.4
T6
X4.25Y-2.9
X4.25Y-3.2
X5.95Y-3.95
X5.9591Y-2.8909
X6.85Y-4.35
X7.35Y-4.35
T7
X4.3Y-4.3
X4.3Y-4.4969
X4.3Y-4.6937
X7.8Y-3.4063
X7.8Y-3.6031
X7.8Y-3.8
X7.8Y-4.0563
X7.8Y-4.2531
X7.8Y-4.45
T8
X4.9173Y-4.6807
X7.9594Y-4.6795
X7.9606Y-2.798
M30
