G04 #@! TF.GenerationSoftware,KiCad,Pcbnew,9.0.4*
G04 #@! TF.CreationDate,2025-09-23T13:53:02+02:00*
G04 #@! TF.ProjectId,filter shield,66696c74-6572-4207-9368-69656c642e6b,rev?*
G04 #@! TF.SameCoordinates,Original*
G04 #@! TF.FileFunction,Legend,Top*
G04 #@! TF.FilePolarity,Positive*
%FSLAX46Y46*%
G04 Gerber Fmt 4.6, Leading zero omitted, Abs format (unit mm)*
G04 Created by KiCad (PCBNEW 9.0.4) date 2025-09-23 13:53:02*
%MOMM*%
%LPD*%
G01*
G04 APERTURE LIST*
%ADD10C,0.150000*%
%ADD11C,0.300000*%
%ADD12C,0.250000*%
%ADD13C,0.254000*%
%ADD14C,0.120000*%
%ADD15C,0.100000*%
%ADD16C,4.064000*%
G04 APERTURE END LIST*
D10*
X170735714Y-95419104D02*
X171211904Y-95419104D01*
X170640476Y-95704819D02*
X170973809Y-94704819D01*
X170973809Y-94704819D02*
X171307142Y-95704819D01*
X171545238Y-94704819D02*
X172164285Y-94704819D01*
X172164285Y-94704819D02*
X171830952Y-95085771D01*
X171830952Y-95085771D02*
X171973809Y-95085771D01*
X171973809Y-95085771D02*
X172069047Y-95133390D01*
X172069047Y-95133390D02*
X172116666Y-95181009D01*
X172116666Y-95181009D02*
X172164285Y-95276247D01*
X172164285Y-95276247D02*
X172164285Y-95514342D01*
X172164285Y-95514342D02*
X172116666Y-95609580D01*
X172116666Y-95609580D02*
X172069047Y-95657200D01*
X172069047Y-95657200D02*
X171973809Y-95704819D01*
X171973809Y-95704819D02*
X171688095Y-95704819D01*
X171688095Y-95704819D02*
X171592857Y-95657200D01*
X171592857Y-95657200D02*
X171545238Y-95609580D01*
X170735714Y-97959104D02*
X171211904Y-97959104D01*
X170640476Y-98244819D02*
X170973809Y-97244819D01*
X170973809Y-97244819D02*
X171307142Y-98244819D01*
X171592857Y-97340057D02*
X171640476Y-97292438D01*
X171640476Y-97292438D02*
X171735714Y-97244819D01*
X171735714Y-97244819D02*
X171973809Y-97244819D01*
X171973809Y-97244819D02*
X172069047Y-97292438D01*
X172069047Y-97292438D02*
X172116666Y-97340057D01*
X172116666Y-97340057D02*
X172164285Y-97435295D01*
X172164285Y-97435295D02*
X172164285Y-97530533D01*
X172164285Y-97530533D02*
X172116666Y-97673390D01*
X172116666Y-97673390D02*
X171545238Y-98244819D01*
X171545238Y-98244819D02*
X172164285Y-98244819D01*
X170735714Y-100499104D02*
X171211904Y-100499104D01*
X170640476Y-100784819D02*
X170973809Y-99784819D01*
X170973809Y-99784819D02*
X171307142Y-100784819D01*
X172164285Y-100784819D02*
X171592857Y-100784819D01*
X171878571Y-100784819D02*
X171878571Y-99784819D01*
X171878571Y-99784819D02*
X171783333Y-99927676D01*
X171783333Y-99927676D02*
X171688095Y-100022914D01*
X171688095Y-100022914D02*
X171592857Y-100070533D01*
X170735714Y-103039104D02*
X171211904Y-103039104D01*
X170640476Y-103324819D02*
X170973809Y-102324819D01*
X170973809Y-102324819D02*
X171307142Y-103324819D01*
X171830952Y-102324819D02*
X171926190Y-102324819D01*
X171926190Y-102324819D02*
X172021428Y-102372438D01*
X172021428Y-102372438D02*
X172069047Y-102420057D01*
X172069047Y-102420057D02*
X172116666Y-102515295D01*
X172116666Y-102515295D02*
X172164285Y-102705771D01*
X172164285Y-102705771D02*
X172164285Y-102943866D01*
X172164285Y-102943866D02*
X172116666Y-103134342D01*
X172116666Y-103134342D02*
X172069047Y-103229580D01*
X172069047Y-103229580D02*
X172021428Y-103277200D01*
X172021428Y-103277200D02*
X171926190Y-103324819D01*
X171926190Y-103324819D02*
X171830952Y-103324819D01*
X171830952Y-103324819D02*
X171735714Y-103277200D01*
X171735714Y-103277200D02*
X171688095Y-103229580D01*
X171688095Y-103229580D02*
X171640476Y-103134342D01*
X171640476Y-103134342D02*
X171592857Y-102943866D01*
X171592857Y-102943866D02*
X171592857Y-102705771D01*
X171592857Y-102705771D02*
X171640476Y-102515295D01*
X171640476Y-102515295D02*
X171688095Y-102420057D01*
X171688095Y-102420057D02*
X171735714Y-102372438D01*
X171735714Y-102372438D02*
X171830952Y-102324819D01*
X170688095Y-104912438D02*
X170592857Y-104864819D01*
X170592857Y-104864819D02*
X170450000Y-104864819D01*
X170450000Y-104864819D02*
X170307143Y-104912438D01*
X170307143Y-104912438D02*
X170211905Y-105007676D01*
X170211905Y-105007676D02*
X170164286Y-105102914D01*
X170164286Y-105102914D02*
X170116667Y-105293390D01*
X170116667Y-105293390D02*
X170116667Y-105436247D01*
X170116667Y-105436247D02*
X170164286Y-105626723D01*
X170164286Y-105626723D02*
X170211905Y-105721961D01*
X170211905Y-105721961D02*
X170307143Y-105817200D01*
X170307143Y-105817200D02*
X170450000Y-105864819D01*
X170450000Y-105864819D02*
X170545238Y-105864819D01*
X170545238Y-105864819D02*
X170688095Y-105817200D01*
X170688095Y-105817200D02*
X170735714Y-105769580D01*
X170735714Y-105769580D02*
X170735714Y-105436247D01*
X170735714Y-105436247D02*
X170545238Y-105436247D01*
X171164286Y-105864819D02*
X171164286Y-104864819D01*
X171164286Y-104864819D02*
X171735714Y-105864819D01*
X171735714Y-105864819D02*
X171735714Y-104864819D01*
X172211905Y-105864819D02*
X172211905Y-104864819D01*
X172211905Y-104864819D02*
X172450000Y-104864819D01*
X172450000Y-104864819D02*
X172592857Y-104912438D01*
X172592857Y-104912438D02*
X172688095Y-105007676D01*
X172688095Y-105007676D02*
X172735714Y-105102914D01*
X172735714Y-105102914D02*
X172783333Y-105293390D01*
X172783333Y-105293390D02*
X172783333Y-105436247D01*
X172783333Y-105436247D02*
X172735714Y-105626723D01*
X172735714Y-105626723D02*
X172688095Y-105721961D01*
X172688095Y-105721961D02*
X172592857Y-105817200D01*
X172592857Y-105817200D02*
X172450000Y-105864819D01*
X172450000Y-105864819D02*
X172211905Y-105864819D01*
X170211905Y-107404819D02*
X170830952Y-107404819D01*
X170830952Y-107404819D02*
X170497619Y-107785771D01*
X170497619Y-107785771D02*
X170640476Y-107785771D01*
X170640476Y-107785771D02*
X170735714Y-107833390D01*
X170735714Y-107833390D02*
X170783333Y-107881009D01*
X170783333Y-107881009D02*
X170830952Y-107976247D01*
X170830952Y-107976247D02*
X170830952Y-108214342D01*
X170830952Y-108214342D02*
X170783333Y-108309580D01*
X170783333Y-108309580D02*
X170735714Y-108357200D01*
X170735714Y-108357200D02*
X170640476Y-108404819D01*
X170640476Y-108404819D02*
X170354762Y-108404819D01*
X170354762Y-108404819D02*
X170259524Y-108357200D01*
X170259524Y-108357200D02*
X170211905Y-108309580D01*
X171116667Y-107404819D02*
X171450000Y-108404819D01*
X171450000Y-108404819D02*
X171783333Y-107404819D01*
X172021429Y-107404819D02*
X172640476Y-107404819D01*
X172640476Y-107404819D02*
X172307143Y-107785771D01*
X172307143Y-107785771D02*
X172450000Y-107785771D01*
X172450000Y-107785771D02*
X172545238Y-107833390D01*
X172545238Y-107833390D02*
X172592857Y-107881009D01*
X172592857Y-107881009D02*
X172640476Y-107976247D01*
X172640476Y-107976247D02*
X172640476Y-108214342D01*
X172640476Y-108214342D02*
X172592857Y-108309580D01*
X172592857Y-108309580D02*
X172545238Y-108357200D01*
X172545238Y-108357200D02*
X172450000Y-108404819D01*
X172450000Y-108404819D02*
X172164286Y-108404819D01*
X172164286Y-108404819D02*
X172069048Y-108357200D01*
X172069048Y-108357200D02*
X172021429Y-108309580D01*
X105010390Y-74479523D02*
X104972295Y-74555713D01*
X104972295Y-74555713D02*
X104972295Y-74669999D01*
X104972295Y-74669999D02*
X105010390Y-74784285D01*
X105010390Y-74784285D02*
X105086580Y-74860475D01*
X105086580Y-74860475D02*
X105162771Y-74898570D01*
X105162771Y-74898570D02*
X105315152Y-74936666D01*
X105315152Y-74936666D02*
X105429438Y-74936666D01*
X105429438Y-74936666D02*
X105581819Y-74898570D01*
X105581819Y-74898570D02*
X105658009Y-74860475D01*
X105658009Y-74860475D02*
X105734200Y-74784285D01*
X105734200Y-74784285D02*
X105772295Y-74669999D01*
X105772295Y-74669999D02*
X105772295Y-74593808D01*
X105772295Y-74593808D02*
X105734200Y-74479523D01*
X105734200Y-74479523D02*
X105696104Y-74441427D01*
X105696104Y-74441427D02*
X105429438Y-74441427D01*
X105429438Y-74441427D02*
X105429438Y-74593808D01*
X105772295Y-74098570D02*
X104972295Y-74098570D01*
X104972295Y-74098570D02*
X105772295Y-73641427D01*
X105772295Y-73641427D02*
X104972295Y-73641427D01*
X105772295Y-73260475D02*
X104972295Y-73260475D01*
X104972295Y-73260475D02*
X104972295Y-73069999D01*
X104972295Y-73069999D02*
X105010390Y-72955713D01*
X105010390Y-72955713D02*
X105086580Y-72879523D01*
X105086580Y-72879523D02*
X105162771Y-72841428D01*
X105162771Y-72841428D02*
X105315152Y-72803332D01*
X105315152Y-72803332D02*
X105429438Y-72803332D01*
X105429438Y-72803332D02*
X105581819Y-72841428D01*
X105581819Y-72841428D02*
X105658009Y-72879523D01*
X105658009Y-72879523D02*
X105734200Y-72955713D01*
X105734200Y-72955713D02*
X105772295Y-73069999D01*
X105772295Y-73069999D02*
X105772295Y-73260475D01*
X110040390Y-74409523D02*
X110002295Y-74485713D01*
X110002295Y-74485713D02*
X110002295Y-74599999D01*
X110002295Y-74599999D02*
X110040390Y-74714285D01*
X110040390Y-74714285D02*
X110116580Y-74790475D01*
X110116580Y-74790475D02*
X110192771Y-74828570D01*
X110192771Y-74828570D02*
X110345152Y-74866666D01*
X110345152Y-74866666D02*
X110459438Y-74866666D01*
X110459438Y-74866666D02*
X110611819Y-74828570D01*
X110611819Y-74828570D02*
X110688009Y-74790475D01*
X110688009Y-74790475D02*
X110764200Y-74714285D01*
X110764200Y-74714285D02*
X110802295Y-74599999D01*
X110802295Y-74599999D02*
X110802295Y-74523808D01*
X110802295Y-74523808D02*
X110764200Y-74409523D01*
X110764200Y-74409523D02*
X110726104Y-74371427D01*
X110726104Y-74371427D02*
X110459438Y-74371427D01*
X110459438Y-74371427D02*
X110459438Y-74523808D01*
X110802295Y-74028570D02*
X110002295Y-74028570D01*
X110002295Y-74028570D02*
X110802295Y-73571427D01*
X110802295Y-73571427D02*
X110002295Y-73571427D01*
X110802295Y-73190475D02*
X110002295Y-73190475D01*
X110002295Y-73190475D02*
X110002295Y-72999999D01*
X110002295Y-72999999D02*
X110040390Y-72885713D01*
X110040390Y-72885713D02*
X110116580Y-72809523D01*
X110116580Y-72809523D02*
X110192771Y-72771428D01*
X110192771Y-72771428D02*
X110345152Y-72733332D01*
X110345152Y-72733332D02*
X110459438Y-72733332D01*
X110459438Y-72733332D02*
X110611819Y-72771428D01*
X110611819Y-72771428D02*
X110688009Y-72809523D01*
X110688009Y-72809523D02*
X110764200Y-72885713D01*
X110764200Y-72885713D02*
X110802295Y-72999999D01*
X110802295Y-72999999D02*
X110802295Y-73190475D01*
X113372295Y-74235238D02*
X113372295Y-74692381D01*
X113372295Y-74463809D02*
X112572295Y-74463809D01*
X112572295Y-74463809D02*
X112686580Y-74540000D01*
X112686580Y-74540000D02*
X112762771Y-74616190D01*
X112762771Y-74616190D02*
X112800866Y-74692381D01*
X112648485Y-73930476D02*
X112610390Y-73892380D01*
X112610390Y-73892380D02*
X112572295Y-73816190D01*
X112572295Y-73816190D02*
X112572295Y-73625714D01*
X112572295Y-73625714D02*
X112610390Y-73549523D01*
X112610390Y-73549523D02*
X112648485Y-73511428D01*
X112648485Y-73511428D02*
X112724676Y-73473333D01*
X112724676Y-73473333D02*
X112800866Y-73473333D01*
X112800866Y-73473333D02*
X112915152Y-73511428D01*
X112915152Y-73511428D02*
X113372295Y-73968571D01*
X113372295Y-73968571D02*
X113372295Y-73473333D01*
X112572295Y-73244761D02*
X113372295Y-72978094D01*
X113372295Y-72978094D02*
X112572295Y-72711428D01*
X115912295Y-74235238D02*
X115912295Y-74692381D01*
X115912295Y-74463809D02*
X115112295Y-74463809D01*
X115112295Y-74463809D02*
X115226580Y-74540000D01*
X115226580Y-74540000D02*
X115302771Y-74616190D01*
X115302771Y-74616190D02*
X115340866Y-74692381D01*
X115188485Y-73930476D02*
X115150390Y-73892380D01*
X115150390Y-73892380D02*
X115112295Y-73816190D01*
X115112295Y-73816190D02*
X115112295Y-73625714D01*
X115112295Y-73625714D02*
X115150390Y-73549523D01*
X115150390Y-73549523D02*
X115188485Y-73511428D01*
X115188485Y-73511428D02*
X115264676Y-73473333D01*
X115264676Y-73473333D02*
X115340866Y-73473333D01*
X115340866Y-73473333D02*
X115455152Y-73511428D01*
X115455152Y-73511428D02*
X115912295Y-73968571D01*
X115912295Y-73968571D02*
X115912295Y-73473333D01*
X115112295Y-73244761D02*
X115912295Y-72978094D01*
X115912295Y-72978094D02*
X115112295Y-72711428D01*
X112532438Y-96011904D02*
X112484819Y-96107142D01*
X112484819Y-96107142D02*
X112484819Y-96249999D01*
X112484819Y-96249999D02*
X112532438Y-96392856D01*
X112532438Y-96392856D02*
X112627676Y-96488094D01*
X112627676Y-96488094D02*
X112722914Y-96535713D01*
X112722914Y-96535713D02*
X112913390Y-96583332D01*
X112913390Y-96583332D02*
X113056247Y-96583332D01*
X113056247Y-96583332D02*
X113246723Y-96535713D01*
X113246723Y-96535713D02*
X113341961Y-96488094D01*
X113341961Y-96488094D02*
X113437200Y-96392856D01*
X113437200Y-96392856D02*
X113484819Y-96249999D01*
X113484819Y-96249999D02*
X113484819Y-96154761D01*
X113484819Y-96154761D02*
X113437200Y-96011904D01*
X113437200Y-96011904D02*
X113389580Y-95964285D01*
X113389580Y-95964285D02*
X113056247Y-95964285D01*
X113056247Y-95964285D02*
X113056247Y-96154761D01*
X113484819Y-95535713D02*
X112484819Y-95535713D01*
X112484819Y-95535713D02*
X113484819Y-94964285D01*
X113484819Y-94964285D02*
X112484819Y-94964285D01*
X113484819Y-94488094D02*
X112484819Y-94488094D01*
X112484819Y-94488094D02*
X112484819Y-94249999D01*
X112484819Y-94249999D02*
X112532438Y-94107142D01*
X112532438Y-94107142D02*
X112627676Y-94011904D01*
X112627676Y-94011904D02*
X112722914Y-93964285D01*
X112722914Y-93964285D02*
X112913390Y-93916666D01*
X112913390Y-93916666D02*
X113056247Y-93916666D01*
X113056247Y-93916666D02*
X113246723Y-93964285D01*
X113246723Y-93964285D02*
X113341961Y-94011904D01*
X113341961Y-94011904D02*
X113437200Y-94107142D01*
X113437200Y-94107142D02*
X113484819Y-94249999D01*
X113484819Y-94249999D02*
X113484819Y-94488094D01*
X128079523Y-115024819D02*
X127603333Y-115024819D01*
X127603333Y-115024819D02*
X127555714Y-115501009D01*
X127555714Y-115501009D02*
X127603333Y-115453390D01*
X127603333Y-115453390D02*
X127698571Y-115405771D01*
X127698571Y-115405771D02*
X127936666Y-115405771D01*
X127936666Y-115405771D02*
X128031904Y-115453390D01*
X128031904Y-115453390D02*
X128079523Y-115501009D01*
X128079523Y-115501009D02*
X128127142Y-115596247D01*
X128127142Y-115596247D02*
X128127142Y-115834342D01*
X128127142Y-115834342D02*
X128079523Y-115929580D01*
X128079523Y-115929580D02*
X128031904Y-115977200D01*
X128031904Y-115977200D02*
X127936666Y-116024819D01*
X127936666Y-116024819D02*
X127698571Y-116024819D01*
X127698571Y-116024819D02*
X127603333Y-115977200D01*
X127603333Y-115977200D02*
X127555714Y-115929580D01*
X128412857Y-115024819D02*
X128746190Y-116024819D01*
X128746190Y-116024819D02*
X129079523Y-115024819D01*
X128079523Y-112484819D02*
X127603333Y-112484819D01*
X127603333Y-112484819D02*
X127555714Y-112961009D01*
X127555714Y-112961009D02*
X127603333Y-112913390D01*
X127603333Y-112913390D02*
X127698571Y-112865771D01*
X127698571Y-112865771D02*
X127936666Y-112865771D01*
X127936666Y-112865771D02*
X128031904Y-112913390D01*
X128031904Y-112913390D02*
X128079523Y-112961009D01*
X128079523Y-112961009D02*
X128127142Y-113056247D01*
X128127142Y-113056247D02*
X128127142Y-113294342D01*
X128127142Y-113294342D02*
X128079523Y-113389580D01*
X128079523Y-113389580D02*
X128031904Y-113437200D01*
X128031904Y-113437200D02*
X127936666Y-113484819D01*
X127936666Y-113484819D02*
X127698571Y-113484819D01*
X127698571Y-113484819D02*
X127603333Y-113437200D01*
X127603333Y-113437200D02*
X127555714Y-113389580D01*
X128412857Y-112484819D02*
X128746190Y-113484819D01*
X128746190Y-113484819D02*
X129079523Y-112484819D01*
X128079523Y-109944819D02*
X127603333Y-109944819D01*
X127603333Y-109944819D02*
X127555714Y-110421009D01*
X127555714Y-110421009D02*
X127603333Y-110373390D01*
X127603333Y-110373390D02*
X127698571Y-110325771D01*
X127698571Y-110325771D02*
X127936666Y-110325771D01*
X127936666Y-110325771D02*
X128031904Y-110373390D01*
X128031904Y-110373390D02*
X128079523Y-110421009D01*
X128079523Y-110421009D02*
X128127142Y-110516247D01*
X128127142Y-110516247D02*
X128127142Y-110754342D01*
X128127142Y-110754342D02*
X128079523Y-110849580D01*
X128079523Y-110849580D02*
X128031904Y-110897200D01*
X128031904Y-110897200D02*
X127936666Y-110944819D01*
X127936666Y-110944819D02*
X127698571Y-110944819D01*
X127698571Y-110944819D02*
X127603333Y-110897200D01*
X127603333Y-110897200D02*
X127555714Y-110849580D01*
X128412857Y-109944819D02*
X128746190Y-110944819D01*
X128746190Y-110944819D02*
X129079523Y-109944819D01*
X127508095Y-107452438D02*
X127412857Y-107404819D01*
X127412857Y-107404819D02*
X127270000Y-107404819D01*
X127270000Y-107404819D02*
X127127143Y-107452438D01*
X127127143Y-107452438D02*
X127031905Y-107547676D01*
X127031905Y-107547676D02*
X126984286Y-107642914D01*
X126984286Y-107642914D02*
X126936667Y-107833390D01*
X126936667Y-107833390D02*
X126936667Y-107976247D01*
X126936667Y-107976247D02*
X126984286Y-108166723D01*
X126984286Y-108166723D02*
X127031905Y-108261961D01*
X127031905Y-108261961D02*
X127127143Y-108357200D01*
X127127143Y-108357200D02*
X127270000Y-108404819D01*
X127270000Y-108404819D02*
X127365238Y-108404819D01*
X127365238Y-108404819D02*
X127508095Y-108357200D01*
X127508095Y-108357200D02*
X127555714Y-108309580D01*
X127555714Y-108309580D02*
X127555714Y-107976247D01*
X127555714Y-107976247D02*
X127365238Y-107976247D01*
X127984286Y-108404819D02*
X127984286Y-107404819D01*
X127984286Y-107404819D02*
X128555714Y-108404819D01*
X128555714Y-108404819D02*
X128555714Y-107404819D01*
X129031905Y-108404819D02*
X129031905Y-107404819D01*
X129031905Y-107404819D02*
X129270000Y-107404819D01*
X129270000Y-107404819D02*
X129412857Y-107452438D01*
X129412857Y-107452438D02*
X129508095Y-107547676D01*
X129508095Y-107547676D02*
X129555714Y-107642914D01*
X129555714Y-107642914D02*
X129603333Y-107833390D01*
X129603333Y-107833390D02*
X129603333Y-107976247D01*
X129603333Y-107976247D02*
X129555714Y-108166723D01*
X129555714Y-108166723D02*
X129508095Y-108261961D01*
X129508095Y-108261961D02*
X129412857Y-108357200D01*
X129412857Y-108357200D02*
X129270000Y-108404819D01*
X129270000Y-108404819D02*
X129031905Y-108404819D01*
X127508095Y-104912438D02*
X127412857Y-104864819D01*
X127412857Y-104864819D02*
X127270000Y-104864819D01*
X127270000Y-104864819D02*
X127127143Y-104912438D01*
X127127143Y-104912438D02*
X127031905Y-105007676D01*
X127031905Y-105007676D02*
X126984286Y-105102914D01*
X126984286Y-105102914D02*
X126936667Y-105293390D01*
X126936667Y-105293390D02*
X126936667Y-105436247D01*
X126936667Y-105436247D02*
X126984286Y-105626723D01*
X126984286Y-105626723D02*
X127031905Y-105721961D01*
X127031905Y-105721961D02*
X127127143Y-105817200D01*
X127127143Y-105817200D02*
X127270000Y-105864819D01*
X127270000Y-105864819D02*
X127365238Y-105864819D01*
X127365238Y-105864819D02*
X127508095Y-105817200D01*
X127508095Y-105817200D02*
X127555714Y-105769580D01*
X127555714Y-105769580D02*
X127555714Y-105436247D01*
X127555714Y-105436247D02*
X127365238Y-105436247D01*
X127984286Y-105864819D02*
X127984286Y-104864819D01*
X127984286Y-104864819D02*
X128555714Y-105864819D01*
X128555714Y-105864819D02*
X128555714Y-104864819D01*
X129031905Y-105864819D02*
X129031905Y-104864819D01*
X129031905Y-104864819D02*
X129270000Y-104864819D01*
X129270000Y-104864819D02*
X129412857Y-104912438D01*
X129412857Y-104912438D02*
X129508095Y-105007676D01*
X129508095Y-105007676D02*
X129555714Y-105102914D01*
X129555714Y-105102914D02*
X129603333Y-105293390D01*
X129603333Y-105293390D02*
X129603333Y-105436247D01*
X129603333Y-105436247D02*
X129555714Y-105626723D01*
X129555714Y-105626723D02*
X129508095Y-105721961D01*
X129508095Y-105721961D02*
X129412857Y-105817200D01*
X129412857Y-105817200D02*
X129270000Y-105864819D01*
X129270000Y-105864819D02*
X129031905Y-105864819D01*
X127508095Y-102372438D02*
X127412857Y-102324819D01*
X127412857Y-102324819D02*
X127270000Y-102324819D01*
X127270000Y-102324819D02*
X127127143Y-102372438D01*
X127127143Y-102372438D02*
X127031905Y-102467676D01*
X127031905Y-102467676D02*
X126984286Y-102562914D01*
X126984286Y-102562914D02*
X126936667Y-102753390D01*
X126936667Y-102753390D02*
X126936667Y-102896247D01*
X126936667Y-102896247D02*
X126984286Y-103086723D01*
X126984286Y-103086723D02*
X127031905Y-103181961D01*
X127031905Y-103181961D02*
X127127143Y-103277200D01*
X127127143Y-103277200D02*
X127270000Y-103324819D01*
X127270000Y-103324819D02*
X127365238Y-103324819D01*
X127365238Y-103324819D02*
X127508095Y-103277200D01*
X127508095Y-103277200D02*
X127555714Y-103229580D01*
X127555714Y-103229580D02*
X127555714Y-102896247D01*
X127555714Y-102896247D02*
X127365238Y-102896247D01*
X127984286Y-103324819D02*
X127984286Y-102324819D01*
X127984286Y-102324819D02*
X128555714Y-103324819D01*
X128555714Y-103324819D02*
X128555714Y-102324819D01*
X129031905Y-103324819D02*
X129031905Y-102324819D01*
X129031905Y-102324819D02*
X129270000Y-102324819D01*
X129270000Y-102324819D02*
X129412857Y-102372438D01*
X129412857Y-102372438D02*
X129508095Y-102467676D01*
X129508095Y-102467676D02*
X129555714Y-102562914D01*
X129555714Y-102562914D02*
X129603333Y-102753390D01*
X129603333Y-102753390D02*
X129603333Y-102896247D01*
X129603333Y-102896247D02*
X129555714Y-103086723D01*
X129555714Y-103086723D02*
X129508095Y-103181961D01*
X129508095Y-103181961D02*
X129412857Y-103277200D01*
X129412857Y-103277200D02*
X129270000Y-103324819D01*
X129270000Y-103324819D02*
X129031905Y-103324819D01*
D11*
X118237143Y-108469757D02*
X118094286Y-108398328D01*
X118094286Y-108398328D02*
X117880000Y-108398328D01*
X117880000Y-108398328D02*
X117665714Y-108469757D01*
X117665714Y-108469757D02*
X117522857Y-108612614D01*
X117522857Y-108612614D02*
X117451428Y-108755471D01*
X117451428Y-108755471D02*
X117380000Y-109041185D01*
X117380000Y-109041185D02*
X117380000Y-109255471D01*
X117380000Y-109255471D02*
X117451428Y-109541185D01*
X117451428Y-109541185D02*
X117522857Y-109684042D01*
X117522857Y-109684042D02*
X117665714Y-109826900D01*
X117665714Y-109826900D02*
X117880000Y-109898328D01*
X117880000Y-109898328D02*
X118022857Y-109898328D01*
X118022857Y-109898328D02*
X118237143Y-109826900D01*
X118237143Y-109826900D02*
X118308571Y-109755471D01*
X118308571Y-109755471D02*
X118308571Y-109255471D01*
X118308571Y-109255471D02*
X118022857Y-109255471D01*
X118951428Y-109898328D02*
X118951428Y-108398328D01*
X118951428Y-108398328D02*
X119808571Y-109898328D01*
X119808571Y-109898328D02*
X119808571Y-108398328D01*
X120522857Y-109898328D02*
X120522857Y-108398328D01*
X120522857Y-108398328D02*
X120880000Y-108398328D01*
X120880000Y-108398328D02*
X121094286Y-108469757D01*
X121094286Y-108469757D02*
X121237143Y-108612614D01*
X121237143Y-108612614D02*
X121308572Y-108755471D01*
X121308572Y-108755471D02*
X121380000Y-109041185D01*
X121380000Y-109041185D02*
X121380000Y-109255471D01*
X121380000Y-109255471D02*
X121308572Y-109541185D01*
X121308572Y-109541185D02*
X121237143Y-109684042D01*
X121237143Y-109684042D02*
X121094286Y-109826900D01*
X121094286Y-109826900D02*
X120880000Y-109898328D01*
X120880000Y-109898328D02*
X120522857Y-109898328D01*
D12*
X153060475Y-117392350D02*
X152393808Y-116439969D01*
X151917618Y-117392350D02*
X151917618Y-115392350D01*
X151917618Y-115392350D02*
X152679523Y-115392350D01*
X152679523Y-115392350D02*
X152869999Y-115487588D01*
X152869999Y-115487588D02*
X152965237Y-115582826D01*
X152965237Y-115582826D02*
X153060475Y-115773302D01*
X153060475Y-115773302D02*
X153060475Y-116059016D01*
X153060475Y-116059016D02*
X152965237Y-116249492D01*
X152965237Y-116249492D02*
X152869999Y-116344731D01*
X152869999Y-116344731D02*
X152679523Y-116439969D01*
X152679523Y-116439969D02*
X151917618Y-116439969D01*
X154774761Y-117392350D02*
X154774761Y-116344731D01*
X154774761Y-116344731D02*
X154679523Y-116154254D01*
X154679523Y-116154254D02*
X154489047Y-116059016D01*
X154489047Y-116059016D02*
X154108094Y-116059016D01*
X154108094Y-116059016D02*
X153917618Y-116154254D01*
X154774761Y-117297112D02*
X154584285Y-117392350D01*
X154584285Y-117392350D02*
X154108094Y-117392350D01*
X154108094Y-117392350D02*
X153917618Y-117297112D01*
X153917618Y-117297112D02*
X153822380Y-117106635D01*
X153822380Y-117106635D02*
X153822380Y-116916159D01*
X153822380Y-116916159D02*
X153917618Y-116725683D01*
X153917618Y-116725683D02*
X154108094Y-116630445D01*
X154108094Y-116630445D02*
X154584285Y-116630445D01*
X154584285Y-116630445D02*
X154774761Y-116535207D01*
X156584285Y-117392350D02*
X156584285Y-115392350D01*
X156584285Y-117297112D02*
X156393809Y-117392350D01*
X156393809Y-117392350D02*
X156012856Y-117392350D01*
X156012856Y-117392350D02*
X155822380Y-117297112D01*
X155822380Y-117297112D02*
X155727142Y-117201873D01*
X155727142Y-117201873D02*
X155631904Y-117011397D01*
X155631904Y-117011397D02*
X155631904Y-116439969D01*
X155631904Y-116439969D02*
X155727142Y-116249492D01*
X155727142Y-116249492D02*
X155822380Y-116154254D01*
X155822380Y-116154254D02*
X156012856Y-116059016D01*
X156012856Y-116059016D02*
X156393809Y-116059016D01*
X156393809Y-116059016D02*
X156584285Y-116154254D01*
X157536666Y-117392350D02*
X157536666Y-116059016D01*
X157536666Y-115392350D02*
X157441428Y-115487588D01*
X157441428Y-115487588D02*
X157536666Y-115582826D01*
X157536666Y-115582826D02*
X157631904Y-115487588D01*
X157631904Y-115487588D02*
X157536666Y-115392350D01*
X157536666Y-115392350D02*
X157536666Y-115582826D01*
X158774761Y-117392350D02*
X158584285Y-117297112D01*
X158584285Y-117297112D02*
X158489047Y-117201873D01*
X158489047Y-117201873D02*
X158393809Y-117011397D01*
X158393809Y-117011397D02*
X158393809Y-116439969D01*
X158393809Y-116439969D02*
X158489047Y-116249492D01*
X158489047Y-116249492D02*
X158584285Y-116154254D01*
X158584285Y-116154254D02*
X158774761Y-116059016D01*
X158774761Y-116059016D02*
X159060476Y-116059016D01*
X159060476Y-116059016D02*
X159250952Y-116154254D01*
X159250952Y-116154254D02*
X159346190Y-116249492D01*
X159346190Y-116249492D02*
X159441428Y-116439969D01*
X159441428Y-116439969D02*
X159441428Y-117011397D01*
X159441428Y-117011397D02*
X159346190Y-117201873D01*
X159346190Y-117201873D02*
X159250952Y-117297112D01*
X159250952Y-117297112D02*
X159060476Y-117392350D01*
X159060476Y-117392350D02*
X158774761Y-117392350D01*
X160298571Y-117392350D02*
X160298571Y-115392350D01*
X160298571Y-116154254D02*
X160489047Y-116059016D01*
X160489047Y-116059016D02*
X160870000Y-116059016D01*
X160870000Y-116059016D02*
X161060476Y-116154254D01*
X161060476Y-116154254D02*
X161155714Y-116249492D01*
X161155714Y-116249492D02*
X161250952Y-116439969D01*
X161250952Y-116439969D02*
X161250952Y-117011397D01*
X161250952Y-117011397D02*
X161155714Y-117201873D01*
X161155714Y-117201873D02*
X161060476Y-117297112D01*
X161060476Y-117297112D02*
X160870000Y-117392350D01*
X160870000Y-117392350D02*
X160489047Y-117392350D01*
X160489047Y-117392350D02*
X160298571Y-117297112D01*
X162870000Y-117297112D02*
X162679524Y-117392350D01*
X162679524Y-117392350D02*
X162298571Y-117392350D01*
X162298571Y-117392350D02*
X162108095Y-117297112D01*
X162108095Y-117297112D02*
X162012857Y-117106635D01*
X162012857Y-117106635D02*
X162012857Y-116344731D01*
X162012857Y-116344731D02*
X162108095Y-116154254D01*
X162108095Y-116154254D02*
X162298571Y-116059016D01*
X162298571Y-116059016D02*
X162679524Y-116059016D01*
X162679524Y-116059016D02*
X162870000Y-116154254D01*
X162870000Y-116154254D02*
X162965238Y-116344731D01*
X162965238Y-116344731D02*
X162965238Y-116535207D01*
X162965238Y-116535207D02*
X162012857Y-116725683D01*
X163822381Y-117392350D02*
X163822381Y-116059016D01*
X163822381Y-116439969D02*
X163917619Y-116249492D01*
X163917619Y-116249492D02*
X164012857Y-116154254D01*
X164012857Y-116154254D02*
X164203333Y-116059016D01*
X164203333Y-116059016D02*
X164393810Y-116059016D01*
X165060476Y-117392350D02*
X165060476Y-116059016D01*
X165060476Y-116439969D02*
X165155714Y-116249492D01*
X165155714Y-116249492D02*
X165250952Y-116154254D01*
X165250952Y-116154254D02*
X165441428Y-116059016D01*
X165441428Y-116059016D02*
X165631905Y-116059016D01*
X166108095Y-116059016D02*
X166584285Y-117392350D01*
X167060476Y-116059016D02*
X166584285Y-117392350D01*
X166584285Y-117392350D02*
X166393809Y-117868540D01*
X166393809Y-117868540D02*
X166298571Y-117963778D01*
X166298571Y-117963778D02*
X166108095Y-118059016D01*
X170012858Y-116344731D02*
X169346191Y-116344731D01*
X169346191Y-117392350D02*
X169346191Y-115392350D01*
X169346191Y-115392350D02*
X170298572Y-115392350D01*
X171060477Y-117392350D02*
X171060477Y-116059016D01*
X171060477Y-115392350D02*
X170965239Y-115487588D01*
X170965239Y-115487588D02*
X171060477Y-115582826D01*
X171060477Y-115582826D02*
X171155715Y-115487588D01*
X171155715Y-115487588D02*
X171060477Y-115392350D01*
X171060477Y-115392350D02*
X171060477Y-115582826D01*
X172298572Y-117392350D02*
X172108096Y-117297112D01*
X172108096Y-117297112D02*
X172012858Y-117106635D01*
X172012858Y-117106635D02*
X172012858Y-115392350D01*
X172774763Y-116059016D02*
X173536667Y-116059016D01*
X173060477Y-115392350D02*
X173060477Y-117106635D01*
X173060477Y-117106635D02*
X173155715Y-117297112D01*
X173155715Y-117297112D02*
X173346191Y-117392350D01*
X173346191Y-117392350D02*
X173536667Y-117392350D01*
X174965239Y-117297112D02*
X174774763Y-117392350D01*
X174774763Y-117392350D02*
X174393810Y-117392350D01*
X174393810Y-117392350D02*
X174203334Y-117297112D01*
X174203334Y-117297112D02*
X174108096Y-117106635D01*
X174108096Y-117106635D02*
X174108096Y-116344731D01*
X174108096Y-116344731D02*
X174203334Y-116154254D01*
X174203334Y-116154254D02*
X174393810Y-116059016D01*
X174393810Y-116059016D02*
X174774763Y-116059016D01*
X174774763Y-116059016D02*
X174965239Y-116154254D01*
X174965239Y-116154254D02*
X175060477Y-116344731D01*
X175060477Y-116344731D02*
X175060477Y-116535207D01*
X175060477Y-116535207D02*
X174108096Y-116725683D01*
X175917620Y-117392350D02*
X175917620Y-116059016D01*
X175917620Y-116439969D02*
X176012858Y-116249492D01*
X176012858Y-116249492D02*
X176108096Y-116154254D01*
X176108096Y-116154254D02*
X176298572Y-116059016D01*
X176298572Y-116059016D02*
X176489049Y-116059016D01*
X177060477Y-117297112D02*
X177250953Y-117392350D01*
X177250953Y-117392350D02*
X177631905Y-117392350D01*
X177631905Y-117392350D02*
X177822382Y-117297112D01*
X177822382Y-117297112D02*
X177917620Y-117106635D01*
X177917620Y-117106635D02*
X177917620Y-117011397D01*
X177917620Y-117011397D02*
X177822382Y-116820921D01*
X177822382Y-116820921D02*
X177631905Y-116725683D01*
X177631905Y-116725683D02*
X177346191Y-116725683D01*
X177346191Y-116725683D02*
X177155715Y-116630445D01*
X177155715Y-116630445D02*
X177060477Y-116439969D01*
X177060477Y-116439969D02*
X177060477Y-116344731D01*
X177060477Y-116344731D02*
X177155715Y-116154254D01*
X177155715Y-116154254D02*
X177346191Y-116059016D01*
X177346191Y-116059016D02*
X177631905Y-116059016D01*
X177631905Y-116059016D02*
X177822382Y-116154254D01*
X147298570Y-120421761D02*
X147203332Y-120517000D01*
X147203332Y-120517000D02*
X146917618Y-120612238D01*
X146917618Y-120612238D02*
X146727142Y-120612238D01*
X146727142Y-120612238D02*
X146441427Y-120517000D01*
X146441427Y-120517000D02*
X146250951Y-120326523D01*
X146250951Y-120326523D02*
X146155713Y-120136047D01*
X146155713Y-120136047D02*
X146060475Y-119755095D01*
X146060475Y-119755095D02*
X146060475Y-119469380D01*
X146060475Y-119469380D02*
X146155713Y-119088428D01*
X146155713Y-119088428D02*
X146250951Y-118897952D01*
X146250951Y-118897952D02*
X146441427Y-118707476D01*
X146441427Y-118707476D02*
X146727142Y-118612238D01*
X146727142Y-118612238D02*
X146917618Y-118612238D01*
X146917618Y-118612238D02*
X147203332Y-118707476D01*
X147203332Y-118707476D02*
X147298570Y-118802714D01*
X148441427Y-120612238D02*
X148250951Y-120517000D01*
X148250951Y-120517000D02*
X148155713Y-120421761D01*
X148155713Y-120421761D02*
X148060475Y-120231285D01*
X148060475Y-120231285D02*
X148060475Y-119659857D01*
X148060475Y-119659857D02*
X148155713Y-119469380D01*
X148155713Y-119469380D02*
X148250951Y-119374142D01*
X148250951Y-119374142D02*
X148441427Y-119278904D01*
X148441427Y-119278904D02*
X148727142Y-119278904D01*
X148727142Y-119278904D02*
X148917618Y-119374142D01*
X148917618Y-119374142D02*
X149012856Y-119469380D01*
X149012856Y-119469380D02*
X149108094Y-119659857D01*
X149108094Y-119659857D02*
X149108094Y-120231285D01*
X149108094Y-120231285D02*
X149012856Y-120421761D01*
X149012856Y-120421761D02*
X148917618Y-120517000D01*
X148917618Y-120517000D02*
X148727142Y-120612238D01*
X148727142Y-120612238D02*
X148441427Y-120612238D01*
X149965237Y-120612238D02*
X149965237Y-119278904D01*
X149965237Y-119469380D02*
X150060475Y-119374142D01*
X150060475Y-119374142D02*
X150250951Y-119278904D01*
X150250951Y-119278904D02*
X150536666Y-119278904D01*
X150536666Y-119278904D02*
X150727142Y-119374142D01*
X150727142Y-119374142D02*
X150822380Y-119564619D01*
X150822380Y-119564619D02*
X150822380Y-120612238D01*
X150822380Y-119564619D02*
X150917618Y-119374142D01*
X150917618Y-119374142D02*
X151108094Y-119278904D01*
X151108094Y-119278904D02*
X151393808Y-119278904D01*
X151393808Y-119278904D02*
X151584285Y-119374142D01*
X151584285Y-119374142D02*
X151679523Y-119564619D01*
X151679523Y-119564619D02*
X151679523Y-120612238D01*
X152631904Y-119278904D02*
X152631904Y-121278904D01*
X152631904Y-119374142D02*
X152822380Y-119278904D01*
X152822380Y-119278904D02*
X153203333Y-119278904D01*
X153203333Y-119278904D02*
X153393809Y-119374142D01*
X153393809Y-119374142D02*
X153489047Y-119469380D01*
X153489047Y-119469380D02*
X153584285Y-119659857D01*
X153584285Y-119659857D02*
X153584285Y-120231285D01*
X153584285Y-120231285D02*
X153489047Y-120421761D01*
X153489047Y-120421761D02*
X153393809Y-120517000D01*
X153393809Y-120517000D02*
X153203333Y-120612238D01*
X153203333Y-120612238D02*
X152822380Y-120612238D01*
X152822380Y-120612238D02*
X152631904Y-120517000D01*
X155298571Y-120612238D02*
X155298571Y-119564619D01*
X155298571Y-119564619D02*
X155203333Y-119374142D01*
X155203333Y-119374142D02*
X155012857Y-119278904D01*
X155012857Y-119278904D02*
X154631904Y-119278904D01*
X154631904Y-119278904D02*
X154441428Y-119374142D01*
X155298571Y-120517000D02*
X155108095Y-120612238D01*
X155108095Y-120612238D02*
X154631904Y-120612238D01*
X154631904Y-120612238D02*
X154441428Y-120517000D01*
X154441428Y-120517000D02*
X154346190Y-120326523D01*
X154346190Y-120326523D02*
X154346190Y-120136047D01*
X154346190Y-120136047D02*
X154441428Y-119945571D01*
X154441428Y-119945571D02*
X154631904Y-119850333D01*
X154631904Y-119850333D02*
X155108095Y-119850333D01*
X155108095Y-119850333D02*
X155298571Y-119755095D01*
X156250952Y-119278904D02*
X156250952Y-120612238D01*
X156250952Y-119469380D02*
X156346190Y-119374142D01*
X156346190Y-119374142D02*
X156536666Y-119278904D01*
X156536666Y-119278904D02*
X156822381Y-119278904D01*
X156822381Y-119278904D02*
X157012857Y-119374142D01*
X157012857Y-119374142D02*
X157108095Y-119564619D01*
X157108095Y-119564619D02*
X157108095Y-120612238D01*
X158060476Y-120612238D02*
X158060476Y-119278904D01*
X158060476Y-118612238D02*
X157965238Y-118707476D01*
X157965238Y-118707476D02*
X158060476Y-118802714D01*
X158060476Y-118802714D02*
X158155714Y-118707476D01*
X158155714Y-118707476D02*
X158060476Y-118612238D01*
X158060476Y-118612238D02*
X158060476Y-118802714D01*
X159298571Y-120612238D02*
X159108095Y-120517000D01*
X159108095Y-120517000D02*
X159012857Y-120421761D01*
X159012857Y-120421761D02*
X158917619Y-120231285D01*
X158917619Y-120231285D02*
X158917619Y-119659857D01*
X158917619Y-119659857D02*
X159012857Y-119469380D01*
X159012857Y-119469380D02*
X159108095Y-119374142D01*
X159108095Y-119374142D02*
X159298571Y-119278904D01*
X159298571Y-119278904D02*
X159584286Y-119278904D01*
X159584286Y-119278904D02*
X159774762Y-119374142D01*
X159774762Y-119374142D02*
X159870000Y-119469380D01*
X159870000Y-119469380D02*
X159965238Y-119659857D01*
X159965238Y-119659857D02*
X159965238Y-120231285D01*
X159965238Y-120231285D02*
X159870000Y-120421761D01*
X159870000Y-120421761D02*
X159774762Y-120517000D01*
X159774762Y-120517000D02*
X159584286Y-120612238D01*
X159584286Y-120612238D02*
X159298571Y-120612238D01*
X160822381Y-119278904D02*
X160822381Y-120612238D01*
X160822381Y-119469380D02*
X160917619Y-119374142D01*
X160917619Y-119374142D02*
X161108095Y-119278904D01*
X161108095Y-119278904D02*
X161393810Y-119278904D01*
X161393810Y-119278904D02*
X161584286Y-119374142D01*
X161584286Y-119374142D02*
X161679524Y-119564619D01*
X161679524Y-119564619D02*
X161679524Y-120612238D01*
X162631905Y-119850333D02*
X164155715Y-119850333D01*
X164822381Y-118612238D02*
X165489047Y-120612238D01*
X165489047Y-120612238D02*
X166155714Y-118612238D01*
X166727143Y-120040809D02*
X167679524Y-120040809D01*
X166536667Y-120612238D02*
X167203333Y-118612238D01*
X167203333Y-118612238D02*
X167870000Y-120612238D01*
X168441429Y-118802714D02*
X168536667Y-118707476D01*
X168536667Y-118707476D02*
X168727143Y-118612238D01*
X168727143Y-118612238D02*
X169203334Y-118612238D01*
X169203334Y-118612238D02*
X169393810Y-118707476D01*
X169393810Y-118707476D02*
X169489048Y-118802714D01*
X169489048Y-118802714D02*
X169584286Y-118993190D01*
X169584286Y-118993190D02*
X169584286Y-119183666D01*
X169584286Y-119183666D02*
X169489048Y-119469380D01*
X169489048Y-119469380D02*
X168346191Y-120612238D01*
X168346191Y-120612238D02*
X169584286Y-120612238D01*
X170346191Y-120517000D02*
X170631905Y-120612238D01*
X170631905Y-120612238D02*
X171108096Y-120612238D01*
X171108096Y-120612238D02*
X171298572Y-120517000D01*
X171298572Y-120517000D02*
X171393810Y-120421761D01*
X171393810Y-120421761D02*
X171489048Y-120231285D01*
X171489048Y-120231285D02*
X171489048Y-120040809D01*
X171489048Y-120040809D02*
X171393810Y-119850333D01*
X171393810Y-119850333D02*
X171298572Y-119755095D01*
X171298572Y-119755095D02*
X171108096Y-119659857D01*
X171108096Y-119659857D02*
X170727143Y-119564619D01*
X170727143Y-119564619D02*
X170536667Y-119469380D01*
X170536667Y-119469380D02*
X170441429Y-119374142D01*
X170441429Y-119374142D02*
X170346191Y-119183666D01*
X170346191Y-119183666D02*
X170346191Y-118993190D01*
X170346191Y-118993190D02*
X170441429Y-118802714D01*
X170441429Y-118802714D02*
X170536667Y-118707476D01*
X170536667Y-118707476D02*
X170727143Y-118612238D01*
X170727143Y-118612238D02*
X171203334Y-118612238D01*
X171203334Y-118612238D02*
X171489048Y-118707476D01*
X172250953Y-120040809D02*
X173203334Y-120040809D01*
X172060477Y-120612238D02*
X172727143Y-118612238D01*
X172727143Y-118612238D02*
X173393810Y-120612238D01*
X174631906Y-118612238D02*
X174631906Y-120040809D01*
X174631906Y-120040809D02*
X174536667Y-120326523D01*
X174536667Y-120326523D02*
X174346191Y-120517000D01*
X174346191Y-120517000D02*
X174060477Y-120612238D01*
X174060477Y-120612238D02*
X173870001Y-120612238D01*
X175584287Y-119850333D02*
X177108097Y-119850333D01*
X177774763Y-118612238D02*
X178441429Y-120612238D01*
X178441429Y-120612238D02*
X179108096Y-118612238D01*
X180155715Y-118612238D02*
X180346192Y-118612238D01*
X180346192Y-118612238D02*
X180536668Y-118707476D01*
X180536668Y-118707476D02*
X180631906Y-118802714D01*
X180631906Y-118802714D02*
X180727144Y-118993190D01*
X180727144Y-118993190D02*
X180822382Y-119374142D01*
X180822382Y-119374142D02*
X180822382Y-119850333D01*
X180822382Y-119850333D02*
X180727144Y-120231285D01*
X180727144Y-120231285D02*
X180631906Y-120421761D01*
X180631906Y-120421761D02*
X180536668Y-120517000D01*
X180536668Y-120517000D02*
X180346192Y-120612238D01*
X180346192Y-120612238D02*
X180155715Y-120612238D01*
X180155715Y-120612238D02*
X179965239Y-120517000D01*
X179965239Y-120517000D02*
X179870001Y-120421761D01*
X179870001Y-120421761D02*
X179774763Y-120231285D01*
X179774763Y-120231285D02*
X179679525Y-119850333D01*
X179679525Y-119850333D02*
X179679525Y-119374142D01*
X179679525Y-119374142D02*
X179774763Y-118993190D01*
X179774763Y-118993190D02*
X179870001Y-118802714D01*
X179870001Y-118802714D02*
X179965239Y-118707476D01*
X179965239Y-118707476D02*
X180155715Y-118612238D01*
X181679525Y-120421761D02*
X181774763Y-120517000D01*
X181774763Y-120517000D02*
X181679525Y-120612238D01*
X181679525Y-120612238D02*
X181584287Y-120517000D01*
X181584287Y-120517000D02*
X181679525Y-120421761D01*
X181679525Y-120421761D02*
X181679525Y-120612238D01*
X182536668Y-118802714D02*
X182631906Y-118707476D01*
X182631906Y-118707476D02*
X182822382Y-118612238D01*
X182822382Y-118612238D02*
X183298573Y-118612238D01*
X183298573Y-118612238D02*
X183489049Y-118707476D01*
X183489049Y-118707476D02*
X183584287Y-118802714D01*
X183584287Y-118802714D02*
X183679525Y-118993190D01*
X183679525Y-118993190D02*
X183679525Y-119183666D01*
X183679525Y-119183666D02*
X183584287Y-119469380D01*
X183584287Y-119469380D02*
X182441430Y-120612238D01*
X182441430Y-120612238D02*
X183679525Y-120612238D01*
D10*
X115108152Y-96582856D02*
X116108152Y-96582856D01*
X115155771Y-96582856D02*
X115108152Y-96487618D01*
X115108152Y-96487618D02*
X115108152Y-96297142D01*
X115108152Y-96297142D02*
X115155771Y-96201904D01*
X115155771Y-96201904D02*
X115203390Y-96154285D01*
X115203390Y-96154285D02*
X115298628Y-96106666D01*
X115298628Y-96106666D02*
X115584342Y-96106666D01*
X115584342Y-96106666D02*
X115679580Y-96154285D01*
X115679580Y-96154285D02*
X115727200Y-96201904D01*
X115727200Y-96201904D02*
X115774819Y-96297142D01*
X115774819Y-96297142D02*
X115774819Y-96487618D01*
X115774819Y-96487618D02*
X115727200Y-96582856D01*
X115774819Y-95249523D02*
X115251009Y-95249523D01*
X115251009Y-95249523D02*
X115155771Y-95297142D01*
X115155771Y-95297142D02*
X115108152Y-95392380D01*
X115108152Y-95392380D02*
X115108152Y-95582856D01*
X115108152Y-95582856D02*
X115155771Y-95678094D01*
X115727200Y-95249523D02*
X115774819Y-95344761D01*
X115774819Y-95344761D02*
X115774819Y-95582856D01*
X115774819Y-95582856D02*
X115727200Y-95678094D01*
X115727200Y-95678094D02*
X115631961Y-95725713D01*
X115631961Y-95725713D02*
X115536723Y-95725713D01*
X115536723Y-95725713D02*
X115441485Y-95678094D01*
X115441485Y-95678094D02*
X115393866Y-95582856D01*
X115393866Y-95582856D02*
X115393866Y-95344761D01*
X115393866Y-95344761D02*
X115346247Y-95249523D01*
X115727200Y-94059046D02*
X115774819Y-93963808D01*
X115774819Y-93963808D02*
X115774819Y-93773332D01*
X115774819Y-93773332D02*
X115727200Y-93678094D01*
X115727200Y-93678094D02*
X115631961Y-93630475D01*
X115631961Y-93630475D02*
X115584342Y-93630475D01*
X115584342Y-93630475D02*
X115489104Y-93678094D01*
X115489104Y-93678094D02*
X115441485Y-93773332D01*
X115441485Y-93773332D02*
X115441485Y-93916189D01*
X115441485Y-93916189D02*
X115393866Y-94011427D01*
X115393866Y-94011427D02*
X115298628Y-94059046D01*
X115298628Y-94059046D02*
X115251009Y-94059046D01*
X115251009Y-94059046D02*
X115155771Y-94011427D01*
X115155771Y-94011427D02*
X115108152Y-93916189D01*
X115108152Y-93916189D02*
X115108152Y-93773332D01*
X115108152Y-93773332D02*
X115155771Y-93678094D01*
X115774819Y-93201903D02*
X115108152Y-93201903D01*
X114774819Y-93201903D02*
X114822438Y-93249522D01*
X114822438Y-93249522D02*
X114870057Y-93201903D01*
X114870057Y-93201903D02*
X114822438Y-93154284D01*
X114822438Y-93154284D02*
X114774819Y-93201903D01*
X114774819Y-93201903D02*
X114870057Y-93201903D01*
X115108152Y-92297142D02*
X115917676Y-92297142D01*
X115917676Y-92297142D02*
X116012914Y-92344761D01*
X116012914Y-92344761D02*
X116060533Y-92392380D01*
X116060533Y-92392380D02*
X116108152Y-92487618D01*
X116108152Y-92487618D02*
X116108152Y-92630475D01*
X116108152Y-92630475D02*
X116060533Y-92725713D01*
X115727200Y-92297142D02*
X115774819Y-92392380D01*
X115774819Y-92392380D02*
X115774819Y-92582856D01*
X115774819Y-92582856D02*
X115727200Y-92678094D01*
X115727200Y-92678094D02*
X115679580Y-92725713D01*
X115679580Y-92725713D02*
X115584342Y-92773332D01*
X115584342Y-92773332D02*
X115298628Y-92773332D01*
X115298628Y-92773332D02*
X115203390Y-92725713D01*
X115203390Y-92725713D02*
X115155771Y-92678094D01*
X115155771Y-92678094D02*
X115108152Y-92582856D01*
X115108152Y-92582856D02*
X115108152Y-92392380D01*
X115108152Y-92392380D02*
X115155771Y-92297142D01*
X120498152Y-96631428D02*
X120498152Y-96250476D01*
X120164819Y-96488571D02*
X121021961Y-96488571D01*
X121021961Y-96488571D02*
X121117200Y-96440952D01*
X121117200Y-96440952D02*
X121164819Y-96345714D01*
X121164819Y-96345714D02*
X121164819Y-96250476D01*
X121164819Y-96012380D02*
X120498152Y-95488571D01*
X120498152Y-96012380D02*
X121164819Y-95488571D01*
X121117200Y-94393332D02*
X121164819Y-94298094D01*
X121164819Y-94298094D02*
X121164819Y-94107618D01*
X121164819Y-94107618D02*
X121117200Y-94012380D01*
X121117200Y-94012380D02*
X121021961Y-93964761D01*
X121021961Y-93964761D02*
X120974342Y-93964761D01*
X120974342Y-93964761D02*
X120879104Y-94012380D01*
X120879104Y-94012380D02*
X120831485Y-94107618D01*
X120831485Y-94107618D02*
X120831485Y-94250475D01*
X120831485Y-94250475D02*
X120783866Y-94345713D01*
X120783866Y-94345713D02*
X120688628Y-94393332D01*
X120688628Y-94393332D02*
X120641009Y-94393332D01*
X120641009Y-94393332D02*
X120545771Y-94345713D01*
X120545771Y-94345713D02*
X120498152Y-94250475D01*
X120498152Y-94250475D02*
X120498152Y-94107618D01*
X120498152Y-94107618D02*
X120545771Y-94012380D01*
X121164819Y-93536189D02*
X120498152Y-93536189D01*
X120164819Y-93536189D02*
X120212438Y-93583808D01*
X120212438Y-93583808D02*
X120260057Y-93536189D01*
X120260057Y-93536189D02*
X120212438Y-93488570D01*
X120212438Y-93488570D02*
X120164819Y-93536189D01*
X120164819Y-93536189D02*
X120260057Y-93536189D01*
X120498152Y-92631428D02*
X121307676Y-92631428D01*
X121307676Y-92631428D02*
X121402914Y-92679047D01*
X121402914Y-92679047D02*
X121450533Y-92726666D01*
X121450533Y-92726666D02*
X121498152Y-92821904D01*
X121498152Y-92821904D02*
X121498152Y-92964761D01*
X121498152Y-92964761D02*
X121450533Y-93059999D01*
X121117200Y-92631428D02*
X121164819Y-92726666D01*
X121164819Y-92726666D02*
X121164819Y-92917142D01*
X121164819Y-92917142D02*
X121117200Y-93012380D01*
X121117200Y-93012380D02*
X121069580Y-93059999D01*
X121069580Y-93059999D02*
X120974342Y-93107618D01*
X120974342Y-93107618D02*
X120688628Y-93107618D01*
X120688628Y-93107618D02*
X120593390Y-93059999D01*
X120593390Y-93059999D02*
X120545771Y-93012380D01*
X120545771Y-93012380D02*
X120498152Y-92917142D01*
X120498152Y-92917142D02*
X120498152Y-92726666D01*
X120498152Y-92726666D02*
X120545771Y-92631428D01*
X134676609Y-69041905D02*
X134724228Y-68946667D01*
X134724228Y-68946667D02*
X134771847Y-68899048D01*
X134771847Y-68899048D02*
X134867085Y-68851429D01*
X134867085Y-68851429D02*
X134914704Y-68851429D01*
X134914704Y-68851429D02*
X135009942Y-68899048D01*
X135009942Y-68899048D02*
X135057561Y-68946667D01*
X135057561Y-68946667D02*
X135105180Y-69041905D01*
X135105180Y-69041905D02*
X135105180Y-69232381D01*
X135105180Y-69232381D02*
X135057561Y-69327619D01*
X135057561Y-69327619D02*
X135009942Y-69375238D01*
X135009942Y-69375238D02*
X134914704Y-69422857D01*
X134914704Y-69422857D02*
X134867085Y-69422857D01*
X134867085Y-69422857D02*
X134771847Y-69375238D01*
X134771847Y-69375238D02*
X134724228Y-69327619D01*
X134724228Y-69327619D02*
X134676609Y-69232381D01*
X134676609Y-69232381D02*
X134676609Y-69041905D01*
X134676609Y-69041905D02*
X134628990Y-68946667D01*
X134628990Y-68946667D02*
X134581371Y-68899048D01*
X134581371Y-68899048D02*
X134486133Y-68851429D01*
X134486133Y-68851429D02*
X134295657Y-68851429D01*
X134295657Y-68851429D02*
X134200419Y-68899048D01*
X134200419Y-68899048D02*
X134152800Y-68946667D01*
X134152800Y-68946667D02*
X134105180Y-69041905D01*
X134105180Y-69041905D02*
X134105180Y-69232381D01*
X134105180Y-69232381D02*
X134152800Y-69327619D01*
X134152800Y-69327619D02*
X134200419Y-69375238D01*
X134200419Y-69375238D02*
X134295657Y-69422857D01*
X134295657Y-69422857D02*
X134486133Y-69422857D01*
X134486133Y-69422857D02*
X134581371Y-69375238D01*
X134581371Y-69375238D02*
X134628990Y-69327619D01*
X134628990Y-69327619D02*
X134676609Y-69232381D01*
X135105180Y-70041905D02*
X135105180Y-70137143D01*
X135105180Y-70137143D02*
X135057561Y-70232381D01*
X135057561Y-70232381D02*
X135009942Y-70280000D01*
X135009942Y-70280000D02*
X134914704Y-70327619D01*
X134914704Y-70327619D02*
X134724228Y-70375238D01*
X134724228Y-70375238D02*
X134486133Y-70375238D01*
X134486133Y-70375238D02*
X134295657Y-70327619D01*
X134295657Y-70327619D02*
X134200419Y-70280000D01*
X134200419Y-70280000D02*
X134152800Y-70232381D01*
X134152800Y-70232381D02*
X134105180Y-70137143D01*
X134105180Y-70137143D02*
X134105180Y-70041905D01*
X134105180Y-70041905D02*
X134152800Y-69946667D01*
X134152800Y-69946667D02*
X134200419Y-69899048D01*
X134200419Y-69899048D02*
X134295657Y-69851429D01*
X134295657Y-69851429D02*
X134486133Y-69803810D01*
X134486133Y-69803810D02*
X134724228Y-69803810D01*
X134724228Y-69803810D02*
X134914704Y-69851429D01*
X134914704Y-69851429D02*
X135009942Y-69899048D01*
X135009942Y-69899048D02*
X135057561Y-69946667D01*
X135057561Y-69946667D02*
X135105180Y-70041905D01*
X134105180Y-70803810D02*
X134771847Y-70803810D01*
X134676609Y-70803810D02*
X134724228Y-70851429D01*
X134724228Y-70851429D02*
X134771847Y-70946667D01*
X134771847Y-70946667D02*
X134771847Y-71089524D01*
X134771847Y-71089524D02*
X134724228Y-71184762D01*
X134724228Y-71184762D02*
X134628990Y-71232381D01*
X134628990Y-71232381D02*
X134105180Y-71232381D01*
X134628990Y-71232381D02*
X134724228Y-71280000D01*
X134724228Y-71280000D02*
X134771847Y-71375238D01*
X134771847Y-71375238D02*
X134771847Y-71518095D01*
X134771847Y-71518095D02*
X134724228Y-71613334D01*
X134724228Y-71613334D02*
X134628990Y-71660953D01*
X134628990Y-71660953D02*
X134105180Y-71660953D01*
X132231847Y-69327619D02*
X131565180Y-69327619D01*
X132612800Y-69089524D02*
X131898514Y-68851429D01*
X131898514Y-68851429D02*
X131898514Y-69470476D01*
X132565180Y-70041905D02*
X132565180Y-70137143D01*
X132565180Y-70137143D02*
X132517561Y-70232381D01*
X132517561Y-70232381D02*
X132469942Y-70280000D01*
X132469942Y-70280000D02*
X132374704Y-70327619D01*
X132374704Y-70327619D02*
X132184228Y-70375238D01*
X132184228Y-70375238D02*
X131946133Y-70375238D01*
X131946133Y-70375238D02*
X131755657Y-70327619D01*
X131755657Y-70327619D02*
X131660419Y-70280000D01*
X131660419Y-70280000D02*
X131612800Y-70232381D01*
X131612800Y-70232381D02*
X131565180Y-70137143D01*
X131565180Y-70137143D02*
X131565180Y-70041905D01*
X131565180Y-70041905D02*
X131612800Y-69946667D01*
X131612800Y-69946667D02*
X131660419Y-69899048D01*
X131660419Y-69899048D02*
X131755657Y-69851429D01*
X131755657Y-69851429D02*
X131946133Y-69803810D01*
X131946133Y-69803810D02*
X132184228Y-69803810D01*
X132184228Y-69803810D02*
X132374704Y-69851429D01*
X132374704Y-69851429D02*
X132469942Y-69899048D01*
X132469942Y-69899048D02*
X132517561Y-69946667D01*
X132517561Y-69946667D02*
X132565180Y-70041905D01*
X131565180Y-70803810D02*
X132231847Y-70803810D01*
X132136609Y-70803810D02*
X132184228Y-70851429D01*
X132184228Y-70851429D02*
X132231847Y-70946667D01*
X132231847Y-70946667D02*
X132231847Y-71089524D01*
X132231847Y-71089524D02*
X132184228Y-71184762D01*
X132184228Y-71184762D02*
X132088990Y-71232381D01*
X132088990Y-71232381D02*
X131565180Y-71232381D01*
X132088990Y-71232381D02*
X132184228Y-71280000D01*
X132184228Y-71280000D02*
X132231847Y-71375238D01*
X132231847Y-71375238D02*
X132231847Y-71518095D01*
X132231847Y-71518095D02*
X132184228Y-71613334D01*
X132184228Y-71613334D02*
X132088990Y-71660953D01*
X132088990Y-71660953D02*
X131565180Y-71660953D01*
X129929942Y-68851429D02*
X129977561Y-68899048D01*
X129977561Y-68899048D02*
X130025180Y-68994286D01*
X130025180Y-68994286D02*
X130025180Y-69232381D01*
X130025180Y-69232381D02*
X129977561Y-69327619D01*
X129977561Y-69327619D02*
X129929942Y-69375238D01*
X129929942Y-69375238D02*
X129834704Y-69422857D01*
X129834704Y-69422857D02*
X129739466Y-69422857D01*
X129739466Y-69422857D02*
X129596609Y-69375238D01*
X129596609Y-69375238D02*
X129025180Y-68803810D01*
X129025180Y-68803810D02*
X129025180Y-69422857D01*
X130025180Y-70041905D02*
X130025180Y-70137143D01*
X130025180Y-70137143D02*
X129977561Y-70232381D01*
X129977561Y-70232381D02*
X129929942Y-70280000D01*
X129929942Y-70280000D02*
X129834704Y-70327619D01*
X129834704Y-70327619D02*
X129644228Y-70375238D01*
X129644228Y-70375238D02*
X129406133Y-70375238D01*
X129406133Y-70375238D02*
X129215657Y-70327619D01*
X129215657Y-70327619D02*
X129120419Y-70280000D01*
X129120419Y-70280000D02*
X129072800Y-70232381D01*
X129072800Y-70232381D02*
X129025180Y-70137143D01*
X129025180Y-70137143D02*
X129025180Y-70041905D01*
X129025180Y-70041905D02*
X129072800Y-69946667D01*
X129072800Y-69946667D02*
X129120419Y-69899048D01*
X129120419Y-69899048D02*
X129215657Y-69851429D01*
X129215657Y-69851429D02*
X129406133Y-69803810D01*
X129406133Y-69803810D02*
X129644228Y-69803810D01*
X129644228Y-69803810D02*
X129834704Y-69851429D01*
X129834704Y-69851429D02*
X129929942Y-69899048D01*
X129929942Y-69899048D02*
X129977561Y-69946667D01*
X129977561Y-69946667D02*
X130025180Y-70041905D01*
X129025180Y-70803810D02*
X129691847Y-70803810D01*
X129596609Y-70803810D02*
X129644228Y-70851429D01*
X129644228Y-70851429D02*
X129691847Y-70946667D01*
X129691847Y-70946667D02*
X129691847Y-71089524D01*
X129691847Y-71089524D02*
X129644228Y-71184762D01*
X129644228Y-71184762D02*
X129548990Y-71232381D01*
X129548990Y-71232381D02*
X129025180Y-71232381D01*
X129548990Y-71232381D02*
X129644228Y-71280000D01*
X129644228Y-71280000D02*
X129691847Y-71375238D01*
X129691847Y-71375238D02*
X129691847Y-71518095D01*
X129691847Y-71518095D02*
X129644228Y-71613334D01*
X129644228Y-71613334D02*
X129548990Y-71660953D01*
X129548990Y-71660953D02*
X129025180Y-71660953D01*
X126485180Y-69422857D02*
X126485180Y-68851429D01*
X126485180Y-69137143D02*
X127485180Y-69137143D01*
X127485180Y-69137143D02*
X127342323Y-69041905D01*
X127342323Y-69041905D02*
X127247085Y-68946667D01*
X127247085Y-68946667D02*
X127199466Y-68851429D01*
X127485180Y-70041905D02*
X127485180Y-70137143D01*
X127485180Y-70137143D02*
X127437561Y-70232381D01*
X127437561Y-70232381D02*
X127389942Y-70280000D01*
X127389942Y-70280000D02*
X127294704Y-70327619D01*
X127294704Y-70327619D02*
X127104228Y-70375238D01*
X127104228Y-70375238D02*
X126866133Y-70375238D01*
X126866133Y-70375238D02*
X126675657Y-70327619D01*
X126675657Y-70327619D02*
X126580419Y-70280000D01*
X126580419Y-70280000D02*
X126532800Y-70232381D01*
X126532800Y-70232381D02*
X126485180Y-70137143D01*
X126485180Y-70137143D02*
X126485180Y-70041905D01*
X126485180Y-70041905D02*
X126532800Y-69946667D01*
X126532800Y-69946667D02*
X126580419Y-69899048D01*
X126580419Y-69899048D02*
X126675657Y-69851429D01*
X126675657Y-69851429D02*
X126866133Y-69803810D01*
X126866133Y-69803810D02*
X127104228Y-69803810D01*
X127104228Y-69803810D02*
X127294704Y-69851429D01*
X127294704Y-69851429D02*
X127389942Y-69899048D01*
X127389942Y-69899048D02*
X127437561Y-69946667D01*
X127437561Y-69946667D02*
X127485180Y-70041905D01*
X126485180Y-70803810D02*
X127151847Y-70803810D01*
X127056609Y-70803810D02*
X127104228Y-70851429D01*
X127104228Y-70851429D02*
X127151847Y-70946667D01*
X127151847Y-70946667D02*
X127151847Y-71089524D01*
X127151847Y-71089524D02*
X127104228Y-71184762D01*
X127104228Y-71184762D02*
X127008990Y-71232381D01*
X127008990Y-71232381D02*
X126485180Y-71232381D01*
X127008990Y-71232381D02*
X127104228Y-71280000D01*
X127104228Y-71280000D02*
X127151847Y-71375238D01*
X127151847Y-71375238D02*
X127151847Y-71518095D01*
X127151847Y-71518095D02*
X127104228Y-71613334D01*
X127104228Y-71613334D02*
X127008990Y-71660953D01*
X127008990Y-71660953D02*
X126485180Y-71660953D01*
X137739524Y-102658152D02*
X137739524Y-103658152D01*
X137739524Y-102705771D02*
X137834762Y-102658152D01*
X137834762Y-102658152D02*
X138025238Y-102658152D01*
X138025238Y-102658152D02*
X138120476Y-102705771D01*
X138120476Y-102705771D02*
X138168095Y-102753390D01*
X138168095Y-102753390D02*
X138215714Y-102848628D01*
X138215714Y-102848628D02*
X138215714Y-103134342D01*
X138215714Y-103134342D02*
X138168095Y-103229580D01*
X138168095Y-103229580D02*
X138120476Y-103277200D01*
X138120476Y-103277200D02*
X138025238Y-103324819D01*
X138025238Y-103324819D02*
X137834762Y-103324819D01*
X137834762Y-103324819D02*
X137739524Y-103277200D01*
X139168095Y-103324819D02*
X138596667Y-103324819D01*
X138882381Y-103324819D02*
X138882381Y-102324819D01*
X138882381Y-102324819D02*
X138787143Y-102467676D01*
X138787143Y-102467676D02*
X138691905Y-102562914D01*
X138691905Y-102562914D02*
X138596667Y-102610533D01*
X137739524Y-105198152D02*
X137739524Y-106198152D01*
X137739524Y-105245771D02*
X137834762Y-105198152D01*
X137834762Y-105198152D02*
X138025238Y-105198152D01*
X138025238Y-105198152D02*
X138120476Y-105245771D01*
X138120476Y-105245771D02*
X138168095Y-105293390D01*
X138168095Y-105293390D02*
X138215714Y-105388628D01*
X138215714Y-105388628D02*
X138215714Y-105674342D01*
X138215714Y-105674342D02*
X138168095Y-105769580D01*
X138168095Y-105769580D02*
X138120476Y-105817200D01*
X138120476Y-105817200D02*
X138025238Y-105864819D01*
X138025238Y-105864819D02*
X137834762Y-105864819D01*
X137834762Y-105864819D02*
X137739524Y-105817200D01*
X138596667Y-104960057D02*
X138644286Y-104912438D01*
X138644286Y-104912438D02*
X138739524Y-104864819D01*
X138739524Y-104864819D02*
X138977619Y-104864819D01*
X138977619Y-104864819D02*
X139072857Y-104912438D01*
X139072857Y-104912438D02*
X139120476Y-104960057D01*
X139120476Y-104960057D02*
X139168095Y-105055295D01*
X139168095Y-105055295D02*
X139168095Y-105150533D01*
X139168095Y-105150533D02*
X139120476Y-105293390D01*
X139120476Y-105293390D02*
X138549048Y-105864819D01*
X138549048Y-105864819D02*
X139168095Y-105864819D01*
X137739524Y-107738152D02*
X137739524Y-108738152D01*
X137739524Y-107785771D02*
X137834762Y-107738152D01*
X137834762Y-107738152D02*
X138025238Y-107738152D01*
X138025238Y-107738152D02*
X138120476Y-107785771D01*
X138120476Y-107785771D02*
X138168095Y-107833390D01*
X138168095Y-107833390D02*
X138215714Y-107928628D01*
X138215714Y-107928628D02*
X138215714Y-108214342D01*
X138215714Y-108214342D02*
X138168095Y-108309580D01*
X138168095Y-108309580D02*
X138120476Y-108357200D01*
X138120476Y-108357200D02*
X138025238Y-108404819D01*
X138025238Y-108404819D02*
X137834762Y-108404819D01*
X137834762Y-108404819D02*
X137739524Y-108357200D01*
X138549048Y-107404819D02*
X139168095Y-107404819D01*
X139168095Y-107404819D02*
X138834762Y-107785771D01*
X138834762Y-107785771D02*
X138977619Y-107785771D01*
X138977619Y-107785771D02*
X139072857Y-107833390D01*
X139072857Y-107833390D02*
X139120476Y-107881009D01*
X139120476Y-107881009D02*
X139168095Y-107976247D01*
X139168095Y-107976247D02*
X139168095Y-108214342D01*
X139168095Y-108214342D02*
X139120476Y-108309580D01*
X139120476Y-108309580D02*
X139072857Y-108357200D01*
X139072857Y-108357200D02*
X138977619Y-108404819D01*
X138977619Y-108404819D02*
X138691905Y-108404819D01*
X138691905Y-108404819D02*
X138596667Y-108357200D01*
X138596667Y-108357200D02*
X138549048Y-108309580D01*
X137739524Y-110278152D02*
X137739524Y-111278152D01*
X137739524Y-110325771D02*
X137834762Y-110278152D01*
X137834762Y-110278152D02*
X138025238Y-110278152D01*
X138025238Y-110278152D02*
X138120476Y-110325771D01*
X138120476Y-110325771D02*
X138168095Y-110373390D01*
X138168095Y-110373390D02*
X138215714Y-110468628D01*
X138215714Y-110468628D02*
X138215714Y-110754342D01*
X138215714Y-110754342D02*
X138168095Y-110849580D01*
X138168095Y-110849580D02*
X138120476Y-110897200D01*
X138120476Y-110897200D02*
X138025238Y-110944819D01*
X138025238Y-110944819D02*
X137834762Y-110944819D01*
X137834762Y-110944819D02*
X137739524Y-110897200D01*
X139072857Y-110278152D02*
X139072857Y-110944819D01*
X138834762Y-109897200D02*
X138596667Y-110611485D01*
X138596667Y-110611485D02*
X139215714Y-110611485D01*
X124897561Y-69518095D02*
X124945180Y-69422857D01*
X124945180Y-69422857D02*
X124945180Y-69280000D01*
X124945180Y-69280000D02*
X124897561Y-69137143D01*
X124897561Y-69137143D02*
X124802323Y-69041905D01*
X124802323Y-69041905D02*
X124707085Y-68994286D01*
X124707085Y-68994286D02*
X124516609Y-68946667D01*
X124516609Y-68946667D02*
X124373752Y-68946667D01*
X124373752Y-68946667D02*
X124183276Y-68994286D01*
X124183276Y-68994286D02*
X124088038Y-69041905D01*
X124088038Y-69041905D02*
X123992800Y-69137143D01*
X123992800Y-69137143D02*
X123945180Y-69280000D01*
X123945180Y-69280000D02*
X123945180Y-69375238D01*
X123945180Y-69375238D02*
X123992800Y-69518095D01*
X123992800Y-69518095D02*
X124040419Y-69565714D01*
X124040419Y-69565714D02*
X124373752Y-69565714D01*
X124373752Y-69565714D02*
X124373752Y-69375238D01*
X123945180Y-69994286D02*
X124945180Y-69994286D01*
X124945180Y-69994286D02*
X123945180Y-70565714D01*
X123945180Y-70565714D02*
X124945180Y-70565714D01*
X123945180Y-71041905D02*
X124945180Y-71041905D01*
X124945180Y-71041905D02*
X124945180Y-71280000D01*
X124945180Y-71280000D02*
X124897561Y-71422857D01*
X124897561Y-71422857D02*
X124802323Y-71518095D01*
X124802323Y-71518095D02*
X124707085Y-71565714D01*
X124707085Y-71565714D02*
X124516609Y-71613333D01*
X124516609Y-71613333D02*
X124373752Y-71613333D01*
X124373752Y-71613333D02*
X124183276Y-71565714D01*
X124183276Y-71565714D02*
X124088038Y-71518095D01*
X124088038Y-71518095D02*
X123992800Y-71422857D01*
X123992800Y-71422857D02*
X123945180Y-71280000D01*
X123945180Y-71280000D02*
X123945180Y-71041905D01*
X121405180Y-69660952D02*
X121405180Y-69089524D01*
X121405180Y-69375238D02*
X122405180Y-69375238D01*
X122405180Y-69375238D02*
X122262323Y-69280000D01*
X122262323Y-69280000D02*
X122167085Y-69184762D01*
X122167085Y-69184762D02*
X122119466Y-69089524D01*
X122309942Y-70041905D02*
X122357561Y-70089524D01*
X122357561Y-70089524D02*
X122405180Y-70184762D01*
X122405180Y-70184762D02*
X122405180Y-70422857D01*
X122405180Y-70422857D02*
X122357561Y-70518095D01*
X122357561Y-70518095D02*
X122309942Y-70565714D01*
X122309942Y-70565714D02*
X122214704Y-70613333D01*
X122214704Y-70613333D02*
X122119466Y-70613333D01*
X122119466Y-70613333D02*
X121976609Y-70565714D01*
X121976609Y-70565714D02*
X121405180Y-69994286D01*
X121405180Y-69994286D02*
X121405180Y-70613333D01*
X122405180Y-70899048D02*
X121405180Y-71232381D01*
X121405180Y-71232381D02*
X122405180Y-71565714D01*
D11*
X103924285Y-105878328D02*
X103924285Y-104378328D01*
X103924285Y-104378328D02*
X104495714Y-104378328D01*
X104495714Y-104378328D02*
X104638571Y-104449757D01*
X104638571Y-104449757D02*
X104710000Y-104521185D01*
X104710000Y-104521185D02*
X104781428Y-104664042D01*
X104781428Y-104664042D02*
X104781428Y-104878328D01*
X104781428Y-104878328D02*
X104710000Y-105021185D01*
X104710000Y-105021185D02*
X104638571Y-105092614D01*
X104638571Y-105092614D02*
X104495714Y-105164042D01*
X104495714Y-105164042D02*
X103924285Y-105164042D01*
X105352857Y-105449757D02*
X106067143Y-105449757D01*
X105210000Y-105878328D02*
X105710000Y-104378328D01*
X105710000Y-104378328D02*
X106210000Y-105878328D01*
D10*
X137668095Y-112532438D02*
X137572857Y-112484819D01*
X137572857Y-112484819D02*
X137430000Y-112484819D01*
X137430000Y-112484819D02*
X137287143Y-112532438D01*
X137287143Y-112532438D02*
X137191905Y-112627676D01*
X137191905Y-112627676D02*
X137144286Y-112722914D01*
X137144286Y-112722914D02*
X137096667Y-112913390D01*
X137096667Y-112913390D02*
X137096667Y-113056247D01*
X137096667Y-113056247D02*
X137144286Y-113246723D01*
X137144286Y-113246723D02*
X137191905Y-113341961D01*
X137191905Y-113341961D02*
X137287143Y-113437200D01*
X137287143Y-113437200D02*
X137430000Y-113484819D01*
X137430000Y-113484819D02*
X137525238Y-113484819D01*
X137525238Y-113484819D02*
X137668095Y-113437200D01*
X137668095Y-113437200D02*
X137715714Y-113389580D01*
X137715714Y-113389580D02*
X137715714Y-113056247D01*
X137715714Y-113056247D02*
X137525238Y-113056247D01*
X138144286Y-113484819D02*
X138144286Y-112484819D01*
X138144286Y-112484819D02*
X138715714Y-113484819D01*
X138715714Y-113484819D02*
X138715714Y-112484819D01*
X139191905Y-113484819D02*
X139191905Y-112484819D01*
X139191905Y-112484819D02*
X139430000Y-112484819D01*
X139430000Y-112484819D02*
X139572857Y-112532438D01*
X139572857Y-112532438D02*
X139668095Y-112627676D01*
X139668095Y-112627676D02*
X139715714Y-112722914D01*
X139715714Y-112722914D02*
X139763333Y-112913390D01*
X139763333Y-112913390D02*
X139763333Y-113056247D01*
X139763333Y-113056247D02*
X139715714Y-113246723D01*
X139715714Y-113246723D02*
X139668095Y-113341961D01*
X139668095Y-113341961D02*
X139572857Y-113437200D01*
X139572857Y-113437200D02*
X139430000Y-113484819D01*
X139430000Y-113484819D02*
X139191905Y-113484819D01*
X138239523Y-115024819D02*
X137763333Y-115024819D01*
X137763333Y-115024819D02*
X137715714Y-115501009D01*
X137715714Y-115501009D02*
X137763333Y-115453390D01*
X137763333Y-115453390D02*
X137858571Y-115405771D01*
X137858571Y-115405771D02*
X138096666Y-115405771D01*
X138096666Y-115405771D02*
X138191904Y-115453390D01*
X138191904Y-115453390D02*
X138239523Y-115501009D01*
X138239523Y-115501009D02*
X138287142Y-115596247D01*
X138287142Y-115596247D02*
X138287142Y-115834342D01*
X138287142Y-115834342D02*
X138239523Y-115929580D01*
X138239523Y-115929580D02*
X138191904Y-115977200D01*
X138191904Y-115977200D02*
X138096666Y-116024819D01*
X138096666Y-116024819D02*
X137858571Y-116024819D01*
X137858571Y-116024819D02*
X137763333Y-115977200D01*
X137763333Y-115977200D02*
X137715714Y-115929580D01*
X138572857Y-115024819D02*
X138906190Y-116024819D01*
X138906190Y-116024819D02*
X139239523Y-115024819D01*
X135821009Y-110077142D02*
X135868628Y-109934285D01*
X135868628Y-109934285D02*
X135916247Y-109886666D01*
X135916247Y-109886666D02*
X136011485Y-109839047D01*
X136011485Y-109839047D02*
X136154342Y-109839047D01*
X136154342Y-109839047D02*
X136249580Y-109886666D01*
X136249580Y-109886666D02*
X136297200Y-109934285D01*
X136297200Y-109934285D02*
X136344819Y-110029523D01*
X136344819Y-110029523D02*
X136344819Y-110410475D01*
X136344819Y-110410475D02*
X135344819Y-110410475D01*
X135344819Y-110410475D02*
X135344819Y-110077142D01*
X135344819Y-110077142D02*
X135392438Y-109981904D01*
X135392438Y-109981904D02*
X135440057Y-109934285D01*
X135440057Y-109934285D02*
X135535295Y-109886666D01*
X135535295Y-109886666D02*
X135630533Y-109886666D01*
X135630533Y-109886666D02*
X135725771Y-109934285D01*
X135725771Y-109934285D02*
X135773390Y-109981904D01*
X135773390Y-109981904D02*
X135821009Y-110077142D01*
X135821009Y-110077142D02*
X135821009Y-110410475D01*
X136344819Y-109410475D02*
X135344819Y-109410475D01*
X135344819Y-109410475D02*
X135344819Y-109029523D01*
X135344819Y-109029523D02*
X135392438Y-108934285D01*
X135392438Y-108934285D02*
X135440057Y-108886666D01*
X135440057Y-108886666D02*
X135535295Y-108839047D01*
X135535295Y-108839047D02*
X135678152Y-108839047D01*
X135678152Y-108839047D02*
X135773390Y-108886666D01*
X135773390Y-108886666D02*
X135821009Y-108934285D01*
X135821009Y-108934285D02*
X135868628Y-109029523D01*
X135868628Y-109029523D02*
X135868628Y-109410475D01*
X135821009Y-108077142D02*
X135821009Y-108410475D01*
X136344819Y-108410475D02*
X135344819Y-108410475D01*
X135344819Y-108410475D02*
X135344819Y-107934285D01*
X136480952Y-70734819D02*
X136004762Y-70734819D01*
X136004762Y-70734819D02*
X136004762Y-69734819D01*
X136814286Y-70734819D02*
X136814286Y-69734819D01*
X136814286Y-69734819D02*
X137195238Y-69734819D01*
X137195238Y-69734819D02*
X137290476Y-69782438D01*
X137290476Y-69782438D02*
X137338095Y-69830057D01*
X137338095Y-69830057D02*
X137385714Y-69925295D01*
X137385714Y-69925295D02*
X137385714Y-70068152D01*
X137385714Y-70068152D02*
X137338095Y-70163390D01*
X137338095Y-70163390D02*
X137290476Y-70211009D01*
X137290476Y-70211009D02*
X137195238Y-70258628D01*
X137195238Y-70258628D02*
X136814286Y-70258628D01*
X138147619Y-70211009D02*
X137814286Y-70211009D01*
X137814286Y-70734819D02*
X137814286Y-69734819D01*
X137814286Y-69734819D02*
X138290476Y-69734819D01*
X106134819Y-103432856D02*
X106134819Y-102861428D01*
X107134819Y-103147142D02*
X106134819Y-103147142D01*
X106087200Y-101813809D02*
X107372914Y-102670951D01*
X107134819Y-100909047D02*
X106658628Y-101242380D01*
X107134819Y-101480475D02*
X106134819Y-101480475D01*
X106134819Y-101480475D02*
X106134819Y-101099523D01*
X106134819Y-101099523D02*
X106182438Y-101004285D01*
X106182438Y-101004285D02*
X106230057Y-100956666D01*
X106230057Y-100956666D02*
X106325295Y-100909047D01*
X106325295Y-100909047D02*
X106468152Y-100909047D01*
X106468152Y-100909047D02*
X106563390Y-100956666D01*
X106563390Y-100956666D02*
X106611009Y-101004285D01*
X106611009Y-101004285D02*
X106658628Y-101099523D01*
X106658628Y-101099523D02*
X106658628Y-101480475D01*
X107087200Y-99766189D02*
X107134819Y-99623332D01*
X107134819Y-99623332D02*
X107134819Y-99385237D01*
X107134819Y-99385237D02*
X107087200Y-99289999D01*
X107087200Y-99289999D02*
X107039580Y-99242380D01*
X107039580Y-99242380D02*
X106944342Y-99194761D01*
X106944342Y-99194761D02*
X106849104Y-99194761D01*
X106849104Y-99194761D02*
X106753866Y-99242380D01*
X106753866Y-99242380D02*
X106706247Y-99289999D01*
X106706247Y-99289999D02*
X106658628Y-99385237D01*
X106658628Y-99385237D02*
X106611009Y-99575713D01*
X106611009Y-99575713D02*
X106563390Y-99670951D01*
X106563390Y-99670951D02*
X106515771Y-99718570D01*
X106515771Y-99718570D02*
X106420533Y-99766189D01*
X106420533Y-99766189D02*
X106325295Y-99766189D01*
X106325295Y-99766189D02*
X106230057Y-99718570D01*
X106230057Y-99718570D02*
X106182438Y-99670951D01*
X106182438Y-99670951D02*
X106134819Y-99575713D01*
X106134819Y-99575713D02*
X106134819Y-99337618D01*
X106134819Y-99337618D02*
X106182438Y-99194761D01*
X106468152Y-98861427D02*
X107134819Y-98670951D01*
X107134819Y-98670951D02*
X106658628Y-98480475D01*
X106658628Y-98480475D02*
X107134819Y-98289999D01*
X107134819Y-98289999D02*
X106468152Y-98099523D01*
X107134819Y-97718570D02*
X106468152Y-97718570D01*
X106134819Y-97718570D02*
X106182438Y-97766189D01*
X106182438Y-97766189D02*
X106230057Y-97718570D01*
X106230057Y-97718570D02*
X106182438Y-97670951D01*
X106182438Y-97670951D02*
X106134819Y-97718570D01*
X106134819Y-97718570D02*
X106230057Y-97718570D01*
X106468152Y-97385237D02*
X106468152Y-97004285D01*
X106134819Y-97242380D02*
X106991961Y-97242380D01*
X106991961Y-97242380D02*
X107087200Y-97194761D01*
X107087200Y-97194761D02*
X107134819Y-97099523D01*
X107134819Y-97099523D02*
X107134819Y-97004285D01*
X107087200Y-96242380D02*
X107134819Y-96337618D01*
X107134819Y-96337618D02*
X107134819Y-96528094D01*
X107134819Y-96528094D02*
X107087200Y-96623332D01*
X107087200Y-96623332D02*
X107039580Y-96670951D01*
X107039580Y-96670951D02*
X106944342Y-96718570D01*
X106944342Y-96718570D02*
X106658628Y-96718570D01*
X106658628Y-96718570D02*
X106563390Y-96670951D01*
X106563390Y-96670951D02*
X106515771Y-96623332D01*
X106515771Y-96623332D02*
X106468152Y-96528094D01*
X106468152Y-96528094D02*
X106468152Y-96337618D01*
X106468152Y-96337618D02*
X106515771Y-96242380D01*
X107134819Y-95813808D02*
X106134819Y-95813808D01*
X107134819Y-95385237D02*
X106611009Y-95385237D01*
X106611009Y-95385237D02*
X106515771Y-95432856D01*
X106515771Y-95432856D02*
X106468152Y-95528094D01*
X106468152Y-95528094D02*
X106468152Y-95670951D01*
X106468152Y-95670951D02*
X106515771Y-95766189D01*
X106515771Y-95766189D02*
X106563390Y-95813808D01*
X106753866Y-94909046D02*
X106753866Y-94147142D01*
X107134819Y-93670951D02*
X106134819Y-93670951D01*
X106134819Y-93670951D02*
X106134819Y-93289999D01*
X106134819Y-93289999D02*
X106182438Y-93194761D01*
X106182438Y-93194761D02*
X106230057Y-93147142D01*
X106230057Y-93147142D02*
X106325295Y-93099523D01*
X106325295Y-93099523D02*
X106468152Y-93099523D01*
X106468152Y-93099523D02*
X106563390Y-93147142D01*
X106563390Y-93147142D02*
X106611009Y-93194761D01*
X106611009Y-93194761D02*
X106658628Y-93289999D01*
X106658628Y-93289999D02*
X106658628Y-93670951D01*
X106849104Y-92718570D02*
X106849104Y-92242380D01*
X107134819Y-92813808D02*
X106134819Y-92480475D01*
X106134819Y-92480475D02*
X107134819Y-92147142D01*
X123644819Y-95869047D02*
X123644819Y-96440475D01*
X123644819Y-96154761D02*
X122644819Y-96154761D01*
X122644819Y-96154761D02*
X122787676Y-96249999D01*
X122787676Y-96249999D02*
X122882914Y-96345237D01*
X122882914Y-96345237D02*
X122930533Y-96440475D01*
X122740057Y-95488094D02*
X122692438Y-95440475D01*
X122692438Y-95440475D02*
X122644819Y-95345237D01*
X122644819Y-95345237D02*
X122644819Y-95107142D01*
X122644819Y-95107142D02*
X122692438Y-95011904D01*
X122692438Y-95011904D02*
X122740057Y-94964285D01*
X122740057Y-94964285D02*
X122835295Y-94916666D01*
X122835295Y-94916666D02*
X122930533Y-94916666D01*
X122930533Y-94916666D02*
X123073390Y-94964285D01*
X123073390Y-94964285D02*
X123644819Y-95535713D01*
X123644819Y-95535713D02*
X123644819Y-94916666D01*
X122644819Y-94630951D02*
X123644819Y-94297618D01*
X123644819Y-94297618D02*
X122644819Y-93964285D01*
X118452295Y-74235238D02*
X118452295Y-74692381D01*
X118452295Y-74463809D02*
X117652295Y-74463809D01*
X117652295Y-74463809D02*
X117766580Y-74540000D01*
X117766580Y-74540000D02*
X117842771Y-74616190D01*
X117842771Y-74616190D02*
X117880866Y-74692381D01*
X117728485Y-73930476D02*
X117690390Y-73892380D01*
X117690390Y-73892380D02*
X117652295Y-73816190D01*
X117652295Y-73816190D02*
X117652295Y-73625714D01*
X117652295Y-73625714D02*
X117690390Y-73549523D01*
X117690390Y-73549523D02*
X117728485Y-73511428D01*
X117728485Y-73511428D02*
X117804676Y-73473333D01*
X117804676Y-73473333D02*
X117880866Y-73473333D01*
X117880866Y-73473333D02*
X117995152Y-73511428D01*
X117995152Y-73511428D02*
X118452295Y-73968571D01*
X118452295Y-73968571D02*
X118452295Y-73473333D01*
X117652295Y-73244761D02*
X118452295Y-72978094D01*
X118452295Y-72978094D02*
X117652295Y-72711428D01*
D11*
X117380001Y-114978328D02*
X116522858Y-114978328D01*
X116951429Y-114978328D02*
X116951429Y-113478328D01*
X116951429Y-113478328D02*
X116808572Y-113692614D01*
X116808572Y-113692614D02*
X116665715Y-113835471D01*
X116665715Y-113835471D02*
X116522858Y-113906900D01*
X117880000Y-113478328D02*
X118808572Y-113478328D01*
X118808572Y-113478328D02*
X118308572Y-114049757D01*
X118308572Y-114049757D02*
X118522857Y-114049757D01*
X118522857Y-114049757D02*
X118665715Y-114121185D01*
X118665715Y-114121185D02*
X118737143Y-114192614D01*
X118737143Y-114192614D02*
X118808572Y-114335471D01*
X118808572Y-114335471D02*
X118808572Y-114692614D01*
X118808572Y-114692614D02*
X118737143Y-114835471D01*
X118737143Y-114835471D02*
X118665715Y-114906900D01*
X118665715Y-114906900D02*
X118522857Y-114978328D01*
X118522857Y-114978328D02*
X118094286Y-114978328D01*
X118094286Y-114978328D02*
X117951429Y-114906900D01*
X117951429Y-114906900D02*
X117880000Y-114835471D01*
X119451428Y-114835471D02*
X119522857Y-114906900D01*
X119522857Y-114906900D02*
X119451428Y-114978328D01*
X119451428Y-114978328D02*
X119380000Y-114906900D01*
X119380000Y-114906900D02*
X119451428Y-114835471D01*
X119451428Y-114835471D02*
X119451428Y-114978328D01*
X120880000Y-113478328D02*
X120165714Y-113478328D01*
X120165714Y-113478328D02*
X120094286Y-114192614D01*
X120094286Y-114192614D02*
X120165714Y-114121185D01*
X120165714Y-114121185D02*
X120308572Y-114049757D01*
X120308572Y-114049757D02*
X120665714Y-114049757D01*
X120665714Y-114049757D02*
X120808572Y-114121185D01*
X120808572Y-114121185D02*
X120880000Y-114192614D01*
X120880000Y-114192614D02*
X120951429Y-114335471D01*
X120951429Y-114335471D02*
X120951429Y-114692614D01*
X120951429Y-114692614D02*
X120880000Y-114835471D01*
X120880000Y-114835471D02*
X120808572Y-114906900D01*
X120808572Y-114906900D02*
X120665714Y-114978328D01*
X120665714Y-114978328D02*
X120308572Y-114978328D01*
X120308572Y-114978328D02*
X120165714Y-114906900D01*
X120165714Y-114906900D02*
X120094286Y-114835471D01*
X121380000Y-113478328D02*
X121880000Y-114978328D01*
X121880000Y-114978328D02*
X122380000Y-113478328D01*
X118227143Y-118609757D02*
X118084286Y-118538328D01*
X118084286Y-118538328D02*
X117870000Y-118538328D01*
X117870000Y-118538328D02*
X117655714Y-118609757D01*
X117655714Y-118609757D02*
X117512857Y-118752614D01*
X117512857Y-118752614D02*
X117441428Y-118895471D01*
X117441428Y-118895471D02*
X117370000Y-119181185D01*
X117370000Y-119181185D02*
X117370000Y-119395471D01*
X117370000Y-119395471D02*
X117441428Y-119681185D01*
X117441428Y-119681185D02*
X117512857Y-119824042D01*
X117512857Y-119824042D02*
X117655714Y-119966900D01*
X117655714Y-119966900D02*
X117870000Y-120038328D01*
X117870000Y-120038328D02*
X118012857Y-120038328D01*
X118012857Y-120038328D02*
X118227143Y-119966900D01*
X118227143Y-119966900D02*
X118298571Y-119895471D01*
X118298571Y-119895471D02*
X118298571Y-119395471D01*
X118298571Y-119395471D02*
X118012857Y-119395471D01*
X118941428Y-120038328D02*
X118941428Y-118538328D01*
X118941428Y-118538328D02*
X119798571Y-120038328D01*
X119798571Y-120038328D02*
X119798571Y-118538328D01*
X120512857Y-120038328D02*
X120512857Y-118538328D01*
X120512857Y-118538328D02*
X120870000Y-118538328D01*
X120870000Y-118538328D02*
X121084286Y-118609757D01*
X121084286Y-118609757D02*
X121227143Y-118752614D01*
X121227143Y-118752614D02*
X121298572Y-118895471D01*
X121298572Y-118895471D02*
X121370000Y-119181185D01*
X121370000Y-119181185D02*
X121370000Y-119395471D01*
X121370000Y-119395471D02*
X121298572Y-119681185D01*
X121298572Y-119681185D02*
X121227143Y-119824042D01*
X121227143Y-119824042D02*
X121084286Y-119966900D01*
X121084286Y-119966900D02*
X120870000Y-120038328D01*
X120870000Y-120038328D02*
X120512857Y-120038328D01*
D10*
X117612438Y-96011904D02*
X117564819Y-96107142D01*
X117564819Y-96107142D02*
X117564819Y-96249999D01*
X117564819Y-96249999D02*
X117612438Y-96392856D01*
X117612438Y-96392856D02*
X117707676Y-96488094D01*
X117707676Y-96488094D02*
X117802914Y-96535713D01*
X117802914Y-96535713D02*
X117993390Y-96583332D01*
X117993390Y-96583332D02*
X118136247Y-96583332D01*
X118136247Y-96583332D02*
X118326723Y-96535713D01*
X118326723Y-96535713D02*
X118421961Y-96488094D01*
X118421961Y-96488094D02*
X118517200Y-96392856D01*
X118517200Y-96392856D02*
X118564819Y-96249999D01*
X118564819Y-96249999D02*
X118564819Y-96154761D01*
X118564819Y-96154761D02*
X118517200Y-96011904D01*
X118517200Y-96011904D02*
X118469580Y-95964285D01*
X118469580Y-95964285D02*
X118136247Y-95964285D01*
X118136247Y-95964285D02*
X118136247Y-96154761D01*
X118564819Y-95535713D02*
X117564819Y-95535713D01*
X117564819Y-95535713D02*
X118564819Y-94964285D01*
X118564819Y-94964285D02*
X117564819Y-94964285D01*
X118564819Y-94488094D02*
X117564819Y-94488094D01*
X117564819Y-94488094D02*
X117564819Y-94249999D01*
X117564819Y-94249999D02*
X117612438Y-94107142D01*
X117612438Y-94107142D02*
X117707676Y-94011904D01*
X117707676Y-94011904D02*
X117802914Y-93964285D01*
X117802914Y-93964285D02*
X117993390Y-93916666D01*
X117993390Y-93916666D02*
X118136247Y-93916666D01*
X118136247Y-93916666D02*
X118326723Y-93964285D01*
X118326723Y-93964285D02*
X118421961Y-94011904D01*
X118421961Y-94011904D02*
X118517200Y-94107142D01*
X118517200Y-94107142D02*
X118564819Y-94249999D01*
X118564819Y-94249999D02*
X118564819Y-94488094D01*
X178254819Y-83176667D02*
X177778628Y-83510000D01*
X178254819Y-83748095D02*
X177254819Y-83748095D01*
X177254819Y-83748095D02*
X177254819Y-83367143D01*
X177254819Y-83367143D02*
X177302438Y-83271905D01*
X177302438Y-83271905D02*
X177350057Y-83224286D01*
X177350057Y-83224286D02*
X177445295Y-83176667D01*
X177445295Y-83176667D02*
X177588152Y-83176667D01*
X177588152Y-83176667D02*
X177683390Y-83224286D01*
X177683390Y-83224286D02*
X177731009Y-83271905D01*
X177731009Y-83271905D02*
X177778628Y-83367143D01*
X177778628Y-83367143D02*
X177778628Y-83748095D01*
X178254819Y-82319524D02*
X177731009Y-82319524D01*
X177731009Y-82319524D02*
X177635771Y-82367143D01*
X177635771Y-82367143D02*
X177588152Y-82462381D01*
X177588152Y-82462381D02*
X177588152Y-82652857D01*
X177588152Y-82652857D02*
X177635771Y-82748095D01*
X178207200Y-82319524D02*
X178254819Y-82414762D01*
X178254819Y-82414762D02*
X178254819Y-82652857D01*
X178254819Y-82652857D02*
X178207200Y-82748095D01*
X178207200Y-82748095D02*
X178111961Y-82795714D01*
X178111961Y-82795714D02*
X178016723Y-82795714D01*
X178016723Y-82795714D02*
X177921485Y-82748095D01*
X177921485Y-82748095D02*
X177873866Y-82652857D01*
X177873866Y-82652857D02*
X177873866Y-82414762D01*
X177873866Y-82414762D02*
X177826247Y-82319524D01*
X178254819Y-81414762D02*
X177254819Y-81414762D01*
X178207200Y-81414762D02*
X178254819Y-81510000D01*
X178254819Y-81510000D02*
X178254819Y-81700476D01*
X178254819Y-81700476D02*
X178207200Y-81795714D01*
X178207200Y-81795714D02*
X178159580Y-81843333D01*
X178159580Y-81843333D02*
X178064342Y-81890952D01*
X178064342Y-81890952D02*
X177778628Y-81890952D01*
X177778628Y-81890952D02*
X177683390Y-81843333D01*
X177683390Y-81843333D02*
X177635771Y-81795714D01*
X177635771Y-81795714D02*
X177588152Y-81700476D01*
X177588152Y-81700476D02*
X177588152Y-81510000D01*
X177588152Y-81510000D02*
X177635771Y-81414762D01*
X178254819Y-80938571D02*
X177588152Y-80938571D01*
X177254819Y-80938571D02*
X177302438Y-80986190D01*
X177302438Y-80986190D02*
X177350057Y-80938571D01*
X177350057Y-80938571D02*
X177302438Y-80890952D01*
X177302438Y-80890952D02*
X177254819Y-80938571D01*
X177254819Y-80938571D02*
X177350057Y-80938571D01*
X178254819Y-80319524D02*
X178207200Y-80414762D01*
X178207200Y-80414762D02*
X178159580Y-80462381D01*
X178159580Y-80462381D02*
X178064342Y-80510000D01*
X178064342Y-80510000D02*
X177778628Y-80510000D01*
X177778628Y-80510000D02*
X177683390Y-80462381D01*
X177683390Y-80462381D02*
X177635771Y-80414762D01*
X177635771Y-80414762D02*
X177588152Y-80319524D01*
X177588152Y-80319524D02*
X177588152Y-80176667D01*
X177588152Y-80176667D02*
X177635771Y-80081429D01*
X177635771Y-80081429D02*
X177683390Y-80033810D01*
X177683390Y-80033810D02*
X177778628Y-79986191D01*
X177778628Y-79986191D02*
X178064342Y-79986191D01*
X178064342Y-79986191D02*
X178159580Y-80033810D01*
X178159580Y-80033810D02*
X178207200Y-80081429D01*
X178207200Y-80081429D02*
X178254819Y-80176667D01*
X178254819Y-80176667D02*
X178254819Y-80319524D01*
X178254819Y-79557619D02*
X177254819Y-79557619D01*
X177635771Y-79557619D02*
X177588152Y-79462381D01*
X177588152Y-79462381D02*
X177588152Y-79271905D01*
X177588152Y-79271905D02*
X177635771Y-79176667D01*
X177635771Y-79176667D02*
X177683390Y-79129048D01*
X177683390Y-79129048D02*
X177778628Y-79081429D01*
X177778628Y-79081429D02*
X178064342Y-79081429D01*
X178064342Y-79081429D02*
X178159580Y-79129048D01*
X178159580Y-79129048D02*
X178207200Y-79176667D01*
X178207200Y-79176667D02*
X178254819Y-79271905D01*
X178254819Y-79271905D02*
X178254819Y-79462381D01*
X178254819Y-79462381D02*
X178207200Y-79557619D01*
X178207200Y-78271905D02*
X178254819Y-78367143D01*
X178254819Y-78367143D02*
X178254819Y-78557619D01*
X178254819Y-78557619D02*
X178207200Y-78652857D01*
X178207200Y-78652857D02*
X178111961Y-78700476D01*
X178111961Y-78700476D02*
X177731009Y-78700476D01*
X177731009Y-78700476D02*
X177635771Y-78652857D01*
X177635771Y-78652857D02*
X177588152Y-78557619D01*
X177588152Y-78557619D02*
X177588152Y-78367143D01*
X177588152Y-78367143D02*
X177635771Y-78271905D01*
X177635771Y-78271905D02*
X177731009Y-78224286D01*
X177731009Y-78224286D02*
X177826247Y-78224286D01*
X177826247Y-78224286D02*
X177921485Y-78700476D01*
X178254819Y-77795714D02*
X177588152Y-77795714D01*
X177778628Y-77795714D02*
X177683390Y-77748095D01*
X177683390Y-77748095D02*
X177635771Y-77700476D01*
X177635771Y-77700476D02*
X177588152Y-77605238D01*
X177588152Y-77605238D02*
X177588152Y-77510000D01*
X178254819Y-77176666D02*
X177588152Y-77176666D01*
X177778628Y-77176666D02*
X177683390Y-77129047D01*
X177683390Y-77129047D02*
X177635771Y-77081428D01*
X177635771Y-77081428D02*
X177588152Y-76986190D01*
X177588152Y-76986190D02*
X177588152Y-76890952D01*
X177588152Y-76652856D02*
X178254819Y-76414761D01*
X177588152Y-76176666D02*
X178254819Y-76414761D01*
X178254819Y-76414761D02*
X178492914Y-76509999D01*
X178492914Y-76509999D02*
X178540533Y-76557618D01*
X178540533Y-76557618D02*
X178588152Y-76652856D01*
X188789524Y-84187200D02*
X188932381Y-84234819D01*
X188932381Y-84234819D02*
X189170476Y-84234819D01*
X189170476Y-84234819D02*
X189265714Y-84187200D01*
X189265714Y-84187200D02*
X189313333Y-84139580D01*
X189313333Y-84139580D02*
X189360952Y-84044342D01*
X189360952Y-84044342D02*
X189360952Y-83949104D01*
X189360952Y-83949104D02*
X189313333Y-83853866D01*
X189313333Y-83853866D02*
X189265714Y-83806247D01*
X189265714Y-83806247D02*
X189170476Y-83758628D01*
X189170476Y-83758628D02*
X188980000Y-83711009D01*
X188980000Y-83711009D02*
X188884762Y-83663390D01*
X188884762Y-83663390D02*
X188837143Y-83615771D01*
X188837143Y-83615771D02*
X188789524Y-83520533D01*
X188789524Y-83520533D02*
X188789524Y-83425295D01*
X188789524Y-83425295D02*
X188837143Y-83330057D01*
X188837143Y-83330057D02*
X188884762Y-83282438D01*
X188884762Y-83282438D02*
X188980000Y-83234819D01*
X188980000Y-83234819D02*
X189218095Y-83234819D01*
X189218095Y-83234819D02*
X189360952Y-83282438D01*
X190360952Y-84139580D02*
X190313333Y-84187200D01*
X190313333Y-84187200D02*
X190170476Y-84234819D01*
X190170476Y-84234819D02*
X190075238Y-84234819D01*
X190075238Y-84234819D02*
X189932381Y-84187200D01*
X189932381Y-84187200D02*
X189837143Y-84091961D01*
X189837143Y-84091961D02*
X189789524Y-83996723D01*
X189789524Y-83996723D02*
X189741905Y-83806247D01*
X189741905Y-83806247D02*
X189741905Y-83663390D01*
X189741905Y-83663390D02*
X189789524Y-83472914D01*
X189789524Y-83472914D02*
X189837143Y-83377676D01*
X189837143Y-83377676D02*
X189932381Y-83282438D01*
X189932381Y-83282438D02*
X190075238Y-83234819D01*
X190075238Y-83234819D02*
X190170476Y-83234819D01*
X190170476Y-83234819D02*
X190313333Y-83282438D01*
X190313333Y-83282438D02*
X190360952Y-83330057D01*
X191265714Y-84234819D02*
X190789524Y-84234819D01*
X190789524Y-84234819D02*
X190789524Y-83234819D01*
X188765714Y-86727200D02*
X188908571Y-86774819D01*
X188908571Y-86774819D02*
X189146666Y-86774819D01*
X189146666Y-86774819D02*
X189241904Y-86727200D01*
X189241904Y-86727200D02*
X189289523Y-86679580D01*
X189289523Y-86679580D02*
X189337142Y-86584342D01*
X189337142Y-86584342D02*
X189337142Y-86489104D01*
X189337142Y-86489104D02*
X189289523Y-86393866D01*
X189289523Y-86393866D02*
X189241904Y-86346247D01*
X189241904Y-86346247D02*
X189146666Y-86298628D01*
X189146666Y-86298628D02*
X188956190Y-86251009D01*
X188956190Y-86251009D02*
X188860952Y-86203390D01*
X188860952Y-86203390D02*
X188813333Y-86155771D01*
X188813333Y-86155771D02*
X188765714Y-86060533D01*
X188765714Y-86060533D02*
X188765714Y-85965295D01*
X188765714Y-85965295D02*
X188813333Y-85870057D01*
X188813333Y-85870057D02*
X188860952Y-85822438D01*
X188860952Y-85822438D02*
X188956190Y-85774819D01*
X188956190Y-85774819D02*
X189194285Y-85774819D01*
X189194285Y-85774819D02*
X189337142Y-85822438D01*
X189765714Y-86774819D02*
X189765714Y-85774819D01*
X189765714Y-85774819D02*
X190003809Y-85774819D01*
X190003809Y-85774819D02*
X190146666Y-85822438D01*
X190146666Y-85822438D02*
X190241904Y-85917676D01*
X190241904Y-85917676D02*
X190289523Y-86012914D01*
X190289523Y-86012914D02*
X190337142Y-86203390D01*
X190337142Y-86203390D02*
X190337142Y-86346247D01*
X190337142Y-86346247D02*
X190289523Y-86536723D01*
X190289523Y-86536723D02*
X190241904Y-86631961D01*
X190241904Y-86631961D02*
X190146666Y-86727200D01*
X190146666Y-86727200D02*
X190003809Y-86774819D01*
X190003809Y-86774819D02*
X189765714Y-86774819D01*
X190718095Y-86489104D02*
X191194285Y-86489104D01*
X190622857Y-86774819D02*
X190956190Y-85774819D01*
X190956190Y-85774819D02*
X191289523Y-86774819D01*
X189218095Y-80742438D02*
X189122857Y-80694819D01*
X189122857Y-80694819D02*
X188980000Y-80694819D01*
X188980000Y-80694819D02*
X188837143Y-80742438D01*
X188837143Y-80742438D02*
X188741905Y-80837676D01*
X188741905Y-80837676D02*
X188694286Y-80932914D01*
X188694286Y-80932914D02*
X188646667Y-81123390D01*
X188646667Y-81123390D02*
X188646667Y-81266247D01*
X188646667Y-81266247D02*
X188694286Y-81456723D01*
X188694286Y-81456723D02*
X188741905Y-81551961D01*
X188741905Y-81551961D02*
X188837143Y-81647200D01*
X188837143Y-81647200D02*
X188980000Y-81694819D01*
X188980000Y-81694819D02*
X189075238Y-81694819D01*
X189075238Y-81694819D02*
X189218095Y-81647200D01*
X189218095Y-81647200D02*
X189265714Y-81599580D01*
X189265714Y-81599580D02*
X189265714Y-81266247D01*
X189265714Y-81266247D02*
X189075238Y-81266247D01*
X189694286Y-81694819D02*
X189694286Y-80694819D01*
X189694286Y-80694819D02*
X190265714Y-81694819D01*
X190265714Y-81694819D02*
X190265714Y-80694819D01*
X190741905Y-81694819D02*
X190741905Y-80694819D01*
X190741905Y-80694819D02*
X190980000Y-80694819D01*
X190980000Y-80694819D02*
X191122857Y-80742438D01*
X191122857Y-80742438D02*
X191218095Y-80837676D01*
X191218095Y-80837676D02*
X191265714Y-80932914D01*
X191265714Y-80932914D02*
X191313333Y-81123390D01*
X191313333Y-81123390D02*
X191313333Y-81266247D01*
X191313333Y-81266247D02*
X191265714Y-81456723D01*
X191265714Y-81456723D02*
X191218095Y-81551961D01*
X191218095Y-81551961D02*
X191122857Y-81647200D01*
X191122857Y-81647200D02*
X190980000Y-81694819D01*
X190980000Y-81694819D02*
X190741905Y-81694819D01*
X189789523Y-78154819D02*
X189313333Y-78154819D01*
X189313333Y-78154819D02*
X189265714Y-78631009D01*
X189265714Y-78631009D02*
X189313333Y-78583390D01*
X189313333Y-78583390D02*
X189408571Y-78535771D01*
X189408571Y-78535771D02*
X189646666Y-78535771D01*
X189646666Y-78535771D02*
X189741904Y-78583390D01*
X189741904Y-78583390D02*
X189789523Y-78631009D01*
X189789523Y-78631009D02*
X189837142Y-78726247D01*
X189837142Y-78726247D02*
X189837142Y-78964342D01*
X189837142Y-78964342D02*
X189789523Y-79059580D01*
X189789523Y-79059580D02*
X189741904Y-79107200D01*
X189741904Y-79107200D02*
X189646666Y-79154819D01*
X189646666Y-79154819D02*
X189408571Y-79154819D01*
X189408571Y-79154819D02*
X189313333Y-79107200D01*
X189313333Y-79107200D02*
X189265714Y-79059580D01*
X190122857Y-78154819D02*
X190456190Y-79154819D01*
X190456190Y-79154819D02*
X190789523Y-78154819D01*
X188956190Y-74074819D02*
X188956190Y-73074819D01*
X188956190Y-73074819D02*
X189337142Y-73074819D01*
X189337142Y-73074819D02*
X189432380Y-73122438D01*
X189432380Y-73122438D02*
X189479999Y-73170057D01*
X189479999Y-73170057D02*
X189527618Y-73265295D01*
X189527618Y-73265295D02*
X189527618Y-73408152D01*
X189527618Y-73408152D02*
X189479999Y-73503390D01*
X189479999Y-73503390D02*
X189432380Y-73551009D01*
X189432380Y-73551009D02*
X189337142Y-73598628D01*
X189337142Y-73598628D02*
X188956190Y-73598628D01*
X189813333Y-73074819D02*
X190384761Y-73074819D01*
X190099047Y-74074819D02*
X190099047Y-73074819D01*
X190575238Y-73074819D02*
X191146666Y-73074819D01*
X190860952Y-74074819D02*
X190860952Y-73074819D01*
D11*
X197784286Y-81128328D02*
X197070000Y-81128328D01*
X197070000Y-81128328D02*
X196998572Y-81842614D01*
X196998572Y-81842614D02*
X197070000Y-81771185D01*
X197070000Y-81771185D02*
X197212858Y-81699757D01*
X197212858Y-81699757D02*
X197570000Y-81699757D01*
X197570000Y-81699757D02*
X197712858Y-81771185D01*
X197712858Y-81771185D02*
X197784286Y-81842614D01*
X197784286Y-81842614D02*
X197855715Y-81985471D01*
X197855715Y-81985471D02*
X197855715Y-82342614D01*
X197855715Y-82342614D02*
X197784286Y-82485471D01*
X197784286Y-82485471D02*
X197712858Y-82556900D01*
X197712858Y-82556900D02*
X197570000Y-82628328D01*
X197570000Y-82628328D02*
X197212858Y-82628328D01*
X197212858Y-82628328D02*
X197070000Y-82556900D01*
X197070000Y-82556900D02*
X196998572Y-82485471D01*
X198284286Y-81128328D02*
X198784286Y-82628328D01*
X198784286Y-82628328D02*
X199284286Y-81128328D01*
X186817143Y-90689757D02*
X186674286Y-90618328D01*
X186674286Y-90618328D02*
X186460000Y-90618328D01*
X186460000Y-90618328D02*
X186245714Y-90689757D01*
X186245714Y-90689757D02*
X186102857Y-90832614D01*
X186102857Y-90832614D02*
X186031428Y-90975471D01*
X186031428Y-90975471D02*
X185960000Y-91261185D01*
X185960000Y-91261185D02*
X185960000Y-91475471D01*
X185960000Y-91475471D02*
X186031428Y-91761185D01*
X186031428Y-91761185D02*
X186102857Y-91904042D01*
X186102857Y-91904042D02*
X186245714Y-92046900D01*
X186245714Y-92046900D02*
X186460000Y-92118328D01*
X186460000Y-92118328D02*
X186602857Y-92118328D01*
X186602857Y-92118328D02*
X186817143Y-92046900D01*
X186817143Y-92046900D02*
X186888571Y-91975471D01*
X186888571Y-91975471D02*
X186888571Y-91475471D01*
X186888571Y-91475471D02*
X186602857Y-91475471D01*
X187531428Y-92118328D02*
X187531428Y-90618328D01*
X187531428Y-90618328D02*
X188388571Y-92118328D01*
X188388571Y-92118328D02*
X188388571Y-90618328D01*
X189102857Y-92118328D02*
X189102857Y-90618328D01*
X189102857Y-90618328D02*
X189460000Y-90618328D01*
X189460000Y-90618328D02*
X189674286Y-90689757D01*
X189674286Y-90689757D02*
X189817143Y-90832614D01*
X189817143Y-90832614D02*
X189888572Y-90975471D01*
X189888572Y-90975471D02*
X189960000Y-91261185D01*
X189960000Y-91261185D02*
X189960000Y-91475471D01*
X189960000Y-91475471D02*
X189888572Y-91761185D01*
X189888572Y-91761185D02*
X189817143Y-91904042D01*
X189817143Y-91904042D02*
X189674286Y-92046900D01*
X189674286Y-92046900D02*
X189460000Y-92118328D01*
X189460000Y-92118328D02*
X189102857Y-92118328D01*
X187031429Y-97198328D02*
X186174286Y-97198328D01*
X186602857Y-97198328D02*
X186602857Y-95698328D01*
X186602857Y-95698328D02*
X186460000Y-95912614D01*
X186460000Y-95912614D02*
X186317143Y-96055471D01*
X186317143Y-96055471D02*
X186174286Y-96126900D01*
X187602857Y-95841185D02*
X187674285Y-95769757D01*
X187674285Y-95769757D02*
X187817143Y-95698328D01*
X187817143Y-95698328D02*
X188174285Y-95698328D01*
X188174285Y-95698328D02*
X188317143Y-95769757D01*
X188317143Y-95769757D02*
X188388571Y-95841185D01*
X188388571Y-95841185D02*
X188460000Y-95984042D01*
X188460000Y-95984042D02*
X188460000Y-96126900D01*
X188460000Y-96126900D02*
X188388571Y-96341185D01*
X188388571Y-96341185D02*
X187531428Y-97198328D01*
X187531428Y-97198328D02*
X188460000Y-97198328D01*
X188888571Y-95698328D02*
X189388571Y-97198328D01*
X189388571Y-97198328D02*
X189888571Y-95698328D01*
X186817143Y-102119757D02*
X186674286Y-102048328D01*
X186674286Y-102048328D02*
X186460000Y-102048328D01*
X186460000Y-102048328D02*
X186245714Y-102119757D01*
X186245714Y-102119757D02*
X186102857Y-102262614D01*
X186102857Y-102262614D02*
X186031428Y-102405471D01*
X186031428Y-102405471D02*
X185960000Y-102691185D01*
X185960000Y-102691185D02*
X185960000Y-102905471D01*
X185960000Y-102905471D02*
X186031428Y-103191185D01*
X186031428Y-103191185D02*
X186102857Y-103334042D01*
X186102857Y-103334042D02*
X186245714Y-103476900D01*
X186245714Y-103476900D02*
X186460000Y-103548328D01*
X186460000Y-103548328D02*
X186602857Y-103548328D01*
X186602857Y-103548328D02*
X186817143Y-103476900D01*
X186817143Y-103476900D02*
X186888571Y-103405471D01*
X186888571Y-103405471D02*
X186888571Y-102905471D01*
X186888571Y-102905471D02*
X186602857Y-102905471D01*
X187531428Y-103548328D02*
X187531428Y-102048328D01*
X187531428Y-102048328D02*
X188388571Y-103548328D01*
X188388571Y-103548328D02*
X188388571Y-102048328D01*
X189102857Y-103548328D02*
X189102857Y-102048328D01*
X189102857Y-102048328D02*
X189460000Y-102048328D01*
X189460000Y-102048328D02*
X189674286Y-102119757D01*
X189674286Y-102119757D02*
X189817143Y-102262614D01*
X189817143Y-102262614D02*
X189888572Y-102405471D01*
X189888572Y-102405471D02*
X189960000Y-102691185D01*
X189960000Y-102691185D02*
X189960000Y-102905471D01*
X189960000Y-102905471D02*
X189888572Y-103191185D01*
X189888572Y-103191185D02*
X189817143Y-103334042D01*
X189817143Y-103334042D02*
X189674286Y-103476900D01*
X189674286Y-103476900D02*
X189460000Y-103548328D01*
X189460000Y-103548328D02*
X189102857Y-103548328D01*
X184690001Y-108628328D02*
X183832858Y-108628328D01*
X184261429Y-108628328D02*
X184261429Y-107128328D01*
X184261429Y-107128328D02*
X184118572Y-107342614D01*
X184118572Y-107342614D02*
X183975715Y-107485471D01*
X183975715Y-107485471D02*
X183832858Y-107556900D01*
X185190000Y-107128328D02*
X186118572Y-107128328D01*
X186118572Y-107128328D02*
X185618572Y-107699757D01*
X185618572Y-107699757D02*
X185832857Y-107699757D01*
X185832857Y-107699757D02*
X185975715Y-107771185D01*
X185975715Y-107771185D02*
X186047143Y-107842614D01*
X186047143Y-107842614D02*
X186118572Y-107985471D01*
X186118572Y-107985471D02*
X186118572Y-108342614D01*
X186118572Y-108342614D02*
X186047143Y-108485471D01*
X186047143Y-108485471D02*
X185975715Y-108556900D01*
X185975715Y-108556900D02*
X185832857Y-108628328D01*
X185832857Y-108628328D02*
X185404286Y-108628328D01*
X185404286Y-108628328D02*
X185261429Y-108556900D01*
X185261429Y-108556900D02*
X185190000Y-108485471D01*
X186761428Y-108485471D02*
X186832857Y-108556900D01*
X186832857Y-108556900D02*
X186761428Y-108628328D01*
X186761428Y-108628328D02*
X186690000Y-108556900D01*
X186690000Y-108556900D02*
X186761428Y-108485471D01*
X186761428Y-108485471D02*
X186761428Y-108628328D01*
X188190000Y-107128328D02*
X187475714Y-107128328D01*
X187475714Y-107128328D02*
X187404286Y-107842614D01*
X187404286Y-107842614D02*
X187475714Y-107771185D01*
X187475714Y-107771185D02*
X187618572Y-107699757D01*
X187618572Y-107699757D02*
X187975714Y-107699757D01*
X187975714Y-107699757D02*
X188118572Y-107771185D01*
X188118572Y-107771185D02*
X188190000Y-107842614D01*
X188190000Y-107842614D02*
X188261429Y-107985471D01*
X188261429Y-107985471D02*
X188261429Y-108342614D01*
X188261429Y-108342614D02*
X188190000Y-108485471D01*
X188190000Y-108485471D02*
X188118572Y-108556900D01*
X188118572Y-108556900D02*
X187975714Y-108628328D01*
X187975714Y-108628328D02*
X187618572Y-108628328D01*
X187618572Y-108628328D02*
X187475714Y-108556900D01*
X187475714Y-108556900D02*
X187404286Y-108485471D01*
X188690000Y-107128328D02*
X189190000Y-108628328D01*
X189190000Y-108628328D02*
X189690000Y-107128328D01*
X186817143Y-112279757D02*
X186674286Y-112208328D01*
X186674286Y-112208328D02*
X186460000Y-112208328D01*
X186460000Y-112208328D02*
X186245714Y-112279757D01*
X186245714Y-112279757D02*
X186102857Y-112422614D01*
X186102857Y-112422614D02*
X186031428Y-112565471D01*
X186031428Y-112565471D02*
X185960000Y-112851185D01*
X185960000Y-112851185D02*
X185960000Y-113065471D01*
X185960000Y-113065471D02*
X186031428Y-113351185D01*
X186031428Y-113351185D02*
X186102857Y-113494042D01*
X186102857Y-113494042D02*
X186245714Y-113636900D01*
X186245714Y-113636900D02*
X186460000Y-113708328D01*
X186460000Y-113708328D02*
X186602857Y-113708328D01*
X186602857Y-113708328D02*
X186817143Y-113636900D01*
X186817143Y-113636900D02*
X186888571Y-113565471D01*
X186888571Y-113565471D02*
X186888571Y-113065471D01*
X186888571Y-113065471D02*
X186602857Y-113065471D01*
X187531428Y-113708328D02*
X187531428Y-112208328D01*
X187531428Y-112208328D02*
X188388571Y-113708328D01*
X188388571Y-113708328D02*
X188388571Y-112208328D01*
X189102857Y-113708328D02*
X189102857Y-112208328D01*
X189102857Y-112208328D02*
X189460000Y-112208328D01*
X189460000Y-112208328D02*
X189674286Y-112279757D01*
X189674286Y-112279757D02*
X189817143Y-112422614D01*
X189817143Y-112422614D02*
X189888572Y-112565471D01*
X189888572Y-112565471D02*
X189960000Y-112851185D01*
X189960000Y-112851185D02*
X189960000Y-113065471D01*
X189960000Y-113065471D02*
X189888572Y-113351185D01*
X189888572Y-113351185D02*
X189817143Y-113494042D01*
X189817143Y-113494042D02*
X189674286Y-113636900D01*
X189674286Y-113636900D02*
X189460000Y-113708328D01*
X189460000Y-113708328D02*
X189102857Y-113708328D01*
D10*
X166830476Y-92164819D02*
X166830476Y-92879104D01*
X166830476Y-92879104D02*
X166782857Y-93021961D01*
X166782857Y-93021961D02*
X166687619Y-93117200D01*
X166687619Y-93117200D02*
X166544762Y-93164819D01*
X166544762Y-93164819D02*
X166449524Y-93164819D01*
X167830476Y-93164819D02*
X167259048Y-93164819D01*
X167544762Y-93164819D02*
X167544762Y-92164819D01*
X167544762Y-92164819D02*
X167449524Y-92307676D01*
X167449524Y-92307676D02*
X167354286Y-92402914D01*
X167354286Y-92402914D02*
X167259048Y-92450533D01*
X168449524Y-92164819D02*
X168544762Y-92164819D01*
X168544762Y-92164819D02*
X168640000Y-92212438D01*
X168640000Y-92212438D02*
X168687619Y-92260057D01*
X168687619Y-92260057D02*
X168735238Y-92355295D01*
X168735238Y-92355295D02*
X168782857Y-92545771D01*
X168782857Y-92545771D02*
X168782857Y-92783866D01*
X168782857Y-92783866D02*
X168735238Y-92974342D01*
X168735238Y-92974342D02*
X168687619Y-93069580D01*
X168687619Y-93069580D02*
X168640000Y-93117200D01*
X168640000Y-93117200D02*
X168544762Y-93164819D01*
X168544762Y-93164819D02*
X168449524Y-93164819D01*
X168449524Y-93164819D02*
X168354286Y-93117200D01*
X168354286Y-93117200D02*
X168306667Y-93069580D01*
X168306667Y-93069580D02*
X168259048Y-92974342D01*
X168259048Y-92974342D02*
X168211429Y-92783866D01*
X168211429Y-92783866D02*
X168211429Y-92545771D01*
X168211429Y-92545771D02*
X168259048Y-92355295D01*
X168259048Y-92355295D02*
X168306667Y-92260057D01*
X168306667Y-92260057D02*
X168354286Y-92212438D01*
X168354286Y-92212438D02*
X168449524Y-92164819D01*
X105076666Y-68544819D02*
X105076666Y-69259104D01*
X105076666Y-69259104D02*
X105029047Y-69401961D01*
X105029047Y-69401961D02*
X104933809Y-69497200D01*
X104933809Y-69497200D02*
X104790952Y-69544819D01*
X104790952Y-69544819D02*
X104695714Y-69544819D01*
X106029047Y-68544819D02*
X105552857Y-68544819D01*
X105552857Y-68544819D02*
X105505238Y-69021009D01*
X105505238Y-69021009D02*
X105552857Y-68973390D01*
X105552857Y-68973390D02*
X105648095Y-68925771D01*
X105648095Y-68925771D02*
X105886190Y-68925771D01*
X105886190Y-68925771D02*
X105981428Y-68973390D01*
X105981428Y-68973390D02*
X106029047Y-69021009D01*
X106029047Y-69021009D02*
X106076666Y-69116247D01*
X106076666Y-69116247D02*
X106076666Y-69354342D01*
X106076666Y-69354342D02*
X106029047Y-69449580D01*
X106029047Y-69449580D02*
X105981428Y-69497200D01*
X105981428Y-69497200D02*
X105886190Y-69544819D01*
X105886190Y-69544819D02*
X105648095Y-69544819D01*
X105648095Y-69544819D02*
X105552857Y-69497200D01*
X105552857Y-69497200D02*
X105505238Y-69449580D01*
X131746666Y-99994819D02*
X131746666Y-100709104D01*
X131746666Y-100709104D02*
X131699047Y-100851961D01*
X131699047Y-100851961D02*
X131603809Y-100947200D01*
X131603809Y-100947200D02*
X131460952Y-100994819D01*
X131460952Y-100994819D02*
X131365714Y-100994819D01*
X132651428Y-100328152D02*
X132651428Y-100994819D01*
X132413333Y-99947200D02*
X132175238Y-100661485D01*
X132175238Y-100661485D02*
X132794285Y-100661485D01*
X154225714Y-70019104D02*
X154701904Y-70019104D01*
X154130476Y-70304819D02*
X154463809Y-69304819D01*
X154463809Y-69304819D02*
X154797142Y-70304819D01*
X155654285Y-70304819D02*
X155082857Y-70304819D01*
X155368571Y-70304819D02*
X155368571Y-69304819D01*
X155368571Y-69304819D02*
X155273333Y-69447676D01*
X155273333Y-69447676D02*
X155178095Y-69542914D01*
X155178095Y-69542914D02*
X155082857Y-69590533D01*
X142074819Y-81446666D02*
X141598628Y-81779999D01*
X142074819Y-82018094D02*
X141074819Y-82018094D01*
X141074819Y-82018094D02*
X141074819Y-81637142D01*
X141074819Y-81637142D02*
X141122438Y-81541904D01*
X141122438Y-81541904D02*
X141170057Y-81494285D01*
X141170057Y-81494285D02*
X141265295Y-81446666D01*
X141265295Y-81446666D02*
X141408152Y-81446666D01*
X141408152Y-81446666D02*
X141503390Y-81494285D01*
X141503390Y-81494285D02*
X141551009Y-81541904D01*
X141551009Y-81541904D02*
X141598628Y-81637142D01*
X141598628Y-81637142D02*
X141598628Y-82018094D01*
X141074819Y-80589523D02*
X141074819Y-80779999D01*
X141074819Y-80779999D02*
X141122438Y-80875237D01*
X141122438Y-80875237D02*
X141170057Y-80922856D01*
X141170057Y-80922856D02*
X141312914Y-81018094D01*
X141312914Y-81018094D02*
X141503390Y-81065713D01*
X141503390Y-81065713D02*
X141884342Y-81065713D01*
X141884342Y-81065713D02*
X141979580Y-81018094D01*
X141979580Y-81018094D02*
X142027200Y-80970475D01*
X142027200Y-80970475D02*
X142074819Y-80875237D01*
X142074819Y-80875237D02*
X142074819Y-80684761D01*
X142074819Y-80684761D02*
X142027200Y-80589523D01*
X142027200Y-80589523D02*
X141979580Y-80541904D01*
X141979580Y-80541904D02*
X141884342Y-80494285D01*
X141884342Y-80494285D02*
X141646247Y-80494285D01*
X141646247Y-80494285D02*
X141551009Y-80541904D01*
X141551009Y-80541904D02*
X141503390Y-80589523D01*
X141503390Y-80589523D02*
X141455771Y-80684761D01*
X141455771Y-80684761D02*
X141455771Y-80875237D01*
X141455771Y-80875237D02*
X141503390Y-80970475D01*
X141503390Y-80970475D02*
X141551009Y-81018094D01*
X141551009Y-81018094D02*
X141646247Y-81065713D01*
X133184819Y-83986666D02*
X132708628Y-84319999D01*
X133184819Y-84558094D02*
X132184819Y-84558094D01*
X132184819Y-84558094D02*
X132184819Y-84177142D01*
X132184819Y-84177142D02*
X132232438Y-84081904D01*
X132232438Y-84081904D02*
X132280057Y-84034285D01*
X132280057Y-84034285D02*
X132375295Y-83986666D01*
X132375295Y-83986666D02*
X132518152Y-83986666D01*
X132518152Y-83986666D02*
X132613390Y-84034285D01*
X132613390Y-84034285D02*
X132661009Y-84081904D01*
X132661009Y-84081904D02*
X132708628Y-84177142D01*
X132708628Y-84177142D02*
X132708628Y-84558094D01*
X132184819Y-83081904D02*
X132184819Y-83558094D01*
X132184819Y-83558094D02*
X132661009Y-83605713D01*
X132661009Y-83605713D02*
X132613390Y-83558094D01*
X132613390Y-83558094D02*
X132565771Y-83462856D01*
X132565771Y-83462856D02*
X132565771Y-83224761D01*
X132565771Y-83224761D02*
X132613390Y-83129523D01*
X132613390Y-83129523D02*
X132661009Y-83081904D01*
X132661009Y-83081904D02*
X132756247Y-83034285D01*
X132756247Y-83034285D02*
X132994342Y-83034285D01*
X132994342Y-83034285D02*
X133089580Y-83081904D01*
X133089580Y-83081904D02*
X133137200Y-83129523D01*
X133137200Y-83129523D02*
X133184819Y-83224761D01*
X133184819Y-83224761D02*
X133184819Y-83462856D01*
X133184819Y-83462856D02*
X133137200Y-83558094D01*
X133137200Y-83558094D02*
X133089580Y-83605713D01*
X126834819Y-86526666D02*
X126358628Y-86859999D01*
X126834819Y-87098094D02*
X125834819Y-87098094D01*
X125834819Y-87098094D02*
X125834819Y-86717142D01*
X125834819Y-86717142D02*
X125882438Y-86621904D01*
X125882438Y-86621904D02*
X125930057Y-86574285D01*
X125930057Y-86574285D02*
X126025295Y-86526666D01*
X126025295Y-86526666D02*
X126168152Y-86526666D01*
X126168152Y-86526666D02*
X126263390Y-86574285D01*
X126263390Y-86574285D02*
X126311009Y-86621904D01*
X126311009Y-86621904D02*
X126358628Y-86717142D01*
X126358628Y-86717142D02*
X126358628Y-87098094D01*
X126168152Y-85669523D02*
X126834819Y-85669523D01*
X125787200Y-85907618D02*
X126501485Y-86145713D01*
X126501485Y-86145713D02*
X126501485Y-85526666D01*
X119834819Y-89066666D02*
X119358628Y-89399999D01*
X119834819Y-89638094D02*
X118834819Y-89638094D01*
X118834819Y-89638094D02*
X118834819Y-89257142D01*
X118834819Y-89257142D02*
X118882438Y-89161904D01*
X118882438Y-89161904D02*
X118930057Y-89114285D01*
X118930057Y-89114285D02*
X119025295Y-89066666D01*
X119025295Y-89066666D02*
X119168152Y-89066666D01*
X119168152Y-89066666D02*
X119263390Y-89114285D01*
X119263390Y-89114285D02*
X119311009Y-89161904D01*
X119311009Y-89161904D02*
X119358628Y-89257142D01*
X119358628Y-89257142D02*
X119358628Y-89638094D01*
X118834819Y-88733332D02*
X118834819Y-88114285D01*
X118834819Y-88114285D02*
X119215771Y-88447618D01*
X119215771Y-88447618D02*
X119215771Y-88304761D01*
X119215771Y-88304761D02*
X119263390Y-88209523D01*
X119263390Y-88209523D02*
X119311009Y-88161904D01*
X119311009Y-88161904D02*
X119406247Y-88114285D01*
X119406247Y-88114285D02*
X119644342Y-88114285D01*
X119644342Y-88114285D02*
X119739580Y-88161904D01*
X119739580Y-88161904D02*
X119787200Y-88209523D01*
X119787200Y-88209523D02*
X119834819Y-88304761D01*
X119834819Y-88304761D02*
X119834819Y-88590475D01*
X119834819Y-88590475D02*
X119787200Y-88685713D01*
X119787200Y-88685713D02*
X119739580Y-88733332D01*
X139230057Y-75025238D02*
X139182438Y-75120476D01*
X139182438Y-75120476D02*
X139087200Y-75215714D01*
X139087200Y-75215714D02*
X138944342Y-75358571D01*
X138944342Y-75358571D02*
X138896723Y-75453809D01*
X138896723Y-75453809D02*
X138896723Y-75549047D01*
X139134819Y-75501428D02*
X139087200Y-75596666D01*
X139087200Y-75596666D02*
X138991961Y-75691904D01*
X138991961Y-75691904D02*
X138801485Y-75739523D01*
X138801485Y-75739523D02*
X138468152Y-75739523D01*
X138468152Y-75739523D02*
X138277676Y-75691904D01*
X138277676Y-75691904D02*
X138182438Y-75596666D01*
X138182438Y-75596666D02*
X138134819Y-75501428D01*
X138134819Y-75501428D02*
X138134819Y-75310952D01*
X138134819Y-75310952D02*
X138182438Y-75215714D01*
X138182438Y-75215714D02*
X138277676Y-75120476D01*
X138277676Y-75120476D02*
X138468152Y-75072857D01*
X138468152Y-75072857D02*
X138801485Y-75072857D01*
X138801485Y-75072857D02*
X138991961Y-75120476D01*
X138991961Y-75120476D02*
X139087200Y-75215714D01*
X139087200Y-75215714D02*
X139134819Y-75310952D01*
X139134819Y-75310952D02*
X139134819Y-75501428D01*
X138134819Y-74215714D02*
X138134819Y-74406190D01*
X138134819Y-74406190D02*
X138182438Y-74501428D01*
X138182438Y-74501428D02*
X138230057Y-74549047D01*
X138230057Y-74549047D02*
X138372914Y-74644285D01*
X138372914Y-74644285D02*
X138563390Y-74691904D01*
X138563390Y-74691904D02*
X138944342Y-74691904D01*
X138944342Y-74691904D02*
X139039580Y-74644285D01*
X139039580Y-74644285D02*
X139087200Y-74596666D01*
X139087200Y-74596666D02*
X139134819Y-74501428D01*
X139134819Y-74501428D02*
X139134819Y-74310952D01*
X139134819Y-74310952D02*
X139087200Y-74215714D01*
X139087200Y-74215714D02*
X139039580Y-74168095D01*
X139039580Y-74168095D02*
X138944342Y-74120476D01*
X138944342Y-74120476D02*
X138706247Y-74120476D01*
X138706247Y-74120476D02*
X138611009Y-74168095D01*
X138611009Y-74168095D02*
X138563390Y-74215714D01*
X138563390Y-74215714D02*
X138515771Y-74310952D01*
X138515771Y-74310952D02*
X138515771Y-74501428D01*
X138515771Y-74501428D02*
X138563390Y-74596666D01*
X138563390Y-74596666D02*
X138611009Y-74644285D01*
X138611009Y-74644285D02*
X138706247Y-74691904D01*
X131610057Y-78835238D02*
X131562438Y-78930476D01*
X131562438Y-78930476D02*
X131467200Y-79025714D01*
X131467200Y-79025714D02*
X131324342Y-79168571D01*
X131324342Y-79168571D02*
X131276723Y-79263809D01*
X131276723Y-79263809D02*
X131276723Y-79359047D01*
X131514819Y-79311428D02*
X131467200Y-79406666D01*
X131467200Y-79406666D02*
X131371961Y-79501904D01*
X131371961Y-79501904D02*
X131181485Y-79549523D01*
X131181485Y-79549523D02*
X130848152Y-79549523D01*
X130848152Y-79549523D02*
X130657676Y-79501904D01*
X130657676Y-79501904D02*
X130562438Y-79406666D01*
X130562438Y-79406666D02*
X130514819Y-79311428D01*
X130514819Y-79311428D02*
X130514819Y-79120952D01*
X130514819Y-79120952D02*
X130562438Y-79025714D01*
X130562438Y-79025714D02*
X130657676Y-78930476D01*
X130657676Y-78930476D02*
X130848152Y-78882857D01*
X130848152Y-78882857D02*
X131181485Y-78882857D01*
X131181485Y-78882857D02*
X131371961Y-78930476D01*
X131371961Y-78930476D02*
X131467200Y-79025714D01*
X131467200Y-79025714D02*
X131514819Y-79120952D01*
X131514819Y-79120952D02*
X131514819Y-79311428D01*
X130514819Y-77978095D02*
X130514819Y-78454285D01*
X130514819Y-78454285D02*
X130991009Y-78501904D01*
X130991009Y-78501904D02*
X130943390Y-78454285D01*
X130943390Y-78454285D02*
X130895771Y-78359047D01*
X130895771Y-78359047D02*
X130895771Y-78120952D01*
X130895771Y-78120952D02*
X130943390Y-78025714D01*
X130943390Y-78025714D02*
X130991009Y-77978095D01*
X130991009Y-77978095D02*
X131086247Y-77930476D01*
X131086247Y-77930476D02*
X131324342Y-77930476D01*
X131324342Y-77930476D02*
X131419580Y-77978095D01*
X131419580Y-77978095D02*
X131467200Y-78025714D01*
X131467200Y-78025714D02*
X131514819Y-78120952D01*
X131514819Y-78120952D02*
X131514819Y-78359047D01*
X131514819Y-78359047D02*
X131467200Y-78454285D01*
X131467200Y-78454285D02*
X131419580Y-78501904D01*
X123990057Y-80105238D02*
X123942438Y-80200476D01*
X123942438Y-80200476D02*
X123847200Y-80295714D01*
X123847200Y-80295714D02*
X123704342Y-80438571D01*
X123704342Y-80438571D02*
X123656723Y-80533809D01*
X123656723Y-80533809D02*
X123656723Y-80629047D01*
X123894819Y-80581428D02*
X123847200Y-80676666D01*
X123847200Y-80676666D02*
X123751961Y-80771904D01*
X123751961Y-80771904D02*
X123561485Y-80819523D01*
X123561485Y-80819523D02*
X123228152Y-80819523D01*
X123228152Y-80819523D02*
X123037676Y-80771904D01*
X123037676Y-80771904D02*
X122942438Y-80676666D01*
X122942438Y-80676666D02*
X122894819Y-80581428D01*
X122894819Y-80581428D02*
X122894819Y-80390952D01*
X122894819Y-80390952D02*
X122942438Y-80295714D01*
X122942438Y-80295714D02*
X123037676Y-80200476D01*
X123037676Y-80200476D02*
X123228152Y-80152857D01*
X123228152Y-80152857D02*
X123561485Y-80152857D01*
X123561485Y-80152857D02*
X123751961Y-80200476D01*
X123751961Y-80200476D02*
X123847200Y-80295714D01*
X123847200Y-80295714D02*
X123894819Y-80390952D01*
X123894819Y-80390952D02*
X123894819Y-80581428D01*
X123228152Y-79295714D02*
X123894819Y-79295714D01*
X122847200Y-79533809D02*
X123561485Y-79771904D01*
X123561485Y-79771904D02*
X123561485Y-79152857D01*
X116370057Y-80105238D02*
X116322438Y-80200476D01*
X116322438Y-80200476D02*
X116227200Y-80295714D01*
X116227200Y-80295714D02*
X116084342Y-80438571D01*
X116084342Y-80438571D02*
X116036723Y-80533809D01*
X116036723Y-80533809D02*
X116036723Y-80629047D01*
X116274819Y-80581428D02*
X116227200Y-80676666D01*
X116227200Y-80676666D02*
X116131961Y-80771904D01*
X116131961Y-80771904D02*
X115941485Y-80819523D01*
X115941485Y-80819523D02*
X115608152Y-80819523D01*
X115608152Y-80819523D02*
X115417676Y-80771904D01*
X115417676Y-80771904D02*
X115322438Y-80676666D01*
X115322438Y-80676666D02*
X115274819Y-80581428D01*
X115274819Y-80581428D02*
X115274819Y-80390952D01*
X115274819Y-80390952D02*
X115322438Y-80295714D01*
X115322438Y-80295714D02*
X115417676Y-80200476D01*
X115417676Y-80200476D02*
X115608152Y-80152857D01*
X115608152Y-80152857D02*
X115941485Y-80152857D01*
X115941485Y-80152857D02*
X116131961Y-80200476D01*
X116131961Y-80200476D02*
X116227200Y-80295714D01*
X116227200Y-80295714D02*
X116274819Y-80390952D01*
X116274819Y-80390952D02*
X116274819Y-80581428D01*
X115274819Y-79819523D02*
X115274819Y-79200476D01*
X115274819Y-79200476D02*
X115655771Y-79533809D01*
X115655771Y-79533809D02*
X115655771Y-79390952D01*
X115655771Y-79390952D02*
X115703390Y-79295714D01*
X115703390Y-79295714D02*
X115751009Y-79248095D01*
X115751009Y-79248095D02*
X115846247Y-79200476D01*
X115846247Y-79200476D02*
X116084342Y-79200476D01*
X116084342Y-79200476D02*
X116179580Y-79248095D01*
X116179580Y-79248095D02*
X116227200Y-79295714D01*
X116227200Y-79295714D02*
X116274819Y-79390952D01*
X116274819Y-79390952D02*
X116274819Y-79676666D01*
X116274819Y-79676666D02*
X116227200Y-79771904D01*
X116227200Y-79771904D02*
X116179580Y-79819523D01*
X107480057Y-77565238D02*
X107432438Y-77660476D01*
X107432438Y-77660476D02*
X107337200Y-77755714D01*
X107337200Y-77755714D02*
X107194342Y-77898571D01*
X107194342Y-77898571D02*
X107146723Y-77993809D01*
X107146723Y-77993809D02*
X107146723Y-78089047D01*
X107384819Y-78041428D02*
X107337200Y-78136666D01*
X107337200Y-78136666D02*
X107241961Y-78231904D01*
X107241961Y-78231904D02*
X107051485Y-78279523D01*
X107051485Y-78279523D02*
X106718152Y-78279523D01*
X106718152Y-78279523D02*
X106527676Y-78231904D01*
X106527676Y-78231904D02*
X106432438Y-78136666D01*
X106432438Y-78136666D02*
X106384819Y-78041428D01*
X106384819Y-78041428D02*
X106384819Y-77850952D01*
X106384819Y-77850952D02*
X106432438Y-77755714D01*
X106432438Y-77755714D02*
X106527676Y-77660476D01*
X106527676Y-77660476D02*
X106718152Y-77612857D01*
X106718152Y-77612857D02*
X107051485Y-77612857D01*
X107051485Y-77612857D02*
X107241961Y-77660476D01*
X107241961Y-77660476D02*
X107337200Y-77755714D01*
X107337200Y-77755714D02*
X107384819Y-77850952D01*
X107384819Y-77850952D02*
X107384819Y-78041428D01*
X107384819Y-76660476D02*
X107384819Y-77231904D01*
X107384819Y-76946190D02*
X106384819Y-76946190D01*
X106384819Y-76946190D02*
X106527676Y-77041428D01*
X106527676Y-77041428D02*
X106622914Y-77136666D01*
X106622914Y-77136666D02*
X106670533Y-77231904D01*
X121753333Y-103324819D02*
X121420000Y-102848628D01*
X121181905Y-103324819D02*
X121181905Y-102324819D01*
X121181905Y-102324819D02*
X121562857Y-102324819D01*
X121562857Y-102324819D02*
X121658095Y-102372438D01*
X121658095Y-102372438D02*
X121705714Y-102420057D01*
X121705714Y-102420057D02*
X121753333Y-102515295D01*
X121753333Y-102515295D02*
X121753333Y-102658152D01*
X121753333Y-102658152D02*
X121705714Y-102753390D01*
X121705714Y-102753390D02*
X121658095Y-102801009D01*
X121658095Y-102801009D02*
X121562857Y-102848628D01*
X121562857Y-102848628D02*
X121181905Y-102848628D01*
X122134286Y-102420057D02*
X122181905Y-102372438D01*
X122181905Y-102372438D02*
X122277143Y-102324819D01*
X122277143Y-102324819D02*
X122515238Y-102324819D01*
X122515238Y-102324819D02*
X122610476Y-102372438D01*
X122610476Y-102372438D02*
X122658095Y-102420057D01*
X122658095Y-102420057D02*
X122705714Y-102515295D01*
X122705714Y-102515295D02*
X122705714Y-102610533D01*
X122705714Y-102610533D02*
X122658095Y-102753390D01*
X122658095Y-102753390D02*
X122086667Y-103324819D01*
X122086667Y-103324819D02*
X122705714Y-103324819D01*
X107480057Y-83915238D02*
X107432438Y-84010476D01*
X107432438Y-84010476D02*
X107337200Y-84105714D01*
X107337200Y-84105714D02*
X107194342Y-84248571D01*
X107194342Y-84248571D02*
X107146723Y-84343809D01*
X107146723Y-84343809D02*
X107146723Y-84439047D01*
X107384819Y-84391428D02*
X107337200Y-84486666D01*
X107337200Y-84486666D02*
X107241961Y-84581904D01*
X107241961Y-84581904D02*
X107051485Y-84629523D01*
X107051485Y-84629523D02*
X106718152Y-84629523D01*
X106718152Y-84629523D02*
X106527676Y-84581904D01*
X106527676Y-84581904D02*
X106432438Y-84486666D01*
X106432438Y-84486666D02*
X106384819Y-84391428D01*
X106384819Y-84391428D02*
X106384819Y-84200952D01*
X106384819Y-84200952D02*
X106432438Y-84105714D01*
X106432438Y-84105714D02*
X106527676Y-84010476D01*
X106527676Y-84010476D02*
X106718152Y-83962857D01*
X106718152Y-83962857D02*
X107051485Y-83962857D01*
X107051485Y-83962857D02*
X107241961Y-84010476D01*
X107241961Y-84010476D02*
X107337200Y-84105714D01*
X107337200Y-84105714D02*
X107384819Y-84200952D01*
X107384819Y-84200952D02*
X107384819Y-84391428D01*
X106480057Y-83581904D02*
X106432438Y-83534285D01*
X106432438Y-83534285D02*
X106384819Y-83439047D01*
X106384819Y-83439047D02*
X106384819Y-83200952D01*
X106384819Y-83200952D02*
X106432438Y-83105714D01*
X106432438Y-83105714D02*
X106480057Y-83058095D01*
X106480057Y-83058095D02*
X106575295Y-83010476D01*
X106575295Y-83010476D02*
X106670533Y-83010476D01*
X106670533Y-83010476D02*
X106813390Y-83058095D01*
X106813390Y-83058095D02*
X107384819Y-83629523D01*
X107384819Y-83629523D02*
X107384819Y-83010476D01*
X121753333Y-105864819D02*
X121420000Y-105388628D01*
X121181905Y-105864819D02*
X121181905Y-104864819D01*
X121181905Y-104864819D02*
X121562857Y-104864819D01*
X121562857Y-104864819D02*
X121658095Y-104912438D01*
X121658095Y-104912438D02*
X121705714Y-104960057D01*
X121705714Y-104960057D02*
X121753333Y-105055295D01*
X121753333Y-105055295D02*
X121753333Y-105198152D01*
X121753333Y-105198152D02*
X121705714Y-105293390D01*
X121705714Y-105293390D02*
X121658095Y-105341009D01*
X121658095Y-105341009D02*
X121562857Y-105388628D01*
X121562857Y-105388628D02*
X121181905Y-105388628D01*
X122705714Y-105864819D02*
X122134286Y-105864819D01*
X122420000Y-105864819D02*
X122420000Y-104864819D01*
X122420000Y-104864819D02*
X122324762Y-105007676D01*
X122324762Y-105007676D02*
X122229524Y-105102914D01*
X122229524Y-105102914D02*
X122134286Y-105150533D01*
X124974819Y-99393333D02*
X125689104Y-99393333D01*
X125689104Y-99393333D02*
X125831961Y-99440952D01*
X125831961Y-99440952D02*
X125927200Y-99536190D01*
X125927200Y-99536190D02*
X125974819Y-99679047D01*
X125974819Y-99679047D02*
X125974819Y-99774285D01*
X124974819Y-99012380D02*
X124974819Y-98393333D01*
X124974819Y-98393333D02*
X125355771Y-98726666D01*
X125355771Y-98726666D02*
X125355771Y-98583809D01*
X125355771Y-98583809D02*
X125403390Y-98488571D01*
X125403390Y-98488571D02*
X125451009Y-98440952D01*
X125451009Y-98440952D02*
X125546247Y-98393333D01*
X125546247Y-98393333D02*
X125784342Y-98393333D01*
X125784342Y-98393333D02*
X125879580Y-98440952D01*
X125879580Y-98440952D02*
X125927200Y-98488571D01*
X125927200Y-98488571D02*
X125974819Y-98583809D01*
X125974819Y-98583809D02*
X125974819Y-98869523D01*
X125974819Y-98869523D02*
X125927200Y-98964761D01*
X125927200Y-98964761D02*
X125879580Y-99012380D01*
D13*
X173294318Y-91137619D02*
X174322413Y-91137619D01*
X174322413Y-91137619D02*
X174443365Y-91077142D01*
X174443365Y-91077142D02*
X174503842Y-91016666D01*
X174503842Y-91016666D02*
X174564318Y-90895714D01*
X174564318Y-90895714D02*
X174564318Y-90653809D01*
X174564318Y-90653809D02*
X174503842Y-90532857D01*
X174503842Y-90532857D02*
X174443365Y-90472380D01*
X174443365Y-90472380D02*
X174322413Y-90411904D01*
X174322413Y-90411904D02*
X173294318Y-90411904D01*
X174564318Y-89141904D02*
X174564318Y-89867619D01*
X174564318Y-89504762D02*
X173294318Y-89504762D01*
X173294318Y-89504762D02*
X173475746Y-89625714D01*
X173475746Y-89625714D02*
X173596699Y-89746666D01*
X173596699Y-89746666D02*
X173657175Y-89867619D01*
D10*
X136614819Y-72723333D02*
X137329104Y-72723333D01*
X137329104Y-72723333D02*
X137471961Y-72770952D01*
X137471961Y-72770952D02*
X137567200Y-72866190D01*
X137567200Y-72866190D02*
X137614819Y-73009047D01*
X137614819Y-73009047D02*
X137614819Y-73104285D01*
X137614819Y-72199523D02*
X137614819Y-72009047D01*
X137614819Y-72009047D02*
X137567200Y-71913809D01*
X137567200Y-71913809D02*
X137519580Y-71866190D01*
X137519580Y-71866190D02*
X137376723Y-71770952D01*
X137376723Y-71770952D02*
X137186247Y-71723333D01*
X137186247Y-71723333D02*
X136805295Y-71723333D01*
X136805295Y-71723333D02*
X136710057Y-71770952D01*
X136710057Y-71770952D02*
X136662438Y-71818571D01*
X136662438Y-71818571D02*
X136614819Y-71913809D01*
X136614819Y-71913809D02*
X136614819Y-72104285D01*
X136614819Y-72104285D02*
X136662438Y-72199523D01*
X136662438Y-72199523D02*
X136710057Y-72247142D01*
X136710057Y-72247142D02*
X136805295Y-72294761D01*
X136805295Y-72294761D02*
X137043390Y-72294761D01*
X137043390Y-72294761D02*
X137138628Y-72247142D01*
X137138628Y-72247142D02*
X137186247Y-72199523D01*
X137186247Y-72199523D02*
X137233866Y-72104285D01*
X137233866Y-72104285D02*
X137233866Y-71913809D01*
X137233866Y-71913809D02*
X137186247Y-71818571D01*
X137186247Y-71818571D02*
X137138628Y-71770952D01*
X137138628Y-71770952D02*
X137043390Y-71723333D01*
X141906666Y-99994819D02*
X141906666Y-100709104D01*
X141906666Y-100709104D02*
X141859047Y-100851961D01*
X141859047Y-100851961D02*
X141763809Y-100947200D01*
X141763809Y-100947200D02*
X141620952Y-100994819D01*
X141620952Y-100994819D02*
X141525714Y-100994819D01*
X142525714Y-100423390D02*
X142430476Y-100375771D01*
X142430476Y-100375771D02*
X142382857Y-100328152D01*
X142382857Y-100328152D02*
X142335238Y-100232914D01*
X142335238Y-100232914D02*
X142335238Y-100185295D01*
X142335238Y-100185295D02*
X142382857Y-100090057D01*
X142382857Y-100090057D02*
X142430476Y-100042438D01*
X142430476Y-100042438D02*
X142525714Y-99994819D01*
X142525714Y-99994819D02*
X142716190Y-99994819D01*
X142716190Y-99994819D02*
X142811428Y-100042438D01*
X142811428Y-100042438D02*
X142859047Y-100090057D01*
X142859047Y-100090057D02*
X142906666Y-100185295D01*
X142906666Y-100185295D02*
X142906666Y-100232914D01*
X142906666Y-100232914D02*
X142859047Y-100328152D01*
X142859047Y-100328152D02*
X142811428Y-100375771D01*
X142811428Y-100375771D02*
X142716190Y-100423390D01*
X142716190Y-100423390D02*
X142525714Y-100423390D01*
X142525714Y-100423390D02*
X142430476Y-100471009D01*
X142430476Y-100471009D02*
X142382857Y-100518628D01*
X142382857Y-100518628D02*
X142335238Y-100613866D01*
X142335238Y-100613866D02*
X142335238Y-100804342D01*
X142335238Y-100804342D02*
X142382857Y-100899580D01*
X142382857Y-100899580D02*
X142430476Y-100947200D01*
X142430476Y-100947200D02*
X142525714Y-100994819D01*
X142525714Y-100994819D02*
X142716190Y-100994819D01*
X142716190Y-100994819D02*
X142811428Y-100947200D01*
X142811428Y-100947200D02*
X142859047Y-100899580D01*
X142859047Y-100899580D02*
X142906666Y-100804342D01*
X142906666Y-100804342D02*
X142906666Y-100613866D01*
X142906666Y-100613866D02*
X142859047Y-100518628D01*
X142859047Y-100518628D02*
X142811428Y-100471009D01*
X142811428Y-100471009D02*
X142716190Y-100423390D01*
X186356666Y-88144819D02*
X186356666Y-88859104D01*
X186356666Y-88859104D02*
X186309047Y-89001961D01*
X186309047Y-89001961D02*
X186213809Y-89097200D01*
X186213809Y-89097200D02*
X186070952Y-89144819D01*
X186070952Y-89144819D02*
X185975714Y-89144819D01*
X186737619Y-88144819D02*
X187404285Y-88144819D01*
X187404285Y-88144819D02*
X186975714Y-89144819D01*
D14*
X115520000Y-122470000D02*
X115520000Y-106570000D01*
X110470000Y-122470000D02*
X115520000Y-122470000D01*
X110720000Y-121970000D02*
X110470000Y-122470000D01*
X105320000Y-121970000D02*
X110720000Y-121970000D01*
X105570000Y-122470000D02*
X105320000Y-121970000D01*
X103570000Y-122470000D02*
X105570000Y-122470000D01*
X103870000Y-121970000D02*
X103570000Y-122470000D01*
X102920000Y-121970000D02*
X103870000Y-121970000D01*
X102920000Y-106570000D02*
X102920000Y-121970000D01*
X115520000Y-106570000D02*
X102920000Y-106570000D01*
X191820000Y-99780000D02*
X191820000Y-115680000D01*
X196870000Y-99780000D02*
X191820000Y-99780000D01*
X196620000Y-100280000D02*
X196870000Y-99780000D01*
X202020000Y-100280000D02*
X196620000Y-100280000D01*
X201770000Y-99780000D02*
X202020000Y-100280000D01*
X203770000Y-99780000D02*
X201770000Y-99780000D01*
X203470000Y-100280000D02*
X203770000Y-99780000D01*
X204420000Y-100280000D02*
X203470000Y-100280000D01*
X204420000Y-115680000D02*
X204420000Y-100280000D01*
X191820000Y-115680000D02*
X204420000Y-115680000D01*
X191820000Y-83270000D02*
X191820000Y-99170000D01*
X196870000Y-83270000D02*
X191820000Y-83270000D01*
X196620000Y-83770000D02*
X196870000Y-83270000D01*
X202020000Y-83770000D02*
X196620000Y-83770000D01*
X201770000Y-83270000D02*
X202020000Y-83770000D01*
X203770000Y-83270000D02*
X201770000Y-83270000D01*
X203470000Y-83770000D02*
X203770000Y-83270000D01*
X204420000Y-83770000D02*
X203470000Y-83770000D01*
X204420000Y-99170000D02*
X204420000Y-83770000D01*
X191820000Y-99170000D02*
X204420000Y-99170000D01*
X166310000Y-93920000D02*
X167640000Y-93920000D01*
X166310000Y-95250000D02*
X166310000Y-93920000D01*
X166310000Y-96520000D02*
X168970000Y-96520000D01*
X168970000Y-96520000D02*
X168970000Y-109280000D01*
X166310000Y-96520000D02*
X166310000Y-109280000D01*
X166310000Y-109280000D02*
X168970000Y-109280000D01*
X104080000Y-72450000D02*
X104080000Y-71120000D01*
X105410000Y-72450000D02*
X104080000Y-72450000D01*
X106680000Y-72450000D02*
X106680000Y-69790000D01*
X106680000Y-69790000D02*
X119440000Y-69790000D01*
X106680000Y-72450000D02*
X119440000Y-72450000D01*
X119440000Y-72450000D02*
X119440000Y-69790000D01*
X130750000Y-101540000D02*
X132080000Y-101540000D01*
X130750000Y-102870000D02*
X130750000Y-101540000D01*
X130750000Y-104140000D02*
X133410000Y-104140000D01*
X133410000Y-104140000D02*
X133410000Y-116900000D01*
X130750000Y-104140000D02*
X130750000Y-116900000D01*
X130750000Y-116900000D02*
X133410000Y-116900000D01*
X163960000Y-70990000D02*
X145920000Y-70990000D01*
X163960000Y-114430000D02*
X163960000Y-70990000D01*
X145920000Y-114430000D02*
X163960000Y-114430000D01*
X148590000Y-111760000D02*
X145920000Y-111760000D01*
X148590000Y-76200000D02*
X148590000Y-111760000D01*
X148590000Y-76200000D02*
X145920000Y-76200000D01*
X161290000Y-111760000D02*
X163960000Y-111760000D01*
X161290000Y-73660000D02*
X161290000Y-111760000D01*
X161290000Y-73660000D02*
X163960000Y-73660000D01*
X145920000Y-70990000D02*
X145920000Y-73660000D01*
X145920000Y-76200000D02*
X145920000Y-114430000D01*
X148590000Y-73660000D02*
X145920000Y-73660000D01*
X148590000Y-76200000D02*
X148590000Y-73660000D01*
X139700000Y-84150000D02*
X139700000Y-83200000D01*
X139700000Y-78410000D02*
X139700000Y-79360000D01*
X140620000Y-83200000D02*
X140620000Y-79360000D01*
X138780000Y-83200000D02*
X140620000Y-83200000D01*
X138780000Y-79360000D02*
X138780000Y-83200000D01*
X140620000Y-79360000D02*
X138780000Y-79360000D01*
X130810000Y-86690000D02*
X130810000Y-85740000D01*
X130810000Y-80950000D02*
X130810000Y-81900000D01*
X131730000Y-85740000D02*
X131730000Y-81900000D01*
X129890000Y-85740000D02*
X131730000Y-85740000D01*
X129890000Y-81900000D02*
X129890000Y-85740000D01*
X131730000Y-81900000D02*
X129890000Y-81900000D01*
X124460000Y-89230000D02*
X124460000Y-88280000D01*
X124460000Y-83490000D02*
X124460000Y-84440000D01*
X125380000Y-88280000D02*
X125380000Y-84440000D01*
X123540000Y-88280000D02*
X125380000Y-88280000D01*
X123540000Y-84440000D02*
X123540000Y-88280000D01*
X125380000Y-84440000D02*
X123540000Y-84440000D01*
X121920000Y-89230000D02*
X121920000Y-88280000D01*
X121920000Y-83490000D02*
X121920000Y-84440000D01*
X122840000Y-88280000D02*
X122840000Y-84440000D01*
X121000000Y-88280000D02*
X122840000Y-88280000D01*
X121000000Y-84440000D02*
X121000000Y-88280000D01*
X122840000Y-84440000D02*
X121000000Y-84440000D01*
X139640000Y-74930000D02*
G75*
G02*
X144078478Y-73091522I2600000J0D01*
G01*
X144078478Y-76768478D02*
G75*
G02*
X139639999Y-74930000I-1838478J1838478D01*
G01*
X144090000Y-76730000D02*
X144090000Y-73130000D01*
X132020000Y-78740000D02*
G75*
G02*
X136458478Y-76901522I2600000J0D01*
G01*
X136458478Y-80578478D02*
G75*
G02*
X132019999Y-78740000I-1838478J1838478D01*
G01*
X136470000Y-80540000D02*
X136470000Y-76940000D01*
X124400000Y-80010000D02*
G75*
G02*
X128838478Y-78171522I2600000J0D01*
G01*
X128838478Y-81848478D02*
G75*
G02*
X124399999Y-80010000I-1838478J1838478D01*
G01*
X128850000Y-81810000D02*
X128850000Y-78210000D01*
X116780000Y-80010000D02*
G75*
G02*
X121218478Y-78171522I2600000J0D01*
G01*
X121218478Y-81848478D02*
G75*
G02*
X116779999Y-80010000I-1838478J1838478D01*
G01*
X121230000Y-81810000D02*
X121230000Y-78210000D01*
X107890000Y-77470000D02*
G75*
G02*
X112328478Y-75631522I2600000J0D01*
G01*
X112328478Y-79308478D02*
G75*
G02*
X107889999Y-77470000I-1838478J1838478D01*
G01*
X112340000Y-79270000D02*
X112340000Y-75670000D01*
X118440000Y-102870000D02*
X117490000Y-102870000D01*
X112700000Y-102870000D02*
X113650000Y-102870000D01*
X117490000Y-101950000D02*
X113650000Y-101950000D01*
X117490000Y-103790000D02*
X117490000Y-101950000D01*
X113650000Y-103790000D02*
X117490000Y-103790000D01*
X113650000Y-101950000D02*
X113650000Y-103790000D01*
X107890000Y-83820000D02*
G75*
G02*
X112328478Y-81981522I2600000J0D01*
G01*
X112328478Y-85658478D02*
G75*
G02*
X107889999Y-83820000I-1838478J1838478D01*
G01*
X112340000Y-85620000D02*
X112340000Y-82020000D01*
X118440000Y-105410000D02*
X117490000Y-105410000D01*
X112700000Y-105410000D02*
X113650000Y-105410000D01*
X117490000Y-104490000D02*
X113650000Y-104490000D01*
X117490000Y-106330000D02*
X117490000Y-104490000D01*
X113650000Y-106330000D02*
X117490000Y-106330000D01*
X113650000Y-104490000D02*
X113650000Y-106330000D01*
X124520000Y-97730000D02*
X124520000Y-99060000D01*
X123190000Y-97730000D02*
X124520000Y-97730000D01*
X121920000Y-97730000D02*
X121920000Y-100390000D01*
X121920000Y-100390000D02*
X109160000Y-100390000D01*
X121920000Y-97730000D02*
X109160000Y-97730000D01*
X109160000Y-97730000D02*
X109160000Y-100390000D01*
D15*
X181610000Y-87630000D02*
X168910000Y-87630000D01*
X181610000Y-72390000D02*
X181610000Y-87630000D01*
X168910000Y-72390000D02*
X181610000Y-72390000D01*
X168910000Y-87630000D02*
X168910000Y-72390000D01*
D14*
X120590000Y-74990000D02*
X120590000Y-73660000D01*
X121920000Y-74990000D02*
X120590000Y-74990000D01*
X123190000Y-74990000D02*
X123190000Y-72330000D01*
X123190000Y-72330000D02*
X135950000Y-72330000D01*
X123190000Y-74990000D02*
X135950000Y-74990000D01*
X135950000Y-74990000D02*
X135950000Y-72330000D01*
X140910000Y-101540000D02*
X142240000Y-101540000D01*
X140910000Y-102870000D02*
X140910000Y-101540000D01*
X140910000Y-104140000D02*
X143570000Y-104140000D01*
X143570000Y-104140000D02*
X143570000Y-116900000D01*
X140910000Y-104140000D02*
X140910000Y-116900000D01*
X140910000Y-116900000D02*
X143570000Y-116900000D01*
X188020000Y-87690000D02*
X186690000Y-87690000D01*
X188020000Y-86360000D02*
X188020000Y-87690000D01*
X188020000Y-85090000D02*
X185360000Y-85090000D01*
X185360000Y-85090000D02*
X185360000Y-72330000D01*
X188020000Y-85090000D02*
X188020000Y-72330000D01*
X188020000Y-72330000D02*
X185360000Y-72330000D01*
D10*
X127186000Y-118890000D02*
G75*
G02*
X122614000Y-118890000I-2286000J0D01*
G01*
X122614000Y-118890000D02*
G75*
G02*
X127186000Y-118890000I2286000J0D01*
G01*
X204456000Y-118860000D02*
G75*
G02*
X199884000Y-118860000I-2286000J0D01*
G01*
X199884000Y-118860000D02*
G75*
G02*
X204456000Y-118860000I2286000J0D01*
G01*
X204486000Y-71070000D02*
G75*
G02*
X199914000Y-71070000I-2286000J0D01*
G01*
X199914000Y-71070000D02*
G75*
G02*
X204486000Y-71070000I2286000J0D01*
G01*
D16*
X124900000Y-118890000D03*
X202170000Y-118860000D03*
X202200000Y-71070000D03*
M02*
