%TF.GenerationSoftware,KiCad,Pcbnew,9.0.4*%
%TF.CreationDate,2025-11-06T21:56:25+01:00*%
%TF.ProjectId,pwr_latcher,7077725f-6c61-4746-9368-65722e6b6963,rev?*%
%TF.SameCoordinates,Original*%
%TF.FileFunction,Legend,Top*%
%TF.FilePolarity,Positive*%
%FSLAX46Y46*%
G04 Gerber Fmt 4.6, Leading zero omitted, Abs format (unit mm)*
G04 Created by KiCad (PCBNEW 9.0.4) date 2025-11-06 21:56:25*
%MOMM*%
%LPD*%
G01*
G04 APERTURE LIST*
%ADD10C,0.200000*%
%ADD11C,0.150000*%
%ADD12C,0.120000*%
%ADD13C,0.203200*%
%ADD14C,0.010000*%
G04 APERTURE END LIST*
D10*
X169975073Y-75574419D02*
X169975073Y-74574419D01*
X169975073Y-74574419D02*
X170356025Y-74574419D01*
X170356025Y-74574419D02*
X170451263Y-74622038D01*
X170451263Y-74622038D02*
X170498882Y-74669657D01*
X170498882Y-74669657D02*
X170546501Y-74764895D01*
X170546501Y-74764895D02*
X170546501Y-74907752D01*
X170546501Y-74907752D02*
X170498882Y-75002990D01*
X170498882Y-75002990D02*
X170451263Y-75050609D01*
X170451263Y-75050609D02*
X170356025Y-75098228D01*
X170356025Y-75098228D02*
X169975073Y-75098228D01*
X170879835Y-74574419D02*
X171117930Y-75574419D01*
X171117930Y-75574419D02*
X171308406Y-74860133D01*
X171308406Y-74860133D02*
X171498882Y-75574419D01*
X171498882Y-75574419D02*
X171736978Y-74574419D01*
X172689358Y-75574419D02*
X172356025Y-75098228D01*
X172117930Y-75574419D02*
X172117930Y-74574419D01*
X172117930Y-74574419D02*
X172498882Y-74574419D01*
X172498882Y-74574419D02*
X172594120Y-74622038D01*
X172594120Y-74622038D02*
X172641739Y-74669657D01*
X172641739Y-74669657D02*
X172689358Y-74764895D01*
X172689358Y-74764895D02*
X172689358Y-74907752D01*
X172689358Y-74907752D02*
X172641739Y-75002990D01*
X172641739Y-75002990D02*
X172594120Y-75050609D01*
X172594120Y-75050609D02*
X172498882Y-75098228D01*
X172498882Y-75098228D02*
X172117930Y-75098228D01*
X174356025Y-75574419D02*
X173879835Y-75574419D01*
X173879835Y-75574419D02*
X173879835Y-74574419D01*
X174689359Y-75050609D02*
X175022692Y-75050609D01*
X175165549Y-75574419D02*
X174689359Y-75574419D01*
X174689359Y-75574419D02*
X174689359Y-74574419D01*
X174689359Y-74574419D02*
X175165549Y-74574419D01*
X175594121Y-75574419D02*
X175594121Y-74574419D01*
X175594121Y-74574419D02*
X175832216Y-74574419D01*
X175832216Y-74574419D02*
X175975073Y-74622038D01*
X175975073Y-74622038D02*
X176070311Y-74717276D01*
X176070311Y-74717276D02*
X176117930Y-74812514D01*
X176117930Y-74812514D02*
X176165549Y-75002990D01*
X176165549Y-75002990D02*
X176165549Y-75145847D01*
X176165549Y-75145847D02*
X176117930Y-75336323D01*
X176117930Y-75336323D02*
X176070311Y-75431561D01*
X176070311Y-75431561D02*
X175975073Y-75526800D01*
X175975073Y-75526800D02*
X175832216Y-75574419D01*
X175832216Y-75574419D02*
X175594121Y-75574419D01*
X148422054Y-75486000D02*
X148564911Y-75533619D01*
X148564911Y-75533619D02*
X148803006Y-75533619D01*
X148803006Y-75533619D02*
X148898244Y-75486000D01*
X148898244Y-75486000D02*
X148945863Y-75438380D01*
X148945863Y-75438380D02*
X148993482Y-75343142D01*
X148993482Y-75343142D02*
X148993482Y-75247904D01*
X148993482Y-75247904D02*
X148945863Y-75152666D01*
X148945863Y-75152666D02*
X148898244Y-75105047D01*
X148898244Y-75105047D02*
X148803006Y-75057428D01*
X148803006Y-75057428D02*
X148612530Y-75009809D01*
X148612530Y-75009809D02*
X148517292Y-74962190D01*
X148517292Y-74962190D02*
X148469673Y-74914571D01*
X148469673Y-74914571D02*
X148422054Y-74819333D01*
X148422054Y-74819333D02*
X148422054Y-74724095D01*
X148422054Y-74724095D02*
X148469673Y-74628857D01*
X148469673Y-74628857D02*
X148517292Y-74581238D01*
X148517292Y-74581238D02*
X148612530Y-74533619D01*
X148612530Y-74533619D02*
X148850625Y-74533619D01*
X148850625Y-74533619D02*
X148993482Y-74581238D01*
X149279197Y-74533619D02*
X149850625Y-74533619D01*
X149564911Y-75533619D02*
X149564911Y-74533619D01*
X150136340Y-75247904D02*
X150612530Y-75247904D01*
X150041102Y-75533619D02*
X150374435Y-74533619D01*
X150374435Y-74533619D02*
X150707768Y-75533619D01*
X150898245Y-74533619D02*
X151469673Y-74533619D01*
X151183959Y-75533619D02*
X151183959Y-74533619D01*
X152041102Y-75866952D02*
X152041102Y-74438380D01*
X153279197Y-74581238D02*
X153183959Y-74533619D01*
X153183959Y-74533619D02*
X153041102Y-74533619D01*
X153041102Y-74533619D02*
X152898245Y-74581238D01*
X152898245Y-74581238D02*
X152803007Y-74676476D01*
X152803007Y-74676476D02*
X152755388Y-74771714D01*
X152755388Y-74771714D02*
X152707769Y-74962190D01*
X152707769Y-74962190D02*
X152707769Y-75105047D01*
X152707769Y-75105047D02*
X152755388Y-75295523D01*
X152755388Y-75295523D02*
X152803007Y-75390761D01*
X152803007Y-75390761D02*
X152898245Y-75486000D01*
X152898245Y-75486000D02*
X153041102Y-75533619D01*
X153041102Y-75533619D02*
X153136340Y-75533619D01*
X153136340Y-75533619D02*
X153279197Y-75486000D01*
X153279197Y-75486000D02*
X153326816Y-75438380D01*
X153326816Y-75438380D02*
X153326816Y-75105047D01*
X153326816Y-75105047D02*
X153136340Y-75105047D01*
X153755388Y-75533619D02*
X153755388Y-74533619D01*
X153755388Y-74533619D02*
X154326816Y-75533619D01*
X154326816Y-75533619D02*
X154326816Y-74533619D01*
X154803007Y-75533619D02*
X154803007Y-74533619D01*
X154803007Y-74533619D02*
X155041102Y-74533619D01*
X155041102Y-74533619D02*
X155183959Y-74581238D01*
X155183959Y-74581238D02*
X155279197Y-74676476D01*
X155279197Y-74676476D02*
X155326816Y-74771714D01*
X155326816Y-74771714D02*
X155374435Y-74962190D01*
X155374435Y-74962190D02*
X155374435Y-75105047D01*
X155374435Y-75105047D02*
X155326816Y-75295523D01*
X155326816Y-75295523D02*
X155279197Y-75390761D01*
X155279197Y-75390761D02*
X155183959Y-75486000D01*
X155183959Y-75486000D02*
X155041102Y-75533619D01*
X155041102Y-75533619D02*
X154803007Y-75533619D01*
X156041102Y-75866952D02*
X156041102Y-74438380D01*
X156755388Y-75533619D02*
X156755388Y-74533619D01*
X157231578Y-75533619D02*
X157231578Y-74533619D01*
X157231578Y-74533619D02*
X157803006Y-75533619D01*
X157803006Y-75533619D02*
X157803006Y-74533619D01*
D11*
X146830180Y-84912969D02*
X146830180Y-84436779D01*
X146830180Y-84436779D02*
X146353990Y-84389160D01*
X146353990Y-84389160D02*
X146401609Y-84436779D01*
X146401609Y-84436779D02*
X146449228Y-84532017D01*
X146449228Y-84532017D02*
X146449228Y-84770112D01*
X146449228Y-84770112D02*
X146401609Y-84865350D01*
X146401609Y-84865350D02*
X146353990Y-84912969D01*
X146353990Y-84912969D02*
X146258752Y-84960588D01*
X146258752Y-84960588D02*
X146020657Y-84960588D01*
X146020657Y-84960588D02*
X145925419Y-84912969D01*
X145925419Y-84912969D02*
X145877800Y-84865350D01*
X145877800Y-84865350D02*
X145830180Y-84770112D01*
X145830180Y-84770112D02*
X145830180Y-84532017D01*
X145830180Y-84532017D02*
X145877800Y-84436779D01*
X145877800Y-84436779D02*
X145925419Y-84389160D01*
X146830180Y-85246303D02*
X145830180Y-85579636D01*
X145830180Y-85579636D02*
X146830180Y-85912969D01*
X145830180Y-87008208D02*
X146830180Y-87008208D01*
X145830180Y-87484398D02*
X146830180Y-87484398D01*
X146830180Y-87484398D02*
X145830180Y-88055826D01*
X145830180Y-88055826D02*
X146830180Y-88055826D01*
D10*
X160625273Y-75564419D02*
X160625273Y-74564419D01*
X160625273Y-74564419D02*
X161006225Y-74564419D01*
X161006225Y-74564419D02*
X161101463Y-74612038D01*
X161101463Y-74612038D02*
X161149082Y-74659657D01*
X161149082Y-74659657D02*
X161196701Y-74754895D01*
X161196701Y-74754895D02*
X161196701Y-74897752D01*
X161196701Y-74897752D02*
X161149082Y-74992990D01*
X161149082Y-74992990D02*
X161101463Y-75040609D01*
X161101463Y-75040609D02*
X161006225Y-75088228D01*
X161006225Y-75088228D02*
X160625273Y-75088228D01*
X161530035Y-74564419D02*
X161768130Y-75564419D01*
X161768130Y-75564419D02*
X161958606Y-74850133D01*
X161958606Y-74850133D02*
X162149082Y-75564419D01*
X162149082Y-75564419D02*
X162387178Y-74564419D01*
X163339558Y-75564419D02*
X163006225Y-75088228D01*
X162768130Y-75564419D02*
X162768130Y-74564419D01*
X162768130Y-74564419D02*
X163149082Y-74564419D01*
X163149082Y-74564419D02*
X163244320Y-74612038D01*
X163244320Y-74612038D02*
X163291939Y-74659657D01*
X163291939Y-74659657D02*
X163339558Y-74754895D01*
X163339558Y-74754895D02*
X163339558Y-74897752D01*
X163339558Y-74897752D02*
X163291939Y-74992990D01*
X163291939Y-74992990D02*
X163244320Y-75040609D01*
X163244320Y-75040609D02*
X163149082Y-75088228D01*
X163149082Y-75088228D02*
X162768130Y-75088228D01*
X164863368Y-75040609D02*
X165006225Y-75088228D01*
X165006225Y-75088228D02*
X165053844Y-75135847D01*
X165053844Y-75135847D02*
X165101463Y-75231085D01*
X165101463Y-75231085D02*
X165101463Y-75373942D01*
X165101463Y-75373942D02*
X165053844Y-75469180D01*
X165053844Y-75469180D02*
X165006225Y-75516800D01*
X165006225Y-75516800D02*
X164910987Y-75564419D01*
X164910987Y-75564419D02*
X164530035Y-75564419D01*
X164530035Y-75564419D02*
X164530035Y-74564419D01*
X164530035Y-74564419D02*
X164863368Y-74564419D01*
X164863368Y-74564419D02*
X164958606Y-74612038D01*
X164958606Y-74612038D02*
X165006225Y-74659657D01*
X165006225Y-74659657D02*
X165053844Y-74754895D01*
X165053844Y-74754895D02*
X165053844Y-74850133D01*
X165053844Y-74850133D02*
X165006225Y-74945371D01*
X165006225Y-74945371D02*
X164958606Y-74992990D01*
X164958606Y-74992990D02*
X164863368Y-75040609D01*
X164863368Y-75040609D02*
X164530035Y-75040609D01*
X165387178Y-74564419D02*
X165958606Y-74564419D01*
X165672892Y-75564419D02*
X165672892Y-74564419D01*
X166291940Y-75564419D02*
X166291940Y-74564419D01*
X166291940Y-74564419D02*
X166863368Y-75564419D01*
X166863368Y-75564419D02*
X166863368Y-74564419D01*
X137582933Y-88792231D02*
X137582933Y-87268422D01*
X138344838Y-88030326D02*
X136821028Y-88030326D01*
X137582933Y-84792231D02*
X137582933Y-83268422D01*
X146133808Y-96069656D02*
X146276665Y-96117275D01*
X146276665Y-96117275D02*
X146514760Y-96117275D01*
X146514760Y-96117275D02*
X146609998Y-96069656D01*
X146609998Y-96069656D02*
X146657617Y-96022036D01*
X146657617Y-96022036D02*
X146705236Y-95926798D01*
X146705236Y-95926798D02*
X146705236Y-95831560D01*
X146705236Y-95831560D02*
X146657617Y-95736322D01*
X146657617Y-95736322D02*
X146609998Y-95688703D01*
X146609998Y-95688703D02*
X146514760Y-95641084D01*
X146514760Y-95641084D02*
X146324284Y-95593465D01*
X146324284Y-95593465D02*
X146229046Y-95545846D01*
X146229046Y-95545846D02*
X146181427Y-95498227D01*
X146181427Y-95498227D02*
X146133808Y-95402989D01*
X146133808Y-95402989D02*
X146133808Y-95307751D01*
X146133808Y-95307751D02*
X146181427Y-95212513D01*
X146181427Y-95212513D02*
X146229046Y-95164894D01*
X146229046Y-95164894D02*
X146324284Y-95117275D01*
X146324284Y-95117275D02*
X146562379Y-95117275D01*
X146562379Y-95117275D02*
X146705236Y-95164894D01*
X147086189Y-95831560D02*
X147562379Y-95831560D01*
X146990951Y-96117275D02*
X147324284Y-95117275D01*
X147324284Y-95117275D02*
X147657617Y-96117275D01*
X147990951Y-95117275D02*
X147990951Y-95926798D01*
X147990951Y-95926798D02*
X148038570Y-96022036D01*
X148038570Y-96022036D02*
X148086189Y-96069656D01*
X148086189Y-96069656D02*
X148181427Y-96117275D01*
X148181427Y-96117275D02*
X148371903Y-96117275D01*
X148371903Y-96117275D02*
X148467141Y-96069656D01*
X148467141Y-96069656D02*
X148514760Y-96022036D01*
X148514760Y-96022036D02*
X148562379Y-95926798D01*
X148562379Y-95926798D02*
X148562379Y-95117275D01*
X149371903Y-95593465D02*
X149514760Y-95641084D01*
X149514760Y-95641084D02*
X149562379Y-95688703D01*
X149562379Y-95688703D02*
X149609998Y-95783941D01*
X149609998Y-95783941D02*
X149609998Y-95926798D01*
X149609998Y-95926798D02*
X149562379Y-96022036D01*
X149562379Y-96022036D02*
X149514760Y-96069656D01*
X149514760Y-96069656D02*
X149419522Y-96117275D01*
X149419522Y-96117275D02*
X149038570Y-96117275D01*
X149038570Y-96117275D02*
X149038570Y-95117275D01*
X149038570Y-95117275D02*
X149371903Y-95117275D01*
X149371903Y-95117275D02*
X149467141Y-95164894D01*
X149467141Y-95164894D02*
X149514760Y-95212513D01*
X149514760Y-95212513D02*
X149562379Y-95307751D01*
X149562379Y-95307751D02*
X149562379Y-95402989D01*
X149562379Y-95402989D02*
X149514760Y-95498227D01*
X149514760Y-95498227D02*
X149467141Y-95545846D01*
X149467141Y-95545846D02*
X149371903Y-95593465D01*
X149371903Y-95593465D02*
X149038570Y-95593465D01*
X150419522Y-96069656D02*
X150324284Y-96117275D01*
X150324284Y-96117275D02*
X150133808Y-96117275D01*
X150133808Y-96117275D02*
X150038570Y-96069656D01*
X150038570Y-96069656D02*
X149990951Y-95974417D01*
X149990951Y-95974417D02*
X149990951Y-95593465D01*
X149990951Y-95593465D02*
X150038570Y-95498227D01*
X150038570Y-95498227D02*
X150133808Y-95450608D01*
X150133808Y-95450608D02*
X150324284Y-95450608D01*
X150324284Y-95450608D02*
X150419522Y-95498227D01*
X150419522Y-95498227D02*
X150467141Y-95593465D01*
X150467141Y-95593465D02*
X150467141Y-95688703D01*
X150467141Y-95688703D02*
X149990951Y-95783941D01*
X150895713Y-96117275D02*
X150895713Y-95450608D01*
X150895713Y-95641084D02*
X150943332Y-95545846D01*
X150943332Y-95545846D02*
X150990951Y-95498227D01*
X150990951Y-95498227D02*
X151086189Y-95450608D01*
X151086189Y-95450608D02*
X151181427Y-95450608D01*
X151514761Y-96117275D02*
X151514761Y-95450608D01*
X151514761Y-95641084D02*
X151562380Y-95545846D01*
X151562380Y-95545846D02*
X151609999Y-95498227D01*
X151609999Y-95498227D02*
X151705237Y-95450608D01*
X151705237Y-95450608D02*
X151800475Y-95450608D01*
X152038571Y-95450608D02*
X152276666Y-96117275D01*
X152514761Y-95450608D02*
X152276666Y-96117275D01*
X152276666Y-96117275D02*
X152181428Y-96355370D01*
X152181428Y-96355370D02*
X152133809Y-96402989D01*
X152133809Y-96402989D02*
X152038571Y-96450608D01*
X152943333Y-96117275D02*
X153133809Y-96117275D01*
X153133809Y-96117275D02*
X153229047Y-96069656D01*
X153229047Y-96069656D02*
X153276666Y-96022036D01*
X153276666Y-96022036D02*
X153371904Y-95879179D01*
X153371904Y-95879179D02*
X153419523Y-95688703D01*
X153419523Y-95688703D02*
X153419523Y-95307751D01*
X153419523Y-95307751D02*
X153371904Y-95212513D01*
X153371904Y-95212513D02*
X153324285Y-95164894D01*
X153324285Y-95164894D02*
X153229047Y-95117275D01*
X153229047Y-95117275D02*
X153038571Y-95117275D01*
X153038571Y-95117275D02*
X152943333Y-95164894D01*
X152943333Y-95164894D02*
X152895714Y-95212513D01*
X152895714Y-95212513D02*
X152848095Y-95307751D01*
X152848095Y-95307751D02*
X152848095Y-95545846D01*
X152848095Y-95545846D02*
X152895714Y-95641084D01*
X152895714Y-95641084D02*
X152943333Y-95688703D01*
X152943333Y-95688703D02*
X153038571Y-95736322D01*
X153038571Y-95736322D02*
X153229047Y-95736322D01*
X153229047Y-95736322D02*
X153324285Y-95688703D01*
X153324285Y-95688703D02*
X153371904Y-95641084D01*
X153371904Y-95641084D02*
X153419523Y-95545846D01*
X154610000Y-96117275D02*
X154610000Y-95117275D01*
X154610000Y-95117275D02*
X154990952Y-95117275D01*
X154990952Y-95117275D02*
X155086190Y-95164894D01*
X155086190Y-95164894D02*
X155133809Y-95212513D01*
X155133809Y-95212513D02*
X155181428Y-95307751D01*
X155181428Y-95307751D02*
X155181428Y-95450608D01*
X155181428Y-95450608D02*
X155133809Y-95545846D01*
X155133809Y-95545846D02*
X155086190Y-95593465D01*
X155086190Y-95593465D02*
X154990952Y-95641084D01*
X154990952Y-95641084D02*
X154610000Y-95641084D01*
X155514762Y-95117275D02*
X155752857Y-96117275D01*
X155752857Y-96117275D02*
X155943333Y-95402989D01*
X155943333Y-95402989D02*
X156133809Y-96117275D01*
X156133809Y-96117275D02*
X156371905Y-95117275D01*
X157324285Y-96117275D02*
X156990952Y-95641084D01*
X156752857Y-96117275D02*
X156752857Y-95117275D01*
X156752857Y-95117275D02*
X157133809Y-95117275D01*
X157133809Y-95117275D02*
X157229047Y-95164894D01*
X157229047Y-95164894D02*
X157276666Y-95212513D01*
X157276666Y-95212513D02*
X157324285Y-95307751D01*
X157324285Y-95307751D02*
X157324285Y-95450608D01*
X157324285Y-95450608D02*
X157276666Y-95545846D01*
X157276666Y-95545846D02*
X157229047Y-95593465D01*
X157229047Y-95593465D02*
X157133809Y-95641084D01*
X157133809Y-95641084D02*
X156752857Y-95641084D01*
X157752857Y-95736322D02*
X158514762Y-95736322D01*
X159467142Y-96117275D02*
X158990952Y-96117275D01*
X158990952Y-96117275D02*
X158990952Y-95117275D01*
X160229047Y-96117275D02*
X160229047Y-95593465D01*
X160229047Y-95593465D02*
X160181428Y-95498227D01*
X160181428Y-95498227D02*
X160086190Y-95450608D01*
X160086190Y-95450608D02*
X159895714Y-95450608D01*
X159895714Y-95450608D02*
X159800476Y-95498227D01*
X160229047Y-96069656D02*
X160133809Y-96117275D01*
X160133809Y-96117275D02*
X159895714Y-96117275D01*
X159895714Y-96117275D02*
X159800476Y-96069656D01*
X159800476Y-96069656D02*
X159752857Y-95974417D01*
X159752857Y-95974417D02*
X159752857Y-95879179D01*
X159752857Y-95879179D02*
X159800476Y-95783941D01*
X159800476Y-95783941D02*
X159895714Y-95736322D01*
X159895714Y-95736322D02*
X160133809Y-95736322D01*
X160133809Y-95736322D02*
X160229047Y-95688703D01*
X160562381Y-95450608D02*
X160943333Y-95450608D01*
X160705238Y-95117275D02*
X160705238Y-95974417D01*
X160705238Y-95974417D02*
X160752857Y-96069656D01*
X160752857Y-96069656D02*
X160848095Y-96117275D01*
X160848095Y-96117275D02*
X160943333Y-96117275D01*
X161705238Y-96069656D02*
X161610000Y-96117275D01*
X161610000Y-96117275D02*
X161419524Y-96117275D01*
X161419524Y-96117275D02*
X161324286Y-96069656D01*
X161324286Y-96069656D02*
X161276667Y-96022036D01*
X161276667Y-96022036D02*
X161229048Y-95926798D01*
X161229048Y-95926798D02*
X161229048Y-95641084D01*
X161229048Y-95641084D02*
X161276667Y-95545846D01*
X161276667Y-95545846D02*
X161324286Y-95498227D01*
X161324286Y-95498227D02*
X161419524Y-95450608D01*
X161419524Y-95450608D02*
X161610000Y-95450608D01*
X161610000Y-95450608D02*
X161705238Y-95498227D01*
X162133810Y-96117275D02*
X162133810Y-95117275D01*
X162562381Y-96117275D02*
X162562381Y-95593465D01*
X162562381Y-95593465D02*
X162514762Y-95498227D01*
X162514762Y-95498227D02*
X162419524Y-95450608D01*
X162419524Y-95450608D02*
X162276667Y-95450608D01*
X162276667Y-95450608D02*
X162181429Y-95498227D01*
X162181429Y-95498227D02*
X162133810Y-95545846D01*
X163419524Y-96069656D02*
X163324286Y-96117275D01*
X163324286Y-96117275D02*
X163133810Y-96117275D01*
X163133810Y-96117275D02*
X163038572Y-96069656D01*
X163038572Y-96069656D02*
X162990953Y-95974417D01*
X162990953Y-95974417D02*
X162990953Y-95593465D01*
X162990953Y-95593465D02*
X163038572Y-95498227D01*
X163038572Y-95498227D02*
X163133810Y-95450608D01*
X163133810Y-95450608D02*
X163324286Y-95450608D01*
X163324286Y-95450608D02*
X163419524Y-95498227D01*
X163419524Y-95498227D02*
X163467143Y-95593465D01*
X163467143Y-95593465D02*
X163467143Y-95688703D01*
X163467143Y-95688703D02*
X162990953Y-95783941D01*
X163895715Y-96117275D02*
X163895715Y-95450608D01*
X163895715Y-95641084D02*
X163943334Y-95545846D01*
X163943334Y-95545846D02*
X163990953Y-95498227D01*
X163990953Y-95498227D02*
X164086191Y-95450608D01*
X164086191Y-95450608D02*
X164181429Y-95450608D01*
X147657618Y-96727219D02*
X147848094Y-96727219D01*
X147848094Y-96727219D02*
X147943332Y-96774838D01*
X147943332Y-96774838D02*
X148038570Y-96870076D01*
X148038570Y-96870076D02*
X148086189Y-97060552D01*
X148086189Y-97060552D02*
X148086189Y-97393885D01*
X148086189Y-97393885D02*
X148038570Y-97584361D01*
X148038570Y-97584361D02*
X147943332Y-97679600D01*
X147943332Y-97679600D02*
X147848094Y-97727219D01*
X147848094Y-97727219D02*
X147657618Y-97727219D01*
X147657618Y-97727219D02*
X147562380Y-97679600D01*
X147562380Y-97679600D02*
X147467142Y-97584361D01*
X147467142Y-97584361D02*
X147419523Y-97393885D01*
X147419523Y-97393885D02*
X147419523Y-97060552D01*
X147419523Y-97060552D02*
X147467142Y-96870076D01*
X147467142Y-96870076D02*
X147562380Y-96774838D01*
X147562380Y-96774838D02*
X147657618Y-96727219D01*
X148514761Y-97203409D02*
X148848094Y-97203409D01*
X148990951Y-97727219D02*
X148514761Y-97727219D01*
X148514761Y-97727219D02*
X148514761Y-96727219D01*
X148514761Y-96727219D02*
X148990951Y-96727219D01*
X149467142Y-97727219D02*
X149657618Y-97727219D01*
X149657618Y-97727219D02*
X149752856Y-97679600D01*
X149752856Y-97679600D02*
X149800475Y-97631980D01*
X149800475Y-97631980D02*
X149895713Y-97489123D01*
X149895713Y-97489123D02*
X149943332Y-97298647D01*
X149943332Y-97298647D02*
X149943332Y-96917695D01*
X149943332Y-96917695D02*
X149895713Y-96822457D01*
X149895713Y-96822457D02*
X149848094Y-96774838D01*
X149848094Y-96774838D02*
X149752856Y-96727219D01*
X149752856Y-96727219D02*
X149562380Y-96727219D01*
X149562380Y-96727219D02*
X149467142Y-96774838D01*
X149467142Y-96774838D02*
X149419523Y-96822457D01*
X149419523Y-96822457D02*
X149371904Y-96917695D01*
X149371904Y-96917695D02*
X149371904Y-97155790D01*
X149371904Y-97155790D02*
X149419523Y-97251028D01*
X149419523Y-97251028D02*
X149467142Y-97298647D01*
X149467142Y-97298647D02*
X149562380Y-97346266D01*
X149562380Y-97346266D02*
X149752856Y-97346266D01*
X149752856Y-97346266D02*
X149848094Y-97298647D01*
X149848094Y-97298647D02*
X149895713Y-97251028D01*
X149895713Y-97251028D02*
X149943332Y-97155790D01*
X150324285Y-97679600D02*
X150467142Y-97727219D01*
X150467142Y-97727219D02*
X150705237Y-97727219D01*
X150705237Y-97727219D02*
X150800475Y-97679600D01*
X150800475Y-97679600D02*
X150848094Y-97631980D01*
X150848094Y-97631980D02*
X150895713Y-97536742D01*
X150895713Y-97536742D02*
X150895713Y-97441504D01*
X150895713Y-97441504D02*
X150848094Y-97346266D01*
X150848094Y-97346266D02*
X150800475Y-97298647D01*
X150800475Y-97298647D02*
X150705237Y-97251028D01*
X150705237Y-97251028D02*
X150514761Y-97203409D01*
X150514761Y-97203409D02*
X150419523Y-97155790D01*
X150419523Y-97155790D02*
X150371904Y-97108171D01*
X150371904Y-97108171D02*
X150324285Y-97012933D01*
X150324285Y-97012933D02*
X150324285Y-96917695D01*
X150324285Y-96917695D02*
X150371904Y-96822457D01*
X150371904Y-96822457D02*
X150419523Y-96774838D01*
X150419523Y-96774838D02*
X150514761Y-96727219D01*
X150514761Y-96727219D02*
X150752856Y-96727219D01*
X150752856Y-96727219D02*
X150895713Y-96774838D01*
X151276666Y-97441504D02*
X151752856Y-97441504D01*
X151181428Y-97727219D02*
X151514761Y-96727219D01*
X151514761Y-96727219D02*
X151848094Y-97727219D01*
X152181428Y-96727219D02*
X152181428Y-97536742D01*
X152181428Y-97536742D02*
X152229047Y-97631980D01*
X152229047Y-97631980D02*
X152276666Y-97679600D01*
X152276666Y-97679600D02*
X152371904Y-97727219D01*
X152371904Y-97727219D02*
X152562380Y-97727219D01*
X152562380Y-97727219D02*
X152657618Y-97679600D01*
X152657618Y-97679600D02*
X152705237Y-97631980D01*
X152705237Y-97631980D02*
X152752856Y-97536742D01*
X152752856Y-97536742D02*
X152752856Y-96727219D01*
X154514761Y-97727219D02*
X153943333Y-97727219D01*
X154229047Y-97727219D02*
X154229047Y-96727219D01*
X154229047Y-96727219D02*
X154133809Y-96870076D01*
X154133809Y-96870076D02*
X154038571Y-96965314D01*
X154038571Y-96965314D02*
X153943333Y-97012933D01*
X155467142Y-97727219D02*
X154895714Y-97727219D01*
X155181428Y-97727219D02*
X155181428Y-96727219D01*
X155181428Y-96727219D02*
X155086190Y-96870076D01*
X155086190Y-96870076D02*
X154990952Y-96965314D01*
X154990952Y-96965314D02*
X154895714Y-97012933D01*
X156609999Y-96679600D02*
X155752857Y-97965314D01*
X156895714Y-96822457D02*
X156943333Y-96774838D01*
X156943333Y-96774838D02*
X157038571Y-96727219D01*
X157038571Y-96727219D02*
X157276666Y-96727219D01*
X157276666Y-96727219D02*
X157371904Y-96774838D01*
X157371904Y-96774838D02*
X157419523Y-96822457D01*
X157419523Y-96822457D02*
X157467142Y-96917695D01*
X157467142Y-96917695D02*
X157467142Y-97012933D01*
X157467142Y-97012933D02*
X157419523Y-97155790D01*
X157419523Y-97155790D02*
X156848095Y-97727219D01*
X156848095Y-97727219D02*
X157467142Y-97727219D01*
X158086190Y-96727219D02*
X158181428Y-96727219D01*
X158181428Y-96727219D02*
X158276666Y-96774838D01*
X158276666Y-96774838D02*
X158324285Y-96822457D01*
X158324285Y-96822457D02*
X158371904Y-96917695D01*
X158371904Y-96917695D02*
X158419523Y-97108171D01*
X158419523Y-97108171D02*
X158419523Y-97346266D01*
X158419523Y-97346266D02*
X158371904Y-97536742D01*
X158371904Y-97536742D02*
X158324285Y-97631980D01*
X158324285Y-97631980D02*
X158276666Y-97679600D01*
X158276666Y-97679600D02*
X158181428Y-97727219D01*
X158181428Y-97727219D02*
X158086190Y-97727219D01*
X158086190Y-97727219D02*
X157990952Y-97679600D01*
X157990952Y-97679600D02*
X157943333Y-97631980D01*
X157943333Y-97631980D02*
X157895714Y-97536742D01*
X157895714Y-97536742D02*
X157848095Y-97346266D01*
X157848095Y-97346266D02*
X157848095Y-97108171D01*
X157848095Y-97108171D02*
X157895714Y-96917695D01*
X157895714Y-96917695D02*
X157943333Y-96822457D01*
X157943333Y-96822457D02*
X157990952Y-96774838D01*
X157990952Y-96774838D02*
X158086190Y-96727219D01*
X158800476Y-96822457D02*
X158848095Y-96774838D01*
X158848095Y-96774838D02*
X158943333Y-96727219D01*
X158943333Y-96727219D02*
X159181428Y-96727219D01*
X159181428Y-96727219D02*
X159276666Y-96774838D01*
X159276666Y-96774838D02*
X159324285Y-96822457D01*
X159324285Y-96822457D02*
X159371904Y-96917695D01*
X159371904Y-96917695D02*
X159371904Y-97012933D01*
X159371904Y-97012933D02*
X159324285Y-97155790D01*
X159324285Y-97155790D02*
X158752857Y-97727219D01*
X158752857Y-97727219D02*
X159371904Y-97727219D01*
X160276666Y-96727219D02*
X159800476Y-96727219D01*
X159800476Y-96727219D02*
X159752857Y-97203409D01*
X159752857Y-97203409D02*
X159800476Y-97155790D01*
X159800476Y-97155790D02*
X159895714Y-97108171D01*
X159895714Y-97108171D02*
X160133809Y-97108171D01*
X160133809Y-97108171D02*
X160229047Y-97155790D01*
X160229047Y-97155790D02*
X160276666Y-97203409D01*
X160276666Y-97203409D02*
X160324285Y-97298647D01*
X160324285Y-97298647D02*
X160324285Y-97536742D01*
X160324285Y-97536742D02*
X160276666Y-97631980D01*
X160276666Y-97631980D02*
X160229047Y-97679600D01*
X160229047Y-97679600D02*
X160133809Y-97727219D01*
X160133809Y-97727219D02*
X159895714Y-97727219D01*
X159895714Y-97727219D02*
X159800476Y-97679600D01*
X159800476Y-97679600D02*
X159752857Y-97631980D01*
X161419524Y-97060552D02*
X161657619Y-97727219D01*
X161657619Y-97727219D02*
X161895714Y-97060552D01*
X162800476Y-97727219D02*
X162229048Y-97727219D01*
X162514762Y-97727219D02*
X162514762Y-96727219D01*
X162514762Y-96727219D02*
X162419524Y-96870076D01*
X162419524Y-96870076D02*
X162324286Y-96965314D01*
X162324286Y-96965314D02*
X162229048Y-97012933D01*
X185382933Y-88992231D02*
X185382933Y-87468422D01*
X186144838Y-88230326D02*
X184621028Y-88230326D01*
X185382933Y-84992231D02*
X185382933Y-83468422D01*
X171099673Y-80276266D02*
X171861578Y-80276266D01*
X171480625Y-80657219D02*
X171480625Y-79895314D01*
X173861578Y-80276266D02*
X174623483Y-80276266D01*
D11*
X176189819Y-87267030D02*
X176189819Y-87743220D01*
X176189819Y-87743220D02*
X176666009Y-87790839D01*
X176666009Y-87790839D02*
X176618390Y-87743220D01*
X176618390Y-87743220D02*
X176570771Y-87647982D01*
X176570771Y-87647982D02*
X176570771Y-87409887D01*
X176570771Y-87409887D02*
X176618390Y-87314649D01*
X176618390Y-87314649D02*
X176666009Y-87267030D01*
X176666009Y-87267030D02*
X176761247Y-87219411D01*
X176761247Y-87219411D02*
X176999342Y-87219411D01*
X176999342Y-87219411D02*
X177094580Y-87267030D01*
X177094580Y-87267030D02*
X177142200Y-87314649D01*
X177142200Y-87314649D02*
X177189819Y-87409887D01*
X177189819Y-87409887D02*
X177189819Y-87647982D01*
X177189819Y-87647982D02*
X177142200Y-87743220D01*
X177142200Y-87743220D02*
X177094580Y-87790839D01*
X176189819Y-86933696D02*
X177189819Y-86600363D01*
X177189819Y-86600363D02*
X176189819Y-86267030D01*
X176189819Y-84981315D02*
X176189819Y-84790839D01*
X176189819Y-84790839D02*
X176237438Y-84695601D01*
X176237438Y-84695601D02*
X176332676Y-84600363D01*
X176332676Y-84600363D02*
X176523152Y-84552744D01*
X176523152Y-84552744D02*
X176856485Y-84552744D01*
X176856485Y-84552744D02*
X177046961Y-84600363D01*
X177046961Y-84600363D02*
X177142200Y-84695601D01*
X177142200Y-84695601D02*
X177189819Y-84790839D01*
X177189819Y-84790839D02*
X177189819Y-84981315D01*
X177189819Y-84981315D02*
X177142200Y-85076553D01*
X177142200Y-85076553D02*
X177046961Y-85171791D01*
X177046961Y-85171791D02*
X176856485Y-85219410D01*
X176856485Y-85219410D02*
X176523152Y-85219410D01*
X176523152Y-85219410D02*
X176332676Y-85171791D01*
X176332676Y-85171791D02*
X176237438Y-85076553D01*
X176237438Y-85076553D02*
X176189819Y-84981315D01*
X176189819Y-84124172D02*
X176999342Y-84124172D01*
X176999342Y-84124172D02*
X177094580Y-84076553D01*
X177094580Y-84076553D02*
X177142200Y-84028934D01*
X177142200Y-84028934D02*
X177189819Y-83933696D01*
X177189819Y-83933696D02*
X177189819Y-83743220D01*
X177189819Y-83743220D02*
X177142200Y-83647982D01*
X177142200Y-83647982D02*
X177094580Y-83600363D01*
X177094580Y-83600363D02*
X176999342Y-83552744D01*
X176999342Y-83552744D02*
X176189819Y-83552744D01*
X176189819Y-83219410D02*
X176189819Y-82647982D01*
X177189819Y-82933696D02*
X176189819Y-82933696D01*
D10*
X165330326Y-80293733D02*
X164568422Y-80293733D01*
X164949374Y-79912780D02*
X164949374Y-80674685D01*
D11*
X159514819Y-78113333D02*
X160229104Y-78113333D01*
X160229104Y-78113333D02*
X160371961Y-78160952D01*
X160371961Y-78160952D02*
X160467200Y-78256190D01*
X160467200Y-78256190D02*
X160514819Y-78399047D01*
X160514819Y-78399047D02*
X160514819Y-78494285D01*
X159514819Y-77732380D02*
X159514819Y-77113333D01*
X159514819Y-77113333D02*
X159895771Y-77446666D01*
X159895771Y-77446666D02*
X159895771Y-77303809D01*
X159895771Y-77303809D02*
X159943390Y-77208571D01*
X159943390Y-77208571D02*
X159991009Y-77160952D01*
X159991009Y-77160952D02*
X160086247Y-77113333D01*
X160086247Y-77113333D02*
X160324342Y-77113333D01*
X160324342Y-77113333D02*
X160419580Y-77160952D01*
X160419580Y-77160952D02*
X160467200Y-77208571D01*
X160467200Y-77208571D02*
X160514819Y-77303809D01*
X160514819Y-77303809D02*
X160514819Y-77589523D01*
X160514819Y-77589523D02*
X160467200Y-77684761D01*
X160467200Y-77684761D02*
X160419580Y-77732380D01*
X172195833Y-86754819D02*
X171862500Y-86278628D01*
X171624405Y-86754819D02*
X171624405Y-85754819D01*
X171624405Y-85754819D02*
X172005357Y-85754819D01*
X172005357Y-85754819D02*
X172100595Y-85802438D01*
X172100595Y-85802438D02*
X172148214Y-85850057D01*
X172148214Y-85850057D02*
X172195833Y-85945295D01*
X172195833Y-85945295D02*
X172195833Y-86088152D01*
X172195833Y-86088152D02*
X172148214Y-86183390D01*
X172148214Y-86183390D02*
X172100595Y-86231009D01*
X172100595Y-86231009D02*
X172005357Y-86278628D01*
X172005357Y-86278628D02*
X171624405Y-86278628D01*
X172529167Y-85754819D02*
X173148214Y-85754819D01*
X173148214Y-85754819D02*
X172814881Y-86135771D01*
X172814881Y-86135771D02*
X172957738Y-86135771D01*
X172957738Y-86135771D02*
X173052976Y-86183390D01*
X173052976Y-86183390D02*
X173100595Y-86231009D01*
X173100595Y-86231009D02*
X173148214Y-86326247D01*
X173148214Y-86326247D02*
X173148214Y-86564342D01*
X173148214Y-86564342D02*
X173100595Y-86659580D01*
X173100595Y-86659580D02*
X173052976Y-86707200D01*
X173052976Y-86707200D02*
X172957738Y-86754819D01*
X172957738Y-86754819D02*
X172672024Y-86754819D01*
X172672024Y-86754819D02*
X172576786Y-86707200D01*
X172576786Y-86707200D02*
X172529167Y-86659580D01*
X156331333Y-83354819D02*
X155998000Y-82878628D01*
X155759905Y-83354819D02*
X155759905Y-82354819D01*
X155759905Y-82354819D02*
X156140857Y-82354819D01*
X156140857Y-82354819D02*
X156236095Y-82402438D01*
X156236095Y-82402438D02*
X156283714Y-82450057D01*
X156283714Y-82450057D02*
X156331333Y-82545295D01*
X156331333Y-82545295D02*
X156331333Y-82688152D01*
X156331333Y-82688152D02*
X156283714Y-82783390D01*
X156283714Y-82783390D02*
X156236095Y-82831009D01*
X156236095Y-82831009D02*
X156140857Y-82878628D01*
X156140857Y-82878628D02*
X155759905Y-82878628D01*
X157236095Y-82354819D02*
X156759905Y-82354819D01*
X156759905Y-82354819D02*
X156712286Y-82831009D01*
X156712286Y-82831009D02*
X156759905Y-82783390D01*
X156759905Y-82783390D02*
X156855143Y-82735771D01*
X156855143Y-82735771D02*
X157093238Y-82735771D01*
X157093238Y-82735771D02*
X157188476Y-82783390D01*
X157188476Y-82783390D02*
X157236095Y-82831009D01*
X157236095Y-82831009D02*
X157283714Y-82926247D01*
X157283714Y-82926247D02*
X157283714Y-83164342D01*
X157283714Y-83164342D02*
X157236095Y-83259580D01*
X157236095Y-83259580D02*
X157188476Y-83307200D01*
X157188476Y-83307200D02*
X157093238Y-83354819D01*
X157093238Y-83354819D02*
X156855143Y-83354819D01*
X156855143Y-83354819D02*
X156759905Y-83307200D01*
X156759905Y-83307200D02*
X156712286Y-83259580D01*
X172195833Y-83354819D02*
X171862500Y-82878628D01*
X171624405Y-83354819D02*
X171624405Y-82354819D01*
X171624405Y-82354819D02*
X172005357Y-82354819D01*
X172005357Y-82354819D02*
X172100595Y-82402438D01*
X172100595Y-82402438D02*
X172148214Y-82450057D01*
X172148214Y-82450057D02*
X172195833Y-82545295D01*
X172195833Y-82545295D02*
X172195833Y-82688152D01*
X172195833Y-82688152D02*
X172148214Y-82783390D01*
X172148214Y-82783390D02*
X172100595Y-82831009D01*
X172100595Y-82831009D02*
X172005357Y-82878628D01*
X172005357Y-82878628D02*
X171624405Y-82878628D01*
X172529167Y-82354819D02*
X173195833Y-82354819D01*
X173195833Y-82354819D02*
X172767262Y-83354819D01*
X167220833Y-83354819D02*
X166887500Y-82878628D01*
X166649405Y-83354819D02*
X166649405Y-82354819D01*
X166649405Y-82354819D02*
X167030357Y-82354819D01*
X167030357Y-82354819D02*
X167125595Y-82402438D01*
X167125595Y-82402438D02*
X167173214Y-82450057D01*
X167173214Y-82450057D02*
X167220833Y-82545295D01*
X167220833Y-82545295D02*
X167220833Y-82688152D01*
X167220833Y-82688152D02*
X167173214Y-82783390D01*
X167173214Y-82783390D02*
X167125595Y-82831009D01*
X167125595Y-82831009D02*
X167030357Y-82878628D01*
X167030357Y-82878628D02*
X166649405Y-82878628D01*
X168077976Y-82354819D02*
X167887500Y-82354819D01*
X167887500Y-82354819D02*
X167792262Y-82402438D01*
X167792262Y-82402438D02*
X167744643Y-82450057D01*
X167744643Y-82450057D02*
X167649405Y-82592914D01*
X167649405Y-82592914D02*
X167601786Y-82783390D01*
X167601786Y-82783390D02*
X167601786Y-83164342D01*
X167601786Y-83164342D02*
X167649405Y-83259580D01*
X167649405Y-83259580D02*
X167697024Y-83307200D01*
X167697024Y-83307200D02*
X167792262Y-83354819D01*
X167792262Y-83354819D02*
X167982738Y-83354819D01*
X167982738Y-83354819D02*
X168077976Y-83307200D01*
X168077976Y-83307200D02*
X168125595Y-83259580D01*
X168125595Y-83259580D02*
X168173214Y-83164342D01*
X168173214Y-83164342D02*
X168173214Y-82926247D01*
X168173214Y-82926247D02*
X168125595Y-82831009D01*
X168125595Y-82831009D02*
X168077976Y-82783390D01*
X168077976Y-82783390D02*
X167982738Y-82735771D01*
X167982738Y-82735771D02*
X167792262Y-82735771D01*
X167792262Y-82735771D02*
X167697024Y-82783390D01*
X167697024Y-82783390D02*
X167649405Y-82831009D01*
X167649405Y-82831009D02*
X167601786Y-82926247D01*
X167433333Y-86754819D02*
X167100000Y-86278628D01*
X166861905Y-86754819D02*
X166861905Y-85754819D01*
X166861905Y-85754819D02*
X167242857Y-85754819D01*
X167242857Y-85754819D02*
X167338095Y-85802438D01*
X167338095Y-85802438D02*
X167385714Y-85850057D01*
X167385714Y-85850057D02*
X167433333Y-85945295D01*
X167433333Y-85945295D02*
X167433333Y-86088152D01*
X167433333Y-86088152D02*
X167385714Y-86183390D01*
X167385714Y-86183390D02*
X167338095Y-86231009D01*
X167338095Y-86231009D02*
X167242857Y-86278628D01*
X167242857Y-86278628D02*
X166861905Y-86278628D01*
X168290476Y-86088152D02*
X168290476Y-86754819D01*
X168052381Y-85707200D02*
X167814286Y-86421485D01*
X167814286Y-86421485D02*
X168433333Y-86421485D01*
X158904761Y-91450057D02*
X158809523Y-91402438D01*
X158809523Y-91402438D02*
X158714285Y-91307200D01*
X158714285Y-91307200D02*
X158571428Y-91164342D01*
X158571428Y-91164342D02*
X158476190Y-91116723D01*
X158476190Y-91116723D02*
X158380952Y-91116723D01*
X158428571Y-91354819D02*
X158333333Y-91307200D01*
X158333333Y-91307200D02*
X158238095Y-91211961D01*
X158238095Y-91211961D02*
X158190476Y-91021485D01*
X158190476Y-91021485D02*
X158190476Y-90688152D01*
X158190476Y-90688152D02*
X158238095Y-90497676D01*
X158238095Y-90497676D02*
X158333333Y-90402438D01*
X158333333Y-90402438D02*
X158428571Y-90354819D01*
X158428571Y-90354819D02*
X158619047Y-90354819D01*
X158619047Y-90354819D02*
X158714285Y-90402438D01*
X158714285Y-90402438D02*
X158809523Y-90497676D01*
X158809523Y-90497676D02*
X158857142Y-90688152D01*
X158857142Y-90688152D02*
X158857142Y-91021485D01*
X158857142Y-91021485D02*
X158809523Y-91211961D01*
X158809523Y-91211961D02*
X158714285Y-91307200D01*
X158714285Y-91307200D02*
X158619047Y-91354819D01*
X158619047Y-91354819D02*
X158428571Y-91354819D01*
X159809523Y-91354819D02*
X159238095Y-91354819D01*
X159523809Y-91354819D02*
X159523809Y-90354819D01*
X159523809Y-90354819D02*
X159428571Y-90497676D01*
X159428571Y-90497676D02*
X159333333Y-90592914D01*
X159333333Y-90592914D02*
X159238095Y-90640533D01*
X172504761Y-90850057D02*
X172409523Y-90802438D01*
X172409523Y-90802438D02*
X172314285Y-90707200D01*
X172314285Y-90707200D02*
X172171428Y-90564342D01*
X172171428Y-90564342D02*
X172076190Y-90516723D01*
X172076190Y-90516723D02*
X171980952Y-90516723D01*
X172028571Y-90754819D02*
X171933333Y-90707200D01*
X171933333Y-90707200D02*
X171838095Y-90611961D01*
X171838095Y-90611961D02*
X171790476Y-90421485D01*
X171790476Y-90421485D02*
X171790476Y-90088152D01*
X171790476Y-90088152D02*
X171838095Y-89897676D01*
X171838095Y-89897676D02*
X171933333Y-89802438D01*
X171933333Y-89802438D02*
X172028571Y-89754819D01*
X172028571Y-89754819D02*
X172219047Y-89754819D01*
X172219047Y-89754819D02*
X172314285Y-89802438D01*
X172314285Y-89802438D02*
X172409523Y-89897676D01*
X172409523Y-89897676D02*
X172457142Y-90088152D01*
X172457142Y-90088152D02*
X172457142Y-90421485D01*
X172457142Y-90421485D02*
X172409523Y-90611961D01*
X172409523Y-90611961D02*
X172314285Y-90707200D01*
X172314285Y-90707200D02*
X172219047Y-90754819D01*
X172219047Y-90754819D02*
X172028571Y-90754819D01*
X173314285Y-90088152D02*
X173314285Y-90754819D01*
X173076190Y-89707200D02*
X172838095Y-90421485D01*
X172838095Y-90421485D02*
X173457142Y-90421485D01*
X162691905Y-82926819D02*
X162691905Y-81926819D01*
X162691905Y-81926819D02*
X162930000Y-81926819D01*
X162930000Y-81926819D02*
X163072857Y-81974438D01*
X163072857Y-81974438D02*
X163168095Y-82069676D01*
X163168095Y-82069676D02*
X163215714Y-82164914D01*
X163215714Y-82164914D02*
X163263333Y-82355390D01*
X163263333Y-82355390D02*
X163263333Y-82498247D01*
X163263333Y-82498247D02*
X163215714Y-82688723D01*
X163215714Y-82688723D02*
X163168095Y-82783961D01*
X163168095Y-82783961D02*
X163072857Y-82879200D01*
X163072857Y-82879200D02*
X162930000Y-82926819D01*
X162930000Y-82926819D02*
X162691905Y-82926819D01*
X164215714Y-82926819D02*
X163644286Y-82926819D01*
X163930000Y-82926819D02*
X163930000Y-81926819D01*
X163930000Y-81926819D02*
X163834762Y-82069676D01*
X163834762Y-82069676D02*
X163739524Y-82164914D01*
X163739524Y-82164914D02*
X163644286Y-82212533D01*
X151233333Y-88489580D02*
X151185714Y-88537200D01*
X151185714Y-88537200D02*
X151042857Y-88584819D01*
X151042857Y-88584819D02*
X150947619Y-88584819D01*
X150947619Y-88584819D02*
X150804762Y-88537200D01*
X150804762Y-88537200D02*
X150709524Y-88441961D01*
X150709524Y-88441961D02*
X150661905Y-88346723D01*
X150661905Y-88346723D02*
X150614286Y-88156247D01*
X150614286Y-88156247D02*
X150614286Y-88013390D01*
X150614286Y-88013390D02*
X150661905Y-87822914D01*
X150661905Y-87822914D02*
X150709524Y-87727676D01*
X150709524Y-87727676D02*
X150804762Y-87632438D01*
X150804762Y-87632438D02*
X150947619Y-87584819D01*
X150947619Y-87584819D02*
X151042857Y-87584819D01*
X151042857Y-87584819D02*
X151185714Y-87632438D01*
X151185714Y-87632438D02*
X151233333Y-87680057D01*
X152185714Y-88584819D02*
X151614286Y-88584819D01*
X151900000Y-88584819D02*
X151900000Y-87584819D01*
X151900000Y-87584819D02*
X151804762Y-87727676D01*
X151804762Y-87727676D02*
X151709524Y-87822914D01*
X151709524Y-87822914D02*
X151614286Y-87870533D01*
X164204761Y-87650057D02*
X164109523Y-87602438D01*
X164109523Y-87602438D02*
X164014285Y-87507200D01*
X164014285Y-87507200D02*
X163871428Y-87364342D01*
X163871428Y-87364342D02*
X163776190Y-87316723D01*
X163776190Y-87316723D02*
X163680952Y-87316723D01*
X163728571Y-87554819D02*
X163633333Y-87507200D01*
X163633333Y-87507200D02*
X163538095Y-87411961D01*
X163538095Y-87411961D02*
X163490476Y-87221485D01*
X163490476Y-87221485D02*
X163490476Y-86888152D01*
X163490476Y-86888152D02*
X163538095Y-86697676D01*
X163538095Y-86697676D02*
X163633333Y-86602438D01*
X163633333Y-86602438D02*
X163728571Y-86554819D01*
X163728571Y-86554819D02*
X163919047Y-86554819D01*
X163919047Y-86554819D02*
X164014285Y-86602438D01*
X164014285Y-86602438D02*
X164109523Y-86697676D01*
X164109523Y-86697676D02*
X164157142Y-86888152D01*
X164157142Y-86888152D02*
X164157142Y-87221485D01*
X164157142Y-87221485D02*
X164109523Y-87411961D01*
X164109523Y-87411961D02*
X164014285Y-87507200D01*
X164014285Y-87507200D02*
X163919047Y-87554819D01*
X163919047Y-87554819D02*
X163728571Y-87554819D01*
X164490476Y-86554819D02*
X165109523Y-86554819D01*
X165109523Y-86554819D02*
X164776190Y-86935771D01*
X164776190Y-86935771D02*
X164919047Y-86935771D01*
X164919047Y-86935771D02*
X165014285Y-86983390D01*
X165014285Y-86983390D02*
X165061904Y-87031009D01*
X165061904Y-87031009D02*
X165109523Y-87126247D01*
X165109523Y-87126247D02*
X165109523Y-87364342D01*
X165109523Y-87364342D02*
X165061904Y-87459580D01*
X165061904Y-87459580D02*
X165014285Y-87507200D01*
X165014285Y-87507200D02*
X164919047Y-87554819D01*
X164919047Y-87554819D02*
X164633333Y-87554819D01*
X164633333Y-87554819D02*
X164538095Y-87507200D01*
X164538095Y-87507200D02*
X164490476Y-87459580D01*
X164304761Y-91450057D02*
X164209523Y-91402438D01*
X164209523Y-91402438D02*
X164114285Y-91307200D01*
X164114285Y-91307200D02*
X163971428Y-91164342D01*
X163971428Y-91164342D02*
X163876190Y-91116723D01*
X163876190Y-91116723D02*
X163780952Y-91116723D01*
X163828571Y-91354819D02*
X163733333Y-91307200D01*
X163733333Y-91307200D02*
X163638095Y-91211961D01*
X163638095Y-91211961D02*
X163590476Y-91021485D01*
X163590476Y-91021485D02*
X163590476Y-90688152D01*
X163590476Y-90688152D02*
X163638095Y-90497676D01*
X163638095Y-90497676D02*
X163733333Y-90402438D01*
X163733333Y-90402438D02*
X163828571Y-90354819D01*
X163828571Y-90354819D02*
X164019047Y-90354819D01*
X164019047Y-90354819D02*
X164114285Y-90402438D01*
X164114285Y-90402438D02*
X164209523Y-90497676D01*
X164209523Y-90497676D02*
X164257142Y-90688152D01*
X164257142Y-90688152D02*
X164257142Y-91021485D01*
X164257142Y-91021485D02*
X164209523Y-91211961D01*
X164209523Y-91211961D02*
X164114285Y-91307200D01*
X164114285Y-91307200D02*
X164019047Y-91354819D01*
X164019047Y-91354819D02*
X163828571Y-91354819D01*
X164638095Y-90450057D02*
X164685714Y-90402438D01*
X164685714Y-90402438D02*
X164780952Y-90354819D01*
X164780952Y-90354819D02*
X165019047Y-90354819D01*
X165019047Y-90354819D02*
X165114285Y-90402438D01*
X165114285Y-90402438D02*
X165161904Y-90450057D01*
X165161904Y-90450057D02*
X165209523Y-90545295D01*
X165209523Y-90545295D02*
X165209523Y-90640533D01*
X165209523Y-90640533D02*
X165161904Y-90783390D01*
X165161904Y-90783390D02*
X164590476Y-91354819D01*
X164590476Y-91354819D02*
X165209523Y-91354819D01*
X148504019Y-78133333D02*
X149218304Y-78133333D01*
X149218304Y-78133333D02*
X149361161Y-78180952D01*
X149361161Y-78180952D02*
X149456400Y-78276190D01*
X149456400Y-78276190D02*
X149504019Y-78419047D01*
X149504019Y-78419047D02*
X149504019Y-78514285D01*
X149504019Y-77133333D02*
X149504019Y-77704761D01*
X149504019Y-77419047D02*
X148504019Y-77419047D01*
X148504019Y-77419047D02*
X148646876Y-77514285D01*
X148646876Y-77514285D02*
X148742114Y-77609523D01*
X148742114Y-77609523D02*
X148789733Y-77704761D01*
X168539819Y-78113333D02*
X169254104Y-78113333D01*
X169254104Y-78113333D02*
X169396961Y-78160952D01*
X169396961Y-78160952D02*
X169492200Y-78256190D01*
X169492200Y-78256190D02*
X169539819Y-78399047D01*
X169539819Y-78399047D02*
X169539819Y-78494285D01*
X168539819Y-77160952D02*
X168539819Y-77637142D01*
X168539819Y-77637142D02*
X169016009Y-77684761D01*
X169016009Y-77684761D02*
X168968390Y-77637142D01*
X168968390Y-77637142D02*
X168920771Y-77541904D01*
X168920771Y-77541904D02*
X168920771Y-77303809D01*
X168920771Y-77303809D02*
X168968390Y-77208571D01*
X168968390Y-77208571D02*
X169016009Y-77160952D01*
X169016009Y-77160952D02*
X169111247Y-77113333D01*
X169111247Y-77113333D02*
X169349342Y-77113333D01*
X169349342Y-77113333D02*
X169444580Y-77160952D01*
X169444580Y-77160952D02*
X169492200Y-77208571D01*
X169492200Y-77208571D02*
X169539819Y-77303809D01*
X169539819Y-77303809D02*
X169539819Y-77541904D01*
X169539819Y-77541904D02*
X169492200Y-77637142D01*
X169492200Y-77637142D02*
X169444580Y-77684761D01*
X151564761Y-82960057D02*
X151469523Y-82912438D01*
X151469523Y-82912438D02*
X151374285Y-82817200D01*
X151374285Y-82817200D02*
X151231428Y-82674342D01*
X151231428Y-82674342D02*
X151136190Y-82626723D01*
X151136190Y-82626723D02*
X151040952Y-82626723D01*
X151088571Y-82864819D02*
X150993333Y-82817200D01*
X150993333Y-82817200D02*
X150898095Y-82721961D01*
X150898095Y-82721961D02*
X150850476Y-82531485D01*
X150850476Y-82531485D02*
X150850476Y-82198152D01*
X150850476Y-82198152D02*
X150898095Y-82007676D01*
X150898095Y-82007676D02*
X150993333Y-81912438D01*
X150993333Y-81912438D02*
X151088571Y-81864819D01*
X151088571Y-81864819D02*
X151279047Y-81864819D01*
X151279047Y-81864819D02*
X151374285Y-81912438D01*
X151374285Y-81912438D02*
X151469523Y-82007676D01*
X151469523Y-82007676D02*
X151517142Y-82198152D01*
X151517142Y-82198152D02*
X151517142Y-82531485D01*
X151517142Y-82531485D02*
X151469523Y-82721961D01*
X151469523Y-82721961D02*
X151374285Y-82817200D01*
X151374285Y-82817200D02*
X151279047Y-82864819D01*
X151279047Y-82864819D02*
X151088571Y-82864819D01*
X152421904Y-81864819D02*
X151945714Y-81864819D01*
X151945714Y-81864819D02*
X151898095Y-82341009D01*
X151898095Y-82341009D02*
X151945714Y-82293390D01*
X151945714Y-82293390D02*
X152040952Y-82245771D01*
X152040952Y-82245771D02*
X152279047Y-82245771D01*
X152279047Y-82245771D02*
X152374285Y-82293390D01*
X152374285Y-82293390D02*
X152421904Y-82341009D01*
X152421904Y-82341009D02*
X152469523Y-82436247D01*
X152469523Y-82436247D02*
X152469523Y-82674342D01*
X152469523Y-82674342D02*
X152421904Y-82769580D01*
X152421904Y-82769580D02*
X152374285Y-82817200D01*
X152374285Y-82817200D02*
X152279047Y-82864819D01*
X152279047Y-82864819D02*
X152040952Y-82864819D01*
X152040952Y-82864819D02*
X151945714Y-82817200D01*
X151945714Y-82817200D02*
X151898095Y-82769580D01*
X151245733Y-91994819D02*
X150912400Y-91518628D01*
X150674305Y-91994819D02*
X150674305Y-90994819D01*
X150674305Y-90994819D02*
X151055257Y-90994819D01*
X151055257Y-90994819D02*
X151150495Y-91042438D01*
X151150495Y-91042438D02*
X151198114Y-91090057D01*
X151198114Y-91090057D02*
X151245733Y-91185295D01*
X151245733Y-91185295D02*
X151245733Y-91328152D01*
X151245733Y-91328152D02*
X151198114Y-91423390D01*
X151198114Y-91423390D02*
X151150495Y-91471009D01*
X151150495Y-91471009D02*
X151055257Y-91518628D01*
X151055257Y-91518628D02*
X150674305Y-91518628D01*
X151626686Y-91090057D02*
X151674305Y-91042438D01*
X151674305Y-91042438D02*
X151769543Y-90994819D01*
X151769543Y-90994819D02*
X152007638Y-90994819D01*
X152007638Y-90994819D02*
X152102876Y-91042438D01*
X152102876Y-91042438D02*
X152150495Y-91090057D01*
X152150495Y-91090057D02*
X152198114Y-91185295D01*
X152198114Y-91185295D02*
X152198114Y-91280533D01*
X152198114Y-91280533D02*
X152150495Y-91423390D01*
X152150495Y-91423390D02*
X151579067Y-91994819D01*
X151579067Y-91994819D02*
X152198114Y-91994819D01*
X156554833Y-86754819D02*
X156221500Y-86278628D01*
X155983405Y-86754819D02*
X155983405Y-85754819D01*
X155983405Y-85754819D02*
X156364357Y-85754819D01*
X156364357Y-85754819D02*
X156459595Y-85802438D01*
X156459595Y-85802438D02*
X156507214Y-85850057D01*
X156507214Y-85850057D02*
X156554833Y-85945295D01*
X156554833Y-85945295D02*
X156554833Y-86088152D01*
X156554833Y-86088152D02*
X156507214Y-86183390D01*
X156507214Y-86183390D02*
X156459595Y-86231009D01*
X156459595Y-86231009D02*
X156364357Y-86278628D01*
X156364357Y-86278628D02*
X155983405Y-86278628D01*
X157507214Y-86754819D02*
X156935786Y-86754819D01*
X157221500Y-86754819D02*
X157221500Y-85754819D01*
X157221500Y-85754819D02*
X157126262Y-85897676D01*
X157126262Y-85897676D02*
X157031024Y-85992914D01*
X157031024Y-85992914D02*
X156935786Y-86040533D01*
D12*
%TO.C,J3*%
X161060000Y-79160000D02*
X161060000Y-77780000D01*
X162440000Y-79160000D02*
X161060000Y-79160000D01*
X163710000Y-76400000D02*
X166360000Y-76400000D01*
X163710000Y-79160000D02*
X163710000Y-76400000D01*
X163710000Y-79160000D02*
X166360000Y-79160000D01*
X166360000Y-79160000D02*
X166360000Y-76400000D01*
%TO.C,R3*%
X172234836Y-87065000D02*
X172688964Y-87065000D01*
X172234836Y-88535000D02*
X172688964Y-88535000D01*
%TO.C,R5*%
X156285436Y-83713000D02*
X156739564Y-83713000D01*
X156285436Y-85183000D02*
X156739564Y-85183000D01*
%TO.C,R7*%
X172135436Y-83715000D02*
X172589564Y-83715000D01*
X172135436Y-85185000D02*
X172589564Y-85185000D01*
%TO.C,J4*%
X138980000Y-82460000D02*
X138980000Y-90080000D01*
X138980000Y-90080000D02*
X144950000Y-90080000D01*
X139740000Y-83220000D02*
X139740000Y-86270000D01*
X139740000Y-89320000D02*
X139740000Y-86270000D01*
X142690000Y-82470000D02*
X142690000Y-83220000D01*
X142690000Y-83220000D02*
X139740000Y-83220000D01*
X142690000Y-89320000D02*
X139740000Y-89320000D01*
X142690000Y-90070000D02*
X142690000Y-89320000D01*
X144190000Y-82470000D02*
X144190000Y-84270000D01*
X144190000Y-84270000D02*
X144940000Y-84270000D01*
X144190000Y-85770000D02*
X144190000Y-86770000D01*
X144190000Y-86770000D02*
X144940000Y-86770000D01*
X144190000Y-88270000D02*
X144190000Y-90070000D01*
X144190000Y-90070000D02*
X144940000Y-90070000D01*
X144940000Y-82470000D02*
X144190000Y-82470000D01*
X144940000Y-84270000D02*
X144940000Y-82470000D01*
X144940000Y-85770000D02*
X144190000Y-85770000D01*
X144940000Y-86770000D02*
X144940000Y-85770000D01*
X144940000Y-88270000D02*
X144190000Y-88270000D01*
X144940000Y-90070000D02*
X144940000Y-88270000D01*
X144950000Y-82460000D02*
X138980000Y-82460000D01*
X144950000Y-90080000D02*
X144950000Y-82460000D01*
X145240000Y-82170000D02*
X143990000Y-82170000D01*
X145240000Y-83420000D02*
X145240000Y-82170000D01*
%TO.C,R6*%
X167160436Y-83713000D02*
X167614564Y-83713000D01*
X167160436Y-85183000D02*
X167614564Y-85183000D01*
%TO.C,R4*%
X167412636Y-87065000D02*
X167866764Y-87065000D01*
X167412636Y-88535000D02*
X167866764Y-88535000D01*
%TO.C,Q1*%
X156999700Y-90606400D02*
X156349700Y-90606400D01*
X156999700Y-90606400D02*
X157649700Y-90606400D01*
X156999700Y-93726400D02*
X156349700Y-93726400D01*
X156999700Y-93726400D02*
X157649700Y-93726400D01*
X155837200Y-90656400D02*
X155597200Y-90326400D01*
X156077200Y-90326400D01*
X155837200Y-90656400D01*
G36*
X155837200Y-90656400D02*
G01*
X155597200Y-90326400D01*
X156077200Y-90326400D01*
X155837200Y-90656400D01*
G37*
D13*
%TO.C,Q4*%
X169331000Y-91109400D02*
X175325400Y-91109800D01*
X169331000Y-97663400D02*
X169331000Y-91109400D01*
X175325400Y-97663000D02*
X169331000Y-97663400D01*
D14*
X169229400Y-94818200D02*
X168467400Y-94818200D01*
X168467400Y-93954600D01*
X169229400Y-93954600D01*
X169229400Y-94818200D01*
G36*
X169229400Y-94818200D02*
G01*
X168467400Y-94818200D01*
X168467400Y-93954600D01*
X169229400Y-93954600D01*
X169229400Y-94818200D01*
G37*
D12*
%TO.C,D1*%
X161650000Y-83260000D02*
X163060000Y-83260000D01*
X161650000Y-85580000D02*
X163060000Y-85580000D01*
X163060000Y-83260000D02*
X163060000Y-83920000D01*
X163060000Y-84920000D02*
X163060000Y-85580000D01*
X161280000Y-83280000D02*
X161040000Y-82950000D01*
X161520000Y-82950000D01*
X161280000Y-83280000D01*
G36*
X161280000Y-83280000D02*
G01*
X161040000Y-82950000D01*
X161520000Y-82950000D01*
X161280000Y-83280000D01*
G37*
%TO.C,C1*%
X151661252Y-88995000D02*
X151138748Y-88995000D01*
X151661252Y-90465000D02*
X151138748Y-90465000D01*
%TO.C,Q3*%
X162381500Y-86834400D02*
X161731500Y-86834400D01*
X162381500Y-86834400D02*
X163031500Y-86834400D01*
X162381500Y-89954400D02*
X161731500Y-89954400D01*
X162381500Y-89954400D02*
X163031500Y-89954400D01*
X161219000Y-86884400D02*
X160979000Y-86554400D01*
X161459000Y-86554400D01*
X161219000Y-86884400D01*
G36*
X161219000Y-86884400D02*
G01*
X160979000Y-86554400D01*
X161459000Y-86554400D01*
X161219000Y-86884400D01*
G37*
%TO.C,J2*%
X177810000Y-89150000D02*
X177810000Y-90400000D01*
X177810000Y-90400000D02*
X179060000Y-90400000D01*
X178100000Y-82490000D02*
X178100000Y-90110000D01*
X178100000Y-90110000D02*
X184070000Y-90110000D01*
X178110000Y-82500000D02*
X178110000Y-84300000D01*
X178110000Y-84300000D02*
X178860000Y-84300000D01*
X178110000Y-85800000D02*
X178110000Y-86800000D01*
X178110000Y-86800000D02*
X178860000Y-86800000D01*
X178110000Y-88300000D02*
X178110000Y-90100000D01*
X178110000Y-90100000D02*
X178860000Y-90100000D01*
X178860000Y-82500000D02*
X178110000Y-82500000D01*
X178860000Y-84300000D02*
X178860000Y-82500000D01*
X178860000Y-85800000D02*
X178110000Y-85800000D01*
X178860000Y-86800000D02*
X178860000Y-85800000D01*
X178860000Y-88300000D02*
X178110000Y-88300000D01*
X178860000Y-90100000D02*
X178860000Y-88300000D01*
X180360000Y-82500000D02*
X180360000Y-83250000D01*
X180360000Y-83250000D02*
X183310000Y-83250000D01*
X180360000Y-89350000D02*
X183310000Y-89350000D01*
X180360000Y-90100000D02*
X180360000Y-89350000D01*
X183310000Y-83250000D02*
X183310000Y-86300000D01*
X183310000Y-89350000D02*
X183310000Y-86300000D01*
X184070000Y-82490000D02*
X178100000Y-82490000D01*
X184070000Y-90110000D02*
X184070000Y-82490000D01*
%TO.C,Q2*%
X162435300Y-90591200D02*
X161785300Y-90591200D01*
X162435300Y-90591200D02*
X163085300Y-90591200D01*
X162435300Y-93711200D02*
X161785300Y-93711200D01*
X162435300Y-93711200D02*
X163085300Y-93711200D01*
X161272800Y-90641200D02*
X161032800Y-90311200D01*
X161512800Y-90311200D01*
X161272800Y-90641200D01*
G36*
X161272800Y-90641200D02*
G01*
X161032800Y-90311200D01*
X161512800Y-90311200D01*
X161272800Y-90641200D01*
G37*
%TO.C,J1*%
X150049200Y-79180000D02*
X150049200Y-77800000D01*
X151429200Y-79180000D02*
X150049200Y-79180000D01*
X152699200Y-76420000D02*
X157889200Y-76420000D01*
X152699200Y-79180000D02*
X152699200Y-76420000D01*
X152699200Y-79180000D02*
X157889200Y-79180000D01*
X157889200Y-79180000D02*
X157889200Y-76420000D01*
%TO.C,J5*%
X170085000Y-79160000D02*
X170085000Y-77780000D01*
X171465000Y-79160000D02*
X170085000Y-79160000D01*
X172735000Y-76400000D02*
X175385000Y-76400000D01*
X172735000Y-79160000D02*
X172735000Y-76400000D01*
X172735000Y-79160000D02*
X175385000Y-79160000D01*
X175385000Y-79160000D02*
X175385000Y-76400000D01*
%TO.C,Q5*%
X151122500Y-83350000D02*
X150472500Y-83350000D01*
X151122500Y-83350000D02*
X151772500Y-83350000D01*
X151122500Y-86470000D02*
X150472500Y-86470000D01*
X151122500Y-86470000D02*
X151772500Y-86470000D01*
X152525000Y-86750000D02*
X152045000Y-86750000D01*
X152285000Y-86420000D01*
X152525000Y-86750000D01*
G36*
X152525000Y-86750000D02*
G01*
X152045000Y-86750000D01*
X152285000Y-86420000D01*
X152525000Y-86750000D01*
G37*
%TO.C,R2*%
X151185336Y-92391000D02*
X151639464Y-92391000D01*
X151185336Y-93861000D02*
X151639464Y-93861000D01*
%TO.C,R1*%
X156494436Y-87065000D02*
X156948564Y-87065000D01*
X156494436Y-88535000D02*
X156948564Y-88535000D01*
%TD*%
M02*
