%TF.GenerationSoftware,KiCad,Pcbnew,9.0.4*%
%TF.CreationDate,2025-11-06T21:14:43+01:00*%
%TF.ProjectId,pwr_latcher,7077725f-6c61-4746-9368-65722e6b6963,rev?*%
%TF.SameCoordinates,Original*%
%TF.FileFunction,Copper,L2,Bot*%
%TF.FilePolarity,Positive*%
%FSLAX46Y46*%
G04 Gerber Fmt 4.6, Leading zero omitted, Abs format (unit mm)*
G04 Created by KiCad (PCBNEW 9.0.4) date 2025-11-06 21:14:43*
%MOMM*%
%LPD*%
G01*
G04 APERTURE LIST*
G04 Aperture macros list*
%AMRoundRect*
0 Rectangle with rounded corners*
0 $1 Rounding radius*
0 $2 $3 $4 $5 $6 $7 $8 $9 X,Y pos of 4 corners*
0 Add a 4 corners polygon primitive as box body*
4,1,4,$2,$3,$4,$5,$6,$7,$8,$9,$2,$3,0*
0 Add four circle primitives for the rounded corners*
1,1,$1+$1,$2,$3*
1,1,$1+$1,$4,$5*
1,1,$1+$1,$6,$7*
1,1,$1+$1,$8,$9*
0 Add four rect primitives between the rounded corners*
20,1,$1+$1,$2,$3,$4,$5,0*
20,1,$1+$1,$4,$5,$6,$7,0*
20,1,$1+$1,$6,$7,$8,$9,0*
20,1,$1+$1,$8,$9,$2,$3,0*%
G04 Aperture macros list end*
%TA.AperFunction,ComponentPad*%
%ADD10R,1.700000X1.700000*%
%TD*%
%TA.AperFunction,ComponentPad*%
%ADD11C,1.700000*%
%TD*%
%TA.AperFunction,ComponentPad*%
%ADD12C,7.000000*%
%TD*%
%TA.AperFunction,ComponentPad*%
%ADD13RoundRect,0.250000X-0.750000X0.600000X-0.750000X-0.600000X0.750000X-0.600000X0.750000X0.600000X0*%
%TD*%
%TA.AperFunction,ComponentPad*%
%ADD14O,2.000000X1.700000*%
%TD*%
%TA.AperFunction,ComponentPad*%
%ADD15RoundRect,0.250000X0.750000X-0.600000X0.750000X0.600000X-0.750000X0.600000X-0.750000X-0.600000X0*%
%TD*%
%TA.AperFunction,ViaPad*%
%ADD16C,0.600000*%
%TD*%
%TA.AperFunction,Conductor*%
%ADD17C,0.200000*%
%TD*%
G04 APERTURE END LIST*
D10*
%TO.P,J3,1,Pin_1*%
%TO.N,Net-(J3-Pin_1)*%
X161589200Y-77800000D03*
D11*
%TO.P,J3,2,Pin_2*%
%TO.N,+5V*%
X164129200Y-77800000D03*
%TD*%
D12*
%TO.P,H1,1,1*%
%TO.N,GND*%
X140400000Y-77500000D03*
%TD*%
D13*
%TO.P,J4,1,Pin_1*%
%TO.N,GND*%
X142490000Y-85020000D03*
D14*
%TO.P,J4,2,Pin_2*%
%TO.N,+5V*%
X142490000Y-87520000D03*
%TD*%
D12*
%TO.P,H3,1,1*%
%TO.N,GND*%
X182600000Y-77500000D03*
%TD*%
%TO.P,H2,1,1*%
%TO.N,GND*%
X140400000Y-95100000D03*
%TD*%
D15*
%TO.P,J2,1,Pin_1*%
%TO.N,Net-(J2-Pin_1)*%
X180560000Y-87550000D03*
D14*
%TO.P,J2,2,Pin_2*%
%TO.N,GND*%
X180560000Y-85050000D03*
%TD*%
D10*
%TO.P,J1,1,Pin_1*%
%TO.N,STATUS*%
X151429200Y-77800000D03*
D11*
%TO.P,J1,2,Pin_2*%
%TO.N,GND*%
X153969200Y-77800000D03*
%TO.P,J1,3,Pin_3*%
%TO.N,Net-(D1-A)*%
X156509200Y-77800000D03*
%TD*%
D12*
%TO.P,H4,1,1*%
%TO.N,GND*%
X182600000Y-95100000D03*
%TD*%
D10*
%TO.P,J5,1,Pin_1*%
%TO.N,Net-(J5-Pin_1)*%
X169260000Y-77800000D03*
D11*
%TO.P,J5,2,Pin_2*%
%TO.N,GND*%
X171800000Y-77800000D03*
%TD*%
D16*
%TO.N,Net-(Q1-D)*%
X164900000Y-94200000D03*
X171000000Y-89400000D03*
%TD*%
D17*
%TO.N,Net-(Q1-D)*%
X164900000Y-94200000D02*
X164900000Y-89800000D01*
X164900000Y-89800000D02*
X165100000Y-89600000D01*
X165300000Y-89400000D02*
X171000000Y-89400000D01*
X165100000Y-89600000D02*
X165300000Y-89400000D01*
%TD*%
%TA.AperFunction,Conductor*%
%TO.N,GND*%
G36*
X186179339Y-73907385D02*
G01*
X186225094Y-73960189D01*
X186236300Y-74011700D01*
X186236300Y-98662700D01*
X186216615Y-98729739D01*
X186163811Y-98775494D01*
X186112300Y-98786700D01*
X136861300Y-98786700D01*
X136794261Y-98767015D01*
X136748506Y-98714211D01*
X136737300Y-98662700D01*
X136737300Y-94134108D01*
X164399500Y-94134108D01*
X164399500Y-94265891D01*
X164433608Y-94393187D01*
X164466554Y-94450250D01*
X164499500Y-94507314D01*
X164592686Y-94600500D01*
X164706814Y-94666392D01*
X164834108Y-94700500D01*
X164834110Y-94700500D01*
X164965890Y-94700500D01*
X164965892Y-94700500D01*
X165093186Y-94666392D01*
X165207314Y-94600500D01*
X165300500Y-94507314D01*
X165366392Y-94393186D01*
X165400500Y-94265892D01*
X165400500Y-94134108D01*
X165366392Y-94006814D01*
X165300500Y-93892686D01*
X165236818Y-93829004D01*
X165203334Y-93767680D01*
X165200500Y-93741323D01*
X165200500Y-89975833D01*
X165209144Y-89946392D01*
X165215668Y-89916406D01*
X165219422Y-89911390D01*
X165220185Y-89908794D01*
X165236819Y-89888152D01*
X165388152Y-89736819D01*
X165449475Y-89703334D01*
X165475833Y-89700500D01*
X170541324Y-89700500D01*
X170608363Y-89720185D01*
X170629005Y-89736819D01*
X170692686Y-89800500D01*
X170806814Y-89866392D01*
X170934108Y-89900500D01*
X170934110Y-89900500D01*
X171065890Y-89900500D01*
X171065892Y-89900500D01*
X171193186Y-89866392D01*
X171307314Y-89800500D01*
X171400500Y-89707314D01*
X171466392Y-89593186D01*
X171500500Y-89465892D01*
X171500500Y-89334108D01*
X171466392Y-89206814D01*
X171400500Y-89092686D01*
X171307314Y-88999500D01*
X171250250Y-88966554D01*
X171193187Y-88933608D01*
X171129539Y-88916554D01*
X171065892Y-88899500D01*
X170934108Y-88899500D01*
X170806812Y-88933608D01*
X170692686Y-88999500D01*
X170692683Y-88999502D01*
X170629005Y-89063181D01*
X170567682Y-89096666D01*
X170541324Y-89099500D01*
X165260438Y-89099500D01*
X165184010Y-89119978D01*
X165115489Y-89159540D01*
X165115486Y-89159542D01*
X164659541Y-89615487D01*
X164659535Y-89615495D01*
X164619982Y-89684004D01*
X164619979Y-89684009D01*
X164599500Y-89760439D01*
X164599500Y-93741323D01*
X164579815Y-93808362D01*
X164563182Y-93829004D01*
X164499500Y-93892686D01*
X164433608Y-94006812D01*
X164399500Y-94134108D01*
X136737300Y-94134108D01*
X136737300Y-84370013D01*
X140990000Y-84370013D01*
X140990000Y-84770000D01*
X142056988Y-84770000D01*
X142024075Y-84827007D01*
X141990000Y-84954174D01*
X141990000Y-85085826D01*
X142024075Y-85212993D01*
X142056988Y-85270000D01*
X140990001Y-85270000D01*
X140990001Y-85669986D01*
X141000494Y-85772697D01*
X141055641Y-85939119D01*
X141055643Y-85939124D01*
X141147684Y-86088345D01*
X141271654Y-86212315D01*
X141420875Y-86304356D01*
X141420880Y-86304358D01*
X141587302Y-86359505D01*
X141587309Y-86359506D01*
X141690019Y-86369999D01*
X141761471Y-86369999D01*
X141828511Y-86389683D01*
X141874267Y-86442486D01*
X141884211Y-86511644D01*
X141855187Y-86575200D01*
X141830364Y-86597101D01*
X141670345Y-86704022D01*
X141670341Y-86704025D01*
X141524024Y-86850342D01*
X141409058Y-87022403D01*
X141329870Y-87213579D01*
X141329868Y-87213587D01*
X141289500Y-87416530D01*
X141289500Y-87623469D01*
X141329868Y-87826412D01*
X141329870Y-87826420D01*
X141409058Y-88017596D01*
X141524024Y-88189657D01*
X141670342Y-88335975D01*
X141670345Y-88335977D01*
X141842402Y-88450941D01*
X142033580Y-88530130D01*
X142236530Y-88570499D01*
X142236534Y-88570500D01*
X142236535Y-88570500D01*
X142743466Y-88570500D01*
X142743467Y-88570499D01*
X142946420Y-88530130D01*
X143137598Y-88450941D01*
X143309655Y-88335977D01*
X143455977Y-88189655D01*
X143570941Y-88017598D01*
X143650130Y-87826420D01*
X143690500Y-87623465D01*
X143690500Y-87416535D01*
X143650130Y-87213580D01*
X143570941Y-87022402D01*
X143455977Y-86850345D01*
X143455975Y-86850342D01*
X143309657Y-86704024D01*
X143264618Y-86673930D01*
X143149632Y-86597100D01*
X143104829Y-86543490D01*
X143096121Y-86474165D01*
X143126275Y-86411137D01*
X143185718Y-86374417D01*
X143218524Y-86369999D01*
X143289971Y-86369999D01*
X143289987Y-86369998D01*
X143392697Y-86359505D01*
X143559119Y-86304358D01*
X143559124Y-86304356D01*
X143708345Y-86212315D01*
X143832315Y-86088345D01*
X143924356Y-85939124D01*
X143924358Y-85939119D01*
X143979505Y-85772697D01*
X143979506Y-85772690D01*
X143989999Y-85669986D01*
X143990000Y-85669973D01*
X143990000Y-85270000D01*
X142923012Y-85270000D01*
X142955925Y-85212993D01*
X142990000Y-85085826D01*
X142990000Y-84954174D01*
X142955925Y-84827007D01*
X142940333Y-84800000D01*
X179082769Y-84800000D01*
X180126988Y-84800000D01*
X180094075Y-84857007D01*
X180060000Y-84984174D01*
X180060000Y-85115826D01*
X180094075Y-85242993D01*
X180126988Y-85300000D01*
X179082769Y-85300000D01*
X179093242Y-85366126D01*
X179093242Y-85366129D01*
X179158904Y-85568217D01*
X179255379Y-85757557D01*
X179380272Y-85929459D01*
X179380276Y-85929464D01*
X179530535Y-86079723D01*
X179530540Y-86079727D01*
X179702442Y-86204620D01*
X179820971Y-86265015D01*
X179871767Y-86312990D01*
X179888562Y-86380811D01*
X179866024Y-86446946D01*
X179811309Y-86490397D01*
X179764676Y-86499500D01*
X179755730Y-86499500D01*
X179725300Y-86502353D01*
X179725298Y-86502353D01*
X179597119Y-86547206D01*
X179597117Y-86547207D01*
X179487850Y-86627850D01*
X179407207Y-86737117D01*
X179407206Y-86737119D01*
X179362353Y-86865298D01*
X179362353Y-86865300D01*
X179359500Y-86895730D01*
X179359500Y-88204269D01*
X179362353Y-88234699D01*
X179362353Y-88234701D01*
X179407206Y-88362880D01*
X179407207Y-88362882D01*
X179487850Y-88472150D01*
X179597118Y-88552793D01*
X179639845Y-88567744D01*
X179725299Y-88597646D01*
X179755730Y-88600500D01*
X179755734Y-88600500D01*
X181364270Y-88600500D01*
X181394699Y-88597646D01*
X181394701Y-88597646D01*
X181472281Y-88570499D01*
X181522882Y-88552793D01*
X181632150Y-88472150D01*
X181712793Y-88362882D01*
X181735219Y-88298790D01*
X181757646Y-88234701D01*
X181757646Y-88234699D01*
X181760500Y-88204269D01*
X181760500Y-86895730D01*
X181757646Y-86865300D01*
X181757646Y-86865298D01*
X181712793Y-86737119D01*
X181712792Y-86737117D01*
X181688369Y-86704025D01*
X181632150Y-86627850D01*
X181522882Y-86547207D01*
X181522880Y-86547206D01*
X181394700Y-86502353D01*
X181364270Y-86499500D01*
X181364266Y-86499500D01*
X181355324Y-86499500D01*
X181288285Y-86479815D01*
X181242530Y-86427011D01*
X181232586Y-86357853D01*
X181261611Y-86294297D01*
X181299029Y-86265015D01*
X181417557Y-86204620D01*
X181589459Y-86079727D01*
X181589464Y-86079723D01*
X181739723Y-85929464D01*
X181739727Y-85929459D01*
X181864620Y-85757557D01*
X181961095Y-85568217D01*
X182026757Y-85366129D01*
X182026757Y-85366126D01*
X182037231Y-85300000D01*
X180993012Y-85300000D01*
X181025925Y-85242993D01*
X181060000Y-85115826D01*
X181060000Y-84984174D01*
X181025925Y-84857007D01*
X180993012Y-84800000D01*
X182037231Y-84800000D01*
X182026757Y-84733873D01*
X182026757Y-84733870D01*
X181961095Y-84531782D01*
X181864620Y-84342442D01*
X181739727Y-84170540D01*
X181739723Y-84170535D01*
X181589464Y-84020276D01*
X181589459Y-84020272D01*
X181417557Y-83895379D01*
X181228217Y-83798904D01*
X181026129Y-83733242D01*
X180816246Y-83700000D01*
X180810000Y-83700000D01*
X180810000Y-84616988D01*
X180752993Y-84584075D01*
X180625826Y-84550000D01*
X180494174Y-84550000D01*
X180367007Y-84584075D01*
X180310000Y-84616988D01*
X180310000Y-83700000D01*
X180303754Y-83700000D01*
X180093872Y-83733242D01*
X180093869Y-83733242D01*
X179891782Y-83798904D01*
X179702442Y-83895379D01*
X179530540Y-84020272D01*
X179530535Y-84020276D01*
X179380276Y-84170535D01*
X179380272Y-84170540D01*
X179255379Y-84342442D01*
X179158904Y-84531782D01*
X179093242Y-84733870D01*
X179093242Y-84733873D01*
X179082769Y-84800000D01*
X142940333Y-84800000D01*
X142923012Y-84770000D01*
X143989999Y-84770000D01*
X143989999Y-84370028D01*
X143989998Y-84370013D01*
X143979505Y-84267302D01*
X143924358Y-84100880D01*
X143924356Y-84100875D01*
X143832315Y-83951654D01*
X143708345Y-83827684D01*
X143559124Y-83735643D01*
X143559119Y-83735641D01*
X143392697Y-83680494D01*
X143392690Y-83680493D01*
X143289986Y-83670000D01*
X142740000Y-83670000D01*
X142740000Y-84586988D01*
X142682993Y-84554075D01*
X142555826Y-84520000D01*
X142424174Y-84520000D01*
X142297007Y-84554075D01*
X142240000Y-84586988D01*
X142240000Y-83670000D01*
X141690028Y-83670000D01*
X141690012Y-83670001D01*
X141587302Y-83680494D01*
X141420880Y-83735641D01*
X141420875Y-83735643D01*
X141271654Y-83827684D01*
X141147684Y-83951654D01*
X141055643Y-84100875D01*
X141055641Y-84100880D01*
X141000494Y-84267302D01*
X141000493Y-84267309D01*
X140990000Y-84370013D01*
X136737300Y-84370013D01*
X136737300Y-76930247D01*
X150378700Y-76930247D01*
X150378700Y-78669752D01*
X150390331Y-78728229D01*
X150390332Y-78728230D01*
X150434647Y-78794552D01*
X150500969Y-78838867D01*
X150500970Y-78838868D01*
X150559447Y-78850499D01*
X150559450Y-78850500D01*
X150559452Y-78850500D01*
X152298950Y-78850500D01*
X152298951Y-78850499D01*
X152313768Y-78847552D01*
X152357429Y-78838868D01*
X152357429Y-78838867D01*
X152357431Y-78838867D01*
X152423752Y-78794552D01*
X152468067Y-78728231D01*
X152468067Y-78728229D01*
X152468068Y-78728229D01*
X152479699Y-78669752D01*
X152479700Y-78669750D01*
X152479700Y-78366048D01*
X152499385Y-78299009D01*
X152552189Y-78253254D01*
X152621347Y-78243310D01*
X152684903Y-78272335D01*
X152715138Y-78314264D01*
X152715894Y-78313879D01*
X152814575Y-78507550D01*
X152853928Y-78561716D01*
X153486237Y-77929408D01*
X153503275Y-77992993D01*
X153569101Y-78107007D01*
X153662193Y-78200099D01*
X153776207Y-78265925D01*
X153839790Y-78282962D01*
X153207482Y-78915269D01*
X153207482Y-78915270D01*
X153261649Y-78954624D01*
X153450982Y-79051095D01*
X153653070Y-79116757D01*
X153862954Y-79150000D01*
X154075446Y-79150000D01*
X154285327Y-79116757D01*
X154285330Y-79116757D01*
X154487417Y-79051095D01*
X154676754Y-78954622D01*
X154730916Y-78915270D01*
X154730917Y-78915270D01*
X154098608Y-78282962D01*
X154162193Y-78265925D01*
X154276207Y-78200099D01*
X154369299Y-78107007D01*
X154435125Y-77992993D01*
X154452162Y-77929408D01*
X155084470Y-78561717D01*
X155084470Y-78561716D01*
X155123822Y-78507554D01*
X155220295Y-78318217D01*
X155277543Y-78142026D01*
X155316980Y-78084351D01*
X155381339Y-78057152D01*
X155450185Y-78069066D01*
X155501661Y-78116310D01*
X155510035Y-78132891D01*
X155578258Y-78297596D01*
X155693224Y-78469657D01*
X155839542Y-78615975D01*
X155839545Y-78615977D01*
X156011602Y-78730941D01*
X156202780Y-78810130D01*
X156347252Y-78838867D01*
X156405730Y-78850499D01*
X156405734Y-78850500D01*
X156405735Y-78850500D01*
X156612666Y-78850500D01*
X156612667Y-78850499D01*
X156815620Y-78810130D01*
X157006798Y-78730941D01*
X157178855Y-78615977D01*
X157325177Y-78469655D01*
X157440141Y-78297598D01*
X157519330Y-78106420D01*
X157559700Y-77903465D01*
X157559700Y-77696535D01*
X157519330Y-77493580D01*
X157440141Y-77302402D01*
X157325177Y-77130345D01*
X157325175Y-77130342D01*
X157178857Y-76984024D01*
X157098373Y-76930247D01*
X160538700Y-76930247D01*
X160538700Y-78669752D01*
X160550331Y-78728229D01*
X160550332Y-78728230D01*
X160594647Y-78794552D01*
X160660969Y-78838867D01*
X160660970Y-78838868D01*
X160719447Y-78850499D01*
X160719450Y-78850500D01*
X160719452Y-78850500D01*
X162458950Y-78850500D01*
X162458951Y-78850499D01*
X162473768Y-78847552D01*
X162517429Y-78838868D01*
X162517429Y-78838867D01*
X162517431Y-78838867D01*
X162583752Y-78794552D01*
X162628067Y-78728231D01*
X162628067Y-78728229D01*
X162628068Y-78728229D01*
X162639699Y-78669752D01*
X162639700Y-78669750D01*
X162639700Y-77696530D01*
X163078700Y-77696530D01*
X163078700Y-77903469D01*
X163119068Y-78106412D01*
X163119070Y-78106420D01*
X163198258Y-78297596D01*
X163313224Y-78469657D01*
X163459542Y-78615975D01*
X163459545Y-78615977D01*
X163631602Y-78730941D01*
X163822780Y-78810130D01*
X163967252Y-78838867D01*
X164025730Y-78850499D01*
X164025734Y-78850500D01*
X164025735Y-78850500D01*
X164232666Y-78850500D01*
X164232667Y-78850499D01*
X164435620Y-78810130D01*
X164626798Y-78730941D01*
X164798855Y-78615977D01*
X164945177Y-78469655D01*
X165060141Y-78297598D01*
X165139330Y-78106420D01*
X165179700Y-77903465D01*
X165179700Y-77696535D01*
X165139330Y-77493580D01*
X165060141Y-77302402D01*
X164945177Y-77130345D01*
X164945175Y-77130342D01*
X164798857Y-76984024D01*
X164718373Y-76930247D01*
X168209500Y-76930247D01*
X168209500Y-78669752D01*
X168221131Y-78728229D01*
X168221132Y-78728230D01*
X168265447Y-78794552D01*
X168331769Y-78838867D01*
X168331770Y-78838868D01*
X168390247Y-78850499D01*
X168390250Y-78850500D01*
X168390252Y-78850500D01*
X170129750Y-78850500D01*
X170129751Y-78850499D01*
X170144568Y-78847552D01*
X170188229Y-78838868D01*
X170188229Y-78838867D01*
X170188231Y-78838867D01*
X170254552Y-78794552D01*
X170298867Y-78728231D01*
X170298867Y-78728229D01*
X170298868Y-78728229D01*
X170310499Y-78669752D01*
X170310500Y-78669750D01*
X170310500Y-78366048D01*
X170330185Y-78299009D01*
X170382989Y-78253254D01*
X170452147Y-78243310D01*
X170515703Y-78272335D01*
X170545938Y-78314264D01*
X170546694Y-78313879D01*
X170645375Y-78507550D01*
X170684728Y-78561716D01*
X171317037Y-77929408D01*
X171334075Y-77992993D01*
X171399901Y-78107007D01*
X171492993Y-78200099D01*
X171607007Y-78265925D01*
X171670590Y-78282962D01*
X171038282Y-78915269D01*
X171038282Y-78915270D01*
X171092449Y-78954624D01*
X171281782Y-79051095D01*
X171483870Y-79116757D01*
X171693754Y-79150000D01*
X171906246Y-79150000D01*
X172116127Y-79116757D01*
X172116130Y-79116757D01*
X172318217Y-79051095D01*
X172507554Y-78954622D01*
X172561716Y-78915270D01*
X172561717Y-78915270D01*
X171929408Y-78282962D01*
X171992993Y-78265925D01*
X172107007Y-78200099D01*
X172200099Y-78107007D01*
X172265925Y-77992993D01*
X172282962Y-77929408D01*
X172915270Y-78561717D01*
X172915270Y-78561716D01*
X172954622Y-78507554D01*
X173051095Y-78318217D01*
X173116757Y-78116130D01*
X173116757Y-78116127D01*
X173150000Y-77906246D01*
X173150000Y-77693753D01*
X173116757Y-77483872D01*
X173116757Y-77483869D01*
X173051095Y-77281782D01*
X172954624Y-77092449D01*
X172915270Y-77038282D01*
X172915269Y-77038282D01*
X172282962Y-77670590D01*
X172265925Y-77607007D01*
X172200099Y-77492993D01*
X172107007Y-77399901D01*
X171992993Y-77334075D01*
X171929409Y-77317037D01*
X172561716Y-76684728D01*
X172507550Y-76645375D01*
X172318217Y-76548904D01*
X172116129Y-76483242D01*
X171906246Y-76450000D01*
X171693754Y-76450000D01*
X171483872Y-76483242D01*
X171483869Y-76483242D01*
X171281782Y-76548904D01*
X171092439Y-76645380D01*
X171038282Y-76684727D01*
X171038282Y-76684728D01*
X171670591Y-77317037D01*
X171607007Y-77334075D01*
X171492993Y-77399901D01*
X171399901Y-77492993D01*
X171334075Y-77607007D01*
X171317037Y-77670591D01*
X170684728Y-77038282D01*
X170684727Y-77038282D01*
X170645380Y-77092439D01*
X170546694Y-77286121D01*
X170545678Y-77285603D01*
X170505212Y-77335813D01*
X170438916Y-77357872D01*
X170371218Y-77340588D01*
X170323612Y-77289447D01*
X170310500Y-77233951D01*
X170310500Y-76930249D01*
X170310499Y-76930247D01*
X170298868Y-76871770D01*
X170298867Y-76871769D01*
X170254552Y-76805447D01*
X170188230Y-76761132D01*
X170188229Y-76761131D01*
X170129752Y-76749500D01*
X170129748Y-76749500D01*
X168390252Y-76749500D01*
X168390247Y-76749500D01*
X168331770Y-76761131D01*
X168331769Y-76761132D01*
X168265447Y-76805447D01*
X168221132Y-76871769D01*
X168221131Y-76871770D01*
X168209500Y-76930247D01*
X164718373Y-76930247D01*
X164630855Y-76871770D01*
X164626798Y-76869059D01*
X164435620Y-76789870D01*
X164435612Y-76789868D01*
X164232669Y-76749500D01*
X164232665Y-76749500D01*
X164025735Y-76749500D01*
X164025730Y-76749500D01*
X163822787Y-76789868D01*
X163822779Y-76789870D01*
X163631603Y-76869058D01*
X163459542Y-76984024D01*
X163313224Y-77130342D01*
X163198258Y-77302403D01*
X163119070Y-77493579D01*
X163119068Y-77493587D01*
X163078700Y-77696530D01*
X162639700Y-77696530D01*
X162639700Y-76930249D01*
X162639699Y-76930247D01*
X162628068Y-76871770D01*
X162628067Y-76871769D01*
X162583752Y-76805447D01*
X162517430Y-76761132D01*
X162517429Y-76761131D01*
X162458952Y-76749500D01*
X162458948Y-76749500D01*
X160719452Y-76749500D01*
X160719447Y-76749500D01*
X160660970Y-76761131D01*
X160660969Y-76761132D01*
X160594647Y-76805447D01*
X160550332Y-76871769D01*
X160550331Y-76871770D01*
X160538700Y-76930247D01*
X157098373Y-76930247D01*
X157010855Y-76871770D01*
X157006798Y-76869059D01*
X156815620Y-76789870D01*
X156815612Y-76789868D01*
X156612669Y-76749500D01*
X156612665Y-76749500D01*
X156405735Y-76749500D01*
X156405730Y-76749500D01*
X156202787Y-76789868D01*
X156202779Y-76789870D01*
X156011603Y-76869058D01*
X155839542Y-76984024D01*
X155693224Y-77130342D01*
X155578257Y-77302403D01*
X155510035Y-77467108D01*
X155466194Y-77521511D01*
X155399900Y-77543576D01*
X155332200Y-77526297D01*
X155284590Y-77475159D01*
X155277543Y-77457973D01*
X155220295Y-77281782D01*
X155123824Y-77092449D01*
X155084470Y-77038282D01*
X155084469Y-77038282D01*
X154452162Y-77670590D01*
X154435125Y-77607007D01*
X154369299Y-77492993D01*
X154276207Y-77399901D01*
X154162193Y-77334075D01*
X154098609Y-77317037D01*
X154730916Y-76684728D01*
X154676750Y-76645375D01*
X154487417Y-76548904D01*
X154285329Y-76483242D01*
X154075446Y-76450000D01*
X153862954Y-76450000D01*
X153653072Y-76483242D01*
X153653069Y-76483242D01*
X153450982Y-76548904D01*
X153261639Y-76645380D01*
X153207482Y-76684727D01*
X153207482Y-76684728D01*
X153839791Y-77317037D01*
X153776207Y-77334075D01*
X153662193Y-77399901D01*
X153569101Y-77492993D01*
X153503275Y-77607007D01*
X153486237Y-77670591D01*
X152853928Y-77038282D01*
X152853927Y-77038282D01*
X152814580Y-77092439D01*
X152715894Y-77286121D01*
X152714878Y-77285603D01*
X152674412Y-77335813D01*
X152608116Y-77357872D01*
X152540418Y-77340588D01*
X152492812Y-77289447D01*
X152479700Y-77233951D01*
X152479700Y-76930249D01*
X152479699Y-76930247D01*
X152468068Y-76871770D01*
X152468067Y-76871769D01*
X152423752Y-76805447D01*
X152357430Y-76761132D01*
X152357429Y-76761131D01*
X152298952Y-76749500D01*
X152298948Y-76749500D01*
X150559452Y-76749500D01*
X150559447Y-76749500D01*
X150500970Y-76761131D01*
X150500969Y-76761132D01*
X150434647Y-76805447D01*
X150390332Y-76871769D01*
X150390331Y-76871770D01*
X150378700Y-76930247D01*
X136737300Y-76930247D01*
X136737300Y-74011700D01*
X136756985Y-73944661D01*
X136809789Y-73898906D01*
X136861300Y-73887700D01*
X186112300Y-73887700D01*
X186179339Y-73907385D01*
G37*
%TD.AperFunction*%
%TD*%
M02*
