%TF.GenerationSoftware,KiCad,Pcbnew,9.0.4*%
%TF.CreationDate,2025-11-30T20:35:07+01:00*%
%TF.ProjectId,pwr_latcher,7077725f-6c61-4746-9368-65722e6b6963,rev?*%
%TF.SameCoordinates,Original*%
%TF.FileFunction,Copper,L2,Bot*%
%TF.FilePolarity,Positive*%
%FSLAX46Y46*%
G04 Gerber Fmt 4.6, Leading zero omitted, Abs format (unit mm)*
G04 Created by KiCad (PCBNEW 9.0.4) date 2025-11-30 20:35:07*
%MOMM*%
%LPD*%
G01*
G04 APERTURE LIST*
G04 Aperture macros list*
%AMRoundRect*
0 Rectangle with rounded corners*
0 $1 Rounding radius*
0 $2 $3 $4 $5 $6 $7 $8 $9 X,Y pos of 4 corners*
0 Add a 4 corners polygon primitive as box body*
4,1,4,$2,$3,$4,$5,$6,$7,$8,$9,$2,$3,0*
0 Add four circle primitives for the rounded corners*
1,1,$1+$1,$2,$3*
1,1,$1+$1,$4,$5*
1,1,$1+$1,$6,$7*
1,1,$1+$1,$8,$9*
0 Add four rect primitives between the rounded corners*
20,1,$1+$1,$2,$3,$4,$5,0*
20,1,$1+$1,$4,$5,$6,$7,0*
20,1,$1+$1,$6,$7,$8,$9,0*
20,1,$1+$1,$8,$9,$2,$3,0*%
G04 Aperture macros list end*
%TA.AperFunction,ComponentPad*%
%ADD10R,1.700000X1.700000*%
%TD*%
%TA.AperFunction,ComponentPad*%
%ADD11C,1.700000*%
%TD*%
%TA.AperFunction,ComponentPad*%
%ADD12C,7.000000*%
%TD*%
%TA.AperFunction,ComponentPad*%
%ADD13RoundRect,0.250000X-0.750000X0.600000X-0.750000X-0.600000X0.750000X-0.600000X0.750000X0.600000X0*%
%TD*%
%TA.AperFunction,ComponentPad*%
%ADD14O,2.000000X1.700000*%
%TD*%
%TA.AperFunction,ComponentPad*%
%ADD15RoundRect,0.250000X0.750000X-0.600000X0.750000X0.600000X-0.750000X0.600000X-0.750000X-0.600000X0*%
%TD*%
%TA.AperFunction,ViaPad*%
%ADD16C,0.600000*%
%TD*%
%TA.AperFunction,Conductor*%
%ADD17C,0.200000*%
%TD*%
G04 APERTURE END LIST*
D10*
%TO.P,J3,1,Pin_1*%
%TO.N,Net-(J3-Pin_1)*%
X162440000Y-77780000D03*
D11*
%TO.P,J3,2,Pin_2*%
%TO.N,+5V*%
X164980000Y-77780000D03*
%TD*%
D12*
%TO.P,H1,1,1*%
%TO.N,GND*%
X140400000Y-77500000D03*
%TD*%
D13*
%TO.P,J4,1,Pin_1*%
%TO.N,GND*%
X142490000Y-85020000D03*
D14*
%TO.P,J4,2,Pin_2*%
%TO.N,+5V*%
X142490000Y-87520000D03*
%TD*%
D12*
%TO.P,H3,1,1*%
%TO.N,GND*%
X182600000Y-77500000D03*
%TD*%
%TO.P,H2,1,1*%
%TO.N,GND*%
X140400000Y-95100000D03*
%TD*%
D15*
%TO.P,J2,1,Pin_1*%
%TO.N,Net-(J2-Pin_1)*%
X180560000Y-87550000D03*
D14*
%TO.P,J2,2,Pin_2*%
%TO.N,GND*%
X180560000Y-85050000D03*
%TD*%
D10*
%TO.P,J1,1,Pin_1*%
%TO.N,STATUS*%
X151429200Y-77800000D03*
D11*
%TO.P,J1,2,Pin_2*%
%TO.N,GND*%
X153969200Y-77800000D03*
%TO.P,J1,3,Pin_3*%
%TO.N,Net-(D1-A)*%
X156509200Y-77800000D03*
%TD*%
D12*
%TO.P,H4,1,1*%
%TO.N,GND*%
X182600000Y-95100000D03*
%TD*%
D10*
%TO.P,J5,1,Pin_1*%
%TO.N,Net-(J5-Pin_1)*%
X171465000Y-77780000D03*
D11*
%TO.P,J5,2,Pin_2*%
%TO.N,GND*%
X174005000Y-77780000D03*
%TD*%
D16*
%TO.N,Net-(Q1-D)*%
X162790000Y-91190000D03*
X171549400Y-89250000D03*
%TO.N,Net-(D1-A)*%
X153907500Y-85100000D03*
X156510000Y-81580000D03*
%TD*%
D17*
%TO.N,Net-(Q1-D)*%
X171549400Y-90950600D02*
X171310000Y-91190000D01*
X171549400Y-89250000D02*
X171549400Y-90950600D01*
X171310000Y-91190000D02*
X162719000Y-91190000D01*
%TO.N,Net-(D1-A)*%
X153907500Y-85100000D02*
X153907500Y-81852500D01*
X153907500Y-81852500D02*
X154180000Y-81580000D01*
X154180000Y-81580000D02*
X156510000Y-81580000D01*
%TD*%
%TA.AperFunction,Conductor*%
%TO.N,GND*%
G36*
X186179339Y-73907385D02*
G01*
X186225094Y-73960189D01*
X186236300Y-74011700D01*
X186236300Y-98662700D01*
X186216615Y-98729739D01*
X186163811Y-98775494D01*
X186112300Y-98786700D01*
X136861300Y-98786700D01*
X136794261Y-98767015D01*
X136748506Y-98714211D01*
X136737300Y-98662700D01*
X136737300Y-91124108D01*
X162289500Y-91124108D01*
X162289500Y-91255891D01*
X162323608Y-91383187D01*
X162350902Y-91430460D01*
X162389500Y-91497314D01*
X162482686Y-91590500D01*
X162596814Y-91656392D01*
X162724108Y-91690500D01*
X162724110Y-91690500D01*
X162855890Y-91690500D01*
X162855892Y-91690500D01*
X162983186Y-91656392D01*
X163097314Y-91590500D01*
X163160995Y-91526819D01*
X163222318Y-91493334D01*
X163248676Y-91490500D01*
X171349560Y-91490500D01*
X171349562Y-91490500D01*
X171425989Y-91470021D01*
X171494511Y-91430460D01*
X171550460Y-91374511D01*
X171789860Y-91135111D01*
X171829422Y-91066588D01*
X171849900Y-90990162D01*
X171849900Y-90911038D01*
X171849900Y-89708676D01*
X171869585Y-89641637D01*
X171886219Y-89620995D01*
X171949900Y-89557314D01*
X172015792Y-89443186D01*
X172049900Y-89315892D01*
X172049900Y-89184108D01*
X172015792Y-89056814D01*
X171949900Y-88942686D01*
X171856714Y-88849500D01*
X171799650Y-88816554D01*
X171742587Y-88783608D01*
X171678939Y-88766554D01*
X171615292Y-88749500D01*
X171483508Y-88749500D01*
X171356212Y-88783608D01*
X171242086Y-88849500D01*
X171242083Y-88849502D01*
X171148902Y-88942683D01*
X171148900Y-88942686D01*
X171083008Y-89056812D01*
X171048900Y-89184108D01*
X171048900Y-89315891D01*
X171083008Y-89443187D01*
X171115954Y-89500250D01*
X171148900Y-89557314D01*
X171148902Y-89557316D01*
X171212581Y-89620995D01*
X171246066Y-89682318D01*
X171248900Y-89708676D01*
X171248900Y-90765500D01*
X171229215Y-90832539D01*
X171176411Y-90878294D01*
X171124900Y-90889500D01*
X163248676Y-90889500D01*
X163181637Y-90869815D01*
X163160995Y-90853181D01*
X163097316Y-90789502D01*
X163097314Y-90789500D01*
X163040250Y-90756554D01*
X162983187Y-90723608D01*
X162919539Y-90706554D01*
X162855892Y-90689500D01*
X162724108Y-90689500D01*
X162596812Y-90723608D01*
X162482686Y-90789500D01*
X162482683Y-90789502D01*
X162389502Y-90882683D01*
X162389500Y-90882686D01*
X162323608Y-90996812D01*
X162289500Y-91124108D01*
X136737300Y-91124108D01*
X136737300Y-84370013D01*
X140990000Y-84370013D01*
X140990000Y-84770000D01*
X142056988Y-84770000D01*
X142024075Y-84827007D01*
X141990000Y-84954174D01*
X141990000Y-85085826D01*
X142024075Y-85212993D01*
X142056988Y-85270000D01*
X140990001Y-85270000D01*
X140990001Y-85669986D01*
X141000494Y-85772697D01*
X141055641Y-85939119D01*
X141055643Y-85939124D01*
X141147684Y-86088345D01*
X141271654Y-86212315D01*
X141420875Y-86304356D01*
X141420880Y-86304358D01*
X141587302Y-86359505D01*
X141587309Y-86359506D01*
X141690019Y-86369999D01*
X141761471Y-86369999D01*
X141828511Y-86389683D01*
X141874267Y-86442486D01*
X141884211Y-86511644D01*
X141855187Y-86575200D01*
X141830364Y-86597101D01*
X141670345Y-86704022D01*
X141670341Y-86704025D01*
X141524024Y-86850342D01*
X141409058Y-87022403D01*
X141329870Y-87213579D01*
X141329868Y-87213587D01*
X141289500Y-87416530D01*
X141289500Y-87623469D01*
X141329868Y-87826412D01*
X141329870Y-87826420D01*
X141409058Y-88017596D01*
X141524024Y-88189657D01*
X141670342Y-88335975D01*
X141670345Y-88335977D01*
X141842402Y-88450941D01*
X142033580Y-88530130D01*
X142236530Y-88570499D01*
X142236534Y-88570500D01*
X142236535Y-88570500D01*
X142743466Y-88570500D01*
X142743467Y-88570499D01*
X142946420Y-88530130D01*
X143137598Y-88450941D01*
X143309655Y-88335977D01*
X143455977Y-88189655D01*
X143570941Y-88017598D01*
X143650130Y-87826420D01*
X143690500Y-87623465D01*
X143690500Y-87416535D01*
X143650130Y-87213580D01*
X143570941Y-87022402D01*
X143455977Y-86850345D01*
X143455975Y-86850342D01*
X143309657Y-86704024D01*
X143264618Y-86673930D01*
X143149632Y-86597100D01*
X143104829Y-86543490D01*
X143096121Y-86474165D01*
X143126275Y-86411137D01*
X143185718Y-86374417D01*
X143218524Y-86369999D01*
X143289971Y-86369999D01*
X143289987Y-86369998D01*
X143392697Y-86359505D01*
X143559119Y-86304358D01*
X143559124Y-86304356D01*
X143708345Y-86212315D01*
X143832315Y-86088345D01*
X143924356Y-85939124D01*
X143924358Y-85939119D01*
X143979505Y-85772697D01*
X143979506Y-85772690D01*
X143989999Y-85669986D01*
X143990000Y-85669973D01*
X143990000Y-85270000D01*
X142923012Y-85270000D01*
X142955925Y-85212993D01*
X142990000Y-85085826D01*
X142990000Y-85034108D01*
X153407000Y-85034108D01*
X153407000Y-85165891D01*
X153441108Y-85293187D01*
X153474054Y-85350250D01*
X153507000Y-85407314D01*
X153600186Y-85500500D01*
X153714314Y-85566392D01*
X153841608Y-85600500D01*
X153841610Y-85600500D01*
X153973390Y-85600500D01*
X153973392Y-85600500D01*
X154100686Y-85566392D01*
X154214814Y-85500500D01*
X154308000Y-85407314D01*
X154373892Y-85293186D01*
X154408000Y-85165892D01*
X154408000Y-85034108D01*
X154373892Y-84906814D01*
X154312223Y-84800000D01*
X179082769Y-84800000D01*
X180126988Y-84800000D01*
X180094075Y-84857007D01*
X180060000Y-84984174D01*
X180060000Y-85115826D01*
X180094075Y-85242993D01*
X180126988Y-85300000D01*
X179082769Y-85300000D01*
X179093242Y-85366126D01*
X179093242Y-85366129D01*
X179158904Y-85568217D01*
X179255379Y-85757557D01*
X179380272Y-85929459D01*
X179380276Y-85929464D01*
X179530535Y-86079723D01*
X179530540Y-86079727D01*
X179702442Y-86204620D01*
X179820971Y-86265015D01*
X179871767Y-86312990D01*
X179888562Y-86380811D01*
X179866024Y-86446946D01*
X179811309Y-86490397D01*
X179764676Y-86499500D01*
X179755730Y-86499500D01*
X179725300Y-86502353D01*
X179725298Y-86502353D01*
X179597119Y-86547206D01*
X179597117Y-86547207D01*
X179487850Y-86627850D01*
X179407207Y-86737117D01*
X179407206Y-86737119D01*
X179362353Y-86865298D01*
X179362353Y-86865300D01*
X179359500Y-86895730D01*
X179359500Y-88204269D01*
X179362353Y-88234699D01*
X179362353Y-88234701D01*
X179407206Y-88362880D01*
X179407207Y-88362882D01*
X179487850Y-88472150D01*
X179597118Y-88552793D01*
X179639845Y-88567744D01*
X179725299Y-88597646D01*
X179755730Y-88600500D01*
X179755734Y-88600500D01*
X181364270Y-88600500D01*
X181394699Y-88597646D01*
X181394701Y-88597646D01*
X181472281Y-88570499D01*
X181522882Y-88552793D01*
X181632150Y-88472150D01*
X181712793Y-88362882D01*
X181735219Y-88298790D01*
X181757646Y-88234701D01*
X181757646Y-88234699D01*
X181760500Y-88204269D01*
X181760500Y-86895730D01*
X181757646Y-86865300D01*
X181757646Y-86865298D01*
X181712793Y-86737119D01*
X181712792Y-86737117D01*
X181688369Y-86704025D01*
X181632150Y-86627850D01*
X181522882Y-86547207D01*
X181522880Y-86547206D01*
X181394700Y-86502353D01*
X181364270Y-86499500D01*
X181364266Y-86499500D01*
X181355324Y-86499500D01*
X181288285Y-86479815D01*
X181242530Y-86427011D01*
X181232586Y-86357853D01*
X181261611Y-86294297D01*
X181299029Y-86265015D01*
X181417557Y-86204620D01*
X181589459Y-86079727D01*
X181589464Y-86079723D01*
X181739723Y-85929464D01*
X181739727Y-85929459D01*
X181864620Y-85757557D01*
X181961095Y-85568217D01*
X182026757Y-85366129D01*
X182026757Y-85366126D01*
X182037231Y-85300000D01*
X180993012Y-85300000D01*
X181025925Y-85242993D01*
X181060000Y-85115826D01*
X181060000Y-84984174D01*
X181025925Y-84857007D01*
X180993012Y-84800000D01*
X182037231Y-84800000D01*
X182026757Y-84733873D01*
X182026757Y-84733870D01*
X181961095Y-84531782D01*
X181864620Y-84342442D01*
X181739727Y-84170540D01*
X181739723Y-84170535D01*
X181589464Y-84020276D01*
X181589459Y-84020272D01*
X181417557Y-83895379D01*
X181228217Y-83798904D01*
X181026129Y-83733242D01*
X180816246Y-83700000D01*
X180810000Y-83700000D01*
X180810000Y-84616988D01*
X180752993Y-84584075D01*
X180625826Y-84550000D01*
X180494174Y-84550000D01*
X180367007Y-84584075D01*
X180310000Y-84616988D01*
X180310000Y-83700000D01*
X180303754Y-83700000D01*
X180093872Y-83733242D01*
X180093869Y-83733242D01*
X179891782Y-83798904D01*
X179702442Y-83895379D01*
X179530540Y-84020272D01*
X179530535Y-84020276D01*
X179380276Y-84170535D01*
X179380272Y-84170540D01*
X179255379Y-84342442D01*
X179158904Y-84531782D01*
X179093242Y-84733870D01*
X179093242Y-84733873D01*
X179082769Y-84800000D01*
X154312223Y-84800000D01*
X154308000Y-84792686D01*
X154237799Y-84722485D01*
X154232313Y-84715069D01*
X154223335Y-84690575D01*
X154210834Y-84667680D01*
X154209127Y-84651813D01*
X154208268Y-84649467D01*
X154208678Y-84647631D01*
X154208000Y-84641323D01*
X154208000Y-82028333D01*
X154227685Y-81961294D01*
X154244319Y-81940652D01*
X154268152Y-81916819D01*
X154329475Y-81883334D01*
X154355833Y-81880500D01*
X156051324Y-81880500D01*
X156118363Y-81900185D01*
X156139005Y-81916819D01*
X156202686Y-81980500D01*
X156316814Y-82046392D01*
X156444108Y-82080500D01*
X156444110Y-82080500D01*
X156575890Y-82080500D01*
X156575892Y-82080500D01*
X156703186Y-82046392D01*
X156817314Y-81980500D01*
X156910500Y-81887314D01*
X156976392Y-81773186D01*
X157010500Y-81645892D01*
X157010500Y-81514108D01*
X156976392Y-81386814D01*
X156910500Y-81272686D01*
X156817314Y-81179500D01*
X156760250Y-81146554D01*
X156703187Y-81113608D01*
X156639539Y-81096554D01*
X156575892Y-81079500D01*
X156444108Y-81079500D01*
X156316812Y-81113608D01*
X156202686Y-81179500D01*
X156202683Y-81179502D01*
X156139005Y-81243181D01*
X156077682Y-81276666D01*
X156051324Y-81279500D01*
X154140438Y-81279500D01*
X154089486Y-81293152D01*
X154064010Y-81299979D01*
X154004934Y-81334087D01*
X154004933Y-81334086D01*
X153995492Y-81339537D01*
X153995487Y-81339541D01*
X153667041Y-81667987D01*
X153667035Y-81667995D01*
X153627482Y-81736504D01*
X153627479Y-81736509D01*
X153607000Y-81812939D01*
X153607000Y-84641323D01*
X153587315Y-84708362D01*
X153570682Y-84729004D01*
X153507000Y-84792686D01*
X153441108Y-84906812D01*
X153407000Y-85034108D01*
X142990000Y-85034108D01*
X142990000Y-84954174D01*
X142955925Y-84827007D01*
X142923012Y-84770000D01*
X143989999Y-84770000D01*
X143989999Y-84370028D01*
X143989998Y-84370013D01*
X143979505Y-84267302D01*
X143924358Y-84100880D01*
X143924356Y-84100875D01*
X143832315Y-83951654D01*
X143708345Y-83827684D01*
X143559124Y-83735643D01*
X143559119Y-83735641D01*
X143392697Y-83680494D01*
X143392690Y-83680493D01*
X143289986Y-83670000D01*
X142740000Y-83670000D01*
X142740000Y-84586988D01*
X142682993Y-84554075D01*
X142555826Y-84520000D01*
X142424174Y-84520000D01*
X142297007Y-84554075D01*
X142240000Y-84586988D01*
X142240000Y-83670000D01*
X141690028Y-83670000D01*
X141690012Y-83670001D01*
X141587302Y-83680494D01*
X141420880Y-83735641D01*
X141420875Y-83735643D01*
X141271654Y-83827684D01*
X141147684Y-83951654D01*
X141055643Y-84100875D01*
X141055641Y-84100880D01*
X141000494Y-84267302D01*
X141000493Y-84267309D01*
X140990000Y-84370013D01*
X136737300Y-84370013D01*
X136737300Y-76930247D01*
X150378700Y-76930247D01*
X150378700Y-78669752D01*
X150390331Y-78728229D01*
X150390332Y-78728230D01*
X150434647Y-78794552D01*
X150500969Y-78838867D01*
X150500970Y-78838868D01*
X150559447Y-78850499D01*
X150559450Y-78850500D01*
X150559452Y-78850500D01*
X152298950Y-78850500D01*
X152298951Y-78850499D01*
X152313768Y-78847552D01*
X152357429Y-78838868D01*
X152357429Y-78838867D01*
X152357431Y-78838867D01*
X152423752Y-78794552D01*
X152468067Y-78728231D01*
X152468067Y-78728229D01*
X152468068Y-78728229D01*
X152479699Y-78669752D01*
X152479700Y-78669750D01*
X152479700Y-78366048D01*
X152499385Y-78299009D01*
X152552189Y-78253254D01*
X152621347Y-78243310D01*
X152684903Y-78272335D01*
X152715138Y-78314264D01*
X152715894Y-78313879D01*
X152814575Y-78507550D01*
X152853928Y-78561716D01*
X153486237Y-77929408D01*
X153503275Y-77992993D01*
X153569101Y-78107007D01*
X153662193Y-78200099D01*
X153776207Y-78265925D01*
X153839790Y-78282962D01*
X153207482Y-78915269D01*
X153207482Y-78915270D01*
X153261649Y-78954624D01*
X153450982Y-79051095D01*
X153653070Y-79116757D01*
X153862954Y-79150000D01*
X154075446Y-79150000D01*
X154285327Y-79116757D01*
X154285330Y-79116757D01*
X154487417Y-79051095D01*
X154676754Y-78954622D01*
X154730916Y-78915270D01*
X154730917Y-78915270D01*
X154098608Y-78282962D01*
X154162193Y-78265925D01*
X154276207Y-78200099D01*
X154369299Y-78107007D01*
X154435125Y-77992993D01*
X154452162Y-77929408D01*
X155084470Y-78561717D01*
X155084470Y-78561716D01*
X155123822Y-78507554D01*
X155220295Y-78318217D01*
X155277543Y-78142026D01*
X155316980Y-78084351D01*
X155381339Y-78057152D01*
X155450185Y-78069066D01*
X155501661Y-78116310D01*
X155510033Y-78132887D01*
X155513819Y-78142026D01*
X155578258Y-78297596D01*
X155693224Y-78469657D01*
X155839542Y-78615975D01*
X155839545Y-78615977D01*
X156011602Y-78730941D01*
X156202780Y-78810130D01*
X156347252Y-78838867D01*
X156405730Y-78850499D01*
X156405734Y-78850500D01*
X156405735Y-78850500D01*
X156612666Y-78850500D01*
X156612667Y-78850499D01*
X156815620Y-78810130D01*
X157006798Y-78730941D01*
X157178855Y-78615977D01*
X157325177Y-78469655D01*
X157440141Y-78297598D01*
X157519330Y-78106420D01*
X157559700Y-77903465D01*
X157559700Y-77696535D01*
X157519330Y-77493580D01*
X157440141Y-77302402D01*
X157325177Y-77130345D01*
X157325175Y-77130342D01*
X157178857Y-76984024D01*
X157068448Y-76910252D01*
X157068441Y-76910247D01*
X161389500Y-76910247D01*
X161389500Y-78649752D01*
X161401131Y-78708229D01*
X161401132Y-78708230D01*
X161445447Y-78774552D01*
X161511769Y-78818867D01*
X161511770Y-78818868D01*
X161570247Y-78830499D01*
X161570250Y-78830500D01*
X161570252Y-78830500D01*
X163309750Y-78830500D01*
X163309751Y-78830499D01*
X163324568Y-78827552D01*
X163368229Y-78818868D01*
X163368229Y-78818867D01*
X163368231Y-78818867D01*
X163434552Y-78774552D01*
X163478867Y-78708231D01*
X163478867Y-78708229D01*
X163478868Y-78708229D01*
X163490499Y-78649752D01*
X163490500Y-78649750D01*
X163490500Y-77676530D01*
X163929500Y-77676530D01*
X163929500Y-77883469D01*
X163969868Y-78086412D01*
X163969870Y-78086420D01*
X164035939Y-78245925D01*
X164049059Y-78277598D01*
X164073301Y-78313879D01*
X164164024Y-78449657D01*
X164310342Y-78595975D01*
X164310345Y-78595977D01*
X164482402Y-78710941D01*
X164673580Y-78790130D01*
X164818052Y-78818867D01*
X164876530Y-78830499D01*
X164876534Y-78830500D01*
X164876535Y-78830500D01*
X165083466Y-78830500D01*
X165083467Y-78830499D01*
X165286420Y-78790130D01*
X165477598Y-78710941D01*
X165649655Y-78595977D01*
X165795977Y-78449655D01*
X165910941Y-78277598D01*
X165990130Y-78086420D01*
X166030500Y-77883465D01*
X166030500Y-77676535D01*
X165990130Y-77473580D01*
X165910941Y-77282402D01*
X165795977Y-77110345D01*
X165795975Y-77110342D01*
X165649657Y-76964024D01*
X165569173Y-76910247D01*
X170414500Y-76910247D01*
X170414500Y-78649752D01*
X170426131Y-78708229D01*
X170426132Y-78708230D01*
X170470447Y-78774552D01*
X170536769Y-78818867D01*
X170536770Y-78818868D01*
X170595247Y-78830499D01*
X170595250Y-78830500D01*
X170595252Y-78830500D01*
X172334750Y-78830500D01*
X172334751Y-78830499D01*
X172349568Y-78827552D01*
X172393229Y-78818868D01*
X172393229Y-78818867D01*
X172393231Y-78818867D01*
X172459552Y-78774552D01*
X172503867Y-78708231D01*
X172503867Y-78708229D01*
X172503868Y-78708229D01*
X172515499Y-78649752D01*
X172515500Y-78649750D01*
X172515500Y-78346048D01*
X172535185Y-78279009D01*
X172587989Y-78233254D01*
X172657147Y-78223310D01*
X172720703Y-78252335D01*
X172750938Y-78294264D01*
X172751694Y-78293879D01*
X172850375Y-78487550D01*
X172889728Y-78541716D01*
X173522037Y-77909408D01*
X173539075Y-77972993D01*
X173604901Y-78087007D01*
X173697993Y-78180099D01*
X173812007Y-78245925D01*
X173875590Y-78262962D01*
X173243282Y-78895269D01*
X173243282Y-78895270D01*
X173297449Y-78934624D01*
X173486782Y-79031095D01*
X173688870Y-79096757D01*
X173898754Y-79130000D01*
X174111246Y-79130000D01*
X174321127Y-79096757D01*
X174321130Y-79096757D01*
X174523217Y-79031095D01*
X174712554Y-78934622D01*
X174766716Y-78895270D01*
X174766717Y-78895270D01*
X174134408Y-78262962D01*
X174197993Y-78245925D01*
X174312007Y-78180099D01*
X174405099Y-78087007D01*
X174470925Y-77972993D01*
X174487962Y-77909408D01*
X175120270Y-78541717D01*
X175120270Y-78541716D01*
X175159622Y-78487554D01*
X175256095Y-78298217D01*
X175321757Y-78096130D01*
X175321757Y-78096127D01*
X175355000Y-77886246D01*
X175355000Y-77673753D01*
X175321757Y-77463872D01*
X175321757Y-77463869D01*
X175256095Y-77261782D01*
X175159624Y-77072449D01*
X175120270Y-77018282D01*
X175120269Y-77018282D01*
X174487962Y-77650590D01*
X174470925Y-77587007D01*
X174405099Y-77472993D01*
X174312007Y-77379901D01*
X174197993Y-77314075D01*
X174134409Y-77297037D01*
X174766716Y-76664728D01*
X174712550Y-76625375D01*
X174523217Y-76528904D01*
X174321129Y-76463242D01*
X174111246Y-76430000D01*
X173898754Y-76430000D01*
X173688872Y-76463242D01*
X173688869Y-76463242D01*
X173486782Y-76528904D01*
X173297439Y-76625380D01*
X173243282Y-76664727D01*
X173243282Y-76664728D01*
X173875591Y-77297037D01*
X173812007Y-77314075D01*
X173697993Y-77379901D01*
X173604901Y-77472993D01*
X173539075Y-77587007D01*
X173522037Y-77650591D01*
X172889728Y-77018282D01*
X172889727Y-77018282D01*
X172850380Y-77072439D01*
X172751694Y-77266121D01*
X172750678Y-77265603D01*
X172710212Y-77315813D01*
X172643916Y-77337872D01*
X172576218Y-77320588D01*
X172528612Y-77269447D01*
X172515500Y-77213951D01*
X172515500Y-76910249D01*
X172515499Y-76910247D01*
X172503868Y-76851770D01*
X172503867Y-76851769D01*
X172459552Y-76785447D01*
X172393230Y-76741132D01*
X172393229Y-76741131D01*
X172334752Y-76729500D01*
X172334748Y-76729500D01*
X170595252Y-76729500D01*
X170595247Y-76729500D01*
X170536770Y-76741131D01*
X170536769Y-76741132D01*
X170470447Y-76785447D01*
X170426132Y-76851769D01*
X170426131Y-76851770D01*
X170414500Y-76910247D01*
X165569173Y-76910247D01*
X165563626Y-76906541D01*
X165477598Y-76849059D01*
X165372312Y-76805448D01*
X165286420Y-76769870D01*
X165286412Y-76769868D01*
X165083469Y-76729500D01*
X165083465Y-76729500D01*
X164876535Y-76729500D01*
X164876530Y-76729500D01*
X164673587Y-76769868D01*
X164673579Y-76769870D01*
X164482403Y-76849058D01*
X164310342Y-76964024D01*
X164164024Y-77110342D01*
X164049058Y-77282403D01*
X163969870Y-77473579D01*
X163969868Y-77473587D01*
X163929500Y-77676530D01*
X163490500Y-77676530D01*
X163490500Y-76910249D01*
X163490499Y-76910247D01*
X163478868Y-76851770D01*
X163478867Y-76851769D01*
X163434552Y-76785447D01*
X163368230Y-76741132D01*
X163368229Y-76741131D01*
X163309752Y-76729500D01*
X163309748Y-76729500D01*
X161570252Y-76729500D01*
X161570247Y-76729500D01*
X161511770Y-76741131D01*
X161511769Y-76741132D01*
X161445447Y-76785447D01*
X161401132Y-76851769D01*
X161401131Y-76851770D01*
X161389500Y-76910247D01*
X157068441Y-76910247D01*
X157006798Y-76869059D01*
X156815620Y-76789870D01*
X156815612Y-76789868D01*
X156612669Y-76749500D01*
X156612665Y-76749500D01*
X156405735Y-76749500D01*
X156405730Y-76749500D01*
X156202787Y-76789868D01*
X156202779Y-76789870D01*
X156011603Y-76869058D01*
X155839542Y-76984024D01*
X155693224Y-77130342D01*
X155578257Y-77302403D01*
X155510035Y-77467108D01*
X155466194Y-77521511D01*
X155399900Y-77543576D01*
X155332200Y-77526297D01*
X155284590Y-77475159D01*
X155277543Y-77457973D01*
X155220295Y-77281782D01*
X155123824Y-77092449D01*
X155084470Y-77038282D01*
X155084469Y-77038282D01*
X154452162Y-77670590D01*
X154435125Y-77607007D01*
X154369299Y-77492993D01*
X154276207Y-77399901D01*
X154162193Y-77334075D01*
X154098609Y-77317037D01*
X154730916Y-76684728D01*
X154676750Y-76645375D01*
X154487417Y-76548904D01*
X154285329Y-76483242D01*
X154075446Y-76450000D01*
X153862954Y-76450000D01*
X153653072Y-76483242D01*
X153653069Y-76483242D01*
X153450982Y-76548904D01*
X153261639Y-76645380D01*
X153207482Y-76684727D01*
X153207482Y-76684728D01*
X153839791Y-77317037D01*
X153776207Y-77334075D01*
X153662193Y-77399901D01*
X153569101Y-77492993D01*
X153503275Y-77607007D01*
X153486237Y-77670591D01*
X152853928Y-77038282D01*
X152853927Y-77038282D01*
X152814580Y-77092439D01*
X152715894Y-77286121D01*
X152714878Y-77285603D01*
X152674412Y-77335813D01*
X152608116Y-77357872D01*
X152540418Y-77340588D01*
X152492812Y-77289447D01*
X152479700Y-77233951D01*
X152479700Y-76930249D01*
X152479699Y-76930247D01*
X152468068Y-76871770D01*
X152468067Y-76871769D01*
X152423752Y-76805447D01*
X152357430Y-76761132D01*
X152357429Y-76761131D01*
X152298952Y-76749500D01*
X152298948Y-76749500D01*
X150559452Y-76749500D01*
X150559447Y-76749500D01*
X150500970Y-76761131D01*
X150500969Y-76761132D01*
X150434647Y-76805447D01*
X150390332Y-76871769D01*
X150390331Y-76871770D01*
X150378700Y-76930247D01*
X136737300Y-76930247D01*
X136737300Y-74011700D01*
X136756985Y-73944661D01*
X136809789Y-73898906D01*
X136861300Y-73887700D01*
X186112300Y-73887700D01*
X186179339Y-73907385D01*
G37*
%TD.AperFunction*%
%TD*%
M02*
