%TF.GenerationSoftware,KiCad,Pcbnew,9.0.4*%
%TF.CreationDate,2025-11-30T20:35:07+01:00*%
%TF.ProjectId,pwr_latcher,7077725f-6c61-4746-9368-65722e6b6963,rev?*%
%TF.SameCoordinates,Original*%
%TF.FileFunction,Copper,L1,Top*%
%TF.FilePolarity,Positive*%
%FSLAX46Y46*%
G04 Gerber Fmt 4.6, Leading zero omitted, Abs format (unit mm)*
G04 Created by KiCad (PCBNEW 9.0.4) date 2025-11-30 20:35:07*
%MOMM*%
%LPD*%
G01*
G04 APERTURE LIST*
G04 Aperture macros list*
%AMRoundRect*
0 Rectangle with rounded corners*
0 $1 Rounding radius*
0 $2 $3 $4 $5 $6 $7 $8 $9 X,Y pos of 4 corners*
0 Add a 4 corners polygon primitive as box body*
4,1,4,$2,$3,$4,$5,$6,$7,$8,$9,$2,$3,0*
0 Add four circle primitives for the rounded corners*
1,1,$1+$1,$2,$3*
1,1,$1+$1,$4,$5*
1,1,$1+$1,$6,$7*
1,1,$1+$1,$8,$9*
0 Add four rect primitives between the rounded corners*
20,1,$1+$1,$2,$3,$4,$5,0*
20,1,$1+$1,$4,$5,$6,$7,0*
20,1,$1+$1,$6,$7,$8,$9,0*
20,1,$1+$1,$8,$9,$2,$3,0*%
G04 Aperture macros list end*
%TA.AperFunction,ComponentPad*%
%ADD10R,1.700000X1.700000*%
%TD*%
%TA.AperFunction,ComponentPad*%
%ADD11C,1.700000*%
%TD*%
%TA.AperFunction,ComponentPad*%
%ADD12C,7.000000*%
%TD*%
%TA.AperFunction,SMDPad,CuDef*%
%ADD13RoundRect,0.250000X-0.262500X-0.450000X0.262500X-0.450000X0.262500X0.450000X-0.262500X0.450000X0*%
%TD*%
%TA.AperFunction,ComponentPad*%
%ADD14RoundRect,0.250000X-0.750000X0.600000X-0.750000X-0.600000X0.750000X-0.600000X0.750000X0.600000X0*%
%TD*%
%TA.AperFunction,ComponentPad*%
%ADD15O,2.000000X1.700000*%
%TD*%
%TA.AperFunction,SMDPad,CuDef*%
%ADD16RoundRect,0.150000X-0.587500X-0.150000X0.587500X-0.150000X0.587500X0.150000X-0.587500X0.150000X0*%
%TD*%
%TA.AperFunction,SMDPad,CuDef*%
%ADD17R,1.600000X1.000000*%
%TD*%
%TA.AperFunction,SMDPad,CuDef*%
%ADD18R,6.200000X5.400000*%
%TD*%
%TA.AperFunction,SMDPad,CuDef*%
%ADD19RoundRect,0.112500X-0.237500X0.112500X-0.237500X-0.112500X0.237500X-0.112500X0.237500X0.112500X0*%
%TD*%
%TA.AperFunction,SMDPad,CuDef*%
%ADD20RoundRect,0.250000X0.250000X0.475000X-0.250000X0.475000X-0.250000X-0.475000X0.250000X-0.475000X0*%
%TD*%
%TA.AperFunction,ComponentPad*%
%ADD21RoundRect,0.250000X0.750000X-0.600000X0.750000X0.600000X-0.750000X0.600000X-0.750000X-0.600000X0*%
%TD*%
%TA.AperFunction,SMDPad,CuDef*%
%ADD22RoundRect,0.150000X0.587500X0.150000X-0.587500X0.150000X-0.587500X-0.150000X0.587500X-0.150000X0*%
%TD*%
%TA.AperFunction,ViaPad*%
%ADD23C,0.600000*%
%TD*%
%TA.AperFunction,Conductor*%
%ADD24C,0.200000*%
%TD*%
%TA.AperFunction,Conductor*%
%ADD25C,2.000000*%
%TD*%
G04 APERTURE END LIST*
D10*
%TO.P,J3,1,Pin_1*%
%TO.N,Net-(J3-Pin_1)*%
X162440000Y-77780000D03*
D11*
%TO.P,J3,2,Pin_2*%
%TO.N,+5V*%
X164980000Y-77780000D03*
%TD*%
D12*
%TO.P,H1,1,1*%
%TO.N,GND*%
X140400000Y-77500000D03*
%TD*%
D13*
%TO.P,R3,1*%
%TO.N,Net-(Q1-D)*%
X171549400Y-87800000D03*
%TO.P,R3,2*%
%TO.N,Net-(J2-Pin_1)*%
X173374400Y-87800000D03*
%TD*%
%TO.P,R5,1*%
%TO.N,Net-(Q5-B)*%
X155600000Y-84448000D03*
%TO.P,R5,2*%
%TO.N,Net-(J3-Pin_1)*%
X157425000Y-84448000D03*
%TD*%
%TO.P,R7,1*%
%TO.N,Net-(J5-Pin_1)*%
X171450000Y-84450000D03*
%TO.P,R7,2*%
%TO.N,Net-(J2-Pin_1)*%
X173275000Y-84450000D03*
%TD*%
D14*
%TO.P,J4,1,Pin_1*%
%TO.N,GND*%
X142490000Y-85020000D03*
D15*
%TO.P,J4,2,Pin_2*%
%TO.N,+5V*%
X142490000Y-87520000D03*
%TD*%
D13*
%TO.P,R6,1*%
%TO.N,Net-(J3-Pin_1)*%
X166475000Y-84448000D03*
%TO.P,R6,2*%
%TO.N,Net-(Q3-B)*%
X168300000Y-84448000D03*
%TD*%
D12*
%TO.P,H3,1,1*%
%TO.N,GND*%
X182600000Y-77500000D03*
%TD*%
D13*
%TO.P,R4,1*%
%TO.N,Net-(Q2-D)*%
X166727200Y-87800000D03*
%TO.P,R4,2*%
%TO.N,+5V*%
X168552200Y-87800000D03*
%TD*%
D16*
%TO.P,Q1,1,G*%
%TO.N,Net-(Q1-G)*%
X156062200Y-91216400D03*
%TO.P,Q1,2,S*%
%TO.N,GND*%
X156062200Y-93116400D03*
%TO.P,Q1,3,D*%
%TO.N,Net-(Q1-D)*%
X157937200Y-92166400D03*
%TD*%
D17*
%TO.P,Q4,1*%
%TO.N,Net-(Q2-D)*%
X166690000Y-92106400D03*
D18*
%TO.P,Q4,2*%
%TO.N,Net-(J2-Pin_1)*%
X173990000Y-94386400D03*
D17*
%TO.P,Q4,3*%
%TO.N,+5V*%
X166690000Y-96666400D03*
%TD*%
D12*
%TO.P,H2,1,1*%
%TO.N,GND*%
X140400000Y-95100000D03*
%TD*%
D19*
%TO.P,D1,1,A*%
%TO.N,Net-(D1-A)*%
X161330000Y-83770000D03*
%TO.P,D1,2,NC*%
%TO.N,unconnected-(D1-NC-Pad2)*%
X161330000Y-85070000D03*
%TO.P,D1,3,K*%
%TO.N,Net-(D1-K)*%
X163330000Y-84420000D03*
%TD*%
D20*
%TO.P,C1,1*%
%TO.N,Net-(Q1-G)*%
X152440000Y-90290000D03*
%TO.P,C1,2*%
%TO.N,GND*%
X150540000Y-90290000D03*
%TD*%
D16*
%TO.P,Q3,1,B*%
%TO.N,Net-(Q3-B)*%
X161444000Y-87444400D03*
%TO.P,Q3,2,E*%
%TO.N,GND*%
X161444000Y-89344400D03*
%TO.P,Q3,3,C*%
%TO.N,Net-(Q2-D)*%
X163319000Y-88394400D03*
%TD*%
D21*
%TO.P,J2,1,Pin_1*%
%TO.N,Net-(J2-Pin_1)*%
X180560000Y-87550000D03*
D15*
%TO.P,J2,2,Pin_2*%
%TO.N,GND*%
X180560000Y-85050000D03*
%TD*%
D16*
%TO.P,Q2,1,G*%
%TO.N,Net-(Q1-D)*%
X161497800Y-91201200D03*
%TO.P,Q2,2,S*%
%TO.N,GND*%
X161497800Y-93101200D03*
%TO.P,Q2,3,D*%
%TO.N,Net-(Q2-D)*%
X163372800Y-92151200D03*
%TD*%
D10*
%TO.P,J1,1,Pin_1*%
%TO.N,STATUS*%
X151429200Y-77800000D03*
D11*
%TO.P,J1,2,Pin_2*%
%TO.N,GND*%
X153969200Y-77800000D03*
%TO.P,J1,3,Pin_3*%
%TO.N,Net-(D1-A)*%
X156509200Y-77800000D03*
%TD*%
D12*
%TO.P,H4,1,1*%
%TO.N,GND*%
X182600000Y-95100000D03*
%TD*%
D13*
%TO.P,R8,1*%
%TO.N,GND*%
X150535000Y-93610000D03*
%TO.P,R8,2*%
%TO.N,Net-(Q1-G)*%
X152360000Y-93610000D03*
%TD*%
D10*
%TO.P,J5,1,Pin_1*%
%TO.N,Net-(J5-Pin_1)*%
X171465000Y-77780000D03*
D11*
%TO.P,J5,2,Pin_2*%
%TO.N,GND*%
X174005000Y-77780000D03*
%TD*%
D22*
%TO.P,Q5,1,B*%
%TO.N,Net-(Q5-B)*%
X152060000Y-85860000D03*
%TO.P,Q5,2,E*%
%TO.N,GND*%
X152060000Y-83960000D03*
%TO.P,Q5,3,C*%
%TO.N,STATUS*%
X150185000Y-84910000D03*
%TD*%
D13*
%TO.P,R2,1*%
%TO.N,Net-(D1-A)*%
X153907500Y-87890000D03*
%TO.P,R2,2*%
%TO.N,Net-(Q1-G)*%
X155732500Y-87890000D03*
%TD*%
%TO.P,R1,1*%
%TO.N,Net-(Q1-G)*%
X157537500Y-87870000D03*
%TO.P,R1,2*%
%TO.N,Net-(D1-K)*%
X159362500Y-87870000D03*
%TD*%
D23*
%TO.N,Net-(Q1-D)*%
X162790000Y-91190000D03*
X171549400Y-89250000D03*
%TO.N,Net-(D1-A)*%
X153907500Y-85100000D03*
X156510000Y-81580000D03*
%TD*%
D24*
%TO.N,Net-(Q1-G)*%
X154210000Y-93380000D02*
X154210000Y-91530000D01*
X154523600Y-91216400D02*
X156062200Y-91216400D01*
X156062200Y-91216400D02*
X157253600Y-91216400D01*
X157537500Y-90932500D02*
X157537500Y-87870000D01*
X154210000Y-91530000D02*
X154523600Y-91216400D01*
X157253600Y-91216400D02*
X157537500Y-90932500D01*
X152440000Y-93530000D02*
X152360000Y-93610000D01*
X152440000Y-90290000D02*
X152440000Y-93530000D01*
X153980000Y-93610000D02*
X154210000Y-93380000D01*
X152360000Y-93610000D02*
X153980000Y-93610000D01*
X157517500Y-87890000D02*
X157537500Y-87870000D01*
X155732500Y-87890000D02*
X157517500Y-87890000D01*
%TO.N,STATUS*%
X149010000Y-84910000D02*
X150185000Y-84910000D01*
X148970000Y-77800000D02*
X148670000Y-78100000D01*
X151429200Y-77800000D02*
X148970000Y-77800000D01*
X148670000Y-84570000D02*
X149010000Y-84910000D01*
X148670000Y-78100000D02*
X148670000Y-84570000D01*
%TO.N,Net-(J2-Pin_1)*%
X173374400Y-87800000D02*
X173374400Y-84549400D01*
X173374400Y-84549400D02*
X173275000Y-84450000D01*
D25*
X180560000Y-87816400D02*
X173990000Y-94386400D01*
D24*
X173374400Y-87800000D02*
X173374400Y-93770800D01*
X173374400Y-93770800D02*
X173951800Y-94348200D01*
D25*
X180560000Y-87550000D02*
X180560000Y-87816400D01*
D24*
X173951800Y-94348200D02*
X173990000Y-94386400D01*
D25*
%TO.N,+5V*%
X148366400Y-96666400D02*
X166690000Y-96666400D01*
X147400000Y-95700000D02*
X148366400Y-96666400D01*
D24*
X146150000Y-75720000D02*
X146150000Y-86990000D01*
X164980000Y-77780000D02*
X164980000Y-81310000D01*
X164980000Y-75710000D02*
X164760000Y-75490000D01*
X169800000Y-81850000D02*
X169800000Y-87560000D01*
D25*
X145620000Y-87520000D02*
X147400000Y-89300000D01*
X142490000Y-87520000D02*
X145380000Y-87520000D01*
D24*
X146380000Y-75490000D02*
X146150000Y-75720000D01*
X146150000Y-86990000D02*
X145620000Y-87520000D01*
X169510000Y-81560000D02*
X169800000Y-81850000D01*
X169410000Y-81560000D02*
X169510000Y-81560000D01*
X165230000Y-81560000D02*
X169385000Y-81560000D01*
X165230000Y-81560000D02*
X165240000Y-81560000D01*
X164980000Y-77780000D02*
X164980000Y-75710000D01*
X164760000Y-75490000D02*
X146380000Y-75490000D01*
D25*
X147400000Y-89300000D02*
X147400000Y-95700000D01*
D24*
X169560000Y-87800000D02*
X168552200Y-87800000D01*
X169800000Y-87560000D02*
X169560000Y-87800000D01*
D25*
X142490000Y-87520000D02*
X145620000Y-87520000D01*
D24*
X164980000Y-81310000D02*
X165230000Y-81560000D01*
%TO.N,Net-(Q1-D)*%
X159263600Y-92166400D02*
X157937200Y-92166400D01*
X160228800Y-91201200D02*
X159263600Y-92166400D01*
X161497800Y-91201200D02*
X162707800Y-91201200D01*
X162707800Y-91201200D02*
X162719000Y-91190000D01*
X161497800Y-91201200D02*
X160228800Y-91201200D01*
X171549400Y-89250000D02*
X171549400Y-87800000D01*
%TO.N,Net-(Q2-D)*%
X163319000Y-88394400D02*
X163319000Y-92097400D01*
X164905600Y-88394400D02*
X165500000Y-87800000D01*
X166690000Y-92106400D02*
X166645200Y-92151200D01*
X163319000Y-88394400D02*
X164905600Y-88394400D01*
X163319000Y-92097400D02*
X163372800Y-92151200D01*
X166645200Y-92151200D02*
X163372800Y-92151200D01*
X165500000Y-87800000D02*
X166727200Y-87800000D01*
%TO.N,Net-(Q3-B)*%
X161444000Y-87444400D02*
X162855600Y-87444400D01*
X162855600Y-87444400D02*
X164110000Y-86190000D01*
X167910000Y-86190000D02*
X168300000Y-85800000D01*
X168300000Y-85800000D02*
X168300000Y-84448000D01*
X164110000Y-86190000D02*
X167910000Y-86190000D01*
%TO.N,Net-(Q5-B)*%
X153342000Y-84448000D02*
X155600000Y-84448000D01*
X152960000Y-85860000D02*
X153150000Y-85670000D01*
X153150000Y-84640000D02*
X153342000Y-84448000D01*
X153150000Y-85670000D02*
X153150000Y-84640000D01*
X155598000Y-84450000D02*
X155600000Y-84448000D01*
X152060000Y-85860000D02*
X152960000Y-85860000D01*
%TO.N,Net-(J3-Pin_1)*%
X162460000Y-83570000D02*
X162460000Y-77800000D01*
X165597000Y-83570000D02*
X166475000Y-84448000D01*
X162460000Y-83570000D02*
X165597000Y-83570000D01*
X162460000Y-83570000D02*
X162460000Y-84030000D01*
X162460000Y-77800000D02*
X162440000Y-77780000D01*
X162042000Y-84448000D02*
X157425000Y-84448000D01*
X162460000Y-84030000D02*
X162042000Y-84448000D01*
X157425000Y-84448000D02*
X157573000Y-84300000D01*
%TO.N,Net-(J5-Pin_1)*%
X171465000Y-77780000D02*
X171465000Y-84435000D01*
X171465000Y-84435000D02*
X171450000Y-84450000D01*
%TO.N,Net-(D1-K)*%
X159362500Y-86197500D02*
X159362500Y-87870000D01*
X159610000Y-85950000D02*
X159362500Y-86197500D01*
X163180000Y-85950000D02*
X159610000Y-85950000D01*
X163330000Y-85800000D02*
X163180000Y-85950000D01*
X163330000Y-84420000D02*
X163330000Y-85800000D01*
%TO.N,Net-(D1-A)*%
X156509200Y-81579200D02*
X156510000Y-81580000D01*
X161330000Y-81810000D02*
X161100000Y-81580000D01*
X153907500Y-87890000D02*
X153907500Y-85100000D01*
X153907500Y-85100000D02*
X153890000Y-85117500D01*
X161100000Y-81580000D02*
X156510000Y-81580000D01*
X161330000Y-83770000D02*
X161330000Y-81810000D01*
X156509200Y-77800000D02*
X156509200Y-81579200D01*
%TD*%
%TA.AperFunction,Conductor*%
%TO.N,GND*%
G36*
X186179339Y-73907385D02*
G01*
X186225094Y-73960189D01*
X186236300Y-74011700D01*
X186236300Y-98662700D01*
X186216615Y-98729739D01*
X186163811Y-98775494D01*
X186112300Y-98786700D01*
X136861300Y-98786700D01*
X136794261Y-98767015D01*
X136748506Y-98714211D01*
X136737300Y-98662700D01*
X136737300Y-84370013D01*
X140990000Y-84370013D01*
X140990000Y-84770000D01*
X142056988Y-84770000D01*
X142024075Y-84827007D01*
X141990000Y-84954174D01*
X141990000Y-85085826D01*
X142024075Y-85212993D01*
X142056988Y-85270000D01*
X140990001Y-85270000D01*
X140990001Y-85669986D01*
X141000494Y-85772697D01*
X141055641Y-85939119D01*
X141055643Y-85939124D01*
X141147684Y-86088345D01*
X141271654Y-86212315D01*
X141420875Y-86304356D01*
X141420880Y-86304358D01*
X141587302Y-86359505D01*
X141587310Y-86359506D01*
X141665699Y-86367515D01*
X141730391Y-86393911D01*
X141770543Y-86451092D01*
X141773406Y-86520903D01*
X141738072Y-86581179D01*
X141725986Y-86591188D01*
X141707933Y-86604305D01*
X141707924Y-86604312D01*
X141574312Y-86737924D01*
X141574312Y-86737925D01*
X141574310Y-86737927D01*
X141530642Y-86798030D01*
X141463240Y-86890800D01*
X141377454Y-87059165D01*
X141319059Y-87238884D01*
X141296865Y-87379010D01*
X141296010Y-87383797D01*
X141289500Y-87416529D01*
X141289500Y-87623467D01*
X141296011Y-87656205D01*
X141296866Y-87660994D01*
X141319023Y-87800885D01*
X141319060Y-87801118D01*
X141377453Y-87980832D01*
X141463240Y-88149199D01*
X141574310Y-88302073D01*
X141707927Y-88435690D01*
X141860801Y-88546760D01*
X141910630Y-88572149D01*
X142029163Y-88632545D01*
X142029165Y-88632545D01*
X142029168Y-88632547D01*
X142120273Y-88662149D01*
X142208881Y-88690940D01*
X142395514Y-88720500D01*
X142395519Y-88720500D01*
X145071374Y-88720500D01*
X145138413Y-88740185D01*
X145159055Y-88756819D01*
X146163181Y-89760945D01*
X146196666Y-89822268D01*
X146199500Y-89848626D01*
X146199500Y-95794486D01*
X146229059Y-95981118D01*
X146287454Y-96160836D01*
X146373240Y-96329199D01*
X146484310Y-96482074D01*
X147584326Y-97582090D01*
X147737201Y-97693160D01*
X147781776Y-97715872D01*
X147905563Y-97778945D01*
X147905565Y-97778945D01*
X147905568Y-97778947D01*
X147998547Y-97809158D01*
X148085281Y-97837340D01*
X148271914Y-97866900D01*
X148271919Y-97866900D01*
X166784486Y-97866900D01*
X166971118Y-97837340D01*
X167150832Y-97778947D01*
X167319199Y-97693160D01*
X167472073Y-97582090D01*
X167605690Y-97448473D01*
X167716760Y-97295599D01*
X167802547Y-97127232D01*
X167860940Y-96947518D01*
X167890500Y-96760886D01*
X167890500Y-96571913D01*
X167860940Y-96385281D01*
X167802545Y-96205563D01*
X167716759Y-96037200D01*
X167605690Y-95884327D01*
X167472073Y-95750710D01*
X167319199Y-95639640D01*
X167252233Y-95605519D01*
X167150836Y-95553854D01*
X166971118Y-95495459D01*
X166784486Y-95465900D01*
X166784481Y-95465900D01*
X148915026Y-95465900D01*
X148847987Y-95446215D01*
X148827345Y-95429581D01*
X148636819Y-95239055D01*
X148603334Y-95177732D01*
X148600500Y-95151374D01*
X148600500Y-94109986D01*
X149522501Y-94109986D01*
X149532994Y-94212697D01*
X149588141Y-94379119D01*
X149588143Y-94379124D01*
X149680184Y-94528345D01*
X149804154Y-94652315D01*
X149953375Y-94744356D01*
X149953380Y-94744358D01*
X150119802Y-94799505D01*
X150119809Y-94799506D01*
X150222519Y-94809999D01*
X150284999Y-94809998D01*
X150285000Y-94809998D01*
X150285000Y-93860000D01*
X149522501Y-93860000D01*
X149522501Y-94109986D01*
X148600500Y-94109986D01*
X148600500Y-93110013D01*
X149522500Y-93110013D01*
X149522500Y-93360000D01*
X150285000Y-93360000D01*
X150285000Y-92410000D01*
X150284999Y-92409999D01*
X150222528Y-92410000D01*
X150222511Y-92410001D01*
X150119802Y-92420494D01*
X149953380Y-92475641D01*
X149953375Y-92475643D01*
X149804154Y-92567684D01*
X149680184Y-92691654D01*
X149588143Y-92840875D01*
X149588141Y-92840880D01*
X149532994Y-93007302D01*
X149532993Y-93007309D01*
X149522500Y-93110013D01*
X148600500Y-93110013D01*
X148600500Y-90814986D01*
X149540001Y-90814986D01*
X149550494Y-90917697D01*
X149605641Y-91084119D01*
X149605643Y-91084124D01*
X149697684Y-91233345D01*
X149821654Y-91357315D01*
X149970875Y-91449356D01*
X149970880Y-91449358D01*
X150137302Y-91504505D01*
X150137309Y-91504506D01*
X150240019Y-91514999D01*
X150289999Y-91514998D01*
X150290000Y-91514998D01*
X150290000Y-90540000D01*
X149540001Y-90540000D01*
X149540001Y-90814986D01*
X148600500Y-90814986D01*
X148600500Y-89765013D01*
X149540000Y-89765013D01*
X149540000Y-90040000D01*
X150290000Y-90040000D01*
X150290000Y-89065000D01*
X150289999Y-89064999D01*
X150240029Y-89065000D01*
X150240011Y-89065001D01*
X150137302Y-89075494D01*
X149970880Y-89130641D01*
X149970875Y-89130643D01*
X149821654Y-89222684D01*
X149697684Y-89346654D01*
X149605643Y-89495875D01*
X149605641Y-89495880D01*
X149550494Y-89662302D01*
X149550493Y-89662309D01*
X149540000Y-89765013D01*
X148600500Y-89765013D01*
X148600500Y-89205513D01*
X148570940Y-89018881D01*
X148531049Y-88896112D01*
X148512547Y-88839168D01*
X148512545Y-88839165D01*
X148512545Y-88839163D01*
X148453251Y-88722793D01*
X148426760Y-88670801D01*
X148374211Y-88598474D01*
X148374211Y-88598473D01*
X148374209Y-88598472D01*
X148345869Y-88559464D01*
X148315693Y-88517929D01*
X146486819Y-86689055D01*
X146453334Y-86627732D01*
X146450500Y-86601374D01*
X146450500Y-85676739D01*
X151122000Y-85676739D01*
X151122000Y-86043260D01*
X151131926Y-86111391D01*
X151183303Y-86216485D01*
X151266014Y-86299196D01*
X151266015Y-86299196D01*
X151266017Y-86299198D01*
X151371107Y-86350573D01*
X151401759Y-86355039D01*
X151439239Y-86360500D01*
X151439240Y-86360500D01*
X152680761Y-86360500D01*
X152703471Y-86357191D01*
X152748893Y-86350573D01*
X152853983Y-86299198D01*
X152936698Y-86216483D01*
X152936698Y-86216481D01*
X152942668Y-86208122D01*
X152945137Y-86209885D01*
X152981034Y-86170581D01*
X153013228Y-86156838D01*
X153075989Y-86140021D01*
X153144511Y-86100460D01*
X153200460Y-86044511D01*
X153390460Y-85854511D01*
X153390460Y-85854510D01*
X153395319Y-85849652D01*
X153456642Y-85816167D01*
X153526334Y-85821151D01*
X153582267Y-85863023D01*
X153606684Y-85928487D01*
X153607000Y-85937333D01*
X153607000Y-86888030D01*
X153587315Y-86955069D01*
X153534511Y-87000824D01*
X153523956Y-87005071D01*
X153432117Y-87037207D01*
X153322850Y-87117850D01*
X153242207Y-87227117D01*
X153242206Y-87227119D01*
X153197353Y-87355298D01*
X153197353Y-87355300D01*
X153194500Y-87385730D01*
X153194500Y-88394269D01*
X153197353Y-88424699D01*
X153197353Y-88424701D01*
X153242176Y-88552793D01*
X153242207Y-88552882D01*
X153322850Y-88662150D01*
X153432118Y-88742793D01*
X153472202Y-88756819D01*
X153560299Y-88787646D01*
X153590730Y-88790500D01*
X153590734Y-88790500D01*
X154224270Y-88790500D01*
X154254699Y-88787646D01*
X154254701Y-88787646D01*
X154318790Y-88765219D01*
X154382882Y-88742793D01*
X154492150Y-88662150D01*
X154572793Y-88552882D01*
X154601043Y-88472149D01*
X154617646Y-88424701D01*
X154617646Y-88424699D01*
X154620500Y-88394269D01*
X154620500Y-87385730D01*
X154617646Y-87355300D01*
X154617646Y-87355298D01*
X154572793Y-87227119D01*
X154572792Y-87227117D01*
X154558032Y-87207118D01*
X154492150Y-87117850D01*
X154382882Y-87037207D01*
X154382879Y-87037206D01*
X154291044Y-87005071D01*
X154234269Y-86964349D01*
X154208522Y-86899396D01*
X154208000Y-86888030D01*
X154208000Y-85558676D01*
X154227685Y-85491637D01*
X154244319Y-85470995D01*
X154272464Y-85442850D01*
X154308000Y-85407314D01*
X154373892Y-85293186D01*
X154408000Y-85165892D01*
X154408000Y-85034108D01*
X154373892Y-84906814D01*
X154373297Y-84904593D01*
X154374960Y-84834743D01*
X154414123Y-84776881D01*
X154478352Y-84749377D01*
X154493072Y-84748500D01*
X154763000Y-84748500D01*
X154830039Y-84768185D01*
X154875794Y-84820989D01*
X154887000Y-84872500D01*
X154887000Y-84952269D01*
X154889853Y-84982699D01*
X154889853Y-84982701D01*
X154934706Y-85110880D01*
X154934707Y-85110882D01*
X155015350Y-85220150D01*
X155124618Y-85300793D01*
X155149367Y-85309453D01*
X155252799Y-85345646D01*
X155283230Y-85348500D01*
X155283234Y-85348500D01*
X155916770Y-85348500D01*
X155947199Y-85345646D01*
X155947201Y-85345646D01*
X156011290Y-85323219D01*
X156075382Y-85300793D01*
X156184650Y-85220150D01*
X156265293Y-85110882D01*
X156292157Y-85034108D01*
X156310146Y-84982701D01*
X156310146Y-84982699D01*
X156313000Y-84952269D01*
X156313000Y-83943730D01*
X156310146Y-83913300D01*
X156310146Y-83913298D01*
X156265993Y-83787119D01*
X156265293Y-83785118D01*
X156184650Y-83675850D01*
X156075382Y-83595207D01*
X156075380Y-83595206D01*
X155947200Y-83550353D01*
X155916770Y-83547500D01*
X155916766Y-83547500D01*
X155283234Y-83547500D01*
X155283230Y-83547500D01*
X155252800Y-83550353D01*
X155252798Y-83550353D01*
X155124619Y-83595206D01*
X155124617Y-83595207D01*
X155015350Y-83675850D01*
X154934707Y-83785117D01*
X154934706Y-83785119D01*
X154889853Y-83913298D01*
X154889853Y-83913300D01*
X154887000Y-83943730D01*
X154887000Y-84023500D01*
X154867315Y-84090539D01*
X154814511Y-84136294D01*
X154763000Y-84147500D01*
X153302438Y-84147500D01*
X153264224Y-84157739D01*
X153226009Y-84167979D01*
X153196573Y-84184975D01*
X153182002Y-84193387D01*
X153120003Y-84210000D01*
X152310000Y-84210000D01*
X152310000Y-84760000D01*
X152713134Y-84760000D01*
X152713147Y-84759999D01*
X152715771Y-84759793D01*
X152784148Y-84774157D01*
X152833905Y-84823208D01*
X152849500Y-84883411D01*
X152849500Y-85240709D01*
X152829815Y-85307748D01*
X152777011Y-85353503D01*
X152707853Y-85363447D01*
X152707625Y-85363414D01*
X152698123Y-85362029D01*
X152680760Y-85359500D01*
X151439240Y-85359500D01*
X151439239Y-85359500D01*
X151371108Y-85369426D01*
X151266014Y-85420803D01*
X151183303Y-85503514D01*
X151131926Y-85608608D01*
X151122000Y-85676739D01*
X146450500Y-85676739D01*
X146450500Y-78060438D01*
X148369500Y-78060438D01*
X148369500Y-84609562D01*
X148380309Y-84649901D01*
X148389979Y-84685990D01*
X148389980Y-84685991D01*
X148391408Y-84688464D01*
X148413537Y-84726793D01*
X148429540Y-84754511D01*
X148825489Y-85150460D01*
X148894012Y-85190022D01*
X148970438Y-85210500D01*
X149049562Y-85210500D01*
X149204503Y-85210500D01*
X149271542Y-85230185D01*
X149305423Y-85262450D01*
X149308305Y-85266487D01*
X149391014Y-85349196D01*
X149391015Y-85349196D01*
X149391017Y-85349198D01*
X149496107Y-85400573D01*
X149530173Y-85405536D01*
X149564239Y-85410500D01*
X149564240Y-85410500D01*
X150805761Y-85410500D01*
X150828471Y-85407191D01*
X150873893Y-85400573D01*
X150978983Y-85349198D01*
X151061698Y-85266483D01*
X151113073Y-85161393D01*
X151123000Y-85093260D01*
X151123000Y-84850489D01*
X151142685Y-84783450D01*
X151195489Y-84737695D01*
X151264647Y-84727751D01*
X151281596Y-84731413D01*
X151370007Y-84757099D01*
X151370010Y-84757100D01*
X151406850Y-84759999D01*
X151406866Y-84760000D01*
X151810000Y-84760000D01*
X151810000Y-84210000D01*
X150825205Y-84210000D01*
X150825204Y-84210001D01*
X150825399Y-84212486D01*
X150836561Y-84250905D01*
X150836361Y-84320775D01*
X150798418Y-84379445D01*
X150734780Y-84408288D01*
X150717484Y-84409500D01*
X149564239Y-84409500D01*
X149496108Y-84419426D01*
X149391014Y-84470803D01*
X149308305Y-84553512D01*
X149305423Y-84557550D01*
X149300706Y-84561249D01*
X149298216Y-84566703D01*
X149273534Y-84582564D01*
X149250449Y-84600674D01*
X149243184Y-84602069D01*
X149239438Y-84604477D01*
X149204503Y-84609500D01*
X149185833Y-84609500D01*
X149118794Y-84589815D01*
X149098152Y-84573181D01*
X149006819Y-84481848D01*
X148973334Y-84420525D01*
X148970500Y-84394167D01*
X148970500Y-83709998D01*
X150825204Y-83709998D01*
X150825205Y-83710000D01*
X151810000Y-83710000D01*
X152310000Y-83710000D01*
X153294795Y-83710000D01*
X153294795Y-83709998D01*
X153294600Y-83707513D01*
X153248781Y-83549801D01*
X153165185Y-83408447D01*
X153165178Y-83408438D01*
X153049061Y-83292321D01*
X153049052Y-83292314D01*
X152907696Y-83208717D01*
X152907693Y-83208716D01*
X152749995Y-83162900D01*
X152749989Y-83162899D01*
X152713149Y-83160000D01*
X152310000Y-83160000D01*
X152310000Y-83710000D01*
X151810000Y-83710000D01*
X151810000Y-83160000D01*
X151406850Y-83160000D01*
X151370010Y-83162899D01*
X151370004Y-83162900D01*
X151212306Y-83208716D01*
X151212303Y-83208717D01*
X151070947Y-83292314D01*
X151070938Y-83292321D01*
X150954821Y-83408438D01*
X150954814Y-83408447D01*
X150871218Y-83549801D01*
X150825399Y-83707513D01*
X150825204Y-83709998D01*
X148970500Y-83709998D01*
X148970500Y-78275833D01*
X148979144Y-78246392D01*
X148985668Y-78216406D01*
X148989422Y-78211390D01*
X148990185Y-78208794D01*
X149006819Y-78188152D01*
X149058152Y-78136819D01*
X149119475Y-78103334D01*
X149145833Y-78100500D01*
X150254700Y-78100500D01*
X150321739Y-78120185D01*
X150367494Y-78172989D01*
X150378700Y-78224500D01*
X150378700Y-78669752D01*
X150390331Y-78728229D01*
X150390332Y-78728230D01*
X150434647Y-78794552D01*
X150500969Y-78838867D01*
X150500970Y-78838868D01*
X150559447Y-78850499D01*
X150559450Y-78850500D01*
X150559452Y-78850500D01*
X152298950Y-78850500D01*
X152298951Y-78850499D01*
X152313768Y-78847552D01*
X152357429Y-78838868D01*
X152357429Y-78838867D01*
X152357431Y-78838867D01*
X152423752Y-78794552D01*
X152468067Y-78728231D01*
X152468067Y-78728229D01*
X152468068Y-78728229D01*
X152479699Y-78669752D01*
X152479700Y-78669750D01*
X152479700Y-78366048D01*
X152499385Y-78299009D01*
X152552189Y-78253254D01*
X152621347Y-78243310D01*
X152684903Y-78272335D01*
X152715138Y-78314264D01*
X152715894Y-78313879D01*
X152814575Y-78507550D01*
X152853928Y-78561716D01*
X153486237Y-77929408D01*
X153503275Y-77992993D01*
X153569101Y-78107007D01*
X153662193Y-78200099D01*
X153776207Y-78265925D01*
X153839790Y-78282962D01*
X153207482Y-78915269D01*
X153207482Y-78915270D01*
X153261649Y-78954624D01*
X153450982Y-79051095D01*
X153653070Y-79116757D01*
X153862954Y-79150000D01*
X154075446Y-79150000D01*
X154285327Y-79116757D01*
X154285330Y-79116757D01*
X154487417Y-79051095D01*
X154676754Y-78954622D01*
X154730916Y-78915270D01*
X154730917Y-78915270D01*
X154098608Y-78282962D01*
X154162193Y-78265925D01*
X154276207Y-78200099D01*
X154369299Y-78107007D01*
X154435125Y-77992993D01*
X154452162Y-77929408D01*
X155084470Y-78561717D01*
X155084470Y-78561716D01*
X155123822Y-78507554D01*
X155220295Y-78318217D01*
X155277543Y-78142026D01*
X155316980Y-78084351D01*
X155381339Y-78057152D01*
X155450185Y-78069066D01*
X155501661Y-78116310D01*
X155510033Y-78132887D01*
X155511662Y-78136819D01*
X155578258Y-78297596D01*
X155693224Y-78469657D01*
X155839542Y-78615975D01*
X155839545Y-78615977D01*
X156011602Y-78730941D01*
X156132153Y-78780875D01*
X156186556Y-78824714D01*
X156208621Y-78891008D01*
X156208700Y-78895435D01*
X156208700Y-81122123D01*
X156189015Y-81189162D01*
X156172382Y-81209804D01*
X156109500Y-81272686D01*
X156043608Y-81386812D01*
X156014753Y-81494504D01*
X156009500Y-81514108D01*
X156009500Y-81645892D01*
X156022393Y-81694009D01*
X156043608Y-81773187D01*
X156065116Y-81810439D01*
X156109500Y-81887314D01*
X156202686Y-81980500D01*
X156316814Y-82046392D01*
X156444108Y-82080500D01*
X156444110Y-82080500D01*
X156575890Y-82080500D01*
X156575892Y-82080500D01*
X156703186Y-82046392D01*
X156817314Y-81980500D01*
X156880995Y-81916819D01*
X156942318Y-81883334D01*
X156968676Y-81880500D01*
X160905500Y-81880500D01*
X160972539Y-81900185D01*
X161018294Y-81952989D01*
X161029500Y-82004500D01*
X161029500Y-83262523D01*
X161009815Y-83329562D01*
X160957906Y-83374905D01*
X160910199Y-83397151D01*
X160832150Y-83475200D01*
X160785500Y-83575241D01*
X160779501Y-83620811D01*
X160779500Y-83620827D01*
X160779500Y-83919180D01*
X160785500Y-83964756D01*
X160785501Y-83964760D01*
X160788455Y-83971094D01*
X160798947Y-84040172D01*
X160770428Y-84103956D01*
X160711952Y-84142196D01*
X160676073Y-84147500D01*
X158262000Y-84147500D01*
X158194961Y-84127815D01*
X158149206Y-84075011D01*
X158138000Y-84023500D01*
X158138000Y-83943730D01*
X158135146Y-83913300D01*
X158135146Y-83913298D01*
X158090993Y-83787119D01*
X158090293Y-83785118D01*
X158009650Y-83675850D01*
X157900382Y-83595207D01*
X157900380Y-83595206D01*
X157772200Y-83550353D01*
X157741770Y-83547500D01*
X157741766Y-83547500D01*
X157108234Y-83547500D01*
X157108230Y-83547500D01*
X157077800Y-83550353D01*
X157077798Y-83550353D01*
X156949619Y-83595206D01*
X156949617Y-83595207D01*
X156840350Y-83675850D01*
X156759707Y-83785117D01*
X156759706Y-83785119D01*
X156714853Y-83913298D01*
X156714853Y-83913300D01*
X156712000Y-83943730D01*
X156712000Y-84952269D01*
X156714853Y-84982699D01*
X156714853Y-84982701D01*
X156759706Y-85110880D01*
X156759707Y-85110882D01*
X156840350Y-85220150D01*
X156949618Y-85300793D01*
X156974367Y-85309453D01*
X157077799Y-85345646D01*
X157108230Y-85348500D01*
X157108234Y-85348500D01*
X157741770Y-85348500D01*
X157772199Y-85345646D01*
X157772201Y-85345646D01*
X157836290Y-85323219D01*
X157900382Y-85300793D01*
X158009650Y-85220150D01*
X158090293Y-85110882D01*
X158117157Y-85034108D01*
X158135146Y-84982701D01*
X158135146Y-84982699D01*
X158138000Y-84952269D01*
X158138000Y-84872500D01*
X158157685Y-84805461D01*
X158210489Y-84759706D01*
X158262000Y-84748500D01*
X160660792Y-84748500D01*
X160727831Y-84768185D01*
X160773586Y-84820989D01*
X160783731Y-84888687D01*
X160779500Y-84920815D01*
X160779500Y-85219180D01*
X160785500Y-85264756D01*
X160785502Y-85264763D01*
X160832150Y-85364799D01*
X160905170Y-85437819D01*
X160938655Y-85499142D01*
X160933671Y-85568834D01*
X160891799Y-85624767D01*
X160826335Y-85649184D01*
X160817489Y-85649500D01*
X159570438Y-85649500D01*
X159532224Y-85659739D01*
X159494009Y-85669979D01*
X159494004Y-85669982D01*
X159425495Y-85709535D01*
X159425487Y-85709541D01*
X159122041Y-86012987D01*
X159122035Y-86012995D01*
X159082482Y-86081504D01*
X159082479Y-86081509D01*
X159074472Y-86111393D01*
X159062296Y-86156836D01*
X159062000Y-86157939D01*
X159062000Y-86868030D01*
X159042315Y-86935069D01*
X158989511Y-86980824D01*
X158978956Y-86985071D01*
X158887117Y-87017207D01*
X158777850Y-87097850D01*
X158697207Y-87207117D01*
X158697206Y-87207119D01*
X158652353Y-87335298D01*
X158652353Y-87335300D01*
X158649500Y-87365730D01*
X158649500Y-88374269D01*
X158652353Y-88404699D01*
X158652353Y-88404701D01*
X158693031Y-88520949D01*
X158697207Y-88532882D01*
X158777850Y-88642150D01*
X158887118Y-88722793D01*
X158921804Y-88734930D01*
X159015299Y-88767646D01*
X159045730Y-88770500D01*
X159045734Y-88770500D01*
X159679270Y-88770500D01*
X159709699Y-88767646D01*
X159709701Y-88767646D01*
X159788178Y-88740185D01*
X159837882Y-88722793D01*
X159947150Y-88642150D01*
X160027793Y-88532882D01*
X160052288Y-88462880D01*
X160072646Y-88404701D01*
X160072646Y-88404699D01*
X160075500Y-88374269D01*
X160075500Y-87365730D01*
X160072646Y-87335300D01*
X160072646Y-87335298D01*
X160038908Y-87238882D01*
X160027793Y-87207118D01*
X159947150Y-87097850D01*
X159837882Y-87017207D01*
X159837879Y-87017206D01*
X159746044Y-86985071D01*
X159689269Y-86944349D01*
X159663522Y-86879396D01*
X159663000Y-86868030D01*
X159663000Y-86374500D01*
X159682685Y-86307461D01*
X159735489Y-86261706D01*
X159787000Y-86250500D01*
X163219560Y-86250500D01*
X163219562Y-86250500D01*
X163295989Y-86230021D01*
X163306089Y-86224189D01*
X163373988Y-86207715D01*
X163440015Y-86230566D01*
X163483207Y-86285486D01*
X163489851Y-86355039D01*
X163457836Y-86417142D01*
X163455772Y-86419256D01*
X162767448Y-87107581D01*
X162706125Y-87141066D01*
X162679767Y-87143900D01*
X162424497Y-87143900D01*
X162357458Y-87124215D01*
X162323577Y-87091950D01*
X162320694Y-87087912D01*
X162237985Y-87005203D01*
X162132891Y-86953826D01*
X162064761Y-86943900D01*
X162064760Y-86943900D01*
X160823240Y-86943900D01*
X160823239Y-86943900D01*
X160755108Y-86953826D01*
X160650014Y-87005203D01*
X160567303Y-87087914D01*
X160515926Y-87193008D01*
X160506000Y-87261139D01*
X160506000Y-87627660D01*
X160515926Y-87695791D01*
X160567303Y-87800885D01*
X160650014Y-87883596D01*
X160650015Y-87883596D01*
X160650017Y-87883598D01*
X160755107Y-87934973D01*
X160789173Y-87939936D01*
X160823239Y-87944900D01*
X160823240Y-87944900D01*
X162064761Y-87944900D01*
X162087471Y-87941591D01*
X162132893Y-87934973D01*
X162237983Y-87883598D01*
X162320698Y-87800883D01*
X162320700Y-87800877D01*
X162323577Y-87796850D01*
X162378551Y-87753726D01*
X162424497Y-87744900D01*
X162435956Y-87744900D01*
X162502995Y-87764585D01*
X162548750Y-87817389D01*
X162558694Y-87886547D01*
X162529669Y-87950103D01*
X162523637Y-87956581D01*
X162442303Y-88037914D01*
X162390926Y-88143008D01*
X162381000Y-88211139D01*
X162381000Y-88453910D01*
X162361315Y-88520949D01*
X162308511Y-88566704D01*
X162239353Y-88576648D01*
X162222405Y-88572986D01*
X162133995Y-88547300D01*
X162133989Y-88547299D01*
X162097149Y-88544400D01*
X161694000Y-88544400D01*
X161694000Y-89094400D01*
X162678795Y-89094400D01*
X162678795Y-89094398D01*
X162678600Y-89091913D01*
X162667439Y-89053495D01*
X162667639Y-88983625D01*
X162705582Y-88924955D01*
X162769220Y-88896112D01*
X162786516Y-88894900D01*
X162894500Y-88894900D01*
X162961539Y-88914585D01*
X163007294Y-88967389D01*
X163018500Y-89018900D01*
X163018500Y-90571471D01*
X162998815Y-90638510D01*
X162946011Y-90684265D01*
X162876853Y-90694209D01*
X162862412Y-90691247D01*
X162855892Y-90689500D01*
X162724108Y-90689500D01*
X162596813Y-90723608D01*
X162561501Y-90743996D01*
X162482686Y-90789500D01*
X162482684Y-90789501D01*
X162482682Y-90789503D01*
X162476494Y-90794251D01*
X162411323Y-90819441D01*
X162342879Y-90805398D01*
X162313333Y-90783551D01*
X162291785Y-90762003D01*
X162186691Y-90710626D01*
X162118561Y-90700700D01*
X162118560Y-90700700D01*
X160877040Y-90700700D01*
X160877039Y-90700700D01*
X160808908Y-90710626D01*
X160703814Y-90762003D01*
X160621105Y-90844712D01*
X160618223Y-90848750D01*
X160563249Y-90891874D01*
X160517303Y-90900700D01*
X160189238Y-90900700D01*
X160151024Y-90910939D01*
X160112809Y-90921179D01*
X160089596Y-90934582D01*
X160086484Y-90936379D01*
X160073947Y-90943616D01*
X160044289Y-90960739D01*
X160044287Y-90960741D01*
X159175448Y-91829581D01*
X159148520Y-91844284D01*
X159122702Y-91860877D01*
X159116501Y-91861768D01*
X159114125Y-91863066D01*
X159087767Y-91865900D01*
X158917697Y-91865900D01*
X158850658Y-91846215D01*
X158816777Y-91813950D01*
X158813894Y-91809912D01*
X158731185Y-91727203D01*
X158626091Y-91675826D01*
X158557961Y-91665900D01*
X158557960Y-91665900D01*
X157528433Y-91665900D01*
X157461394Y-91646215D01*
X157415639Y-91593411D01*
X157405695Y-91524253D01*
X157434720Y-91460697D01*
X157440752Y-91454219D01*
X157605431Y-91289540D01*
X157777960Y-91117011D01*
X157796319Y-91085212D01*
X157817521Y-91048489D01*
X157838000Y-90972062D01*
X157838000Y-89594401D01*
X160209204Y-89594401D01*
X160209399Y-89596886D01*
X160255218Y-89754598D01*
X160338814Y-89895952D01*
X160338821Y-89895961D01*
X160454938Y-90012078D01*
X160454947Y-90012085D01*
X160596303Y-90095682D01*
X160596306Y-90095683D01*
X160754004Y-90141499D01*
X160754010Y-90141500D01*
X160790850Y-90144399D01*
X160790866Y-90144400D01*
X161194000Y-90144400D01*
X161694000Y-90144400D01*
X162097134Y-90144400D01*
X162097149Y-90144399D01*
X162133989Y-90141500D01*
X162133995Y-90141499D01*
X162291693Y-90095683D01*
X162291696Y-90095682D01*
X162433052Y-90012085D01*
X162433061Y-90012078D01*
X162549178Y-89895961D01*
X162549185Y-89895952D01*
X162632781Y-89754598D01*
X162678600Y-89596886D01*
X162678795Y-89594401D01*
X162678795Y-89594400D01*
X161694000Y-89594400D01*
X161694000Y-90144400D01*
X161194000Y-90144400D01*
X161194000Y-89594400D01*
X160209205Y-89594400D01*
X160209204Y-89594401D01*
X157838000Y-89594401D01*
X157838000Y-89094398D01*
X160209204Y-89094398D01*
X160209205Y-89094400D01*
X161194000Y-89094400D01*
X161194000Y-88544400D01*
X160790850Y-88544400D01*
X160754010Y-88547299D01*
X160754004Y-88547300D01*
X160596306Y-88593116D01*
X160596303Y-88593117D01*
X160454947Y-88676714D01*
X160454938Y-88676721D01*
X160338821Y-88792838D01*
X160338814Y-88792847D01*
X160255218Y-88934201D01*
X160209399Y-89091913D01*
X160209204Y-89094398D01*
X157838000Y-89094398D01*
X157838000Y-88871969D01*
X157857685Y-88804930D01*
X157910489Y-88759175D01*
X157921025Y-88754934D01*
X158012882Y-88722793D01*
X158122150Y-88642150D01*
X158202793Y-88532882D01*
X158227288Y-88462880D01*
X158247646Y-88404701D01*
X158247646Y-88404699D01*
X158250500Y-88374269D01*
X158250500Y-87365730D01*
X158247646Y-87335300D01*
X158247646Y-87335298D01*
X158213908Y-87238882D01*
X158202793Y-87207118D01*
X158122150Y-87097850D01*
X158012882Y-87017207D01*
X158012880Y-87017206D01*
X157884700Y-86972353D01*
X157854270Y-86969500D01*
X157854266Y-86969500D01*
X157220734Y-86969500D01*
X157220730Y-86969500D01*
X157190300Y-86972353D01*
X157190298Y-86972353D01*
X157062119Y-87017206D01*
X157062117Y-87017207D01*
X156952850Y-87097850D01*
X156872207Y-87207117D01*
X156872206Y-87207119D01*
X156827353Y-87335298D01*
X156827353Y-87335300D01*
X156824500Y-87365730D01*
X156824500Y-87465500D01*
X156821949Y-87474185D01*
X156823238Y-87483147D01*
X156812259Y-87507187D01*
X156804815Y-87532539D01*
X156797974Y-87538466D01*
X156794213Y-87546703D01*
X156771978Y-87560992D01*
X156752011Y-87578294D01*
X156741496Y-87580581D01*
X156735435Y-87584477D01*
X156700500Y-87589500D01*
X156569500Y-87589500D01*
X156502461Y-87569815D01*
X156456706Y-87517011D01*
X156445500Y-87465500D01*
X156445500Y-87385730D01*
X156442646Y-87355300D01*
X156442646Y-87355298D01*
X156397793Y-87227119D01*
X156397792Y-87227117D01*
X156383032Y-87207118D01*
X156317150Y-87117850D01*
X156207882Y-87037207D01*
X156207880Y-87037206D01*
X156079700Y-86992353D01*
X156049270Y-86989500D01*
X156049266Y-86989500D01*
X155415734Y-86989500D01*
X155415730Y-86989500D01*
X155385300Y-86992353D01*
X155385298Y-86992353D01*
X155257119Y-87037206D01*
X155257117Y-87037207D01*
X155147850Y-87117850D01*
X155067207Y-87227117D01*
X155067206Y-87227119D01*
X155022353Y-87355298D01*
X155022353Y-87355300D01*
X155019500Y-87385730D01*
X155019500Y-88394269D01*
X155022353Y-88424699D01*
X155022353Y-88424701D01*
X155067176Y-88552793D01*
X155067207Y-88552882D01*
X155147850Y-88662150D01*
X155257118Y-88742793D01*
X155297202Y-88756819D01*
X155385299Y-88787646D01*
X155415730Y-88790500D01*
X155415734Y-88790500D01*
X156049270Y-88790500D01*
X156079699Y-88787646D01*
X156079701Y-88787646D01*
X156143790Y-88765219D01*
X156207882Y-88742793D01*
X156317150Y-88662150D01*
X156397793Y-88552882D01*
X156426043Y-88472149D01*
X156442646Y-88424701D01*
X156442646Y-88424699D01*
X156445500Y-88394269D01*
X156445500Y-88314500D01*
X156448050Y-88305814D01*
X156446762Y-88296853D01*
X156457740Y-88272812D01*
X156465185Y-88247461D01*
X156472025Y-88241533D01*
X156475787Y-88233297D01*
X156498021Y-88219007D01*
X156517989Y-88201706D01*
X156528503Y-88199418D01*
X156534565Y-88195523D01*
X156569500Y-88190500D01*
X156700500Y-88190500D01*
X156767539Y-88210185D01*
X156813294Y-88262989D01*
X156824500Y-88314500D01*
X156824500Y-88374269D01*
X156827353Y-88404699D01*
X156827353Y-88404701D01*
X156868031Y-88520949D01*
X156872207Y-88532882D01*
X156952850Y-88642150D01*
X157062118Y-88722793D01*
X157153957Y-88754929D01*
X157210731Y-88795649D01*
X157236478Y-88860602D01*
X157237000Y-88871969D01*
X157237000Y-90756667D01*
X157228355Y-90786107D01*
X157221832Y-90816094D01*
X157218077Y-90821109D01*
X157217315Y-90823706D01*
X157200681Y-90844348D01*
X157165448Y-90879581D01*
X157104125Y-90913066D01*
X157077767Y-90915900D01*
X157042697Y-90915900D01*
X156975658Y-90896215D01*
X156941777Y-90863950D01*
X156938894Y-90859912D01*
X156856185Y-90777203D01*
X156751091Y-90725826D01*
X156682961Y-90715900D01*
X156682960Y-90715900D01*
X155441440Y-90715900D01*
X155441439Y-90715900D01*
X155373308Y-90725826D01*
X155268214Y-90777203D01*
X155185505Y-90859912D01*
X155182623Y-90863950D01*
X155127649Y-90907074D01*
X155081703Y-90915900D01*
X154484038Y-90915900D01*
X154453467Y-90924091D01*
X154407608Y-90936379D01*
X154407607Y-90936380D01*
X154358027Y-90965006D01*
X154358026Y-90965007D01*
X154339090Y-90975939D01*
X154339087Y-90975941D01*
X153969541Y-91345487D01*
X153969535Y-91345495D01*
X153929982Y-91414004D01*
X153929979Y-91414009D01*
X153920448Y-91449581D01*
X153911476Y-91483066D01*
X153909500Y-91490439D01*
X153909500Y-93185500D01*
X153889815Y-93252539D01*
X153837011Y-93298294D01*
X153785500Y-93309500D01*
X153197000Y-93309500D01*
X153129961Y-93289815D01*
X153084206Y-93237011D01*
X153073000Y-93185500D01*
X153073000Y-93105730D01*
X153070146Y-93075300D01*
X153070146Y-93075298D01*
X153025293Y-92947119D01*
X153025292Y-92947117D01*
X152980165Y-92885972D01*
X152944650Y-92837850D01*
X152864006Y-92778332D01*
X152835381Y-92757206D01*
X152823541Y-92753063D01*
X152766766Y-92712339D01*
X152741022Y-92647385D01*
X152740500Y-92636023D01*
X152740500Y-91312595D01*
X152760185Y-91245556D01*
X152812989Y-91199801D01*
X152823523Y-91195561D01*
X152902882Y-91167793D01*
X153012150Y-91087150D01*
X153092793Y-90977882D01*
X153119800Y-90900700D01*
X153137646Y-90849701D01*
X153137646Y-90849699D01*
X153140500Y-90819269D01*
X153140500Y-89760730D01*
X153137646Y-89730300D01*
X153137646Y-89730298D01*
X153092793Y-89602119D01*
X153092792Y-89602117D01*
X153012150Y-89492850D01*
X152902882Y-89412207D01*
X152902880Y-89412206D01*
X152774700Y-89367353D01*
X152744270Y-89364500D01*
X152744266Y-89364500D01*
X152135734Y-89364500D01*
X152135730Y-89364500D01*
X152105300Y-89367353D01*
X152105298Y-89367353D01*
X151977119Y-89412206D01*
X151977117Y-89412207D01*
X151867850Y-89492850D01*
X151787207Y-89602117D01*
X151764842Y-89666033D01*
X151724120Y-89722808D01*
X151659167Y-89748555D01*
X151590605Y-89735098D01*
X151540203Y-89686711D01*
X151530095Y-89664081D01*
X151474358Y-89495880D01*
X151474356Y-89495875D01*
X151382315Y-89346654D01*
X151258345Y-89222684D01*
X151109124Y-89130643D01*
X151109119Y-89130641D01*
X150942697Y-89075494D01*
X150942690Y-89075493D01*
X150839986Y-89065000D01*
X150790000Y-89065000D01*
X150790000Y-91514999D01*
X150839972Y-91514999D01*
X150839986Y-91514998D01*
X150942697Y-91504505D01*
X151109119Y-91449358D01*
X151109124Y-91449356D01*
X151258345Y-91357315D01*
X151382315Y-91233345D01*
X151474356Y-91084124D01*
X151474359Y-91084117D01*
X151530094Y-90915918D01*
X151569866Y-90858473D01*
X151634382Y-90831649D01*
X151703158Y-90843964D01*
X151754358Y-90891506D01*
X151764841Y-90913965D01*
X151786527Y-90975939D01*
X151787207Y-90977882D01*
X151867850Y-91087150D01*
X151977118Y-91167793D01*
X152056458Y-91195555D01*
X152113231Y-91236275D01*
X152138978Y-91301228D01*
X152139500Y-91312595D01*
X152139500Y-92587556D01*
X152119815Y-92654595D01*
X152067011Y-92700350D01*
X152027081Y-92711014D01*
X152012799Y-92712353D01*
X152012798Y-92712353D01*
X151884619Y-92757206D01*
X151884617Y-92757207D01*
X151775350Y-92837850D01*
X151714276Y-92920602D01*
X151658628Y-92962853D01*
X151588972Y-92968311D01*
X151527423Y-92935243D01*
X151496800Y-92885972D01*
X151481858Y-92840880D01*
X151481856Y-92840875D01*
X151389815Y-92691654D01*
X151265845Y-92567684D01*
X151116624Y-92475643D01*
X151116619Y-92475641D01*
X150950197Y-92420494D01*
X150950190Y-92420493D01*
X150847486Y-92410000D01*
X150785000Y-92410000D01*
X150785000Y-94809999D01*
X150847472Y-94809999D01*
X150847486Y-94809998D01*
X150950197Y-94799505D01*
X151116619Y-94744358D01*
X151116624Y-94744356D01*
X151265845Y-94652315D01*
X151389815Y-94528345D01*
X151481856Y-94379124D01*
X151481859Y-94379117D01*
X151496800Y-94334028D01*
X151536572Y-94276583D01*
X151601087Y-94249759D01*
X151669863Y-94262073D01*
X151714275Y-94299396D01*
X151775350Y-94382150D01*
X151884618Y-94462793D01*
X151927345Y-94477744D01*
X152012799Y-94507646D01*
X152043230Y-94510500D01*
X152043234Y-94510500D01*
X152676770Y-94510500D01*
X152707199Y-94507646D01*
X152707201Y-94507646D01*
X152771290Y-94485219D01*
X152835382Y-94462793D01*
X152944650Y-94382150D01*
X153025293Y-94272882D01*
X153047719Y-94208790D01*
X153070146Y-94144701D01*
X153070146Y-94144699D01*
X153073000Y-94114269D01*
X153073000Y-94034500D01*
X153092685Y-93967461D01*
X153145489Y-93921706D01*
X153197000Y-93910500D01*
X154019560Y-93910500D01*
X154019562Y-93910500D01*
X154095989Y-93890021D01*
X154164511Y-93850460D01*
X154220460Y-93794511D01*
X154450460Y-93564511D01*
X154490021Y-93495989D01*
X154510500Y-93419562D01*
X154510500Y-93366401D01*
X154827404Y-93366401D01*
X154827599Y-93368886D01*
X154873418Y-93526598D01*
X154957014Y-93667952D01*
X154957021Y-93667961D01*
X155073138Y-93784078D01*
X155073147Y-93784085D01*
X155214503Y-93867682D01*
X155214506Y-93867683D01*
X155372204Y-93913499D01*
X155372210Y-93913500D01*
X155409050Y-93916399D01*
X155409066Y-93916400D01*
X155812200Y-93916400D01*
X156312200Y-93916400D01*
X156715334Y-93916400D01*
X156715349Y-93916399D01*
X156752189Y-93913500D01*
X156752195Y-93913499D01*
X156909893Y-93867683D01*
X156909896Y-93867682D01*
X157051252Y-93784085D01*
X157051261Y-93784078D01*
X157167378Y-93667961D01*
X157167385Y-93667952D01*
X157250981Y-93526598D01*
X157296800Y-93368886D01*
X157296995Y-93366401D01*
X157296995Y-93366400D01*
X156312200Y-93366400D01*
X156312200Y-93916400D01*
X155812200Y-93916400D01*
X155812200Y-93366400D01*
X154827405Y-93366400D01*
X154827404Y-93366401D01*
X154510500Y-93366401D01*
X154510500Y-93351201D01*
X160263004Y-93351201D01*
X160263199Y-93353686D01*
X160309018Y-93511398D01*
X160392614Y-93652752D01*
X160392621Y-93652761D01*
X160508738Y-93768878D01*
X160508747Y-93768885D01*
X160650103Y-93852482D01*
X160650106Y-93852483D01*
X160807804Y-93898299D01*
X160807810Y-93898300D01*
X160844650Y-93901199D01*
X160844666Y-93901200D01*
X161247800Y-93901200D01*
X161747800Y-93901200D01*
X162150934Y-93901200D01*
X162150949Y-93901199D01*
X162187789Y-93898300D01*
X162187795Y-93898299D01*
X162345493Y-93852483D01*
X162345496Y-93852482D01*
X162486852Y-93768885D01*
X162486861Y-93768878D01*
X162602978Y-93652761D01*
X162602985Y-93652752D01*
X162686581Y-93511398D01*
X162732400Y-93353686D01*
X162732595Y-93351201D01*
X162732595Y-93351200D01*
X161747800Y-93351200D01*
X161747800Y-93901200D01*
X161247800Y-93901200D01*
X161247800Y-93351200D01*
X160263005Y-93351200D01*
X160263004Y-93351201D01*
X154510500Y-93351201D01*
X154510500Y-92866398D01*
X154827404Y-92866398D01*
X154827405Y-92866400D01*
X155812200Y-92866400D01*
X155812200Y-92316400D01*
X155409050Y-92316400D01*
X155372210Y-92319299D01*
X155372204Y-92319300D01*
X155214506Y-92365116D01*
X155214503Y-92365117D01*
X155073147Y-92448714D01*
X155073138Y-92448721D01*
X154957021Y-92564838D01*
X154957014Y-92564847D01*
X154873418Y-92706201D01*
X154827599Y-92863913D01*
X154827404Y-92866398D01*
X154510500Y-92866398D01*
X154510500Y-91705833D01*
X154530185Y-91638794D01*
X154546819Y-91618152D01*
X154611752Y-91553219D01*
X154673075Y-91519734D01*
X154699433Y-91516900D01*
X155081703Y-91516900D01*
X155148742Y-91536585D01*
X155182623Y-91568850D01*
X155185505Y-91572887D01*
X155268214Y-91655596D01*
X155268215Y-91655596D01*
X155268217Y-91655598D01*
X155373307Y-91706973D01*
X155407373Y-91711936D01*
X155441439Y-91716900D01*
X155441440Y-91716900D01*
X156682961Y-91716900D01*
X156716570Y-91712003D01*
X156751093Y-91706973D01*
X156856183Y-91655598D01*
X156938898Y-91572883D01*
X156938900Y-91572877D01*
X156941777Y-91568850D01*
X156996751Y-91525726D01*
X157042697Y-91516900D01*
X157054156Y-91516900D01*
X157121195Y-91536585D01*
X157166950Y-91589389D01*
X157176894Y-91658547D01*
X157147869Y-91722103D01*
X157141837Y-91728581D01*
X157060503Y-91809914D01*
X157009126Y-91915008D01*
X156999200Y-91983139D01*
X156999200Y-92225910D01*
X156979515Y-92292949D01*
X156926711Y-92338704D01*
X156857553Y-92348648D01*
X156840605Y-92344986D01*
X156752195Y-92319300D01*
X156752189Y-92319299D01*
X156715349Y-92316400D01*
X156312200Y-92316400D01*
X156312200Y-92866400D01*
X157292375Y-92866400D01*
X157289621Y-92851198D01*
X160263004Y-92851198D01*
X160263005Y-92851200D01*
X161247800Y-92851200D01*
X161247800Y-92301200D01*
X160844650Y-92301200D01*
X160807810Y-92304099D01*
X160807804Y-92304100D01*
X160650106Y-92349916D01*
X160650103Y-92349917D01*
X160508747Y-92433514D01*
X160508738Y-92433521D01*
X160392621Y-92549638D01*
X160392614Y-92549647D01*
X160309018Y-92691001D01*
X160263199Y-92848713D01*
X160263004Y-92851198D01*
X157289621Y-92851198D01*
X157282702Y-92813003D01*
X157285756Y-92784401D01*
X157285839Y-92755625D01*
X157289421Y-92750085D01*
X157290122Y-92743528D01*
X157308157Y-92721115D01*
X157323782Y-92696955D01*
X157329789Y-92694232D01*
X157333924Y-92689094D01*
X157361213Y-92679989D01*
X157387420Y-92668112D01*
X157399314Y-92667278D01*
X157400203Y-92666982D01*
X157400924Y-92667165D01*
X157404716Y-92666900D01*
X158557961Y-92666900D01*
X158580671Y-92663591D01*
X158626093Y-92656973D01*
X158731183Y-92605598D01*
X158813898Y-92522883D01*
X158813900Y-92522877D01*
X158816777Y-92518850D01*
X158871751Y-92475726D01*
X158917697Y-92466900D01*
X159303160Y-92466900D01*
X159303162Y-92466900D01*
X159379589Y-92446421D01*
X159448111Y-92406860D01*
X159504060Y-92350911D01*
X160316952Y-91538019D01*
X160343879Y-91523315D01*
X160369698Y-91506723D01*
X160375898Y-91505831D01*
X160378275Y-91504534D01*
X160404633Y-91501700D01*
X160517303Y-91501700D01*
X160584342Y-91521385D01*
X160618223Y-91553650D01*
X160621105Y-91557687D01*
X160703814Y-91640396D01*
X160703815Y-91640396D01*
X160703817Y-91640398D01*
X160808907Y-91691773D01*
X160842973Y-91696736D01*
X160877039Y-91701700D01*
X160877040Y-91701700D01*
X162118561Y-91701700D01*
X162141271Y-91698391D01*
X162186693Y-91691773D01*
X162291783Y-91640398D01*
X162326012Y-91606168D01*
X162350460Y-91592817D01*
X162373154Y-91576663D01*
X162380699Y-91576304D01*
X162387332Y-91572683D01*
X162415123Y-91574670D01*
X162442945Y-91573349D01*
X162453006Y-91577378D01*
X162457024Y-91577666D01*
X162475709Y-91586471D01*
X162480725Y-91589368D01*
X162528933Y-91639943D01*
X162542146Y-91708552D01*
X162516168Y-91773412D01*
X162506393Y-91784425D01*
X162496102Y-91794715D01*
X162444726Y-91899808D01*
X162434800Y-91967939D01*
X162434800Y-92210710D01*
X162415115Y-92277749D01*
X162362311Y-92323504D01*
X162293153Y-92333448D01*
X162276205Y-92329786D01*
X162187795Y-92304100D01*
X162187789Y-92304099D01*
X162150949Y-92301200D01*
X161747800Y-92301200D01*
X161747800Y-92851200D01*
X162732595Y-92851200D01*
X162732595Y-92851198D01*
X162732400Y-92848713D01*
X162721239Y-92810295D01*
X162721439Y-92740425D01*
X162759382Y-92681755D01*
X162823020Y-92652912D01*
X162840316Y-92651700D01*
X163993561Y-92651700D01*
X164016271Y-92648391D01*
X164061693Y-92641773D01*
X164166783Y-92590398D01*
X164249498Y-92507683D01*
X164249500Y-92507677D01*
X164252377Y-92503650D01*
X164307351Y-92460526D01*
X164353297Y-92451700D01*
X165565500Y-92451700D01*
X165632539Y-92471385D01*
X165678294Y-92524189D01*
X165689500Y-92575700D01*
X165689500Y-92626152D01*
X165701131Y-92684629D01*
X165701132Y-92684630D01*
X165745447Y-92750952D01*
X165811769Y-92795267D01*
X165811770Y-92795268D01*
X165870247Y-92806899D01*
X165870250Y-92806900D01*
X165870252Y-92806900D01*
X167509750Y-92806900D01*
X167509751Y-92806899D01*
X167524568Y-92803952D01*
X167568229Y-92795268D01*
X167568229Y-92795267D01*
X167568231Y-92795267D01*
X167634552Y-92750952D01*
X167678867Y-92684631D01*
X167678867Y-92684629D01*
X167678868Y-92684629D01*
X167690499Y-92626152D01*
X167690500Y-92626150D01*
X167690500Y-91666647D01*
X170689500Y-91666647D01*
X170689500Y-97106152D01*
X170701131Y-97164629D01*
X170701132Y-97164630D01*
X170745447Y-97230952D01*
X170811769Y-97275267D01*
X170811770Y-97275268D01*
X170870247Y-97286899D01*
X170870250Y-97286900D01*
X170870252Y-97286900D01*
X177109750Y-97286900D01*
X177109751Y-97286899D01*
X177124568Y-97283952D01*
X177168229Y-97275268D01*
X177168229Y-97275267D01*
X177168231Y-97275267D01*
X177234552Y-97230952D01*
X177278867Y-97164631D01*
X177278867Y-97164629D01*
X177278868Y-97164629D01*
X177290499Y-97106152D01*
X177290500Y-97106150D01*
X177290500Y-92835026D01*
X177310185Y-92767987D01*
X177326819Y-92747345D01*
X181475690Y-88598474D01*
X181475691Y-88598472D01*
X181483225Y-88588101D01*
X181516254Y-88559464D01*
X181515404Y-88558312D01*
X181534254Y-88544400D01*
X181632150Y-88472150D01*
X181712793Y-88362882D01*
X181747747Y-88262989D01*
X181757646Y-88234701D01*
X181757646Y-88234699D01*
X181760500Y-88204269D01*
X181760500Y-86895730D01*
X181757646Y-86865300D01*
X181757646Y-86865298D01*
X181712793Y-86737119D01*
X181712792Y-86737117D01*
X181677321Y-86689055D01*
X181632150Y-86627850D01*
X181522882Y-86547207D01*
X181522880Y-86547206D01*
X181394700Y-86502353D01*
X181364270Y-86499500D01*
X181364266Y-86499500D01*
X181355324Y-86499500D01*
X181288285Y-86479815D01*
X181242530Y-86427011D01*
X181232586Y-86357853D01*
X181261611Y-86294297D01*
X181299029Y-86265015D01*
X181417557Y-86204620D01*
X181589459Y-86079727D01*
X181589464Y-86079723D01*
X181739723Y-85929464D01*
X181739727Y-85929459D01*
X181864620Y-85757557D01*
X181961095Y-85568217D01*
X182026757Y-85366129D01*
X182026757Y-85366126D01*
X182037231Y-85300000D01*
X180993012Y-85300000D01*
X181025925Y-85242993D01*
X181060000Y-85115826D01*
X181060000Y-84984174D01*
X181025925Y-84857007D01*
X180993012Y-84800000D01*
X182037231Y-84800000D01*
X182026757Y-84733873D01*
X182026757Y-84733870D01*
X181961095Y-84531782D01*
X181864620Y-84342442D01*
X181739727Y-84170540D01*
X181739723Y-84170535D01*
X181589464Y-84020276D01*
X181589459Y-84020272D01*
X181417557Y-83895379D01*
X181228217Y-83798904D01*
X181026129Y-83733242D01*
X180816246Y-83700000D01*
X180810000Y-83700000D01*
X180810000Y-84616988D01*
X180752993Y-84584075D01*
X180625826Y-84550000D01*
X180494174Y-84550000D01*
X180367007Y-84584075D01*
X180310000Y-84616988D01*
X180310000Y-83700000D01*
X180303754Y-83700000D01*
X180093872Y-83733242D01*
X180093869Y-83733242D01*
X179891782Y-83798904D01*
X179702442Y-83895379D01*
X179530540Y-84020272D01*
X179530535Y-84020276D01*
X179380276Y-84170535D01*
X179380272Y-84170540D01*
X179255379Y-84342442D01*
X179158904Y-84531782D01*
X179093242Y-84733870D01*
X179093242Y-84733873D01*
X179082769Y-84800000D01*
X180126988Y-84800000D01*
X180094075Y-84857007D01*
X180060000Y-84984174D01*
X180060000Y-85115826D01*
X180094075Y-85242993D01*
X180126988Y-85300000D01*
X179082769Y-85300000D01*
X179093242Y-85366126D01*
X179093242Y-85366129D01*
X179158904Y-85568217D01*
X179255379Y-85757557D01*
X179380272Y-85929459D01*
X179380276Y-85929464D01*
X179530535Y-86079723D01*
X179530540Y-86079727D01*
X179702442Y-86204620D01*
X179820971Y-86265015D01*
X179871767Y-86312990D01*
X179888562Y-86380811D01*
X179866024Y-86446946D01*
X179811309Y-86490397D01*
X179764676Y-86499500D01*
X179755730Y-86499500D01*
X179725300Y-86502353D01*
X179725298Y-86502353D01*
X179597119Y-86547206D01*
X179597117Y-86547207D01*
X179487850Y-86627850D01*
X179407207Y-86737117D01*
X179407206Y-86737119D01*
X179362353Y-86865298D01*
X179362353Y-86865300D01*
X179359500Y-86895730D01*
X179359500Y-87267774D01*
X179339815Y-87334813D01*
X179323181Y-87355455D01*
X175229055Y-91449581D01*
X175167732Y-91483066D01*
X175141374Y-91485900D01*
X173798900Y-91485900D01*
X173731861Y-91466215D01*
X173686106Y-91413411D01*
X173674900Y-91361900D01*
X173674900Y-88801969D01*
X173694585Y-88734930D01*
X173747389Y-88689175D01*
X173757925Y-88684934D01*
X173849782Y-88652793D01*
X173959050Y-88572150D01*
X174039693Y-88462882D01*
X174070701Y-88374266D01*
X174084546Y-88334701D01*
X174084546Y-88334699D01*
X174087400Y-88304269D01*
X174087400Y-87295730D01*
X174084546Y-87265300D01*
X174084546Y-87265298D01*
X174039693Y-87137119D01*
X174039692Y-87137117D01*
X174030170Y-87124215D01*
X173959050Y-87027850D01*
X173849782Y-86947207D01*
X173840331Y-86943900D01*
X173757944Y-86915071D01*
X173701169Y-86874349D01*
X173675422Y-86809396D01*
X173674900Y-86798030D01*
X173674900Y-85417188D01*
X173694585Y-85350149D01*
X173742810Y-85308361D01*
X173742163Y-85307137D01*
X173750379Y-85302794D01*
X173750382Y-85302793D01*
X173859650Y-85222150D01*
X173940293Y-85112882D01*
X173962719Y-85048790D01*
X173985146Y-84984701D01*
X173985146Y-84984699D01*
X173988000Y-84954269D01*
X173988000Y-83945730D01*
X173985146Y-83915300D01*
X173985146Y-83915298D01*
X173940293Y-83787119D01*
X173940292Y-83787117D01*
X173859650Y-83677850D01*
X173750382Y-83597207D01*
X173750380Y-83597206D01*
X173622200Y-83552353D01*
X173591770Y-83549500D01*
X173591766Y-83549500D01*
X172958234Y-83549500D01*
X172958230Y-83549500D01*
X172927800Y-83552353D01*
X172927798Y-83552353D01*
X172799619Y-83597206D01*
X172799617Y-83597207D01*
X172690350Y-83677850D01*
X172609707Y-83787117D01*
X172609706Y-83787119D01*
X172564853Y-83915298D01*
X172564853Y-83915300D01*
X172562000Y-83945730D01*
X172562000Y-84954269D01*
X172564853Y-84984699D01*
X172564853Y-84984701D01*
X172609006Y-85110880D01*
X172609707Y-85112882D01*
X172690350Y-85222150D01*
X172799618Y-85302793D01*
X172842345Y-85317744D01*
X172927799Y-85347646D01*
X172961120Y-85350771D01*
X172960979Y-85352264D01*
X173021543Y-85373036D01*
X173064888Y-85427835D01*
X173073900Y-85474245D01*
X173073900Y-86798030D01*
X173054215Y-86865069D01*
X173001411Y-86910824D01*
X172990856Y-86915071D01*
X172899017Y-86947207D01*
X172789750Y-87027850D01*
X172709107Y-87137117D01*
X172709106Y-87137119D01*
X172664253Y-87265298D01*
X172664253Y-87265300D01*
X172661400Y-87295730D01*
X172661400Y-88304269D01*
X172664253Y-88334699D01*
X172664253Y-88334701D01*
X172709106Y-88462880D01*
X172709107Y-88462882D01*
X172789750Y-88572150D01*
X172899018Y-88652793D01*
X172990857Y-88684929D01*
X173047631Y-88725649D01*
X173073378Y-88790602D01*
X173073900Y-88801969D01*
X173073900Y-91361900D01*
X173054215Y-91428939D01*
X173001411Y-91474694D01*
X172949900Y-91485900D01*
X170870247Y-91485900D01*
X170811770Y-91497531D01*
X170811769Y-91497532D01*
X170745447Y-91541847D01*
X170701132Y-91608169D01*
X170701131Y-91608170D01*
X170689500Y-91666647D01*
X167690500Y-91666647D01*
X167690500Y-91586649D01*
X167690499Y-91586647D01*
X167678868Y-91528170D01*
X167678867Y-91528169D01*
X167634552Y-91461847D01*
X167568230Y-91417532D01*
X167568229Y-91417531D01*
X167509752Y-91405900D01*
X167509748Y-91405900D01*
X165870252Y-91405900D01*
X165870247Y-91405900D01*
X165811770Y-91417531D01*
X165811769Y-91417532D01*
X165745447Y-91461847D01*
X165701132Y-91528169D01*
X165701131Y-91528170D01*
X165689500Y-91586647D01*
X165689500Y-91726700D01*
X165669815Y-91793739D01*
X165617011Y-91839494D01*
X165565500Y-91850700D01*
X164353297Y-91850700D01*
X164286258Y-91831015D01*
X164252377Y-91798750D01*
X164249494Y-91794712D01*
X164166785Y-91712003D01*
X164061691Y-91660626D01*
X163993561Y-91650700D01*
X163993560Y-91650700D01*
X163743500Y-91650700D01*
X163676461Y-91631015D01*
X163630706Y-91578211D01*
X163619500Y-91526700D01*
X163619500Y-89018900D01*
X163639185Y-88951861D01*
X163691989Y-88906106D01*
X163743500Y-88894900D01*
X163939761Y-88894900D01*
X163962471Y-88891591D01*
X164007893Y-88884973D01*
X164112983Y-88833598D01*
X164195698Y-88750883D01*
X164195700Y-88750877D01*
X164198577Y-88746850D01*
X164253551Y-88703726D01*
X164299497Y-88694900D01*
X164945160Y-88694900D01*
X164945162Y-88694900D01*
X165021589Y-88674421D01*
X165090111Y-88634860D01*
X165146060Y-88578911D01*
X165588152Y-88136819D01*
X165615079Y-88122115D01*
X165640898Y-88105523D01*
X165647098Y-88104631D01*
X165649475Y-88103334D01*
X165675833Y-88100500D01*
X165890200Y-88100500D01*
X165957239Y-88120185D01*
X166002994Y-88172989D01*
X166014200Y-88224500D01*
X166014200Y-88304269D01*
X166017053Y-88334699D01*
X166017053Y-88334701D01*
X166061906Y-88462880D01*
X166061907Y-88462882D01*
X166142550Y-88572150D01*
X166251818Y-88652793D01*
X166278556Y-88662149D01*
X166379999Y-88697646D01*
X166410430Y-88700500D01*
X166410434Y-88700500D01*
X167043970Y-88700500D01*
X167074399Y-88697646D01*
X167074401Y-88697646D01*
X167151118Y-88670801D01*
X167202582Y-88652793D01*
X167311850Y-88572150D01*
X167392493Y-88462882D01*
X167423501Y-88374266D01*
X167437346Y-88334701D01*
X167437346Y-88334699D01*
X167440200Y-88304269D01*
X167440200Y-87295730D01*
X167437346Y-87265300D01*
X167437346Y-87265298D01*
X167392493Y-87137119D01*
X167392492Y-87137117D01*
X167382970Y-87124215D01*
X167311850Y-87027850D01*
X167202582Y-86947207D01*
X167202580Y-86947206D01*
X167074400Y-86902353D01*
X167043970Y-86899500D01*
X167043966Y-86899500D01*
X166410434Y-86899500D01*
X166410430Y-86899500D01*
X166380000Y-86902353D01*
X166379998Y-86902353D01*
X166251819Y-86947206D01*
X166251817Y-86947207D01*
X166142550Y-87027850D01*
X166061907Y-87137117D01*
X166061906Y-87137119D01*
X166017053Y-87265298D01*
X166017053Y-87265300D01*
X166014200Y-87295730D01*
X166014200Y-87375500D01*
X165994515Y-87442539D01*
X165941711Y-87488294D01*
X165890200Y-87499500D01*
X165460438Y-87499500D01*
X165384010Y-87519978D01*
X165315489Y-87559540D01*
X165315486Y-87559542D01*
X164817448Y-88057581D01*
X164756125Y-88091066D01*
X164729767Y-88093900D01*
X164299497Y-88093900D01*
X164232458Y-88074215D01*
X164198577Y-88041950D01*
X164195694Y-88037912D01*
X164112985Y-87955203D01*
X164007891Y-87903826D01*
X163939761Y-87893900D01*
X163939760Y-87893900D01*
X163130433Y-87893900D01*
X163063394Y-87874215D01*
X163017639Y-87821411D01*
X163007695Y-87752253D01*
X163036720Y-87688697D01*
X163042752Y-87682219D01*
X164198152Y-86526819D01*
X164259475Y-86493334D01*
X164285833Y-86490500D01*
X167949560Y-86490500D01*
X167949562Y-86490500D01*
X168025989Y-86470021D01*
X168094511Y-86430460D01*
X168150460Y-86374511D01*
X168540460Y-85984511D01*
X168556320Y-85957040D01*
X168580021Y-85915989D01*
X168600500Y-85839562D01*
X168600500Y-85449969D01*
X168620185Y-85382930D01*
X168672989Y-85337175D01*
X168683525Y-85332934D01*
X168775382Y-85300793D01*
X168884650Y-85220150D01*
X168965293Y-85110882D01*
X168992157Y-85034108D01*
X169010146Y-84982701D01*
X169010146Y-84982699D01*
X169013000Y-84952269D01*
X169013000Y-83943730D01*
X169010146Y-83913300D01*
X169010146Y-83913298D01*
X168965993Y-83787119D01*
X168965293Y-83785118D01*
X168884650Y-83675850D01*
X168775382Y-83595207D01*
X168775380Y-83595206D01*
X168647200Y-83550353D01*
X168616770Y-83547500D01*
X168616766Y-83547500D01*
X167983234Y-83547500D01*
X167983230Y-83547500D01*
X167952800Y-83550353D01*
X167952798Y-83550353D01*
X167824619Y-83595206D01*
X167824617Y-83595207D01*
X167715350Y-83675850D01*
X167634707Y-83785117D01*
X167634706Y-83785119D01*
X167589853Y-83913298D01*
X167589853Y-83913300D01*
X167587000Y-83943730D01*
X167587000Y-84952269D01*
X167589853Y-84982699D01*
X167589853Y-84982701D01*
X167634706Y-85110880D01*
X167634707Y-85110882D01*
X167715350Y-85220150D01*
X167824618Y-85300793D01*
X167916457Y-85332929D01*
X167935446Y-85346548D01*
X167956703Y-85356256D01*
X167963305Y-85366530D01*
X167973231Y-85373649D01*
X167981843Y-85395375D01*
X167994477Y-85415034D01*
X167997232Y-85434198D01*
X167998978Y-85438602D01*
X167999500Y-85449969D01*
X167999500Y-85624167D01*
X167979815Y-85691206D01*
X167963181Y-85711848D01*
X167821848Y-85853181D01*
X167760525Y-85886666D01*
X167734167Y-85889500D01*
X164070438Y-85889500D01*
X163994011Y-85909979D01*
X163981021Y-85917479D01*
X163967138Y-85925494D01*
X163925492Y-85949537D01*
X163799256Y-86075773D01*
X163737933Y-86109257D01*
X163668241Y-86104273D01*
X163612308Y-86062401D01*
X163587891Y-85996937D01*
X163602743Y-85928664D01*
X163604154Y-85926149D01*
X163610021Y-85915989D01*
X163630500Y-85839562D01*
X163630500Y-84927476D01*
X163650185Y-84860437D01*
X163702092Y-84815095D01*
X163749799Y-84792850D01*
X163827850Y-84714799D01*
X163874499Y-84614760D01*
X163880500Y-84569179D01*
X163880499Y-84270822D01*
X163874499Y-84225240D01*
X163827850Y-84125201D01*
X163784830Y-84082181D01*
X163751345Y-84020858D01*
X163756329Y-83951166D01*
X163798201Y-83895233D01*
X163863665Y-83870816D01*
X163872511Y-83870500D01*
X165421167Y-83870500D01*
X165488206Y-83890185D01*
X165508848Y-83906819D01*
X165725681Y-84123652D01*
X165759166Y-84184975D01*
X165762000Y-84211333D01*
X165762000Y-84952269D01*
X165764853Y-84982699D01*
X165764853Y-84982701D01*
X165809706Y-85110880D01*
X165809707Y-85110882D01*
X165890350Y-85220150D01*
X165999618Y-85300793D01*
X166024367Y-85309453D01*
X166127799Y-85345646D01*
X166158230Y-85348500D01*
X166158234Y-85348500D01*
X166791770Y-85348500D01*
X166822199Y-85345646D01*
X166822201Y-85345646D01*
X166886290Y-85323219D01*
X166950382Y-85300793D01*
X167059650Y-85220150D01*
X167140293Y-85110882D01*
X167167157Y-85034108D01*
X167185146Y-84982701D01*
X167185146Y-84982699D01*
X167188000Y-84952269D01*
X167188000Y-83943730D01*
X167185146Y-83913300D01*
X167185146Y-83913298D01*
X167140993Y-83787119D01*
X167140293Y-83785118D01*
X167059650Y-83675850D01*
X166950382Y-83595207D01*
X166950380Y-83595206D01*
X166822200Y-83550353D01*
X166791770Y-83547500D01*
X166791766Y-83547500D01*
X166158234Y-83547500D01*
X166158230Y-83547500D01*
X166127805Y-83550353D01*
X166127796Y-83550355D01*
X166108386Y-83557146D01*
X166038607Y-83560705D01*
X165979755Y-83527784D01*
X165781512Y-83329541D01*
X165781504Y-83329535D01*
X165712995Y-83289982D01*
X165712990Y-83289979D01*
X165687513Y-83283152D01*
X165636562Y-83269500D01*
X165636560Y-83269500D01*
X162884500Y-83269500D01*
X162817461Y-83249815D01*
X162771706Y-83197011D01*
X162760500Y-83145500D01*
X162760500Y-78954500D01*
X162780185Y-78887461D01*
X162832989Y-78841706D01*
X162884500Y-78830500D01*
X163309750Y-78830500D01*
X163309751Y-78830499D01*
X163324568Y-78827552D01*
X163368229Y-78818868D01*
X163368229Y-78818867D01*
X163368231Y-78818867D01*
X163434552Y-78774552D01*
X163478867Y-78708231D01*
X163478867Y-78708229D01*
X163478868Y-78708229D01*
X163490499Y-78649752D01*
X163490500Y-78649750D01*
X163490500Y-76910249D01*
X163490499Y-76910247D01*
X163478868Y-76851770D01*
X163478867Y-76851769D01*
X163434552Y-76785447D01*
X163368230Y-76741132D01*
X163368229Y-76741131D01*
X163309752Y-76729500D01*
X163309748Y-76729500D01*
X161570252Y-76729500D01*
X161570247Y-76729500D01*
X161511770Y-76741131D01*
X161511769Y-76741132D01*
X161445447Y-76785447D01*
X161401132Y-76851769D01*
X161401131Y-76851770D01*
X161389500Y-76910247D01*
X161389500Y-78649752D01*
X161401131Y-78708229D01*
X161401132Y-78708230D01*
X161445447Y-78774552D01*
X161511769Y-78818867D01*
X161511770Y-78818868D01*
X161570247Y-78830499D01*
X161570250Y-78830500D01*
X161570252Y-78830500D01*
X162035500Y-78830500D01*
X162102539Y-78850185D01*
X162148294Y-78902989D01*
X162159500Y-78954500D01*
X162159500Y-83854167D01*
X162150854Y-83883609D01*
X162144331Y-83913596D01*
X162140577Y-83918610D01*
X162139815Y-83921206D01*
X162123184Y-83941844D01*
X162105553Y-83959476D01*
X162092179Y-83972850D01*
X162030855Y-84006334D01*
X161961164Y-84001348D01*
X161905231Y-83959476D01*
X161880815Y-83894011D01*
X161880499Y-83885191D01*
X161880499Y-83620822D01*
X161874499Y-83575240D01*
X161827850Y-83475201D01*
X161749799Y-83397150D01*
X161702093Y-83374904D01*
X161649656Y-83328732D01*
X161630500Y-83262523D01*
X161630500Y-81770439D01*
X161630500Y-81770438D01*
X161610021Y-81694011D01*
X161610017Y-81694004D01*
X161570464Y-81625495D01*
X161570458Y-81625487D01*
X161284512Y-81339541D01*
X161284507Y-81339537D01*
X161275065Y-81334086D01*
X161275064Y-81334086D01*
X161215991Y-81299980D01*
X161215990Y-81299979D01*
X161190513Y-81293152D01*
X161139562Y-81279500D01*
X161139560Y-81279500D01*
X156968676Y-81279500D01*
X156939235Y-81270855D01*
X156909249Y-81264332D01*
X156904233Y-81260577D01*
X156901637Y-81259815D01*
X156880995Y-81243181D01*
X156846019Y-81208205D01*
X156812534Y-81146882D01*
X156809700Y-81120524D01*
X156809700Y-78895435D01*
X156829385Y-78828396D01*
X156882189Y-78782641D01*
X156886212Y-78780889D01*
X157006798Y-78730941D01*
X157178855Y-78615977D01*
X157325177Y-78469655D01*
X157440141Y-78297598D01*
X157519330Y-78106420D01*
X157559700Y-77903465D01*
X157559700Y-77696535D01*
X157519330Y-77493580D01*
X157440141Y-77302402D01*
X157325177Y-77130345D01*
X157325175Y-77130342D01*
X157178857Y-76984024D01*
X157068448Y-76910252D01*
X157006798Y-76869059D01*
X156958509Y-76849057D01*
X156815620Y-76789870D01*
X156815612Y-76789868D01*
X156612669Y-76749500D01*
X156612665Y-76749500D01*
X156405735Y-76749500D01*
X156405730Y-76749500D01*
X156202787Y-76789868D01*
X156202779Y-76789870D01*
X156011603Y-76869058D01*
X155839542Y-76984024D01*
X155693224Y-77130342D01*
X155578257Y-77302403D01*
X155510035Y-77467108D01*
X155466194Y-77521511D01*
X155399900Y-77543576D01*
X155332200Y-77526297D01*
X155284590Y-77475159D01*
X155277543Y-77457973D01*
X155220295Y-77281782D01*
X155123824Y-77092449D01*
X155084470Y-77038282D01*
X155084469Y-77038282D01*
X154452162Y-77670590D01*
X154435125Y-77607007D01*
X154369299Y-77492993D01*
X154276207Y-77399901D01*
X154162193Y-77334075D01*
X154098609Y-77317037D01*
X154730916Y-76684728D01*
X154676750Y-76645375D01*
X154487417Y-76548904D01*
X154285329Y-76483242D01*
X154075446Y-76450000D01*
X153862954Y-76450000D01*
X153653072Y-76483242D01*
X153653069Y-76483242D01*
X153450982Y-76548904D01*
X153261639Y-76645380D01*
X153207482Y-76684727D01*
X153207482Y-76684728D01*
X153839791Y-77317037D01*
X153776207Y-77334075D01*
X153662193Y-77399901D01*
X153569101Y-77492993D01*
X153503275Y-77607007D01*
X153486237Y-77670591D01*
X152853928Y-77038282D01*
X152853927Y-77038282D01*
X152814580Y-77092439D01*
X152715894Y-77286121D01*
X152714878Y-77285603D01*
X152674412Y-77335813D01*
X152608116Y-77357872D01*
X152540418Y-77340588D01*
X152492812Y-77289447D01*
X152479700Y-77233951D01*
X152479700Y-76930249D01*
X152479699Y-76930247D01*
X152468068Y-76871770D01*
X152468067Y-76871769D01*
X152423752Y-76805447D01*
X152357430Y-76761132D01*
X152357429Y-76761131D01*
X152298952Y-76749500D01*
X152298948Y-76749500D01*
X150559452Y-76749500D01*
X150559447Y-76749500D01*
X150500970Y-76761131D01*
X150500969Y-76761132D01*
X150434647Y-76805447D01*
X150390332Y-76871769D01*
X150390331Y-76871770D01*
X150378700Y-76930247D01*
X150378700Y-77375500D01*
X150359015Y-77442539D01*
X150306211Y-77488294D01*
X150254700Y-77499500D01*
X148930438Y-77499500D01*
X148892224Y-77509739D01*
X148854009Y-77519979D01*
X148854004Y-77519982D01*
X148785495Y-77559535D01*
X148785487Y-77559541D01*
X148429541Y-77915487D01*
X148429535Y-77915495D01*
X148389982Y-77984004D01*
X148389979Y-77984009D01*
X148387572Y-77992993D01*
X148369500Y-78060438D01*
X146450500Y-78060438D01*
X146450500Y-75914500D01*
X146470185Y-75847461D01*
X146522989Y-75801706D01*
X146574500Y-75790500D01*
X164555500Y-75790500D01*
X164622539Y-75810185D01*
X164668294Y-75862989D01*
X164679500Y-75914500D01*
X164679500Y-76684563D01*
X164659815Y-76751602D01*
X164607011Y-76797357D01*
X164602953Y-76799124D01*
X164482404Y-76849057D01*
X164310342Y-76964024D01*
X164164024Y-77110342D01*
X164049058Y-77282403D01*
X163969870Y-77473579D01*
X163969868Y-77473587D01*
X163929500Y-77676530D01*
X163929500Y-77883469D01*
X163969868Y-78086412D01*
X163969870Y-78086420D01*
X164035939Y-78245925D01*
X164049059Y-78277598D01*
X164073301Y-78313879D01*
X164164024Y-78449657D01*
X164310342Y-78595975D01*
X164310345Y-78595977D01*
X164482402Y-78710941D01*
X164602953Y-78760875D01*
X164657356Y-78804714D01*
X164679421Y-78871008D01*
X164679500Y-78875435D01*
X164679500Y-81349562D01*
X164689481Y-81386812D01*
X164699979Y-81425990D01*
X164699982Y-81425995D01*
X164739535Y-81494504D01*
X164739539Y-81494509D01*
X164739540Y-81494511D01*
X164989540Y-81744511D01*
X165045489Y-81800460D01*
X165045491Y-81800461D01*
X165045495Y-81800464D01*
X165062771Y-81810438D01*
X165114011Y-81840021D01*
X165190438Y-81860500D01*
X165269562Y-81860500D01*
X165279562Y-81860500D01*
X169334167Y-81860500D01*
X169363607Y-81869144D01*
X169393594Y-81875668D01*
X169398609Y-81879422D01*
X169401206Y-81880185D01*
X169421848Y-81896819D01*
X169463181Y-81938152D01*
X169496666Y-81999475D01*
X169499500Y-82025833D01*
X169499500Y-87213235D01*
X169479815Y-87280274D01*
X169427011Y-87326029D01*
X169357853Y-87335973D01*
X169294297Y-87306948D01*
X169258459Y-87254190D01*
X169217493Y-87137119D01*
X169217492Y-87137117D01*
X169207970Y-87124215D01*
X169136850Y-87027850D01*
X169027582Y-86947207D01*
X169027580Y-86947206D01*
X168899400Y-86902353D01*
X168868970Y-86899500D01*
X168868966Y-86899500D01*
X168235434Y-86899500D01*
X168235430Y-86899500D01*
X168205000Y-86902353D01*
X168204998Y-86902353D01*
X168076819Y-86947206D01*
X168076817Y-86947207D01*
X167967550Y-87027850D01*
X167886907Y-87137117D01*
X167886906Y-87137119D01*
X167842053Y-87265298D01*
X167842053Y-87265300D01*
X167839200Y-87295730D01*
X167839200Y-88304269D01*
X167842053Y-88334699D01*
X167842053Y-88334701D01*
X167886906Y-88462880D01*
X167886907Y-88462882D01*
X167967550Y-88572150D01*
X168076818Y-88652793D01*
X168103556Y-88662149D01*
X168204999Y-88697646D01*
X168235430Y-88700500D01*
X168235434Y-88700500D01*
X168868970Y-88700500D01*
X168899399Y-88697646D01*
X168899401Y-88697646D01*
X168976118Y-88670801D01*
X169027582Y-88652793D01*
X169136850Y-88572150D01*
X169217493Y-88462882D01*
X169248501Y-88374266D01*
X169262346Y-88334701D01*
X169262346Y-88334699D01*
X169265200Y-88304269D01*
X169265200Y-88224500D01*
X169284885Y-88157461D01*
X169337689Y-88111706D01*
X169389200Y-88100500D01*
X169599560Y-88100500D01*
X169599562Y-88100500D01*
X169675989Y-88080021D01*
X169744511Y-88040460D01*
X169800460Y-87984511D01*
X170040460Y-87744511D01*
X170074899Y-87684860D01*
X170080021Y-87675989D01*
X170100500Y-87599562D01*
X170100500Y-87295730D01*
X170836400Y-87295730D01*
X170836400Y-88304269D01*
X170839253Y-88334699D01*
X170839253Y-88334701D01*
X170884106Y-88462880D01*
X170884107Y-88462882D01*
X170964750Y-88572150D01*
X171074018Y-88652793D01*
X171157969Y-88682168D01*
X171214744Y-88722889D01*
X171240491Y-88787842D01*
X171227035Y-88856403D01*
X171204696Y-88886889D01*
X171148900Y-88942686D01*
X171083008Y-89056812D01*
X171048900Y-89184108D01*
X171048900Y-89315891D01*
X171083008Y-89443187D01*
X171111682Y-89492850D01*
X171148900Y-89557314D01*
X171242086Y-89650500D01*
X171356214Y-89716392D01*
X171483508Y-89750500D01*
X171483510Y-89750500D01*
X171615290Y-89750500D01*
X171615292Y-89750500D01*
X171742586Y-89716392D01*
X171856714Y-89650500D01*
X171949900Y-89557314D01*
X172015792Y-89443186D01*
X172049900Y-89315892D01*
X172049900Y-89184108D01*
X172015792Y-89056814D01*
X171949900Y-88942686D01*
X171894103Y-88886889D01*
X171860620Y-88825566D01*
X171865605Y-88755874D01*
X171907476Y-88699941D01*
X171940825Y-88682170D01*
X172024782Y-88652793D01*
X172134050Y-88572150D01*
X172214693Y-88462882D01*
X172245701Y-88374266D01*
X172259546Y-88334701D01*
X172259546Y-88334699D01*
X172262400Y-88304269D01*
X172262400Y-87295730D01*
X172259546Y-87265300D01*
X172259546Y-87265298D01*
X172214693Y-87137119D01*
X172214692Y-87137117D01*
X172205170Y-87124215D01*
X172134050Y-87027850D01*
X172024782Y-86947207D01*
X172024780Y-86947206D01*
X171896600Y-86902353D01*
X171866170Y-86899500D01*
X171866166Y-86899500D01*
X171232634Y-86899500D01*
X171232630Y-86899500D01*
X171202200Y-86902353D01*
X171202198Y-86902353D01*
X171074019Y-86947206D01*
X171074017Y-86947207D01*
X170964750Y-87027850D01*
X170884107Y-87137117D01*
X170884106Y-87137119D01*
X170839253Y-87265298D01*
X170839253Y-87265300D01*
X170836400Y-87295730D01*
X170100500Y-87295730D01*
X170100500Y-81810438D01*
X170080021Y-81734011D01*
X170056923Y-81694004D01*
X170040464Y-81665495D01*
X170040458Y-81665487D01*
X169694510Y-81319539D01*
X169677570Y-81309759D01*
X169660630Y-81299979D01*
X169660629Y-81299978D01*
X169625994Y-81279981D01*
X169625991Y-81279979D01*
X169587775Y-81269739D01*
X169549562Y-81259500D01*
X169549560Y-81259500D01*
X165405833Y-81259500D01*
X165376392Y-81250855D01*
X165346406Y-81244332D01*
X165341390Y-81240577D01*
X165338794Y-81239815D01*
X165318152Y-81223181D01*
X165316819Y-81221848D01*
X165283334Y-81160525D01*
X165280500Y-81134167D01*
X165280500Y-78875435D01*
X165300185Y-78808396D01*
X165352989Y-78762641D01*
X165357012Y-78760889D01*
X165477598Y-78710941D01*
X165649655Y-78595977D01*
X165795977Y-78449655D01*
X165910941Y-78277598D01*
X165990130Y-78086420D01*
X166030500Y-77883465D01*
X166030500Y-77676535D01*
X165990130Y-77473580D01*
X165910941Y-77282402D01*
X165795977Y-77110345D01*
X165795975Y-77110342D01*
X165649657Y-76964024D01*
X165569173Y-76910247D01*
X170414500Y-76910247D01*
X170414500Y-78649752D01*
X170426131Y-78708229D01*
X170426132Y-78708230D01*
X170470447Y-78774552D01*
X170536769Y-78818867D01*
X170536770Y-78818868D01*
X170595247Y-78830499D01*
X170595250Y-78830500D01*
X170595252Y-78830500D01*
X171040500Y-78830500D01*
X171107539Y-78850185D01*
X171153294Y-78902989D01*
X171164500Y-78954500D01*
X171164500Y-83442781D01*
X171144815Y-83509820D01*
X171092011Y-83555575D01*
X171081456Y-83559822D01*
X170974617Y-83597207D01*
X170865350Y-83677850D01*
X170784707Y-83787117D01*
X170784706Y-83787119D01*
X170739853Y-83915298D01*
X170739853Y-83915300D01*
X170737000Y-83945730D01*
X170737000Y-84954269D01*
X170739853Y-84984699D01*
X170739853Y-84984701D01*
X170784006Y-85110880D01*
X170784707Y-85112882D01*
X170865350Y-85222150D01*
X170974618Y-85302793D01*
X171017345Y-85317744D01*
X171102799Y-85347646D01*
X171133230Y-85350500D01*
X171133234Y-85350500D01*
X171766770Y-85350500D01*
X171797199Y-85347646D01*
X171797201Y-85347646D01*
X171861290Y-85325219D01*
X171925382Y-85302793D01*
X172034650Y-85222150D01*
X172115293Y-85112882D01*
X172137719Y-85048790D01*
X172160146Y-84984701D01*
X172160146Y-84984699D01*
X172163000Y-84954269D01*
X172163000Y-83945730D01*
X172160146Y-83915300D01*
X172160146Y-83915298D01*
X172115293Y-83787119D01*
X172115292Y-83787117D01*
X172034650Y-83677850D01*
X171925382Y-83597207D01*
X171919666Y-83595207D01*
X171848544Y-83570320D01*
X171791769Y-83529598D01*
X171766022Y-83464645D01*
X171765500Y-83453279D01*
X171765500Y-78954500D01*
X171785185Y-78887461D01*
X171837989Y-78841706D01*
X171889500Y-78830500D01*
X172334750Y-78830500D01*
X172334751Y-78830499D01*
X172349568Y-78827552D01*
X172393229Y-78818868D01*
X172393229Y-78818867D01*
X172393231Y-78818867D01*
X172459552Y-78774552D01*
X172503867Y-78708231D01*
X172503867Y-78708229D01*
X172503868Y-78708229D01*
X172515499Y-78649752D01*
X172515500Y-78649750D01*
X172515500Y-78346048D01*
X172535185Y-78279009D01*
X172587989Y-78233254D01*
X172657147Y-78223310D01*
X172720703Y-78252335D01*
X172750938Y-78294264D01*
X172751694Y-78293879D01*
X172850375Y-78487550D01*
X172889728Y-78541716D01*
X173522037Y-77909408D01*
X173539075Y-77972993D01*
X173604901Y-78087007D01*
X173697993Y-78180099D01*
X173812007Y-78245925D01*
X173875590Y-78262962D01*
X173243282Y-78895269D01*
X173243282Y-78895270D01*
X173297449Y-78934624D01*
X173486782Y-79031095D01*
X173688870Y-79096757D01*
X173898754Y-79130000D01*
X174111246Y-79130000D01*
X174321127Y-79096757D01*
X174321130Y-79096757D01*
X174523217Y-79031095D01*
X174712554Y-78934622D01*
X174766716Y-78895270D01*
X174766717Y-78895270D01*
X174134408Y-78262962D01*
X174197993Y-78245925D01*
X174312007Y-78180099D01*
X174405099Y-78087007D01*
X174470925Y-77972993D01*
X174487962Y-77909408D01*
X175120270Y-78541717D01*
X175120270Y-78541716D01*
X175159622Y-78487554D01*
X175256095Y-78298217D01*
X175321757Y-78096130D01*
X175321757Y-78096127D01*
X175355000Y-77886246D01*
X175355000Y-77673753D01*
X175321757Y-77463872D01*
X175321757Y-77463869D01*
X175256095Y-77261782D01*
X175159624Y-77072449D01*
X175120270Y-77018282D01*
X175120269Y-77018282D01*
X174487962Y-77650590D01*
X174470925Y-77587007D01*
X174405099Y-77472993D01*
X174312007Y-77379901D01*
X174197993Y-77314075D01*
X174134409Y-77297037D01*
X174766716Y-76664728D01*
X174712550Y-76625375D01*
X174523217Y-76528904D01*
X174321129Y-76463242D01*
X174111246Y-76430000D01*
X173898754Y-76430000D01*
X173688872Y-76463242D01*
X173688869Y-76463242D01*
X173486782Y-76528904D01*
X173297439Y-76625380D01*
X173243282Y-76664727D01*
X173243282Y-76664728D01*
X173875591Y-77297037D01*
X173812007Y-77314075D01*
X173697993Y-77379901D01*
X173604901Y-77472993D01*
X173539075Y-77587007D01*
X173522037Y-77650591D01*
X172889728Y-77018282D01*
X172889727Y-77018282D01*
X172850380Y-77072439D01*
X172751694Y-77266121D01*
X172750678Y-77265603D01*
X172710212Y-77315813D01*
X172643916Y-77337872D01*
X172576218Y-77320588D01*
X172528612Y-77269447D01*
X172515500Y-77213951D01*
X172515500Y-76910249D01*
X172515499Y-76910247D01*
X172503868Y-76851770D01*
X172503867Y-76851769D01*
X172459552Y-76785447D01*
X172393230Y-76741132D01*
X172393229Y-76741131D01*
X172334752Y-76729500D01*
X172334748Y-76729500D01*
X170595252Y-76729500D01*
X170595247Y-76729500D01*
X170536770Y-76741131D01*
X170536769Y-76741132D01*
X170470447Y-76785447D01*
X170426132Y-76851769D01*
X170426131Y-76851770D01*
X170414500Y-76910247D01*
X165569173Y-76910247D01*
X165477595Y-76849057D01*
X165357047Y-76799124D01*
X165302643Y-76755282D01*
X165280579Y-76688988D01*
X165280500Y-76684563D01*
X165280500Y-75670439D01*
X165280500Y-75670438D01*
X165260021Y-75594011D01*
X165226237Y-75535495D01*
X165220464Y-75525495D01*
X165220458Y-75525487D01*
X164944512Y-75249541D01*
X164944504Y-75249535D01*
X164875995Y-75209982D01*
X164875990Y-75209979D01*
X164850513Y-75203152D01*
X164799562Y-75189500D01*
X146340438Y-75189500D01*
X146302224Y-75199739D01*
X146264009Y-75209979D01*
X146264004Y-75209982D01*
X146195495Y-75249535D01*
X146195487Y-75249541D01*
X145909541Y-75535487D01*
X145909535Y-75535495D01*
X145869982Y-75604004D01*
X145869979Y-75604009D01*
X145849500Y-75680439D01*
X145849500Y-86195983D01*
X145829815Y-86263022D01*
X145777011Y-86308777D01*
X145719353Y-86318971D01*
X145719353Y-86319500D01*
X145716364Y-86319500D01*
X145715787Y-86319602D01*
X145714489Y-86319500D01*
X145714481Y-86319500D01*
X143900523Y-86319500D01*
X143833484Y-86299815D01*
X143787729Y-86247011D01*
X143777785Y-86177853D01*
X143806810Y-86114297D01*
X143812842Y-86107819D01*
X143832315Y-86088345D01*
X143924356Y-85939124D01*
X143924358Y-85939119D01*
X143979505Y-85772697D01*
X143979506Y-85772690D01*
X143989999Y-85669986D01*
X143990000Y-85669973D01*
X143990000Y-85270000D01*
X142923012Y-85270000D01*
X142955925Y-85212993D01*
X142990000Y-85085826D01*
X142990000Y-84954174D01*
X142955925Y-84827007D01*
X142923012Y-84770000D01*
X143989999Y-84770000D01*
X143989999Y-84370028D01*
X143989998Y-84370013D01*
X143979505Y-84267302D01*
X143924358Y-84100880D01*
X143924356Y-84100875D01*
X143832315Y-83951654D01*
X143708345Y-83827684D01*
X143559124Y-83735643D01*
X143559119Y-83735641D01*
X143392697Y-83680494D01*
X143392690Y-83680493D01*
X143289986Y-83670000D01*
X142740000Y-83670000D01*
X142740000Y-84586988D01*
X142682993Y-84554075D01*
X142555826Y-84520000D01*
X142424174Y-84520000D01*
X142297007Y-84554075D01*
X142240000Y-84586988D01*
X142240000Y-83670000D01*
X141690028Y-83670000D01*
X141690012Y-83670001D01*
X141587302Y-83680494D01*
X141420880Y-83735641D01*
X141420875Y-83735643D01*
X141271654Y-83827684D01*
X141147684Y-83951654D01*
X141055643Y-84100875D01*
X141055641Y-84100880D01*
X141000494Y-84267302D01*
X141000493Y-84267309D01*
X140990000Y-84370013D01*
X136737300Y-84370013D01*
X136737300Y-74011700D01*
X136756985Y-73944661D01*
X136809789Y-73898906D01*
X136861300Y-73887700D01*
X186112300Y-73887700D01*
X186179339Y-73907385D01*
G37*
%TD.AperFunction*%
%TD*%
M02*
