%TF.GenerationSoftware,KiCad,Pcbnew,9.0.4*%
%TF.CreationDate,2025-11-06T21:56:25+01:00*%
%TF.ProjectId,pwr_latcher,7077725f-6c61-4746-9368-65722e6b6963,rev?*%
%TF.SameCoordinates,Original*%
%TF.FileFunction,Copper,L1,Top*%
%TF.FilePolarity,Positive*%
%FSLAX46Y46*%
G04 Gerber Fmt 4.6, Leading zero omitted, Abs format (unit mm)*
G04 Created by KiCad (PCBNEW 9.0.4) date 2025-11-06 21:56:25*
%MOMM*%
%LPD*%
G01*
G04 APERTURE LIST*
G04 Aperture macros list*
%AMRoundRect*
0 Rectangle with rounded corners*
0 $1 Rounding radius*
0 $2 $3 $4 $5 $6 $7 $8 $9 X,Y pos of 4 corners*
0 Add a 4 corners polygon primitive as box body*
4,1,4,$2,$3,$4,$5,$6,$7,$8,$9,$2,$3,0*
0 Add four circle primitives for the rounded corners*
1,1,$1+$1,$2,$3*
1,1,$1+$1,$4,$5*
1,1,$1+$1,$6,$7*
1,1,$1+$1,$8,$9*
0 Add four rect primitives between the rounded corners*
20,1,$1+$1,$2,$3,$4,$5,0*
20,1,$1+$1,$4,$5,$6,$7,0*
20,1,$1+$1,$6,$7,$8,$9,0*
20,1,$1+$1,$8,$9,$2,$3,0*%
G04 Aperture macros list end*
%TA.AperFunction,ComponentPad*%
%ADD10R,1.700000X1.700000*%
%TD*%
%TA.AperFunction,ComponentPad*%
%ADD11C,1.700000*%
%TD*%
%TA.AperFunction,ComponentPad*%
%ADD12C,7.000000*%
%TD*%
%TA.AperFunction,SMDPad,CuDef*%
%ADD13RoundRect,0.250000X-0.262500X-0.450000X0.262500X-0.450000X0.262500X0.450000X-0.262500X0.450000X0*%
%TD*%
%TA.AperFunction,ComponentPad*%
%ADD14RoundRect,0.250000X-0.750000X0.600000X-0.750000X-0.600000X0.750000X-0.600000X0.750000X0.600000X0*%
%TD*%
%TA.AperFunction,ComponentPad*%
%ADD15O,2.000000X1.700000*%
%TD*%
%TA.AperFunction,SMDPad,CuDef*%
%ADD16RoundRect,0.150000X-0.587500X-0.150000X0.587500X-0.150000X0.587500X0.150000X-0.587500X0.150000X0*%
%TD*%
%TA.AperFunction,SMDPad,CuDef*%
%ADD17R,1.600000X1.000000*%
%TD*%
%TA.AperFunction,SMDPad,CuDef*%
%ADD18R,6.200000X5.400000*%
%TD*%
%TA.AperFunction,SMDPad,CuDef*%
%ADD19RoundRect,0.112500X-0.237500X0.112500X-0.237500X-0.112500X0.237500X-0.112500X0.237500X0.112500X0*%
%TD*%
%TA.AperFunction,SMDPad,CuDef*%
%ADD20RoundRect,0.250000X0.250000X0.475000X-0.250000X0.475000X-0.250000X-0.475000X0.250000X-0.475000X0*%
%TD*%
%TA.AperFunction,ComponentPad*%
%ADD21RoundRect,0.250000X0.750000X-0.600000X0.750000X0.600000X-0.750000X0.600000X-0.750000X-0.600000X0*%
%TD*%
%TA.AperFunction,SMDPad,CuDef*%
%ADD22RoundRect,0.150000X0.587500X0.150000X-0.587500X0.150000X-0.587500X-0.150000X0.587500X-0.150000X0*%
%TD*%
%TA.AperFunction,ViaPad*%
%ADD23C,0.600000*%
%TD*%
%TA.AperFunction,Conductor*%
%ADD24C,0.200000*%
%TD*%
%TA.AperFunction,Conductor*%
%ADD25C,2.000000*%
%TD*%
G04 APERTURE END LIST*
D10*
%TO.P,J3,1,Pin_1*%
%TO.N,Net-(J3-Pin_1)*%
X162440000Y-77780000D03*
D11*
%TO.P,J3,2,Pin_2*%
%TO.N,+5V*%
X164980000Y-77780000D03*
%TD*%
D12*
%TO.P,H1,1,1*%
%TO.N,GND*%
X140400000Y-77500000D03*
%TD*%
D13*
%TO.P,R3,1*%
%TO.N,Net-(Q1-D)*%
X171549400Y-87800000D03*
%TO.P,R3,2*%
%TO.N,Net-(J2-Pin_1)*%
X173374400Y-87800000D03*
%TD*%
%TO.P,R5,1*%
%TO.N,Net-(Q5-B)*%
X155600000Y-84448000D03*
%TO.P,R5,2*%
%TO.N,Net-(J3-Pin_1)*%
X157425000Y-84448000D03*
%TD*%
%TO.P,R7,1*%
%TO.N,Net-(J5-Pin_1)*%
X171450000Y-84450000D03*
%TO.P,R7,2*%
%TO.N,Net-(J2-Pin_1)*%
X173275000Y-84450000D03*
%TD*%
D14*
%TO.P,J4,1,Pin_1*%
%TO.N,GND*%
X142490000Y-85020000D03*
D15*
%TO.P,J4,2,Pin_2*%
%TO.N,+5V*%
X142490000Y-87520000D03*
%TD*%
D13*
%TO.P,R6,1*%
%TO.N,Net-(J3-Pin_1)*%
X166475000Y-84448000D03*
%TO.P,R6,2*%
%TO.N,Net-(Q3-B)*%
X168300000Y-84448000D03*
%TD*%
D12*
%TO.P,H3,1,1*%
%TO.N,GND*%
X182600000Y-77500000D03*
%TD*%
D13*
%TO.P,R4,1*%
%TO.N,Net-(Q2-D)*%
X166727200Y-87800000D03*
%TO.P,R4,2*%
%TO.N,+5V*%
X168552200Y-87800000D03*
%TD*%
D16*
%TO.P,Q1,1,G*%
%TO.N,Net-(Q1-G)*%
X156062200Y-91216400D03*
%TO.P,Q1,2,S*%
%TO.N,GND*%
X156062200Y-93116400D03*
%TO.P,Q1,3,D*%
%TO.N,Net-(Q1-D)*%
X157937200Y-92166400D03*
%TD*%
D17*
%TO.P,Q4,1*%
%TO.N,Net-(Q2-D)*%
X166690000Y-92106400D03*
D18*
%TO.P,Q4,2*%
%TO.N,Net-(J2-Pin_1)*%
X173990000Y-94386400D03*
D17*
%TO.P,Q4,3*%
%TO.N,+5V*%
X166690000Y-96666400D03*
%TD*%
D12*
%TO.P,H2,1,1*%
%TO.N,GND*%
X140400000Y-95100000D03*
%TD*%
D19*
%TO.P,D1,1,A*%
%TO.N,Net-(D1-A)*%
X161330000Y-83770000D03*
%TO.P,D1,2,NC*%
%TO.N,unconnected-(D1-NC-Pad2)*%
X161330000Y-85070000D03*
%TO.P,D1,3,K*%
%TO.N,Net-(D1-K)*%
X163330000Y-84420000D03*
%TD*%
D20*
%TO.P,C1,1*%
%TO.N,Net-(Q1-G)*%
X152350000Y-89730000D03*
%TO.P,C1,2*%
%TO.N,GND*%
X150450000Y-89730000D03*
%TD*%
D16*
%TO.P,Q3,1,B*%
%TO.N,Net-(Q3-B)*%
X161444000Y-87444400D03*
%TO.P,Q3,2,E*%
%TO.N,GND*%
X161444000Y-89344400D03*
%TO.P,Q3,3,C*%
%TO.N,Net-(Q2-D)*%
X163319000Y-88394400D03*
%TD*%
D21*
%TO.P,J2,1,Pin_1*%
%TO.N,Net-(J2-Pin_1)*%
X180560000Y-87550000D03*
D15*
%TO.P,J2,2,Pin_2*%
%TO.N,GND*%
X180560000Y-85050000D03*
%TD*%
D16*
%TO.P,Q2,1,G*%
%TO.N,Net-(Q1-D)*%
X161497800Y-91201200D03*
%TO.P,Q2,2,S*%
%TO.N,GND*%
X161497800Y-93101200D03*
%TO.P,Q2,3,D*%
%TO.N,Net-(Q2-D)*%
X163372800Y-92151200D03*
%TD*%
D10*
%TO.P,J1,1,Pin_1*%
%TO.N,STATUS*%
X151429200Y-77800000D03*
D11*
%TO.P,J1,2,Pin_2*%
%TO.N,GND*%
X153969200Y-77800000D03*
%TO.P,J1,3,Pin_3*%
%TO.N,Net-(D1-A)*%
X156509200Y-77800000D03*
%TD*%
D12*
%TO.P,H4,1,1*%
%TO.N,GND*%
X182600000Y-95100000D03*
%TD*%
D10*
%TO.P,J5,1,Pin_1*%
%TO.N,Net-(J5-Pin_1)*%
X171465000Y-77780000D03*
D11*
%TO.P,J5,2,Pin_2*%
%TO.N,GND*%
X174005000Y-77780000D03*
%TD*%
D22*
%TO.P,Q5,1,B*%
%TO.N,Net-(Q5-B)*%
X152060000Y-85860000D03*
%TO.P,Q5,2,E*%
%TO.N,GND*%
X152060000Y-83960000D03*
%TO.P,Q5,3,C*%
%TO.N,STATUS*%
X150185000Y-84910000D03*
%TD*%
D13*
%TO.P,R2,1*%
%TO.N,GND*%
X150499900Y-93126000D03*
%TO.P,R2,2*%
%TO.N,Net-(Q1-G)*%
X152324900Y-93126000D03*
%TD*%
%TO.P,R1,1*%
%TO.N,Net-(Q1-G)*%
X155809000Y-87800000D03*
%TO.P,R1,2*%
%TO.N,Net-(D1-K)*%
X157634000Y-87800000D03*
%TD*%
D23*
%TO.N,Net-(Q1-D)*%
X164900000Y-94200000D03*
X171000000Y-89400000D03*
%TD*%
D24*
%TO.N,Net-(Q1-G)*%
X156062200Y-91216400D02*
X154523600Y-91216400D01*
X152350000Y-93100900D02*
X152324900Y-93126000D01*
X154523600Y-91216400D02*
X154210000Y-91530000D01*
X155809000Y-90963200D02*
X155809000Y-87800000D01*
X156062200Y-91216400D02*
X155809000Y-90963200D01*
X152350000Y-89730000D02*
X152350000Y-93100900D01*
X154210000Y-92770000D02*
X153854000Y-93126000D01*
X152430000Y-93020900D02*
X152324900Y-93126000D01*
X154210000Y-91530000D02*
X154210000Y-92770000D01*
X153854000Y-93126000D02*
X152324900Y-93126000D01*
%TO.N,STATUS*%
X149010000Y-84910000D02*
X150185000Y-84910000D01*
X148970000Y-77800000D02*
X148670000Y-78100000D01*
X151429200Y-77800000D02*
X148970000Y-77800000D01*
X148670000Y-84570000D02*
X149010000Y-84910000D01*
X148670000Y-78100000D02*
X148670000Y-84570000D01*
%TO.N,Net-(J2-Pin_1)*%
X173374400Y-87800000D02*
X173374400Y-84549400D01*
X173374400Y-84549400D02*
X173275000Y-84450000D01*
D25*
X180560000Y-87816400D02*
X173990000Y-94386400D01*
D24*
X173374400Y-87800000D02*
X173374400Y-93770800D01*
X173374400Y-93770800D02*
X173951800Y-94348200D01*
D25*
X180560000Y-87550000D02*
X180560000Y-87816400D01*
D24*
X173951800Y-94348200D02*
X173990000Y-94386400D01*
D25*
%TO.N,+5V*%
X148366400Y-96666400D02*
X166690000Y-96666400D01*
D24*
X169560000Y-87800000D02*
X168552200Y-87800000D01*
D25*
X147400000Y-95700000D02*
X148366400Y-96666400D01*
D24*
X146150000Y-75720000D02*
X146150000Y-86990000D01*
X164980000Y-75710000D02*
X164760000Y-75490000D01*
D25*
X145620000Y-87520000D02*
X147400000Y-89300000D01*
X142490000Y-87520000D02*
X145380000Y-87520000D01*
D24*
X146380000Y-75490000D02*
X146150000Y-75720000D01*
X146150000Y-86990000D02*
X145620000Y-87520000D01*
X169800000Y-87560000D02*
X169560000Y-87800000D01*
X164980000Y-77780000D02*
X164980000Y-82630000D01*
X165150000Y-82800000D02*
X169480000Y-82800000D01*
X169480000Y-82800000D02*
X169800000Y-83120000D01*
X164980000Y-77780000D02*
X164980000Y-75710000D01*
X169800000Y-83120000D02*
X169800000Y-87560000D01*
X164760000Y-75490000D02*
X146380000Y-75490000D01*
D25*
X147400000Y-89300000D02*
X147400000Y-95700000D01*
X142490000Y-87520000D02*
X145620000Y-87520000D01*
D24*
X164980000Y-82630000D02*
X165150000Y-82800000D01*
%TO.N,Net-(Q1-D)*%
X160100000Y-92500000D02*
X160100000Y-93900000D01*
X158902400Y-91201200D02*
X157937200Y-92166400D01*
X161200000Y-92200000D02*
X160400000Y-92200000D01*
X161497800Y-91201200D02*
X161497800Y-91902200D01*
X161497800Y-91902200D02*
X161200000Y-92200000D01*
X161497800Y-91201200D02*
X158902400Y-91201200D01*
X160400000Y-92200000D02*
X160100000Y-92500000D01*
X160400000Y-94200000D02*
X164900000Y-94200000D01*
X171549400Y-88850600D02*
X171000000Y-89400000D01*
X171549400Y-87800000D02*
X171549400Y-88850600D01*
X160100000Y-93900000D02*
X160400000Y-94200000D01*
%TO.N,Net-(Q2-D)*%
X163319000Y-88394400D02*
X163319000Y-92097400D01*
X164905600Y-88394400D02*
X165500000Y-87800000D01*
X166690000Y-92106400D02*
X166645200Y-92151200D01*
X163319000Y-88394400D02*
X164905600Y-88394400D01*
X163319000Y-92097400D02*
X163372800Y-92151200D01*
X166645200Y-92151200D02*
X163372800Y-92151200D01*
X165500000Y-87800000D02*
X166727200Y-87800000D01*
%TO.N,Net-(Q3-B)*%
X161444000Y-87444400D02*
X162855600Y-87444400D01*
X162855600Y-87444400D02*
X164110000Y-86190000D01*
X167910000Y-86190000D02*
X168300000Y-85800000D01*
X168300000Y-85800000D02*
X168300000Y-84448000D01*
X164110000Y-86190000D02*
X167910000Y-86190000D01*
%TO.N,Net-(Q5-B)*%
X154282000Y-84448000D02*
X155600000Y-84448000D01*
X153790000Y-85860000D02*
X154050000Y-85600000D01*
X154050000Y-85600000D02*
X154050000Y-84680000D01*
X155598000Y-84450000D02*
X155600000Y-84448000D01*
X152060000Y-85860000D02*
X153790000Y-85860000D01*
X154050000Y-84680000D02*
X154282000Y-84448000D01*
%TO.N,Net-(J3-Pin_1)*%
X165597000Y-83570000D02*
X166475000Y-84448000D01*
X162460000Y-83570000D02*
X165597000Y-83570000D01*
X162460000Y-83570000D02*
X162460000Y-84030000D01*
X162440000Y-83550000D02*
X162440000Y-77780000D01*
X162042000Y-84448000D02*
X157425000Y-84448000D01*
X162460000Y-84030000D02*
X162042000Y-84448000D01*
X157425000Y-84448000D02*
X157573000Y-84300000D01*
X162440000Y-83550000D02*
X162460000Y-83570000D01*
%TO.N,Net-(J5-Pin_1)*%
X171465000Y-77780000D02*
X171465000Y-84435000D01*
X171465000Y-84435000D02*
X171450000Y-84450000D01*
%TO.N,Net-(D1-K)*%
X157634000Y-86266000D02*
X157634000Y-87800000D01*
X163330000Y-85800000D02*
X163180000Y-85950000D01*
X163330000Y-84420000D02*
X163330000Y-85800000D01*
X163180000Y-85950000D02*
X157950000Y-85950000D01*
X157950000Y-85950000D02*
X157634000Y-86266000D01*
%TO.N,Net-(D1-A)*%
X161330000Y-83770000D02*
X158960000Y-83770000D01*
X158790000Y-82870000D02*
X158610000Y-82690000D01*
X156780000Y-82690000D02*
X156509200Y-82419200D01*
X158790000Y-83600000D02*
X158790000Y-82870000D01*
X156509200Y-82419200D02*
X156509200Y-77800000D01*
X158960000Y-83770000D02*
X158790000Y-83600000D01*
X158610000Y-82690000D02*
X156780000Y-82690000D01*
%TD*%
%TA.AperFunction,Conductor*%
%TO.N,GND*%
G36*
X186179339Y-73907385D02*
G01*
X186225094Y-73960189D01*
X186236300Y-74011700D01*
X186236300Y-98662700D01*
X186216615Y-98729739D01*
X186163811Y-98775494D01*
X186112300Y-98786700D01*
X136861300Y-98786700D01*
X136794261Y-98767015D01*
X136748506Y-98714211D01*
X136737300Y-98662700D01*
X136737300Y-84370013D01*
X140990000Y-84370013D01*
X140990000Y-84770000D01*
X142056988Y-84770000D01*
X142024075Y-84827007D01*
X141990000Y-84954174D01*
X141990000Y-85085826D01*
X142024075Y-85212993D01*
X142056988Y-85270000D01*
X140990001Y-85270000D01*
X140990001Y-85669986D01*
X141000494Y-85772697D01*
X141055641Y-85939119D01*
X141055643Y-85939124D01*
X141147684Y-86088345D01*
X141271654Y-86212315D01*
X141420875Y-86304356D01*
X141420880Y-86304358D01*
X141587302Y-86359505D01*
X141587310Y-86359506D01*
X141665699Y-86367515D01*
X141730391Y-86393911D01*
X141770543Y-86451092D01*
X141773406Y-86520903D01*
X141738072Y-86581179D01*
X141725986Y-86591188D01*
X141707933Y-86604305D01*
X141707924Y-86604312D01*
X141574312Y-86737924D01*
X141574312Y-86737925D01*
X141574310Y-86737927D01*
X141530642Y-86798030D01*
X141463240Y-86890800D01*
X141377454Y-87059165D01*
X141319059Y-87238884D01*
X141296865Y-87379010D01*
X141296010Y-87383797D01*
X141289500Y-87416529D01*
X141289500Y-87623467D01*
X141296011Y-87656205D01*
X141296866Y-87660994D01*
X141319023Y-87800885D01*
X141319060Y-87801118D01*
X141377453Y-87980832D01*
X141463240Y-88149199D01*
X141574310Y-88302073D01*
X141707927Y-88435690D01*
X141860801Y-88546760D01*
X141910630Y-88572149D01*
X142029163Y-88632545D01*
X142029165Y-88632545D01*
X142029168Y-88632547D01*
X142108898Y-88658453D01*
X142208881Y-88690940D01*
X142395514Y-88720500D01*
X142395519Y-88720500D01*
X145071374Y-88720500D01*
X145138413Y-88740185D01*
X145159055Y-88756819D01*
X146163181Y-89760945D01*
X146196666Y-89822268D01*
X146199500Y-89848626D01*
X146199500Y-95794486D01*
X146229059Y-95981118D01*
X146287454Y-96160836D01*
X146373240Y-96329199D01*
X146484310Y-96482074D01*
X147584326Y-97582090D01*
X147737201Y-97693160D01*
X147781776Y-97715872D01*
X147905563Y-97778945D01*
X147905565Y-97778945D01*
X147905568Y-97778947D01*
X147998547Y-97809158D01*
X148085281Y-97837340D01*
X148271914Y-97866900D01*
X148271919Y-97866900D01*
X166784486Y-97866900D01*
X166971118Y-97837340D01*
X167150832Y-97778947D01*
X167319199Y-97693160D01*
X167472073Y-97582090D01*
X167605690Y-97448473D01*
X167716760Y-97295599D01*
X167802547Y-97127232D01*
X167860940Y-96947518D01*
X167890500Y-96760886D01*
X167890500Y-96571913D01*
X167860940Y-96385281D01*
X167802545Y-96205563D01*
X167716759Y-96037200D01*
X167605690Y-95884327D01*
X167472073Y-95750710D01*
X167319199Y-95639640D01*
X167252233Y-95605519D01*
X167150836Y-95553854D01*
X166971118Y-95495459D01*
X166784486Y-95465900D01*
X166784481Y-95465900D01*
X148915026Y-95465900D01*
X148847987Y-95446215D01*
X148827345Y-95429581D01*
X148636819Y-95239055D01*
X148603334Y-95177732D01*
X148600500Y-95151374D01*
X148600500Y-93625986D01*
X149487401Y-93625986D01*
X149497894Y-93728697D01*
X149553041Y-93895119D01*
X149553043Y-93895124D01*
X149645084Y-94044345D01*
X149769054Y-94168315D01*
X149918275Y-94260356D01*
X149918280Y-94260358D01*
X150084702Y-94315505D01*
X150084709Y-94315506D01*
X150187419Y-94325999D01*
X150249899Y-94325998D01*
X150249900Y-94325998D01*
X150249900Y-93376000D01*
X149487401Y-93376000D01*
X149487401Y-93625986D01*
X148600500Y-93625986D01*
X148600500Y-92626013D01*
X149487400Y-92626013D01*
X149487400Y-92876000D01*
X150249900Y-92876000D01*
X150249900Y-91926000D01*
X150249899Y-91925999D01*
X150187428Y-91926000D01*
X150187411Y-91926001D01*
X150084702Y-91936494D01*
X149918280Y-91991641D01*
X149918275Y-91991643D01*
X149769054Y-92083684D01*
X149645084Y-92207654D01*
X149553043Y-92356875D01*
X149553041Y-92356880D01*
X149497894Y-92523302D01*
X149497893Y-92523309D01*
X149487400Y-92626013D01*
X148600500Y-92626013D01*
X148600500Y-90254986D01*
X149450001Y-90254986D01*
X149460494Y-90357697D01*
X149515641Y-90524119D01*
X149515643Y-90524124D01*
X149607684Y-90673345D01*
X149731654Y-90797315D01*
X149880875Y-90889356D01*
X149880880Y-90889358D01*
X150047302Y-90944505D01*
X150047309Y-90944506D01*
X150150019Y-90954999D01*
X150199999Y-90954998D01*
X150200000Y-90954998D01*
X150200000Y-89980000D01*
X149450001Y-89980000D01*
X149450001Y-90254986D01*
X148600500Y-90254986D01*
X148600500Y-89210975D01*
X148600500Y-89205519D01*
X148600420Y-89205013D01*
X149450000Y-89205013D01*
X149450000Y-89480000D01*
X150200000Y-89480000D01*
X150200000Y-88505000D01*
X150700000Y-88505000D01*
X150700000Y-90954999D01*
X150749972Y-90954999D01*
X150749986Y-90954998D01*
X150852697Y-90944505D01*
X151019119Y-90889358D01*
X151019124Y-90889356D01*
X151168345Y-90797315D01*
X151292315Y-90673345D01*
X151384356Y-90524124D01*
X151384359Y-90524117D01*
X151440094Y-90355918D01*
X151479866Y-90298473D01*
X151544382Y-90271649D01*
X151613158Y-90283964D01*
X151664358Y-90331506D01*
X151674841Y-90353965D01*
X151676147Y-90357697D01*
X151697207Y-90417882D01*
X151777850Y-90527150D01*
X151887118Y-90607793D01*
X151966458Y-90635555D01*
X152023231Y-90676275D01*
X152048978Y-90741228D01*
X152049500Y-90752595D01*
X152049500Y-92115247D01*
X152029815Y-92182286D01*
X151977011Y-92228041D01*
X151966456Y-92232288D01*
X151849517Y-92273207D01*
X151740250Y-92353850D01*
X151679176Y-92436602D01*
X151623528Y-92478853D01*
X151553872Y-92484311D01*
X151492323Y-92451243D01*
X151461700Y-92401972D01*
X151446758Y-92356880D01*
X151446756Y-92356875D01*
X151354715Y-92207654D01*
X151230745Y-92083684D01*
X151081524Y-91991643D01*
X151081519Y-91991641D01*
X150915097Y-91936494D01*
X150915090Y-91936493D01*
X150812386Y-91926000D01*
X150749900Y-91926000D01*
X150749900Y-94325999D01*
X150812372Y-94325999D01*
X150812386Y-94325998D01*
X150915097Y-94315505D01*
X151081519Y-94260358D01*
X151081524Y-94260356D01*
X151230745Y-94168315D01*
X151354715Y-94044345D01*
X151446756Y-93895124D01*
X151446759Y-93895117D01*
X151461700Y-93850028D01*
X151501472Y-93792583D01*
X151565987Y-93765759D01*
X151634763Y-93778073D01*
X151679175Y-93815396D01*
X151740250Y-93898150D01*
X151849518Y-93978793D01*
X151892245Y-93993744D01*
X151977699Y-94023646D01*
X152008130Y-94026500D01*
X152008134Y-94026500D01*
X152641670Y-94026500D01*
X152672099Y-94023646D01*
X152672101Y-94023646D01*
X152736190Y-94001219D01*
X152800282Y-93978793D01*
X152909550Y-93898150D01*
X152990193Y-93788882D01*
X153023290Y-93694297D01*
X153035046Y-93660701D01*
X153035046Y-93660699D01*
X153037900Y-93630269D01*
X153037900Y-93550500D01*
X153057585Y-93483461D01*
X153110389Y-93437706D01*
X153161900Y-93426500D01*
X153893560Y-93426500D01*
X153893562Y-93426500D01*
X153969989Y-93406021D01*
X154038511Y-93366460D01*
X154038570Y-93366401D01*
X154827404Y-93366401D01*
X154827599Y-93368886D01*
X154873418Y-93526598D01*
X154957014Y-93667952D01*
X154957021Y-93667961D01*
X155073138Y-93784078D01*
X155073147Y-93784085D01*
X155214503Y-93867682D01*
X155214506Y-93867683D01*
X155372204Y-93913499D01*
X155372210Y-93913500D01*
X155409050Y-93916399D01*
X155409066Y-93916400D01*
X155812200Y-93916400D01*
X156312200Y-93916400D01*
X156715334Y-93916400D01*
X156715349Y-93916399D01*
X156752189Y-93913500D01*
X156752195Y-93913499D01*
X156909893Y-93867683D01*
X156909896Y-93867682D01*
X157051252Y-93784085D01*
X157051261Y-93784078D01*
X157167378Y-93667961D01*
X157167385Y-93667952D01*
X157250981Y-93526598D01*
X157296800Y-93368886D01*
X157296995Y-93366401D01*
X157296995Y-93366400D01*
X156312200Y-93366400D01*
X156312200Y-93916400D01*
X155812200Y-93916400D01*
X155812200Y-93366400D01*
X154827405Y-93366400D01*
X154827404Y-93366401D01*
X154038570Y-93366401D01*
X154094460Y-93310511D01*
X154450460Y-92954511D01*
X154457978Y-92941489D01*
X154490021Y-92885989D01*
X154495271Y-92866398D01*
X154827404Y-92866398D01*
X154827405Y-92866400D01*
X155812200Y-92866400D01*
X155812200Y-92316400D01*
X155409050Y-92316400D01*
X155372210Y-92319299D01*
X155372204Y-92319300D01*
X155214506Y-92365116D01*
X155214503Y-92365117D01*
X155073147Y-92448714D01*
X155073138Y-92448721D01*
X154957021Y-92564838D01*
X154957014Y-92564847D01*
X154873418Y-92706201D01*
X154827599Y-92863913D01*
X154827404Y-92866398D01*
X154495271Y-92866398D01*
X154510500Y-92809562D01*
X154510500Y-91705833D01*
X154519144Y-91676392D01*
X154525668Y-91646406D01*
X154529422Y-91641390D01*
X154530185Y-91638794D01*
X154546819Y-91618152D01*
X154611752Y-91553219D01*
X154673075Y-91519734D01*
X154699433Y-91516900D01*
X155081703Y-91516900D01*
X155148742Y-91536585D01*
X155182623Y-91568850D01*
X155185505Y-91572887D01*
X155268214Y-91655596D01*
X155268215Y-91655596D01*
X155268217Y-91655598D01*
X155373307Y-91706973D01*
X155402504Y-91711227D01*
X155441439Y-91716900D01*
X155441440Y-91716900D01*
X156682961Y-91716900D01*
X156716570Y-91712003D01*
X156751093Y-91706973D01*
X156856183Y-91655598D01*
X156938898Y-91572883D01*
X156990273Y-91467793D01*
X157000200Y-91399660D01*
X157000200Y-91033140D01*
X156990273Y-90965007D01*
X156938898Y-90859917D01*
X156938896Y-90859915D01*
X156938896Y-90859914D01*
X156856185Y-90777203D01*
X156751091Y-90725826D01*
X156682961Y-90715900D01*
X156682960Y-90715900D01*
X156233500Y-90715900D01*
X156166461Y-90696215D01*
X156120706Y-90643411D01*
X156109500Y-90591900D01*
X156109500Y-89594401D01*
X160209204Y-89594401D01*
X160209399Y-89596886D01*
X160255218Y-89754598D01*
X160338814Y-89895952D01*
X160338821Y-89895961D01*
X160454938Y-90012078D01*
X160454947Y-90012085D01*
X160596303Y-90095682D01*
X160596306Y-90095683D01*
X160754004Y-90141499D01*
X160754010Y-90141500D01*
X160790850Y-90144399D01*
X160790866Y-90144400D01*
X161194000Y-90144400D01*
X161694000Y-90144400D01*
X162097134Y-90144400D01*
X162097149Y-90144399D01*
X162133989Y-90141500D01*
X162133995Y-90141499D01*
X162291693Y-90095683D01*
X162291696Y-90095682D01*
X162433052Y-90012085D01*
X162433061Y-90012078D01*
X162549178Y-89895961D01*
X162549185Y-89895952D01*
X162632781Y-89754598D01*
X162678600Y-89596886D01*
X162678795Y-89594401D01*
X162678795Y-89594400D01*
X161694000Y-89594400D01*
X161694000Y-90144400D01*
X161194000Y-90144400D01*
X161194000Y-89594400D01*
X160209205Y-89594400D01*
X160209204Y-89594401D01*
X156109500Y-89594401D01*
X156109500Y-89094398D01*
X160209204Y-89094398D01*
X160209205Y-89094400D01*
X161194000Y-89094400D01*
X161194000Y-88544400D01*
X160790850Y-88544400D01*
X160754010Y-88547299D01*
X160754004Y-88547300D01*
X160596306Y-88593116D01*
X160596303Y-88593117D01*
X160454947Y-88676714D01*
X160454938Y-88676721D01*
X160338821Y-88792838D01*
X160338814Y-88792847D01*
X160255218Y-88934201D01*
X160209399Y-89091913D01*
X160209204Y-89094398D01*
X156109500Y-89094398D01*
X156109500Y-88801969D01*
X156129185Y-88734930D01*
X156181989Y-88689175D01*
X156192525Y-88684934D01*
X156284382Y-88652793D01*
X156393650Y-88572150D01*
X156474293Y-88462882D01*
X156496719Y-88398790D01*
X156519146Y-88334701D01*
X156519146Y-88334699D01*
X156522000Y-88304269D01*
X156522000Y-87295730D01*
X156519146Y-87265300D01*
X156519146Y-87265298D01*
X156474293Y-87137119D01*
X156474292Y-87137117D01*
X156464770Y-87124215D01*
X156393650Y-87027850D01*
X156284382Y-86947207D01*
X156284380Y-86947206D01*
X156156200Y-86902353D01*
X156125770Y-86899500D01*
X156125766Y-86899500D01*
X155492234Y-86899500D01*
X155492230Y-86899500D01*
X155461800Y-86902353D01*
X155461798Y-86902353D01*
X155333619Y-86947206D01*
X155333617Y-86947207D01*
X155224350Y-87027850D01*
X155143707Y-87137117D01*
X155143706Y-87137119D01*
X155098853Y-87265298D01*
X155098853Y-87265300D01*
X155096000Y-87295730D01*
X155096000Y-88304269D01*
X155098853Y-88334699D01*
X155098853Y-88334701D01*
X155143706Y-88462880D01*
X155143707Y-88462882D01*
X155224350Y-88572150D01*
X155333618Y-88652793D01*
X155425457Y-88684929D01*
X155482231Y-88725649D01*
X155507978Y-88790602D01*
X155508500Y-88801969D01*
X155508500Y-90598887D01*
X155488815Y-90665926D01*
X155436011Y-90711681D01*
X155402378Y-90721591D01*
X155373308Y-90725826D01*
X155268214Y-90777203D01*
X155185505Y-90859912D01*
X155182623Y-90863950D01*
X155127649Y-90907074D01*
X155081703Y-90915900D01*
X154484038Y-90915900D01*
X154453467Y-90924091D01*
X154407608Y-90936379D01*
X154407607Y-90936380D01*
X154358027Y-90965006D01*
X154358026Y-90965007D01*
X154339090Y-90975939D01*
X154339087Y-90975941D01*
X153969541Y-91345487D01*
X153969535Y-91345495D01*
X153929982Y-91414004D01*
X153929979Y-91414009D01*
X153929035Y-91417533D01*
X153911476Y-91483066D01*
X153909500Y-91490439D01*
X153909500Y-92594167D01*
X153900855Y-92623607D01*
X153894332Y-92653594D01*
X153890577Y-92658609D01*
X153889815Y-92661206D01*
X153873181Y-92681848D01*
X153765848Y-92789181D01*
X153704525Y-92822666D01*
X153678167Y-92825500D01*
X153161900Y-92825500D01*
X153094861Y-92805815D01*
X153049106Y-92753011D01*
X153037900Y-92701500D01*
X153037900Y-92621730D01*
X153035046Y-92591300D01*
X153035046Y-92591298D01*
X152997609Y-92484311D01*
X152990193Y-92463118D01*
X152909550Y-92353850D01*
X152800282Y-92273207D01*
X152733544Y-92249854D01*
X152676769Y-92209132D01*
X152651022Y-92144179D01*
X152650500Y-92132813D01*
X152650500Y-90752595D01*
X152670185Y-90685556D01*
X152722989Y-90639801D01*
X152733523Y-90635561D01*
X152812882Y-90607793D01*
X152922150Y-90527150D01*
X153002793Y-90417882D01*
X153044576Y-90298473D01*
X153047646Y-90289701D01*
X153047646Y-90289699D01*
X153050500Y-90259269D01*
X153050500Y-89200730D01*
X153047646Y-89170300D01*
X153047646Y-89170298D01*
X153002793Y-89042119D01*
X153002792Y-89042117D01*
X152997622Y-89035112D01*
X152922150Y-88932850D01*
X152812882Y-88852207D01*
X152812880Y-88852206D01*
X152684700Y-88807353D01*
X152654270Y-88804500D01*
X152654266Y-88804500D01*
X152045734Y-88804500D01*
X152045730Y-88804500D01*
X152015300Y-88807353D01*
X152015298Y-88807353D01*
X151887119Y-88852206D01*
X151887117Y-88852207D01*
X151777850Y-88932850D01*
X151697207Y-89042117D01*
X151674842Y-89106033D01*
X151634120Y-89162808D01*
X151569167Y-89188555D01*
X151500605Y-89175098D01*
X151450203Y-89126711D01*
X151440095Y-89104081D01*
X151384358Y-88935880D01*
X151384356Y-88935875D01*
X151292315Y-88786654D01*
X151168345Y-88662684D01*
X151019124Y-88570643D01*
X151019119Y-88570641D01*
X150852697Y-88515494D01*
X150852690Y-88515493D01*
X150749986Y-88505000D01*
X150700000Y-88505000D01*
X150200000Y-88505000D01*
X150199999Y-88504999D01*
X150150029Y-88505000D01*
X150150011Y-88505001D01*
X150047302Y-88515494D01*
X149880880Y-88570641D01*
X149880875Y-88570643D01*
X149731654Y-88662684D01*
X149607684Y-88786654D01*
X149515643Y-88935875D01*
X149515641Y-88935880D01*
X149460494Y-89102302D01*
X149460493Y-89102309D01*
X149450000Y-89205013D01*
X148600420Y-89205013D01*
X148588637Y-89130621D01*
X148570940Y-89018882D01*
X148512547Y-88839168D01*
X148512545Y-88839165D01*
X148512545Y-88839163D01*
X148459435Y-88734930D01*
X148426760Y-88670801D01*
X148315690Y-88517926D01*
X146486819Y-86689055D01*
X146453334Y-86627732D01*
X146450500Y-86601374D01*
X146450500Y-85676739D01*
X151122000Y-85676739D01*
X151122000Y-86043260D01*
X151131926Y-86111391D01*
X151183303Y-86216485D01*
X151266014Y-86299196D01*
X151266015Y-86299196D01*
X151266017Y-86299198D01*
X151371107Y-86350573D01*
X151395671Y-86354152D01*
X151439239Y-86360500D01*
X151439240Y-86360500D01*
X152680761Y-86360500D01*
X152703471Y-86357191D01*
X152748893Y-86350573D01*
X152853983Y-86299198D01*
X152936698Y-86216483D01*
X152936700Y-86216477D01*
X152939577Y-86212450D01*
X152994551Y-86169326D01*
X153040497Y-86160500D01*
X153829560Y-86160500D01*
X153829562Y-86160500D01*
X153905989Y-86140021D01*
X153974511Y-86100460D01*
X154030460Y-86044511D01*
X154290460Y-85784511D01*
X154330022Y-85715988D01*
X154350500Y-85639562D01*
X154350500Y-85560438D01*
X154350500Y-84872500D01*
X154370185Y-84805461D01*
X154422989Y-84759706D01*
X154474500Y-84748500D01*
X154763000Y-84748500D01*
X154830039Y-84768185D01*
X154875794Y-84820989D01*
X154887000Y-84872500D01*
X154887000Y-84952269D01*
X154889853Y-84982699D01*
X154889853Y-84982701D01*
X154934706Y-85110880D01*
X154934707Y-85110882D01*
X155015350Y-85220150D01*
X155124618Y-85300793D01*
X155167345Y-85315744D01*
X155252799Y-85345646D01*
X155283230Y-85348500D01*
X155283234Y-85348500D01*
X155916770Y-85348500D01*
X155947199Y-85345646D01*
X155947201Y-85345646D01*
X156011290Y-85323219D01*
X156075382Y-85300793D01*
X156184650Y-85220150D01*
X156265293Y-85110882D01*
X156287719Y-85046790D01*
X156310146Y-84982701D01*
X156310146Y-84982699D01*
X156313000Y-84952269D01*
X156313000Y-83943730D01*
X156310146Y-83913300D01*
X156310146Y-83913298D01*
X156265993Y-83787119D01*
X156265293Y-83785118D01*
X156184650Y-83675850D01*
X156075382Y-83595207D01*
X156075380Y-83595206D01*
X155947200Y-83550353D01*
X155916770Y-83547500D01*
X155916766Y-83547500D01*
X155283234Y-83547500D01*
X155283230Y-83547500D01*
X155252800Y-83550353D01*
X155252798Y-83550353D01*
X155124619Y-83595206D01*
X155124617Y-83595207D01*
X155015350Y-83675850D01*
X154934707Y-83785117D01*
X154934706Y-83785119D01*
X154889853Y-83913298D01*
X154889853Y-83913300D01*
X154887000Y-83943730D01*
X154887000Y-84023500D01*
X154867315Y-84090539D01*
X154814511Y-84136294D01*
X154763000Y-84147500D01*
X154242438Y-84147500D01*
X154166010Y-84167978D01*
X154097489Y-84207540D01*
X154097486Y-84207542D01*
X153809541Y-84495487D01*
X153809535Y-84495495D01*
X153769982Y-84564004D01*
X153769979Y-84564009D01*
X153749500Y-84640439D01*
X153749500Y-85424167D01*
X153740855Y-85453607D01*
X153734332Y-85483594D01*
X153730577Y-85488609D01*
X153729815Y-85491206D01*
X153713181Y-85511848D01*
X153701848Y-85523181D01*
X153640525Y-85556666D01*
X153614167Y-85559500D01*
X153040497Y-85559500D01*
X152973458Y-85539815D01*
X152939577Y-85507550D01*
X152936694Y-85503512D01*
X152853985Y-85420803D01*
X152748891Y-85369426D01*
X152680761Y-85359500D01*
X152680760Y-85359500D01*
X151439240Y-85359500D01*
X151439239Y-85359500D01*
X151371108Y-85369426D01*
X151266014Y-85420803D01*
X151183303Y-85503514D01*
X151131926Y-85608608D01*
X151122000Y-85676739D01*
X146450500Y-85676739D01*
X146450500Y-75914500D01*
X146470185Y-75847461D01*
X146522989Y-75801706D01*
X146574500Y-75790500D01*
X164555500Y-75790500D01*
X164622539Y-75810185D01*
X164668294Y-75862989D01*
X164679500Y-75914500D01*
X164679500Y-76684563D01*
X164659815Y-76751602D01*
X164607011Y-76797357D01*
X164602953Y-76799124D01*
X164482404Y-76849057D01*
X164310342Y-76964024D01*
X164164024Y-77110342D01*
X164049058Y-77282403D01*
X163969870Y-77473579D01*
X163969868Y-77473587D01*
X163929500Y-77676530D01*
X163929500Y-77883469D01*
X163969868Y-78086412D01*
X163969870Y-78086420D01*
X164035939Y-78245925D01*
X164049059Y-78277598D01*
X164073301Y-78313879D01*
X164164024Y-78449657D01*
X164310342Y-78595975D01*
X164310345Y-78595977D01*
X164482402Y-78710941D01*
X164602953Y-78760875D01*
X164657356Y-78804714D01*
X164679421Y-78871008D01*
X164679500Y-78875435D01*
X164679500Y-82669562D01*
X164699979Y-82745989D01*
X164734615Y-82805982D01*
X164739541Y-82814512D01*
X164739541Y-82814513D01*
X164855487Y-82930458D01*
X164909540Y-82984511D01*
X164965489Y-83040460D01*
X164974022Y-83045386D01*
X164984597Y-83055381D01*
X164995165Y-83073502D01*
X165009640Y-83088683D01*
X165012413Y-83103074D01*
X165019798Y-83115736D01*
X165018891Y-83136693D01*
X165022861Y-83157291D01*
X165017413Y-83170898D01*
X165016780Y-83185540D01*
X165004688Y-83202679D01*
X164996891Y-83222155D01*
X164984951Y-83230656D01*
X164976503Y-83242632D01*
X164957064Y-83250513D01*
X164939976Y-83262681D01*
X164917898Y-83266393D01*
X164911753Y-83268885D01*
X164907660Y-83268114D01*
X164899423Y-83269500D01*
X162864500Y-83269500D01*
X162797461Y-83249815D01*
X162751706Y-83197011D01*
X162740500Y-83145500D01*
X162740500Y-78954500D01*
X162760185Y-78887461D01*
X162812989Y-78841706D01*
X162864500Y-78830500D01*
X163309750Y-78830500D01*
X163309751Y-78830499D01*
X163324568Y-78827552D01*
X163368229Y-78818868D01*
X163368229Y-78818867D01*
X163368231Y-78818867D01*
X163434552Y-78774552D01*
X163478867Y-78708231D01*
X163478867Y-78708229D01*
X163478868Y-78708229D01*
X163490499Y-78649752D01*
X163490500Y-78649750D01*
X163490500Y-76910249D01*
X163490499Y-76910247D01*
X163478868Y-76851770D01*
X163478867Y-76851769D01*
X163434552Y-76785447D01*
X163368230Y-76741132D01*
X163368229Y-76741131D01*
X163309752Y-76729500D01*
X163309748Y-76729500D01*
X161570252Y-76729500D01*
X161570247Y-76729500D01*
X161511770Y-76741131D01*
X161511769Y-76741132D01*
X161445447Y-76785447D01*
X161401132Y-76851769D01*
X161401131Y-76851770D01*
X161389500Y-76910247D01*
X161389500Y-78649752D01*
X161401131Y-78708229D01*
X161401132Y-78708230D01*
X161445447Y-78774552D01*
X161511769Y-78818867D01*
X161511770Y-78818868D01*
X161570247Y-78830499D01*
X161570250Y-78830500D01*
X161570252Y-78830500D01*
X162015500Y-78830500D01*
X162082539Y-78850185D01*
X162128294Y-78902989D01*
X162139500Y-78954500D01*
X162139500Y-83589562D01*
X162152897Y-83639560D01*
X162155275Y-83648433D01*
X162159500Y-83680527D01*
X162159500Y-83854167D01*
X162139815Y-83921206D01*
X162123184Y-83941844D01*
X162105553Y-83959476D01*
X162092179Y-83972850D01*
X162030855Y-84006334D01*
X161961164Y-84001348D01*
X161905231Y-83959476D01*
X161880815Y-83894011D01*
X161880499Y-83885191D01*
X161880499Y-83620822D01*
X161874499Y-83575240D01*
X161827850Y-83475201D01*
X161749799Y-83397150D01*
X161649760Y-83350501D01*
X161649758Y-83350500D01*
X161604188Y-83344501D01*
X161604185Y-83344500D01*
X161604179Y-83344500D01*
X161604172Y-83344500D01*
X161055819Y-83344500D01*
X161010243Y-83350500D01*
X161010236Y-83350502D01*
X160910200Y-83397150D01*
X160874170Y-83433181D01*
X160812847Y-83466666D01*
X160786489Y-83469500D01*
X159214500Y-83469500D01*
X159147461Y-83449815D01*
X159101706Y-83397011D01*
X159090500Y-83345500D01*
X159090500Y-82830439D01*
X159086233Y-82814513D01*
X159070021Y-82754011D01*
X159065390Y-82745989D01*
X159030464Y-82685495D01*
X159030458Y-82685487D01*
X158974511Y-82629540D01*
X158794514Y-82449542D01*
X158787492Y-82445488D01*
X158787491Y-82445487D01*
X158725992Y-82409980D01*
X158725991Y-82409979D01*
X158687775Y-82399739D01*
X158649562Y-82389500D01*
X158649560Y-82389500D01*
X156955833Y-82389500D01*
X156926392Y-82380855D01*
X156896406Y-82374332D01*
X156891390Y-82370577D01*
X156888794Y-82369815D01*
X156868152Y-82353181D01*
X156846019Y-82331048D01*
X156812534Y-82269725D01*
X156809700Y-82243367D01*
X156809700Y-78895435D01*
X156829385Y-78828396D01*
X156882189Y-78782641D01*
X156886212Y-78780889D01*
X157006798Y-78730941D01*
X157178855Y-78615977D01*
X157325177Y-78469655D01*
X157440141Y-78297598D01*
X157519330Y-78106420D01*
X157559700Y-77903465D01*
X157559700Y-77696535D01*
X157519330Y-77493580D01*
X157440141Y-77302402D01*
X157325177Y-77130345D01*
X157325175Y-77130342D01*
X157178857Y-76984024D01*
X157068448Y-76910252D01*
X157006798Y-76869059D01*
X156958509Y-76849057D01*
X156815620Y-76789870D01*
X156815612Y-76789868D01*
X156612669Y-76749500D01*
X156612665Y-76749500D01*
X156405735Y-76749500D01*
X156405730Y-76749500D01*
X156202787Y-76789868D01*
X156202779Y-76789870D01*
X156011603Y-76869058D01*
X155839542Y-76984024D01*
X155693224Y-77130342D01*
X155578257Y-77302403D01*
X155510035Y-77467108D01*
X155466194Y-77521511D01*
X155399900Y-77543576D01*
X155332200Y-77526297D01*
X155284590Y-77475159D01*
X155277543Y-77457973D01*
X155220295Y-77281782D01*
X155123824Y-77092449D01*
X155084470Y-77038282D01*
X155084469Y-77038282D01*
X154452162Y-77670590D01*
X154435125Y-77607007D01*
X154369299Y-77492993D01*
X154276207Y-77399901D01*
X154162193Y-77334075D01*
X154098609Y-77317037D01*
X154730916Y-76684728D01*
X154676750Y-76645375D01*
X154487417Y-76548904D01*
X154285329Y-76483242D01*
X154075446Y-76450000D01*
X153862954Y-76450000D01*
X153653072Y-76483242D01*
X153653069Y-76483242D01*
X153450982Y-76548904D01*
X153261639Y-76645380D01*
X153207482Y-76684727D01*
X153207482Y-76684728D01*
X153839791Y-77317037D01*
X153776207Y-77334075D01*
X153662193Y-77399901D01*
X153569101Y-77492993D01*
X153503275Y-77607007D01*
X153486237Y-77670591D01*
X152853928Y-77038282D01*
X152853927Y-77038282D01*
X152814580Y-77092439D01*
X152715894Y-77286121D01*
X152714878Y-77285603D01*
X152674412Y-77335813D01*
X152608116Y-77357872D01*
X152540418Y-77340588D01*
X152492812Y-77289447D01*
X152479700Y-77233951D01*
X152479700Y-76930249D01*
X152479699Y-76930247D01*
X152468068Y-76871770D01*
X152468067Y-76871769D01*
X152423752Y-76805447D01*
X152357430Y-76761132D01*
X152357429Y-76761131D01*
X152298952Y-76749500D01*
X152298948Y-76749500D01*
X150559452Y-76749500D01*
X150559447Y-76749500D01*
X150500970Y-76761131D01*
X150500969Y-76761132D01*
X150434647Y-76805447D01*
X150390332Y-76871769D01*
X150390331Y-76871770D01*
X150378700Y-76930247D01*
X150378700Y-77375500D01*
X150359015Y-77442539D01*
X150306211Y-77488294D01*
X150254700Y-77499500D01*
X148930438Y-77499500D01*
X148892224Y-77509739D01*
X148854009Y-77519979D01*
X148854004Y-77519982D01*
X148785495Y-77559535D01*
X148785487Y-77559541D01*
X148429541Y-77915487D01*
X148429535Y-77915495D01*
X148389982Y-77984004D01*
X148389979Y-77984009D01*
X148387572Y-77992993D01*
X148369500Y-78060438D01*
X148369500Y-84609562D01*
X148377774Y-84640439D01*
X148389979Y-84685990D01*
X148389980Y-84685991D01*
X148391408Y-84688464D01*
X148414246Y-84728021D01*
X148429540Y-84754511D01*
X148825489Y-85150460D01*
X148894012Y-85190022D01*
X148970438Y-85210500D01*
X149049562Y-85210500D01*
X149204503Y-85210500D01*
X149271542Y-85230185D01*
X149305423Y-85262450D01*
X149308305Y-85266487D01*
X149391014Y-85349196D01*
X149391015Y-85349196D01*
X149391017Y-85349198D01*
X149496107Y-85400573D01*
X149530173Y-85405536D01*
X149564239Y-85410500D01*
X149564240Y-85410500D01*
X150805761Y-85410500D01*
X150828471Y-85407191D01*
X150873893Y-85400573D01*
X150978983Y-85349198D01*
X151061698Y-85266483D01*
X151113073Y-85161393D01*
X151123000Y-85093260D01*
X151123000Y-84850489D01*
X151142685Y-84783450D01*
X151195489Y-84737695D01*
X151264647Y-84727751D01*
X151281596Y-84731413D01*
X151370007Y-84757099D01*
X151370010Y-84757100D01*
X151406850Y-84759999D01*
X151406866Y-84760000D01*
X151810000Y-84760000D01*
X152310000Y-84760000D01*
X152713134Y-84760000D01*
X152713149Y-84759999D01*
X152749989Y-84757100D01*
X152749995Y-84757099D01*
X152907693Y-84711283D01*
X152907696Y-84711282D01*
X153049052Y-84627685D01*
X153049061Y-84627678D01*
X153165178Y-84511561D01*
X153165185Y-84511552D01*
X153248781Y-84370198D01*
X153294600Y-84212486D01*
X153294795Y-84210001D01*
X153294795Y-84210000D01*
X152310000Y-84210000D01*
X152310000Y-84760000D01*
X151810000Y-84760000D01*
X151810000Y-84210000D01*
X150825205Y-84210000D01*
X150825204Y-84210001D01*
X150825399Y-84212486D01*
X150836561Y-84250905D01*
X150836361Y-84320775D01*
X150798418Y-84379445D01*
X150734780Y-84408288D01*
X150717484Y-84409500D01*
X149564239Y-84409500D01*
X149496108Y-84419426D01*
X149391014Y-84470803D01*
X149308305Y-84553512D01*
X149305423Y-84557550D01*
X149300706Y-84561249D01*
X149298216Y-84566703D01*
X149273534Y-84582564D01*
X149250449Y-84600674D01*
X149243184Y-84602069D01*
X149239438Y-84604477D01*
X149204503Y-84609500D01*
X149185833Y-84609500D01*
X149118794Y-84589815D01*
X149098152Y-84573181D01*
X149006819Y-84481848D01*
X148973334Y-84420525D01*
X148970500Y-84394167D01*
X148970500Y-83709998D01*
X150825204Y-83709998D01*
X150825205Y-83710000D01*
X151810000Y-83710000D01*
X152310000Y-83710000D01*
X153294795Y-83710000D01*
X153294795Y-83709998D01*
X153294600Y-83707513D01*
X153248781Y-83549801D01*
X153165185Y-83408447D01*
X153165178Y-83408438D01*
X153049061Y-83292321D01*
X153049052Y-83292314D01*
X152907696Y-83208717D01*
X152907693Y-83208716D01*
X152749995Y-83162900D01*
X152749989Y-83162899D01*
X152713149Y-83160000D01*
X152310000Y-83160000D01*
X152310000Y-83710000D01*
X151810000Y-83710000D01*
X151810000Y-83160000D01*
X151406850Y-83160000D01*
X151370010Y-83162899D01*
X151370004Y-83162900D01*
X151212306Y-83208716D01*
X151212303Y-83208717D01*
X151070947Y-83292314D01*
X151070938Y-83292321D01*
X150954821Y-83408438D01*
X150954814Y-83408447D01*
X150871218Y-83549801D01*
X150825399Y-83707513D01*
X150825204Y-83709998D01*
X148970500Y-83709998D01*
X148970500Y-78275833D01*
X148979144Y-78246392D01*
X148985668Y-78216406D01*
X148989422Y-78211390D01*
X148990185Y-78208794D01*
X149006819Y-78188152D01*
X149058152Y-78136819D01*
X149119475Y-78103334D01*
X149145833Y-78100500D01*
X150254700Y-78100500D01*
X150321739Y-78120185D01*
X150367494Y-78172989D01*
X150378700Y-78224500D01*
X150378700Y-78669752D01*
X150390331Y-78728229D01*
X150390332Y-78728230D01*
X150434647Y-78794552D01*
X150500969Y-78838867D01*
X150500970Y-78838868D01*
X150559447Y-78850499D01*
X150559450Y-78850500D01*
X150559452Y-78850500D01*
X152298950Y-78850500D01*
X152298951Y-78850499D01*
X152313768Y-78847552D01*
X152357429Y-78838868D01*
X152357429Y-78838867D01*
X152357431Y-78838867D01*
X152423752Y-78794552D01*
X152468067Y-78728231D01*
X152468067Y-78728229D01*
X152468068Y-78728229D01*
X152479699Y-78669752D01*
X152479700Y-78669750D01*
X152479700Y-78366048D01*
X152499385Y-78299009D01*
X152552189Y-78253254D01*
X152621347Y-78243310D01*
X152684903Y-78272335D01*
X152715138Y-78314264D01*
X152715894Y-78313879D01*
X152814575Y-78507550D01*
X152853928Y-78561716D01*
X153486237Y-77929408D01*
X153503275Y-77992993D01*
X153569101Y-78107007D01*
X153662193Y-78200099D01*
X153776207Y-78265925D01*
X153839790Y-78282962D01*
X153207482Y-78915269D01*
X153207482Y-78915270D01*
X153261649Y-78954624D01*
X153450982Y-79051095D01*
X153653070Y-79116757D01*
X153862954Y-79150000D01*
X154075446Y-79150000D01*
X154285327Y-79116757D01*
X154285330Y-79116757D01*
X154487417Y-79051095D01*
X154676754Y-78954622D01*
X154730916Y-78915270D01*
X154730917Y-78915270D01*
X154098608Y-78282962D01*
X154162193Y-78265925D01*
X154276207Y-78200099D01*
X154369299Y-78107007D01*
X154435125Y-77992993D01*
X154452162Y-77929408D01*
X155084470Y-78561717D01*
X155084470Y-78561716D01*
X155123822Y-78507554D01*
X155220295Y-78318217D01*
X155277543Y-78142026D01*
X155316980Y-78084351D01*
X155381339Y-78057152D01*
X155450185Y-78069066D01*
X155501661Y-78116310D01*
X155510033Y-78132887D01*
X155511662Y-78136819D01*
X155578258Y-78297596D01*
X155693224Y-78469657D01*
X155839542Y-78615975D01*
X155839545Y-78615977D01*
X156011602Y-78730941D01*
X156132153Y-78780875D01*
X156186556Y-78824714D01*
X156208621Y-78891008D01*
X156208700Y-78895435D01*
X156208700Y-82458762D01*
X156219616Y-82499500D01*
X156229179Y-82535190D01*
X156243126Y-82559346D01*
X156260811Y-82589977D01*
X156260812Y-82589981D01*
X156268735Y-82603704D01*
X156268739Y-82603709D01*
X156268740Y-82603711D01*
X156539540Y-82874511D01*
X156595489Y-82930460D01*
X156595491Y-82930461D01*
X156595495Y-82930464D01*
X156664004Y-82970017D01*
X156664011Y-82970021D01*
X156740438Y-82990500D01*
X158365500Y-82990500D01*
X158432539Y-83010185D01*
X158478294Y-83062989D01*
X158489500Y-83114500D01*
X158489500Y-83639562D01*
X158509979Y-83715989D01*
X158519940Y-83733242D01*
X158520671Y-83734507D01*
X158520672Y-83734511D01*
X158520673Y-83734511D01*
X158549539Y-83784509D01*
X158549541Y-83784512D01*
X158700848Y-83935819D01*
X158734333Y-83997142D01*
X158729349Y-84066834D01*
X158687477Y-84122767D01*
X158622013Y-84147184D01*
X158613167Y-84147500D01*
X158262000Y-84147500D01*
X158194961Y-84127815D01*
X158149206Y-84075011D01*
X158138000Y-84023500D01*
X158138000Y-83943730D01*
X158135146Y-83913300D01*
X158135146Y-83913298D01*
X158090993Y-83787119D01*
X158090293Y-83785118D01*
X158009650Y-83675850D01*
X157900382Y-83595207D01*
X157900380Y-83595206D01*
X157772200Y-83550353D01*
X157741770Y-83547500D01*
X157741766Y-83547500D01*
X157108234Y-83547500D01*
X157108230Y-83547500D01*
X157077800Y-83550353D01*
X157077798Y-83550353D01*
X156949619Y-83595206D01*
X156949617Y-83595207D01*
X156840350Y-83675850D01*
X156759707Y-83785117D01*
X156759706Y-83785119D01*
X156714853Y-83913298D01*
X156714853Y-83913300D01*
X156712000Y-83943730D01*
X156712000Y-84952269D01*
X156714853Y-84982699D01*
X156714853Y-84982701D01*
X156759706Y-85110880D01*
X156759707Y-85110882D01*
X156840350Y-85220150D01*
X156949618Y-85300793D01*
X156992345Y-85315744D01*
X157077799Y-85345646D01*
X157108230Y-85348500D01*
X157108234Y-85348500D01*
X157741770Y-85348500D01*
X157772199Y-85345646D01*
X157772201Y-85345646D01*
X157836290Y-85323219D01*
X157900382Y-85300793D01*
X158009650Y-85220150D01*
X158090293Y-85110882D01*
X158112719Y-85046790D01*
X158135146Y-84982701D01*
X158135146Y-84982699D01*
X158138000Y-84952269D01*
X158138000Y-84872500D01*
X158157685Y-84805461D01*
X158210489Y-84759706D01*
X158262000Y-84748500D01*
X160660792Y-84748500D01*
X160727831Y-84768185D01*
X160773586Y-84820989D01*
X160783731Y-84888687D01*
X160779500Y-84920815D01*
X160779500Y-85219180D01*
X160785500Y-85264756D01*
X160785502Y-85264763D01*
X160832150Y-85364799D01*
X160905170Y-85437819D01*
X160938655Y-85499142D01*
X160933671Y-85568834D01*
X160891799Y-85624767D01*
X160826335Y-85649184D01*
X160817489Y-85649500D01*
X157910438Y-85649500D01*
X157872224Y-85659739D01*
X157834009Y-85669979D01*
X157834004Y-85669982D01*
X157765495Y-85709535D01*
X157765487Y-85709541D01*
X157393541Y-86081487D01*
X157393535Y-86081495D01*
X157353982Y-86150004D01*
X157353979Y-86150009D01*
X157343140Y-86190460D01*
X157334103Y-86224190D01*
X157333500Y-86226439D01*
X157333500Y-86798030D01*
X157313815Y-86865069D01*
X157261011Y-86910824D01*
X157250456Y-86915071D01*
X157158617Y-86947207D01*
X157049350Y-87027850D01*
X156968707Y-87137117D01*
X156968706Y-87137119D01*
X156923853Y-87265298D01*
X156923853Y-87265300D01*
X156921000Y-87295730D01*
X156921000Y-88304269D01*
X156923853Y-88334699D01*
X156923853Y-88334701D01*
X156968706Y-88462880D01*
X156968707Y-88462882D01*
X157049350Y-88572150D01*
X157158618Y-88652793D01*
X157186885Y-88662684D01*
X157286799Y-88697646D01*
X157317230Y-88700500D01*
X157317234Y-88700500D01*
X157950770Y-88700500D01*
X157981199Y-88697646D01*
X157981201Y-88697646D01*
X158057918Y-88670801D01*
X158109382Y-88652793D01*
X158218650Y-88572150D01*
X158299293Y-88462882D01*
X158321719Y-88398790D01*
X158344146Y-88334701D01*
X158344146Y-88334699D01*
X158347000Y-88304269D01*
X158347000Y-87295730D01*
X158344146Y-87265300D01*
X158344146Y-87265298D01*
X158299293Y-87137119D01*
X158299292Y-87137117D01*
X158289770Y-87124215D01*
X158218650Y-87027850D01*
X158109382Y-86947207D01*
X158099931Y-86943900D01*
X158017544Y-86915071D01*
X157960769Y-86874349D01*
X157935022Y-86809396D01*
X157934500Y-86798030D01*
X157934500Y-86441833D01*
X157943144Y-86412392D01*
X157949668Y-86382406D01*
X157953422Y-86377390D01*
X157954185Y-86374794D01*
X157970819Y-86354152D01*
X158038152Y-86286819D01*
X158099475Y-86253334D01*
X158125833Y-86250500D01*
X163219560Y-86250500D01*
X163219562Y-86250500D01*
X163295989Y-86230021D01*
X163306089Y-86224189D01*
X163373988Y-86207715D01*
X163440015Y-86230566D01*
X163483207Y-86285486D01*
X163489851Y-86355039D01*
X163457836Y-86417142D01*
X163455772Y-86419256D01*
X162767448Y-87107581D01*
X162706125Y-87141066D01*
X162679767Y-87143900D01*
X162424497Y-87143900D01*
X162357458Y-87124215D01*
X162323577Y-87091950D01*
X162320694Y-87087912D01*
X162237985Y-87005203D01*
X162132891Y-86953826D01*
X162064761Y-86943900D01*
X162064760Y-86943900D01*
X160823240Y-86943900D01*
X160823239Y-86943900D01*
X160755108Y-86953826D01*
X160650014Y-87005203D01*
X160567303Y-87087914D01*
X160515926Y-87193008D01*
X160506000Y-87261139D01*
X160506000Y-87627660D01*
X160515926Y-87695791D01*
X160567303Y-87800885D01*
X160650014Y-87883596D01*
X160650015Y-87883596D01*
X160650017Y-87883598D01*
X160755107Y-87934973D01*
X160789173Y-87939936D01*
X160823239Y-87944900D01*
X160823240Y-87944900D01*
X162064761Y-87944900D01*
X162087471Y-87941591D01*
X162132893Y-87934973D01*
X162237983Y-87883598D01*
X162320698Y-87800883D01*
X162320700Y-87800877D01*
X162323577Y-87796850D01*
X162378551Y-87753726D01*
X162424497Y-87744900D01*
X162435956Y-87744900D01*
X162502995Y-87764585D01*
X162548750Y-87817389D01*
X162558694Y-87886547D01*
X162529669Y-87950103D01*
X162523637Y-87956581D01*
X162442303Y-88037914D01*
X162390926Y-88143008D01*
X162381000Y-88211139D01*
X162381000Y-88453910D01*
X162361315Y-88520949D01*
X162308511Y-88566704D01*
X162239353Y-88576648D01*
X162222405Y-88572986D01*
X162133995Y-88547300D01*
X162133989Y-88547299D01*
X162097149Y-88544400D01*
X161694000Y-88544400D01*
X161694000Y-89094400D01*
X162678795Y-89094400D01*
X162678795Y-89094398D01*
X162678600Y-89091913D01*
X162667439Y-89053495D01*
X162667639Y-88983625D01*
X162705582Y-88924955D01*
X162769220Y-88896112D01*
X162786516Y-88894900D01*
X162894500Y-88894900D01*
X162961539Y-88914585D01*
X163007294Y-88967389D01*
X163018500Y-89018900D01*
X163018500Y-91526700D01*
X162998815Y-91593739D01*
X162946011Y-91639494D01*
X162894500Y-91650700D01*
X162752039Y-91650700D01*
X162683908Y-91660626D01*
X162578814Y-91712003D01*
X162496103Y-91794714D01*
X162444726Y-91899808D01*
X162434800Y-91967939D01*
X162434800Y-92210710D01*
X162415115Y-92277749D01*
X162362311Y-92323504D01*
X162293153Y-92333448D01*
X162276205Y-92329786D01*
X162187795Y-92304100D01*
X162187789Y-92304099D01*
X162150949Y-92301200D01*
X161823133Y-92301200D01*
X161756094Y-92281515D01*
X161710339Y-92228711D01*
X161700395Y-92159553D01*
X161729420Y-92095997D01*
X161735452Y-92089519D01*
X161738260Y-92086711D01*
X161739819Y-92084011D01*
X161777821Y-92018189D01*
X161798300Y-91941762D01*
X161798300Y-91825700D01*
X161817985Y-91758661D01*
X161870789Y-91712906D01*
X161922300Y-91701700D01*
X162118561Y-91701700D01*
X162141271Y-91698391D01*
X162186693Y-91691773D01*
X162291783Y-91640398D01*
X162374498Y-91557683D01*
X162425873Y-91452593D01*
X162435800Y-91384460D01*
X162435800Y-91017940D01*
X162425873Y-90949807D01*
X162374498Y-90844717D01*
X162374496Y-90844715D01*
X162374496Y-90844714D01*
X162291785Y-90762003D01*
X162186691Y-90710626D01*
X162118561Y-90700700D01*
X162118560Y-90700700D01*
X160877040Y-90700700D01*
X160877039Y-90700700D01*
X160808908Y-90710626D01*
X160703814Y-90762003D01*
X160621105Y-90844712D01*
X160618223Y-90848750D01*
X160563249Y-90891874D01*
X160517303Y-90900700D01*
X158862838Y-90900700D01*
X158824624Y-90910939D01*
X158786409Y-90921179D01*
X158763196Y-90934582D01*
X158760084Y-90936379D01*
X158747547Y-90943616D01*
X158717889Y-90960739D01*
X158717887Y-90960741D01*
X158049048Y-91629581D01*
X157987725Y-91663066D01*
X157961367Y-91665900D01*
X157316439Y-91665900D01*
X157248308Y-91675826D01*
X157143214Y-91727203D01*
X157060503Y-91809914D01*
X157009126Y-91915008D01*
X156999200Y-91983139D01*
X156999200Y-92225910D01*
X156979515Y-92292949D01*
X156926711Y-92338704D01*
X156857553Y-92348648D01*
X156840605Y-92344986D01*
X156752195Y-92319300D01*
X156752189Y-92319299D01*
X156715349Y-92316400D01*
X156312200Y-92316400D01*
X156312200Y-92866400D01*
X157296995Y-92866400D01*
X157296995Y-92866398D01*
X157296800Y-92863913D01*
X157285639Y-92825495D01*
X157285839Y-92755625D01*
X157323782Y-92696955D01*
X157387420Y-92668112D01*
X157404716Y-92666900D01*
X158557961Y-92666900D01*
X158580671Y-92663591D01*
X158626093Y-92656973D01*
X158731183Y-92605598D01*
X158813898Y-92522883D01*
X158865273Y-92417793D01*
X158875200Y-92349660D01*
X158875200Y-91983140D01*
X158871761Y-91959540D01*
X158865273Y-91915007D01*
X158833835Y-91850700D01*
X158821507Y-91825482D01*
X158817514Y-91802098D01*
X158809224Y-91779870D01*
X158811742Y-91768292D01*
X158809748Y-91756612D01*
X158819033Y-91734777D01*
X158824076Y-91711597D01*
X158835224Y-91696704D01*
X158837091Y-91692315D01*
X158845207Y-91683363D01*
X158990554Y-91538016D01*
X159051875Y-91504534D01*
X159078233Y-91501700D01*
X160517303Y-91501700D01*
X160584342Y-91521385D01*
X160618223Y-91553650D01*
X160621105Y-91557687D01*
X160703814Y-91640396D01*
X160703815Y-91640396D01*
X160703817Y-91640398D01*
X160752299Y-91664099D01*
X160803881Y-91711227D01*
X160821796Y-91778761D01*
X160800355Y-91845260D01*
X160746366Y-91889610D01*
X160697839Y-91899500D01*
X160360438Y-91899500D01*
X160309486Y-91913152D01*
X160284010Y-91919979D01*
X160255408Y-91936493D01*
X160246286Y-91941760D01*
X160246284Y-91941761D01*
X160246282Y-91941762D01*
X160215490Y-91959539D01*
X160215487Y-91959541D01*
X159859541Y-92315487D01*
X159859535Y-92315495D01*
X159819982Y-92384004D01*
X159819979Y-92384009D01*
X159815166Y-92401972D01*
X159799500Y-92460438D01*
X159799500Y-93939562D01*
X159810012Y-93978792D01*
X159819979Y-94015990D01*
X159819980Y-94015991D01*
X159840089Y-94050821D01*
X159859540Y-94084511D01*
X160159540Y-94384511D01*
X160215489Y-94440460D01*
X160215491Y-94440461D01*
X160215495Y-94440464D01*
X160284004Y-94480017D01*
X160284011Y-94480021D01*
X160360438Y-94500500D01*
X160439562Y-94500500D01*
X164441324Y-94500500D01*
X164508363Y-94520185D01*
X164529005Y-94536819D01*
X164592686Y-94600500D01*
X164706814Y-94666392D01*
X164834108Y-94700500D01*
X164834110Y-94700500D01*
X164965890Y-94700500D01*
X164965892Y-94700500D01*
X165093186Y-94666392D01*
X165207314Y-94600500D01*
X165300500Y-94507314D01*
X165366392Y-94393186D01*
X165400500Y-94265892D01*
X165400500Y-94134108D01*
X165366392Y-94006814D01*
X165300500Y-93892686D01*
X165207314Y-93799500D01*
X165148873Y-93765759D01*
X165093187Y-93733608D01*
X165029539Y-93716554D01*
X164965892Y-93699500D01*
X164834108Y-93699500D01*
X164706812Y-93733608D01*
X164592686Y-93799500D01*
X164592683Y-93799502D01*
X164529005Y-93863181D01*
X164467682Y-93896666D01*
X164441324Y-93899500D01*
X162655602Y-93899500D01*
X162588563Y-93879815D01*
X162542808Y-93827011D01*
X162532864Y-93757853D01*
X162561889Y-93694297D01*
X162567921Y-93687819D01*
X162602978Y-93652761D01*
X162602985Y-93652752D01*
X162686581Y-93511398D01*
X162732400Y-93353686D01*
X162732595Y-93351201D01*
X162732595Y-93351200D01*
X161621800Y-93351200D01*
X161554761Y-93331515D01*
X161509006Y-93278711D01*
X161497800Y-93227200D01*
X161497800Y-92975200D01*
X161517485Y-92908161D01*
X161570289Y-92862406D01*
X161621800Y-92851200D01*
X162732595Y-92851200D01*
X162732595Y-92851198D01*
X162732400Y-92848713D01*
X162721239Y-92810295D01*
X162721439Y-92740425D01*
X162759382Y-92681755D01*
X162823020Y-92652912D01*
X162840316Y-92651700D01*
X163993561Y-92651700D01*
X164016271Y-92648391D01*
X164061693Y-92641773D01*
X164166783Y-92590398D01*
X164249498Y-92507683D01*
X164249500Y-92507677D01*
X164252377Y-92503650D01*
X164307351Y-92460526D01*
X164353297Y-92451700D01*
X165565500Y-92451700D01*
X165632539Y-92471385D01*
X165678294Y-92524189D01*
X165689500Y-92575700D01*
X165689500Y-92626152D01*
X165701131Y-92684629D01*
X165701132Y-92684630D01*
X165745447Y-92750952D01*
X165811769Y-92795267D01*
X165811770Y-92795268D01*
X165870247Y-92806899D01*
X165870250Y-92806900D01*
X165870252Y-92806900D01*
X167509750Y-92806900D01*
X167509751Y-92806899D01*
X167524568Y-92803952D01*
X167568229Y-92795268D01*
X167568229Y-92795267D01*
X167568231Y-92795267D01*
X167634552Y-92750952D01*
X167678867Y-92684631D01*
X167678867Y-92684629D01*
X167678868Y-92684629D01*
X167690499Y-92626152D01*
X167690500Y-92626150D01*
X167690500Y-91666647D01*
X170689500Y-91666647D01*
X170689500Y-97106152D01*
X170701131Y-97164629D01*
X170701132Y-97164630D01*
X170745447Y-97230952D01*
X170811769Y-97275267D01*
X170811770Y-97275268D01*
X170870247Y-97286899D01*
X170870250Y-97286900D01*
X170870252Y-97286900D01*
X177109750Y-97286900D01*
X177109751Y-97286899D01*
X177124568Y-97283952D01*
X177168229Y-97275268D01*
X177168229Y-97275267D01*
X177168231Y-97275267D01*
X177234552Y-97230952D01*
X177278867Y-97164631D01*
X177278867Y-97164629D01*
X177278868Y-97164629D01*
X177290499Y-97106152D01*
X177290500Y-97106150D01*
X177290500Y-92835026D01*
X177310185Y-92767987D01*
X177326819Y-92747345D01*
X181475685Y-88598479D01*
X181475690Y-88598474D01*
X181483225Y-88588101D01*
X181516254Y-88559464D01*
X181515404Y-88558312D01*
X181534254Y-88544400D01*
X181632150Y-88472150D01*
X181712793Y-88362882D01*
X181735219Y-88298790D01*
X181757646Y-88234701D01*
X181757646Y-88234699D01*
X181760500Y-88204269D01*
X181760500Y-86895730D01*
X181757646Y-86865300D01*
X181757646Y-86865298D01*
X181712793Y-86737119D01*
X181712792Y-86737117D01*
X181677321Y-86689055D01*
X181632150Y-86627850D01*
X181522882Y-86547207D01*
X181522880Y-86547206D01*
X181394700Y-86502353D01*
X181364270Y-86499500D01*
X181364266Y-86499500D01*
X181355324Y-86499500D01*
X181288285Y-86479815D01*
X181242530Y-86427011D01*
X181232586Y-86357853D01*
X181261611Y-86294297D01*
X181299029Y-86265015D01*
X181417557Y-86204620D01*
X181589459Y-86079727D01*
X181589464Y-86079723D01*
X181739723Y-85929464D01*
X181739727Y-85929459D01*
X181864620Y-85757557D01*
X181961095Y-85568217D01*
X182026757Y-85366129D01*
X182026757Y-85366126D01*
X182037231Y-85300000D01*
X180993012Y-85300000D01*
X181025925Y-85242993D01*
X181060000Y-85115826D01*
X181060000Y-84984174D01*
X181025925Y-84857007D01*
X180993012Y-84800000D01*
X182037231Y-84800000D01*
X182026757Y-84733873D01*
X182026757Y-84733870D01*
X181961095Y-84531782D01*
X181864620Y-84342442D01*
X181739727Y-84170540D01*
X181739723Y-84170535D01*
X181589464Y-84020276D01*
X181589459Y-84020272D01*
X181417557Y-83895379D01*
X181228217Y-83798904D01*
X181026129Y-83733242D01*
X180816246Y-83700000D01*
X180810000Y-83700000D01*
X180810000Y-84616988D01*
X180752993Y-84584075D01*
X180625826Y-84550000D01*
X180494174Y-84550000D01*
X180367007Y-84584075D01*
X180310000Y-84616988D01*
X180310000Y-83700000D01*
X180303754Y-83700000D01*
X180093872Y-83733242D01*
X180093869Y-83733242D01*
X179891782Y-83798904D01*
X179702442Y-83895379D01*
X179530540Y-84020272D01*
X179530535Y-84020276D01*
X179380276Y-84170535D01*
X179380272Y-84170540D01*
X179255379Y-84342442D01*
X179158904Y-84531782D01*
X179093242Y-84733870D01*
X179093242Y-84733873D01*
X179082769Y-84800000D01*
X180126988Y-84800000D01*
X180094075Y-84857007D01*
X180060000Y-84984174D01*
X180060000Y-85115826D01*
X180094075Y-85242993D01*
X180126988Y-85300000D01*
X179082769Y-85300000D01*
X179093242Y-85366126D01*
X179093242Y-85366129D01*
X179158904Y-85568217D01*
X179255379Y-85757557D01*
X179380272Y-85929459D01*
X179380276Y-85929464D01*
X179530535Y-86079723D01*
X179530540Y-86079727D01*
X179702442Y-86204620D01*
X179820971Y-86265015D01*
X179871767Y-86312990D01*
X179888562Y-86380811D01*
X179866024Y-86446946D01*
X179811309Y-86490397D01*
X179764676Y-86499500D01*
X179755730Y-86499500D01*
X179725300Y-86502353D01*
X179725298Y-86502353D01*
X179597119Y-86547206D01*
X179597117Y-86547207D01*
X179487850Y-86627850D01*
X179407207Y-86737117D01*
X179407206Y-86737119D01*
X179362353Y-86865298D01*
X179362353Y-86865300D01*
X179359500Y-86895730D01*
X179359500Y-87267774D01*
X179339815Y-87334813D01*
X179323181Y-87355455D01*
X175229055Y-91449581D01*
X175167732Y-91483066D01*
X175141374Y-91485900D01*
X173798900Y-91485900D01*
X173731861Y-91466215D01*
X173686106Y-91413411D01*
X173674900Y-91361900D01*
X173674900Y-88801969D01*
X173694585Y-88734930D01*
X173747389Y-88689175D01*
X173757925Y-88684934D01*
X173849782Y-88652793D01*
X173959050Y-88572150D01*
X174039693Y-88462882D01*
X174062119Y-88398790D01*
X174084546Y-88334701D01*
X174084546Y-88334699D01*
X174087400Y-88304269D01*
X174087400Y-87295730D01*
X174084546Y-87265300D01*
X174084546Y-87265298D01*
X174039693Y-87137119D01*
X174039692Y-87137117D01*
X174030170Y-87124215D01*
X173959050Y-87027850D01*
X173849782Y-86947207D01*
X173840331Y-86943900D01*
X173757944Y-86915071D01*
X173701169Y-86874349D01*
X173675422Y-86809396D01*
X173674900Y-86798030D01*
X173674900Y-85417188D01*
X173694585Y-85350149D01*
X173742810Y-85308361D01*
X173742163Y-85307137D01*
X173750379Y-85302794D01*
X173750382Y-85302793D01*
X173859650Y-85222150D01*
X173940293Y-85112882D01*
X173962719Y-85048790D01*
X173985146Y-84984701D01*
X173985146Y-84984699D01*
X173988000Y-84954269D01*
X173988000Y-83945730D01*
X173985146Y-83915300D01*
X173985146Y-83915298D01*
X173940293Y-83787119D01*
X173940292Y-83787117D01*
X173859650Y-83677850D01*
X173750382Y-83597207D01*
X173750380Y-83597206D01*
X173622200Y-83552353D01*
X173591770Y-83549500D01*
X173591766Y-83549500D01*
X172958234Y-83549500D01*
X172958230Y-83549500D01*
X172927800Y-83552353D01*
X172927798Y-83552353D01*
X172799619Y-83597206D01*
X172799617Y-83597207D01*
X172690350Y-83677850D01*
X172609707Y-83787117D01*
X172609706Y-83787119D01*
X172564853Y-83915298D01*
X172564853Y-83915300D01*
X172562000Y-83945730D01*
X172562000Y-84954269D01*
X172564853Y-84984699D01*
X172564853Y-84984701D01*
X172609006Y-85110880D01*
X172609707Y-85112882D01*
X172690350Y-85222150D01*
X172799618Y-85302793D01*
X172842345Y-85317744D01*
X172927799Y-85347646D01*
X172961120Y-85350771D01*
X172960979Y-85352264D01*
X173021543Y-85373036D01*
X173064888Y-85427835D01*
X173073900Y-85474245D01*
X173073900Y-86798030D01*
X173054215Y-86865069D01*
X173001411Y-86910824D01*
X172990856Y-86915071D01*
X172899017Y-86947207D01*
X172789750Y-87027850D01*
X172709107Y-87137117D01*
X172709106Y-87137119D01*
X172664253Y-87265298D01*
X172664253Y-87265300D01*
X172661400Y-87295730D01*
X172661400Y-88304269D01*
X172664253Y-88334699D01*
X172664253Y-88334701D01*
X172709106Y-88462880D01*
X172709107Y-88462882D01*
X172789750Y-88572150D01*
X172899018Y-88652793D01*
X172990857Y-88684929D01*
X173047631Y-88725649D01*
X173073378Y-88790602D01*
X173073900Y-88801969D01*
X173073900Y-91361900D01*
X173054215Y-91428939D01*
X173001411Y-91474694D01*
X172949900Y-91485900D01*
X170870247Y-91485900D01*
X170811770Y-91497531D01*
X170811769Y-91497532D01*
X170745447Y-91541847D01*
X170701132Y-91608169D01*
X170701131Y-91608170D01*
X170689500Y-91666647D01*
X167690500Y-91666647D01*
X167690500Y-91586649D01*
X167690499Y-91586647D01*
X167678868Y-91528170D01*
X167678867Y-91528169D01*
X167634552Y-91461847D01*
X167568230Y-91417532D01*
X167568229Y-91417531D01*
X167509752Y-91405900D01*
X167509748Y-91405900D01*
X165870252Y-91405900D01*
X165870247Y-91405900D01*
X165811770Y-91417531D01*
X165811769Y-91417532D01*
X165745447Y-91461847D01*
X165701132Y-91528169D01*
X165701131Y-91528170D01*
X165689500Y-91586647D01*
X165689500Y-91726700D01*
X165669815Y-91793739D01*
X165617011Y-91839494D01*
X165565500Y-91850700D01*
X164353297Y-91850700D01*
X164286258Y-91831015D01*
X164252377Y-91798750D01*
X164249494Y-91794712D01*
X164166785Y-91712003D01*
X164061691Y-91660626D01*
X163993561Y-91650700D01*
X163993560Y-91650700D01*
X163743500Y-91650700D01*
X163676461Y-91631015D01*
X163630706Y-91578211D01*
X163619500Y-91526700D01*
X163619500Y-89334108D01*
X170499500Y-89334108D01*
X170499500Y-89465891D01*
X170533608Y-89593187D01*
X170534309Y-89594401D01*
X170599500Y-89707314D01*
X170692686Y-89800500D01*
X170806814Y-89866392D01*
X170934108Y-89900500D01*
X170934110Y-89900500D01*
X171065890Y-89900500D01*
X171065892Y-89900500D01*
X171193186Y-89866392D01*
X171307314Y-89800500D01*
X171400500Y-89707314D01*
X171466392Y-89593186D01*
X171500500Y-89465892D01*
X171500500Y-89375832D01*
X171520185Y-89308793D01*
X171536819Y-89288151D01*
X171636415Y-89188555D01*
X171789860Y-89035111D01*
X171817440Y-88987340D01*
X171829421Y-88966589D01*
X171849900Y-88890162D01*
X171849900Y-88801969D01*
X171869585Y-88734930D01*
X171922389Y-88689175D01*
X171932925Y-88684934D01*
X172024782Y-88652793D01*
X172134050Y-88572150D01*
X172214693Y-88462882D01*
X172237119Y-88398790D01*
X172259546Y-88334701D01*
X172259546Y-88334699D01*
X172262400Y-88304269D01*
X172262400Y-87295730D01*
X172259546Y-87265300D01*
X172259546Y-87265298D01*
X172214693Y-87137119D01*
X172214692Y-87137117D01*
X172205170Y-87124215D01*
X172134050Y-87027850D01*
X172024782Y-86947207D01*
X172024780Y-86947206D01*
X171896600Y-86902353D01*
X171866170Y-86899500D01*
X171866166Y-86899500D01*
X171232634Y-86899500D01*
X171232630Y-86899500D01*
X171202200Y-86902353D01*
X171202198Y-86902353D01*
X171074019Y-86947206D01*
X171074017Y-86947207D01*
X170964750Y-87027850D01*
X170884107Y-87137117D01*
X170884106Y-87137119D01*
X170839253Y-87265298D01*
X170839253Y-87265300D01*
X170836400Y-87295730D01*
X170836400Y-88304269D01*
X170839253Y-88334699D01*
X170839253Y-88334701D01*
X170884106Y-88462880D01*
X170884107Y-88462882D01*
X170964750Y-88572150D01*
X171074018Y-88652793D01*
X171074020Y-88652793D01*
X171082231Y-88657133D01*
X171081532Y-88658453D01*
X171100979Y-88673009D01*
X171128399Y-88692675D01*
X171128882Y-88693893D01*
X171129930Y-88694678D01*
X171141711Y-88726256D01*
X171154147Y-88757628D01*
X171153894Y-88758913D01*
X171154352Y-88760140D01*
X171147187Y-88793089D01*
X171140691Y-88826190D01*
X171139693Y-88827550D01*
X171139506Y-88828415D01*
X171118357Y-88856670D01*
X171111854Y-88863174D01*
X171050533Y-88896664D01*
X171024166Y-88899500D01*
X170934108Y-88899500D01*
X170806812Y-88933608D01*
X170692686Y-88999500D01*
X170692683Y-88999502D01*
X170599502Y-89092683D01*
X170599500Y-89092686D01*
X170533608Y-89206812D01*
X170499500Y-89334108D01*
X163619500Y-89334108D01*
X163619500Y-89018900D01*
X163639185Y-88951861D01*
X163691989Y-88906106D01*
X163743500Y-88894900D01*
X163939761Y-88894900D01*
X163962471Y-88891591D01*
X164007893Y-88884973D01*
X164112983Y-88833598D01*
X164195698Y-88750883D01*
X164195700Y-88750877D01*
X164198577Y-88746850D01*
X164253551Y-88703726D01*
X164299497Y-88694900D01*
X164945160Y-88694900D01*
X164945162Y-88694900D01*
X165021589Y-88674421D01*
X165090111Y-88634860D01*
X165146060Y-88578911D01*
X165588152Y-88136819D01*
X165615079Y-88122115D01*
X165640898Y-88105523D01*
X165647098Y-88104631D01*
X165649475Y-88103334D01*
X165675833Y-88100500D01*
X165890200Y-88100500D01*
X165957239Y-88120185D01*
X166002994Y-88172989D01*
X166014200Y-88224500D01*
X166014200Y-88304269D01*
X166017053Y-88334699D01*
X166017053Y-88334701D01*
X166061906Y-88462880D01*
X166061907Y-88462882D01*
X166142550Y-88572150D01*
X166251818Y-88652793D01*
X166280085Y-88662684D01*
X166379999Y-88697646D01*
X166410430Y-88700500D01*
X166410434Y-88700500D01*
X167043970Y-88700500D01*
X167074399Y-88697646D01*
X167074401Y-88697646D01*
X167151118Y-88670801D01*
X167202582Y-88652793D01*
X167311850Y-88572150D01*
X167392493Y-88462882D01*
X167414919Y-88398790D01*
X167437346Y-88334701D01*
X167437346Y-88334699D01*
X167440200Y-88304269D01*
X167440200Y-87295730D01*
X167437346Y-87265300D01*
X167437346Y-87265298D01*
X167392493Y-87137119D01*
X167392492Y-87137117D01*
X167382970Y-87124215D01*
X167311850Y-87027850D01*
X167202582Y-86947207D01*
X167202580Y-86947206D01*
X167074400Y-86902353D01*
X167043970Y-86899500D01*
X167043966Y-86899500D01*
X166410434Y-86899500D01*
X166410430Y-86899500D01*
X166380000Y-86902353D01*
X166379998Y-86902353D01*
X166251819Y-86947206D01*
X166251817Y-86947207D01*
X166142550Y-87027850D01*
X166061907Y-87137117D01*
X166061906Y-87137119D01*
X166017053Y-87265298D01*
X166017053Y-87265300D01*
X166014200Y-87295730D01*
X166014200Y-87375500D01*
X165994515Y-87442539D01*
X165941711Y-87488294D01*
X165890200Y-87499500D01*
X165460438Y-87499500D01*
X165384010Y-87519978D01*
X165315489Y-87559540D01*
X165315486Y-87559542D01*
X164817448Y-88057581D01*
X164756125Y-88091066D01*
X164729767Y-88093900D01*
X164299497Y-88093900D01*
X164232458Y-88074215D01*
X164198577Y-88041950D01*
X164195694Y-88037912D01*
X164112985Y-87955203D01*
X164007891Y-87903826D01*
X163939761Y-87893900D01*
X163939760Y-87893900D01*
X163130433Y-87893900D01*
X163063394Y-87874215D01*
X163017639Y-87821411D01*
X163007695Y-87752253D01*
X163036720Y-87688697D01*
X163042752Y-87682219D01*
X164198152Y-86526819D01*
X164259475Y-86493334D01*
X164285833Y-86490500D01*
X167949560Y-86490500D01*
X167949562Y-86490500D01*
X168025989Y-86470021D01*
X168094511Y-86430460D01*
X168150460Y-86374511D01*
X168540460Y-85984511D01*
X168560650Y-85949540D01*
X168580021Y-85915989D01*
X168600500Y-85839562D01*
X168600500Y-85449969D01*
X168620185Y-85382930D01*
X168672989Y-85337175D01*
X168683525Y-85332934D01*
X168775382Y-85300793D01*
X168884650Y-85220150D01*
X168965293Y-85110882D01*
X168987719Y-85046790D01*
X169010146Y-84982701D01*
X169010146Y-84982699D01*
X169013000Y-84952269D01*
X169013000Y-83943730D01*
X169010146Y-83913300D01*
X169010146Y-83913298D01*
X168965993Y-83787119D01*
X168965293Y-83785118D01*
X168884650Y-83675850D01*
X168775382Y-83595207D01*
X168775380Y-83595206D01*
X168647200Y-83550353D01*
X168616770Y-83547500D01*
X168616766Y-83547500D01*
X167983234Y-83547500D01*
X167983230Y-83547500D01*
X167952800Y-83550353D01*
X167952798Y-83550353D01*
X167824619Y-83595206D01*
X167824617Y-83595207D01*
X167715350Y-83675850D01*
X167634707Y-83785117D01*
X167634706Y-83785119D01*
X167589853Y-83913298D01*
X167589853Y-83913300D01*
X167587000Y-83943730D01*
X167587000Y-84952269D01*
X167589853Y-84982699D01*
X167589853Y-84982701D01*
X167634706Y-85110880D01*
X167634707Y-85110882D01*
X167715350Y-85220150D01*
X167824618Y-85300793D01*
X167916457Y-85332929D01*
X167935446Y-85346548D01*
X167956703Y-85356256D01*
X167963305Y-85366530D01*
X167973231Y-85373649D01*
X167981843Y-85395375D01*
X167994477Y-85415034D01*
X167997232Y-85434198D01*
X167998978Y-85438602D01*
X167999500Y-85449969D01*
X167999500Y-85624167D01*
X167979815Y-85691206D01*
X167963181Y-85711848D01*
X167821848Y-85853181D01*
X167760525Y-85886666D01*
X167734167Y-85889500D01*
X164070438Y-85889500D01*
X164032224Y-85899739D01*
X163994009Y-85909979D01*
X163994004Y-85909982D01*
X163925495Y-85949535D01*
X163925491Y-85949538D01*
X163799255Y-86075774D01*
X163737932Y-86109258D01*
X163668240Y-86104274D01*
X163612307Y-86062402D01*
X163587890Y-85996938D01*
X163602742Y-85928665D01*
X163604165Y-85926131D01*
X163610021Y-85915989D01*
X163630500Y-85839562D01*
X163630500Y-84927476D01*
X163650185Y-84860437D01*
X163702092Y-84815095D01*
X163749799Y-84792850D01*
X163827850Y-84714799D01*
X163874499Y-84614760D01*
X163880500Y-84569179D01*
X163880499Y-84270822D01*
X163874499Y-84225240D01*
X163827850Y-84125201D01*
X163784830Y-84082181D01*
X163751345Y-84020858D01*
X163756329Y-83951166D01*
X163798201Y-83895233D01*
X163863665Y-83870816D01*
X163872511Y-83870500D01*
X165421167Y-83870500D01*
X165488206Y-83890185D01*
X165508848Y-83906819D01*
X165725681Y-84123652D01*
X165759166Y-84184975D01*
X165762000Y-84211333D01*
X165762000Y-84952269D01*
X165764853Y-84982699D01*
X165764853Y-84982701D01*
X165809706Y-85110880D01*
X165809707Y-85110882D01*
X165890350Y-85220150D01*
X165999618Y-85300793D01*
X166042345Y-85315744D01*
X166127799Y-85345646D01*
X166158230Y-85348500D01*
X166158234Y-85348500D01*
X166791770Y-85348500D01*
X166822199Y-85345646D01*
X166822201Y-85345646D01*
X166886290Y-85323219D01*
X166950382Y-85300793D01*
X167059650Y-85220150D01*
X167140293Y-85110882D01*
X167162719Y-85046790D01*
X167185146Y-84982701D01*
X167185146Y-84982699D01*
X167188000Y-84952269D01*
X167188000Y-83943730D01*
X167185146Y-83913300D01*
X167185146Y-83913298D01*
X167140993Y-83787119D01*
X167140293Y-83785118D01*
X167059650Y-83675850D01*
X166950382Y-83595207D01*
X166950380Y-83595206D01*
X166822200Y-83550353D01*
X166791770Y-83547500D01*
X166791766Y-83547500D01*
X166158234Y-83547500D01*
X166158230Y-83547500D01*
X166127805Y-83550353D01*
X166127796Y-83550355D01*
X166108386Y-83557146D01*
X166038607Y-83560705D01*
X165979755Y-83527784D01*
X165781513Y-83329542D01*
X165781511Y-83329540D01*
X165781508Y-83329538D01*
X165775062Y-83324592D01*
X165776648Y-83322524D01*
X165737361Y-83281321D01*
X165724137Y-83212714D01*
X165750105Y-83147849D01*
X165807018Y-83107320D01*
X165847576Y-83100500D01*
X169304167Y-83100500D01*
X169333607Y-83109144D01*
X169363594Y-83115668D01*
X169368609Y-83119422D01*
X169371206Y-83120185D01*
X169391848Y-83136819D01*
X169463181Y-83208152D01*
X169496666Y-83269475D01*
X169499500Y-83295833D01*
X169499500Y-87213235D01*
X169479815Y-87280274D01*
X169427011Y-87326029D01*
X169357853Y-87335973D01*
X169294297Y-87306948D01*
X169258459Y-87254190D01*
X169217493Y-87137119D01*
X169217492Y-87137117D01*
X169207970Y-87124215D01*
X169136850Y-87027850D01*
X169027582Y-86947207D01*
X169027580Y-86947206D01*
X168899400Y-86902353D01*
X168868970Y-86899500D01*
X168868966Y-86899500D01*
X168235434Y-86899500D01*
X168235430Y-86899500D01*
X168205000Y-86902353D01*
X168204998Y-86902353D01*
X168076819Y-86947206D01*
X168076817Y-86947207D01*
X167967550Y-87027850D01*
X167886907Y-87137117D01*
X167886906Y-87137119D01*
X167842053Y-87265298D01*
X167842053Y-87265300D01*
X167839200Y-87295730D01*
X167839200Y-88304269D01*
X167842053Y-88334699D01*
X167842053Y-88334701D01*
X167886906Y-88462880D01*
X167886907Y-88462882D01*
X167967550Y-88572150D01*
X168076818Y-88652793D01*
X168105085Y-88662684D01*
X168204999Y-88697646D01*
X168235430Y-88700500D01*
X168235434Y-88700500D01*
X168868970Y-88700500D01*
X168899399Y-88697646D01*
X168899401Y-88697646D01*
X168976118Y-88670801D01*
X169027582Y-88652793D01*
X169136850Y-88572150D01*
X169217493Y-88462882D01*
X169239919Y-88398790D01*
X169262346Y-88334701D01*
X169262346Y-88334699D01*
X169265200Y-88304269D01*
X169265200Y-88224500D01*
X169284885Y-88157461D01*
X169337689Y-88111706D01*
X169389200Y-88100500D01*
X169599560Y-88100500D01*
X169599562Y-88100500D01*
X169675989Y-88080021D01*
X169744511Y-88040460D01*
X169800460Y-87984511D01*
X170040460Y-87744511D01*
X170074899Y-87684860D01*
X170080021Y-87675989D01*
X170100500Y-87599562D01*
X170100500Y-83080438D01*
X170080021Y-83004011D01*
X170074513Y-82994471D01*
X170040464Y-82935495D01*
X170040458Y-82935487D01*
X169664512Y-82559541D01*
X169664504Y-82559535D01*
X169595995Y-82519982D01*
X169595990Y-82519979D01*
X169570513Y-82513152D01*
X169519562Y-82499500D01*
X169519560Y-82499500D01*
X165404500Y-82499500D01*
X165337461Y-82479815D01*
X165291706Y-82427011D01*
X165280500Y-82375500D01*
X165280500Y-78875435D01*
X165300185Y-78808396D01*
X165352989Y-78762641D01*
X165357012Y-78760889D01*
X165477598Y-78710941D01*
X165649655Y-78595977D01*
X165795977Y-78449655D01*
X165910941Y-78277598D01*
X165990130Y-78086420D01*
X166030500Y-77883465D01*
X166030500Y-77676535D01*
X165990130Y-77473580D01*
X165910941Y-77282402D01*
X165795977Y-77110345D01*
X165795975Y-77110342D01*
X165649657Y-76964024D01*
X165569173Y-76910247D01*
X170414500Y-76910247D01*
X170414500Y-78649752D01*
X170426131Y-78708229D01*
X170426132Y-78708230D01*
X170470447Y-78774552D01*
X170536769Y-78818867D01*
X170536770Y-78818868D01*
X170595247Y-78830499D01*
X170595250Y-78830500D01*
X170595252Y-78830500D01*
X171040500Y-78830500D01*
X171107539Y-78850185D01*
X171153294Y-78902989D01*
X171164500Y-78954500D01*
X171164500Y-83442781D01*
X171144815Y-83509820D01*
X171092011Y-83555575D01*
X171081456Y-83559822D01*
X170974617Y-83597207D01*
X170865350Y-83677850D01*
X170784707Y-83787117D01*
X170784706Y-83787119D01*
X170739853Y-83915298D01*
X170739853Y-83915300D01*
X170737000Y-83945730D01*
X170737000Y-84954269D01*
X170739853Y-84984699D01*
X170739853Y-84984701D01*
X170784006Y-85110880D01*
X170784707Y-85112882D01*
X170865350Y-85222150D01*
X170974618Y-85302793D01*
X171017345Y-85317744D01*
X171102799Y-85347646D01*
X171133230Y-85350500D01*
X171133234Y-85350500D01*
X171766770Y-85350500D01*
X171797199Y-85347646D01*
X171797201Y-85347646D01*
X171861290Y-85325219D01*
X171925382Y-85302793D01*
X172034650Y-85222150D01*
X172115293Y-85112882D01*
X172137719Y-85048790D01*
X172160146Y-84984701D01*
X172160146Y-84984699D01*
X172163000Y-84954269D01*
X172163000Y-83945730D01*
X172160146Y-83915300D01*
X172160146Y-83915298D01*
X172115293Y-83787119D01*
X172115292Y-83787117D01*
X172034650Y-83677850D01*
X171925382Y-83597207D01*
X171919666Y-83595207D01*
X171848544Y-83570320D01*
X171791769Y-83529598D01*
X171766022Y-83464645D01*
X171765500Y-83453279D01*
X171765500Y-78954500D01*
X171785185Y-78887461D01*
X171837989Y-78841706D01*
X171889500Y-78830500D01*
X172334750Y-78830500D01*
X172334751Y-78830499D01*
X172349568Y-78827552D01*
X172393229Y-78818868D01*
X172393229Y-78818867D01*
X172393231Y-78818867D01*
X172459552Y-78774552D01*
X172503867Y-78708231D01*
X172503867Y-78708229D01*
X172503868Y-78708229D01*
X172515499Y-78649752D01*
X172515500Y-78649750D01*
X172515500Y-78346048D01*
X172535185Y-78279009D01*
X172587989Y-78233254D01*
X172657147Y-78223310D01*
X172720703Y-78252335D01*
X172750938Y-78294264D01*
X172751694Y-78293879D01*
X172850375Y-78487550D01*
X172889728Y-78541716D01*
X173522037Y-77909408D01*
X173539075Y-77972993D01*
X173604901Y-78087007D01*
X173697993Y-78180099D01*
X173812007Y-78245925D01*
X173875590Y-78262962D01*
X173243282Y-78895269D01*
X173243282Y-78895270D01*
X173297449Y-78934624D01*
X173486782Y-79031095D01*
X173688870Y-79096757D01*
X173898754Y-79130000D01*
X174111246Y-79130000D01*
X174321127Y-79096757D01*
X174321130Y-79096757D01*
X174523217Y-79031095D01*
X174712554Y-78934622D01*
X174766716Y-78895270D01*
X174766717Y-78895270D01*
X174134408Y-78262962D01*
X174197993Y-78245925D01*
X174312007Y-78180099D01*
X174405099Y-78087007D01*
X174470925Y-77972993D01*
X174487962Y-77909408D01*
X175120270Y-78541717D01*
X175120270Y-78541716D01*
X175159622Y-78487554D01*
X175256095Y-78298217D01*
X175321757Y-78096130D01*
X175321757Y-78096127D01*
X175355000Y-77886246D01*
X175355000Y-77673753D01*
X175321757Y-77463872D01*
X175321757Y-77463869D01*
X175256095Y-77261782D01*
X175159624Y-77072449D01*
X175120270Y-77018282D01*
X175120269Y-77018282D01*
X174487962Y-77650590D01*
X174470925Y-77587007D01*
X174405099Y-77472993D01*
X174312007Y-77379901D01*
X174197993Y-77314075D01*
X174134409Y-77297037D01*
X174766716Y-76664728D01*
X174712550Y-76625375D01*
X174523217Y-76528904D01*
X174321129Y-76463242D01*
X174111246Y-76430000D01*
X173898754Y-76430000D01*
X173688872Y-76463242D01*
X173688869Y-76463242D01*
X173486782Y-76528904D01*
X173297439Y-76625380D01*
X173243282Y-76664727D01*
X173243282Y-76664728D01*
X173875591Y-77297037D01*
X173812007Y-77314075D01*
X173697993Y-77379901D01*
X173604901Y-77472993D01*
X173539075Y-77587007D01*
X173522037Y-77650591D01*
X172889728Y-77018282D01*
X172889727Y-77018282D01*
X172850380Y-77072439D01*
X172751694Y-77266121D01*
X172750678Y-77265603D01*
X172710212Y-77315813D01*
X172643916Y-77337872D01*
X172576218Y-77320588D01*
X172528612Y-77269447D01*
X172515500Y-77213951D01*
X172515500Y-76910249D01*
X172515499Y-76910247D01*
X172503868Y-76851770D01*
X172503867Y-76851769D01*
X172459552Y-76785447D01*
X172393230Y-76741132D01*
X172393229Y-76741131D01*
X172334752Y-76729500D01*
X172334748Y-76729500D01*
X170595252Y-76729500D01*
X170595247Y-76729500D01*
X170536770Y-76741131D01*
X170536769Y-76741132D01*
X170470447Y-76785447D01*
X170426132Y-76851769D01*
X170426131Y-76851770D01*
X170414500Y-76910247D01*
X165569173Y-76910247D01*
X165477595Y-76849057D01*
X165357047Y-76799124D01*
X165302643Y-76755282D01*
X165280579Y-76688988D01*
X165280500Y-76684563D01*
X165280500Y-75670439D01*
X165280500Y-75670438D01*
X165260021Y-75594011D01*
X165226237Y-75535495D01*
X165220464Y-75525495D01*
X165220458Y-75525487D01*
X164944512Y-75249541D01*
X164944504Y-75249535D01*
X164875995Y-75209982D01*
X164875990Y-75209979D01*
X164850513Y-75203152D01*
X164799562Y-75189500D01*
X146340438Y-75189500D01*
X146302224Y-75199739D01*
X146264009Y-75209979D01*
X146264004Y-75209982D01*
X146195495Y-75249535D01*
X146195487Y-75249541D01*
X145909541Y-75535487D01*
X145909535Y-75535495D01*
X145869982Y-75604004D01*
X145869979Y-75604009D01*
X145849500Y-75680439D01*
X145849500Y-86195983D01*
X145829815Y-86263022D01*
X145777011Y-86308777D01*
X145719353Y-86318971D01*
X145719353Y-86319500D01*
X145716364Y-86319500D01*
X145715787Y-86319602D01*
X145714489Y-86319500D01*
X145714481Y-86319500D01*
X143900523Y-86319500D01*
X143833484Y-86299815D01*
X143787729Y-86247011D01*
X143777785Y-86177853D01*
X143806810Y-86114297D01*
X143812842Y-86107819D01*
X143832315Y-86088345D01*
X143924356Y-85939124D01*
X143924358Y-85939119D01*
X143979505Y-85772697D01*
X143979506Y-85772690D01*
X143989999Y-85669986D01*
X143990000Y-85669973D01*
X143990000Y-85270000D01*
X142923012Y-85270000D01*
X142955925Y-85212993D01*
X142990000Y-85085826D01*
X142990000Y-84954174D01*
X142955925Y-84827007D01*
X142923012Y-84770000D01*
X143989999Y-84770000D01*
X143989999Y-84370028D01*
X143989998Y-84370013D01*
X143979505Y-84267302D01*
X143924358Y-84100880D01*
X143924356Y-84100875D01*
X143832315Y-83951654D01*
X143708345Y-83827684D01*
X143559124Y-83735643D01*
X143559119Y-83735641D01*
X143392697Y-83680494D01*
X143392690Y-83680493D01*
X143289986Y-83670000D01*
X142740000Y-83670000D01*
X142740000Y-84586988D01*
X142682993Y-84554075D01*
X142555826Y-84520000D01*
X142424174Y-84520000D01*
X142297007Y-84554075D01*
X142240000Y-84586988D01*
X142240000Y-83670000D01*
X141690028Y-83670000D01*
X141690012Y-83670001D01*
X141587302Y-83680494D01*
X141420880Y-83735641D01*
X141420875Y-83735643D01*
X141271654Y-83827684D01*
X141147684Y-83951654D01*
X141055643Y-84100875D01*
X141055641Y-84100880D01*
X141000494Y-84267302D01*
X141000493Y-84267309D01*
X140990000Y-84370013D01*
X136737300Y-84370013D01*
X136737300Y-74011700D01*
X136756985Y-73944661D01*
X136809789Y-73898906D01*
X136861300Y-73887700D01*
X186112300Y-73887700D01*
X186179339Y-73907385D01*
G37*
%TD.AperFunction*%
%TD*%
M02*
