%TF.GenerationSoftware,KiCad,Pcbnew,9.0.4*%
%TF.CreationDate,2025-11-06T21:51:05+01:00*%
%TF.ProjectId,pwr_latcher,7077725f-6c61-4746-9368-65722e6b6963,rev?*%
%TF.SameCoordinates,Original*%
%TF.FileFunction,Legend,Bot*%
%TF.FilePolarity,Positive*%
%FSLAX46Y46*%
G04 Gerber Fmt 4.6, Leading zero omitted, Abs format (unit mm)*
G04 Created by KiCad (PCBNEW 9.0.4) date 2025-11-06 21:51:05*
%MOMM*%
%LPD*%
G01*
G04 APERTURE LIST*
%ADD10C,0.000000*%
G04 APERTURE END LIST*
D10*
%TO.C,g1*%
G36*
X162549250Y-93127014D02*
G01*
X162549250Y-93221639D01*
X162366760Y-93221639D01*
X162184269Y-93221639D01*
X162184269Y-93127014D01*
X162184269Y-93032389D01*
X162366760Y-93032389D01*
X162549250Y-93032389D01*
X162549250Y-93127014D01*
G37*
G36*
X162887196Y-92329462D02*
G01*
X162887196Y-92437922D01*
X162363380Y-92434384D01*
X161839564Y-92430846D01*
X161839564Y-92329462D01*
X161839564Y-92228078D01*
X162363380Y-92224540D01*
X162887196Y-92221002D01*
X162887196Y-92329462D01*
G37*
G36*
X162698064Y-92657033D02*
G01*
X162698598Y-92671417D01*
X162701728Y-92711649D01*
X162706706Y-92758653D01*
X162715230Y-92829622D01*
X162368050Y-92829622D01*
X162020870Y-92829622D01*
X162024842Y-92731618D01*
X162028814Y-92633613D01*
X162363380Y-92629998D01*
X162697946Y-92626382D01*
X162698064Y-92657033D01*
G37*
G36*
X163073796Y-91915655D02*
G01*
X163074861Y-91950839D01*
X163073996Y-91990832D01*
X163070794Y-92013781D01*
X163070449Y-92014470D01*
X163063912Y-92018549D01*
X163048506Y-92021927D01*
X163022211Y-92024645D01*
X162983011Y-92026746D01*
X162928886Y-92028274D01*
X162857819Y-92029271D01*
X162767790Y-92029781D01*
X162656783Y-92029846D01*
X162522778Y-92029509D01*
X162363758Y-92028812D01*
X161663832Y-92025311D01*
X161663832Y-91930686D01*
X161663832Y-91836061D01*
X162366760Y-91836061D01*
X163069687Y-91836061D01*
X163073796Y-91915655D01*
G37*
G36*
X165642676Y-85449562D02*
G01*
X165700028Y-85450785D01*
X165742240Y-85453231D01*
X165773500Y-85457294D01*
X165797993Y-85463368D01*
X165819903Y-85471849D01*
X165843418Y-85483130D01*
X165912982Y-85531555D01*
X165965991Y-85597354D01*
X165997197Y-85674424D01*
X165997215Y-85674504D01*
X165998458Y-85693627D01*
X165999661Y-85738532D01*
X166000817Y-85807984D01*
X166001923Y-85900746D01*
X166002971Y-86015583D01*
X166003958Y-86151259D01*
X166004876Y-86306537D01*
X166005722Y-86480182D01*
X166006489Y-86670959D01*
X166007172Y-86877631D01*
X166007765Y-87098962D01*
X166008263Y-87333717D01*
X166008660Y-87580660D01*
X166008952Y-87838555D01*
X166009132Y-88106165D01*
X166009195Y-88382256D01*
X166009195Y-88507925D01*
X166009185Y-88812959D01*
X166009150Y-89092534D01*
X166009079Y-89347787D01*
X166008963Y-89579852D01*
X166008791Y-89789866D01*
X166008552Y-89978963D01*
X166008235Y-90148280D01*
X166007830Y-90298953D01*
X166007327Y-90432116D01*
X166006716Y-90548906D01*
X166005984Y-90650458D01*
X166005123Y-90737908D01*
X166004121Y-90812392D01*
X166002968Y-90875045D01*
X166001653Y-90927003D01*
X166000167Y-90969401D01*
X165998498Y-91003375D01*
X165996635Y-91030062D01*
X165994569Y-91050595D01*
X165992289Y-91066112D01*
X165989784Y-91077748D01*
X165987043Y-91086638D01*
X165984057Y-91093918D01*
X165955882Y-91140054D01*
X165899412Y-91189723D01*
X165825351Y-91219910D01*
X165816481Y-91221460D01*
X165778040Y-91224798D01*
X165719254Y-91227469D01*
X165644847Y-91229338D01*
X165559544Y-91230270D01*
X165468070Y-91230129D01*
X165162887Y-91227759D01*
X165107562Y-91191117D01*
X165094788Y-91182080D01*
X165050603Y-91144268D01*
X165014240Y-91104660D01*
X165003154Y-91089498D01*
X164990465Y-91067576D01*
X164981755Y-91041936D01*
X164975775Y-91006754D01*
X164971276Y-90956205D01*
X164967007Y-90884464D01*
X164966033Y-90860152D01*
X164964690Y-90803936D01*
X164963451Y-90724726D01*
X164962315Y-90624135D01*
X164961280Y-90503778D01*
X164960346Y-90365268D01*
X164959512Y-90210219D01*
X164958776Y-90040246D01*
X164958139Y-89856961D01*
X164957599Y-89661978D01*
X164957155Y-89456913D01*
X164956807Y-89243378D01*
X164956552Y-89022987D01*
X164956392Y-88797354D01*
X164956324Y-88568094D01*
X164956348Y-88336819D01*
X164956462Y-88105144D01*
X164956667Y-87874683D01*
X164956960Y-87647049D01*
X164957342Y-87423857D01*
X164957811Y-87206720D01*
X164958366Y-86997253D01*
X164959007Y-86797068D01*
X164959732Y-86607780D01*
X164960541Y-86431003D01*
X164961433Y-86268350D01*
X164962407Y-86121436D01*
X164963461Y-85991874D01*
X164964596Y-85881279D01*
X164965809Y-85791263D01*
X164967101Y-85723442D01*
X164968471Y-85679428D01*
X164969916Y-85660836D01*
X164989724Y-85615638D01*
X165030544Y-85559305D01*
X165082526Y-85509255D01*
X165137914Y-85474107D01*
X165154258Y-85467472D01*
X165178279Y-85460773D01*
X165209285Y-85455921D01*
X165251285Y-85452625D01*
X165308288Y-85450597D01*
X165384305Y-85449546D01*
X165483344Y-85449184D01*
X165566001Y-85449166D01*
X165642676Y-85449562D01*
G37*
G36*
X159151503Y-85464147D02*
G01*
X159266174Y-85465228D01*
X159317118Y-85465731D01*
X159421391Y-85466861D01*
X159503031Y-85468093D01*
X159565143Y-85469682D01*
X159610835Y-85471883D01*
X159643210Y-85474950D01*
X159665376Y-85479139D01*
X159680436Y-85484704D01*
X159691499Y-85491902D01*
X159701668Y-85500986D01*
X159709440Y-85509414D01*
X159734113Y-85550561D01*
X159752160Y-85602168D01*
X159754083Y-85615129D01*
X159756003Y-85640133D01*
X159757764Y-85677461D01*
X159759373Y-85728033D01*
X159760834Y-85792767D01*
X159762153Y-85872584D01*
X159763336Y-85968403D01*
X159764389Y-86081143D01*
X159765318Y-86211724D01*
X159766127Y-86361065D01*
X159766823Y-86530086D01*
X159767411Y-86719706D01*
X159767897Y-86930845D01*
X159768286Y-87164422D01*
X159768585Y-87421356D01*
X159768799Y-87702568D01*
X159768933Y-88008977D01*
X159768993Y-88341501D01*
X159769004Y-88555838D01*
X159768998Y-88855218D01*
X159768956Y-89129441D01*
X159768869Y-89379632D01*
X159768728Y-89606918D01*
X159768522Y-89812426D01*
X159768242Y-89997281D01*
X159767879Y-90162611D01*
X159767423Y-90309541D01*
X159766865Y-90439197D01*
X159766195Y-90552707D01*
X159765403Y-90651197D01*
X159764481Y-90735792D01*
X159763418Y-90807619D01*
X159762205Y-90867805D01*
X159760833Y-90917476D01*
X159759291Y-90957758D01*
X159757572Y-90989777D01*
X159755664Y-91014661D01*
X159753558Y-91033534D01*
X159751245Y-91047525D01*
X159748716Y-91057758D01*
X159745960Y-91065361D01*
X159723643Y-91109119D01*
X159675266Y-91167278D01*
X159609122Y-91209428D01*
X159597899Y-91214389D01*
X159577665Y-91221259D01*
X159552877Y-91226284D01*
X159519789Y-91229681D01*
X159474656Y-91231666D01*
X159413730Y-91232453D01*
X159333266Y-91232260D01*
X159229518Y-91231301D01*
X158903984Y-91227759D01*
X158838725Y-91187206D01*
X158838009Y-91186759D01*
X158783250Y-91142954D01*
X158745892Y-91093325D01*
X158744305Y-91090229D01*
X158741197Y-91083589D01*
X158738350Y-91075764D01*
X158735753Y-91065630D01*
X158733398Y-91052062D01*
X158731274Y-91033938D01*
X158729372Y-91010133D01*
X158727681Y-90979524D01*
X158726193Y-90940985D01*
X158724896Y-90893394D01*
X158723783Y-90835626D01*
X158722842Y-90766558D01*
X158722064Y-90685065D01*
X158721440Y-90590024D01*
X158720959Y-90480310D01*
X158720612Y-90354800D01*
X158720389Y-90212370D01*
X158720280Y-90051896D01*
X158720276Y-89872253D01*
X158720366Y-89672319D01*
X158720542Y-89450969D01*
X158720793Y-89207079D01*
X158721109Y-88939525D01*
X158721481Y-88647183D01*
X158721899Y-88328929D01*
X158722280Y-88020700D01*
X158722615Y-87722456D01*
X158722920Y-87449098D01*
X158723230Y-87199526D01*
X158723585Y-86972639D01*
X158724021Y-86767335D01*
X158724575Y-86582515D01*
X158725284Y-86417077D01*
X158726186Y-86269921D01*
X158727317Y-86139946D01*
X158728716Y-86026051D01*
X158730419Y-85927136D01*
X158732464Y-85842100D01*
X158734887Y-85769841D01*
X158737726Y-85709260D01*
X158741018Y-85659255D01*
X158744800Y-85618727D01*
X158749110Y-85586573D01*
X158753985Y-85561693D01*
X158759461Y-85542987D01*
X158765577Y-85529354D01*
X158772369Y-85519693D01*
X158779874Y-85512903D01*
X158788130Y-85507884D01*
X158797174Y-85503535D01*
X158807043Y-85498754D01*
X158817775Y-85492442D01*
X158823489Y-85488662D01*
X158837051Y-85480561D01*
X158852055Y-85474287D01*
X158871699Y-85469647D01*
X158899184Y-85466445D01*
X158937708Y-85464489D01*
X158990469Y-85463583D01*
X159060668Y-85463533D01*
X159151503Y-85464147D01*
G37*
G36*
X162399451Y-81260543D02*
G01*
X162544438Y-81263844D01*
X162687255Y-81269324D01*
X162821899Y-81276840D01*
X162942366Y-81286247D01*
X163042651Y-81297400D01*
X163395963Y-81355909D01*
X163786124Y-81445506D01*
X164174299Y-81561263D01*
X164562079Y-81703603D01*
X164691808Y-81756958D01*
X164891821Y-81844162D01*
X165085290Y-81934360D01*
X165267294Y-82025151D01*
X165432918Y-82114137D01*
X165577244Y-82198917D01*
X165652040Y-82247825D01*
X165798305Y-82356381D01*
X165946542Y-82481836D01*
X166091100Y-82618983D01*
X166226326Y-82762618D01*
X166346570Y-82907536D01*
X166427185Y-83019105D01*
X166515536Y-83157214D01*
X166597883Y-83302172D01*
X166670838Y-83447601D01*
X166731014Y-83587120D01*
X166775022Y-83714350D01*
X166778450Y-83726046D01*
X166792948Y-83775293D01*
X166805428Y-83818630D01*
X166816051Y-83858411D01*
X166824980Y-83896989D01*
X166832377Y-83936716D01*
X166838405Y-83979947D01*
X166843224Y-84029034D01*
X166846998Y-84086331D01*
X166849889Y-84154190D01*
X166852059Y-84234965D01*
X166853670Y-84331008D01*
X166854884Y-84444674D01*
X166855863Y-84578314D01*
X166856770Y-84734283D01*
X166857767Y-84914933D01*
X166862889Y-85820628D01*
X167011760Y-85913293D01*
X167166445Y-86017174D01*
X167367377Y-86175838D01*
X167553786Y-86350874D01*
X167719743Y-86537061D01*
X167753237Y-86579236D01*
X167912365Y-86804527D01*
X168047489Y-87040161D01*
X168158578Y-87284448D01*
X168245600Y-87535699D01*
X168308523Y-87792225D01*
X168347318Y-88052337D01*
X168361949Y-88314345D01*
X168352391Y-88576561D01*
X168318608Y-88837294D01*
X168260569Y-89094856D01*
X168178244Y-89347557D01*
X168071600Y-89593709D01*
X167940608Y-89831622D01*
X167785234Y-90059606D01*
X167785186Y-90059670D01*
X167635427Y-90242282D01*
X167470757Y-90411293D01*
X167287165Y-90570482D01*
X167080642Y-90723628D01*
X166949303Y-90814282D01*
X166513954Y-90814874D01*
X166078605Y-90815465D01*
X166074139Y-87473182D01*
X166069673Y-84130899D01*
X166040507Y-84036274D01*
X166026890Y-83993612D01*
X165970622Y-83843946D01*
X165902711Y-83702750D01*
X165820584Y-83566043D01*
X165721671Y-83429848D01*
X165603399Y-83290185D01*
X165463196Y-83143075D01*
X165438592Y-83118585D01*
X165329091Y-83013575D01*
X165225068Y-82921709D01*
X165122551Y-82840560D01*
X165017569Y-82767703D01*
X164906148Y-82700710D01*
X164784317Y-82637158D01*
X164648102Y-82574619D01*
X164493533Y-82510668D01*
X164316635Y-82442879D01*
X164106545Y-82367187D01*
X163830031Y-82276466D01*
X163567818Y-82201784D01*
X163316162Y-82142381D01*
X163071320Y-82097499D01*
X162829549Y-82066380D01*
X162587105Y-82048264D01*
X162340244Y-82042395D01*
X162292517Y-82042595D01*
X162108715Y-82047612D01*
X161931442Y-82059997D01*
X161754499Y-82080580D01*
X161571689Y-82110188D01*
X161376812Y-82149652D01*
X161163673Y-82199801D01*
X161133593Y-82207466D01*
X161024195Y-82237734D01*
X160900500Y-82274962D01*
X160766992Y-82317569D01*
X160628150Y-82363974D01*
X160488458Y-82412596D01*
X160352397Y-82461853D01*
X160224448Y-82510165D01*
X160109093Y-82555950D01*
X160010815Y-82597626D01*
X159934095Y-82633614D01*
X159756175Y-82735067D01*
X159572354Y-82863055D01*
X159391436Y-83012191D01*
X159217105Y-83179669D01*
X159156171Y-83244191D01*
X159020510Y-83401578D01*
X158907328Y-83555790D01*
X158814309Y-83710518D01*
X158739137Y-83869449D01*
X158679497Y-84036274D01*
X158650535Y-84130899D01*
X158645875Y-87473182D01*
X158641214Y-90815465D01*
X158210815Y-90815465D01*
X157780415Y-90815465D01*
X157660655Y-90736599D01*
X157526754Y-90643220D01*
X157309685Y-90466713D01*
X157112594Y-90272524D01*
X156936207Y-90061478D01*
X156781253Y-89834396D01*
X156648460Y-89592102D01*
X156609801Y-89510317D01*
X156544474Y-89356425D01*
X156491384Y-89205503D01*
X156446391Y-89046368D01*
X156433498Y-88993398D01*
X156384006Y-88723364D01*
X156360755Y-88452538D01*
X156363236Y-88182684D01*
X156390940Y-87915566D01*
X156443356Y-87652947D01*
X156519976Y-87396591D01*
X156620289Y-87148262D01*
X156743788Y-86909723D01*
X156889961Y-86682738D01*
X157058299Y-86469070D01*
X157248293Y-86270484D01*
X157318294Y-86206434D01*
X157418840Y-86121051D01*
X157522835Y-86039243D01*
X157624840Y-85965088D01*
X157719412Y-85902664D01*
X157801113Y-85856050D01*
X157858564Y-85826837D01*
X157858564Y-84989985D01*
X157858565Y-84976136D01*
X157858850Y-84792284D01*
X157859615Y-84624722D01*
X157860838Y-84474984D01*
X157862495Y-84344607D01*
X157864563Y-84235124D01*
X157867017Y-84148071D01*
X157869835Y-84084981D01*
X157872993Y-84047391D01*
X157889771Y-83944566D01*
X157946211Y-83717526D01*
X158028577Y-83492742D01*
X158136107Y-83271680D01*
X158268036Y-83055811D01*
X158423602Y-82846601D01*
X158602039Y-82645521D01*
X158623406Y-82623574D01*
X158754365Y-82497739D01*
X158891632Y-82381204D01*
X159038609Y-82271723D01*
X159198695Y-82167049D01*
X159375291Y-82064934D01*
X159571797Y-81963133D01*
X159791613Y-81859397D01*
X159931035Y-81797564D01*
X160272620Y-81658459D01*
X160605883Y-81541259D01*
X160934605Y-81444924D01*
X161262566Y-81368415D01*
X161593546Y-81310692D01*
X161931325Y-81270715D01*
X162011526Y-81265159D01*
X162126991Y-81261056D01*
X162258301Y-81259566D01*
X162399451Y-81260543D01*
G37*
G36*
X163121194Y-83538398D02*
G01*
X163079718Y-83614632D01*
X163029993Y-83705839D01*
X162973794Y-83808765D01*
X162912896Y-83920158D01*
X162849075Y-84036766D01*
X162784105Y-84155337D01*
X162481661Y-84706970D01*
X162481661Y-85522571D01*
X162481596Y-85664948D01*
X162481472Y-85815402D01*
X162481517Y-85942410D01*
X162481968Y-86047940D01*
X162483059Y-86133963D01*
X162485024Y-86202450D01*
X162488098Y-86255370D01*
X162492515Y-86294694D01*
X162498511Y-86322392D01*
X162506320Y-86340433D01*
X162516176Y-86350789D01*
X162528315Y-86355430D01*
X162542971Y-86356325D01*
X162560378Y-86355445D01*
X162580771Y-86354759D01*
X162595143Y-86355137D01*
X162664639Y-86362614D01*
X162747201Y-86377975D01*
X162833428Y-86398992D01*
X162913919Y-86423442D01*
X162979274Y-86449098D01*
X163047721Y-86485315D01*
X163122210Y-86541273D01*
X163173120Y-86605503D01*
X163202307Y-86680558D01*
X163211624Y-86768990D01*
X163211558Y-86778281D01*
X163206802Y-86834847D01*
X163192138Y-86882731D01*
X163164216Y-86927528D01*
X163119686Y-86974832D01*
X163055198Y-87030240D01*
X163054885Y-87030495D01*
X163012438Y-87065310D01*
X162988262Y-87087500D01*
X162979642Y-87101438D01*
X162982220Y-87107582D01*
X162983863Y-87111499D01*
X162998211Y-87122057D01*
X163010686Y-87130952D01*
X163049810Y-87163514D01*
X163094028Y-87204919D01*
X163136855Y-87248654D01*
X163171803Y-87288204D01*
X163192388Y-87317056D01*
X163193411Y-87319065D01*
X163206672Y-87365456D01*
X163210951Y-87424137D01*
X163206239Y-87482603D01*
X163192527Y-87528350D01*
X163178181Y-87549749D01*
X163144273Y-87588844D01*
X163099686Y-87633476D01*
X163050734Y-87677422D01*
X163003728Y-87714458D01*
X162964804Y-87742376D01*
X162981392Y-87755408D01*
X163049233Y-87808707D01*
X163069656Y-87825104D01*
X163135738Y-87885908D01*
X163179661Y-87942801D01*
X163204074Y-87999901D01*
X163211624Y-88061326D01*
X163206299Y-88112531D01*
X163180180Y-88180743D01*
X163130749Y-88247563D01*
X163056305Y-88315774D01*
X163053520Y-88318001D01*
X163017311Y-88347934D01*
X162991656Y-88370910D01*
X162981952Y-88382112D01*
X162981983Y-88382158D01*
X162984983Y-88386542D01*
X163003738Y-88406108D01*
X163035820Y-88436901D01*
X163076798Y-88474600D01*
X163096697Y-88493029D01*
X163139092Y-88535300D01*
X163172773Y-88572914D01*
X163191807Y-88599430D01*
X163205234Y-88637877D01*
X163212687Y-88698299D01*
X163209035Y-88759495D01*
X163194138Y-88808818D01*
X163189311Y-88817150D01*
X163158407Y-88857423D01*
X163113857Y-88904223D01*
X163062624Y-88950644D01*
X163011673Y-88989780D01*
X162970647Y-89017862D01*
X162967177Y-89020237D01*
X163025191Y-89057099D01*
X163039110Y-89066377D01*
X163103241Y-89120150D01*
X163157862Y-89183152D01*
X163194931Y-89246414D01*
X163207662Y-89289233D01*
X163214382Y-89362633D01*
X163207633Y-89439162D01*
X163187742Y-89507014D01*
X163162686Y-89553668D01*
X163099185Y-89627918D01*
X163012881Y-89688188D01*
X162904081Y-89734327D01*
X162773091Y-89766186D01*
X162620219Y-89783616D01*
X162481661Y-89792219D01*
X162481661Y-90607993D01*
X162481661Y-91423768D01*
X162866919Y-91423768D01*
X163252177Y-91423768D01*
X163252177Y-91525151D01*
X163252177Y-91626535D01*
X162360001Y-91626535D01*
X161467824Y-91626535D01*
X161467824Y-91525151D01*
X161467824Y-91423768D01*
X161866600Y-91423768D01*
X162265376Y-91423768D01*
X162265376Y-90505940D01*
X162265376Y-89588113D01*
X162451246Y-89579041D01*
X162524270Y-89575054D01*
X162623324Y-89567511D01*
X162702811Y-89557946D01*
X162767342Y-89545596D01*
X162821526Y-89529692D01*
X162869972Y-89509471D01*
X162909437Y-89486748D01*
X162959166Y-89443424D01*
X162991839Y-89394744D01*
X163004628Y-89345450D01*
X162994705Y-89300284D01*
X162985075Y-89286837D01*
X162949490Y-89255336D01*
X162898907Y-89222639D01*
X162840675Y-89193196D01*
X162782140Y-89171461D01*
X162767612Y-89167299D01*
X162741462Y-89161089D01*
X162716462Y-89158706D01*
X162687139Y-89160718D01*
X162648026Y-89167691D01*
X162593650Y-89180192D01*
X162518543Y-89198789D01*
X162327222Y-89242056D01*
X162153860Y-89271233D01*
X162001805Y-89285363D01*
X161870493Y-89284473D01*
X161759358Y-89268590D01*
X161667836Y-89237737D01*
X161605499Y-89203386D01*
X161554862Y-89158919D01*
X161524881Y-89105620D01*
X161512125Y-89039110D01*
X161512404Y-89021744D01*
X161726035Y-89021744D01*
X161737390Y-89040795D01*
X161774530Y-89057209D01*
X161788527Y-89060481D01*
X161836384Y-89066723D01*
X161896593Y-89069754D01*
X161964776Y-89069901D01*
X162036557Y-89067496D01*
X162107560Y-89062865D01*
X162173410Y-89056339D01*
X162229729Y-89048247D01*
X162272142Y-89038917D01*
X162296273Y-89028679D01*
X162297746Y-89017862D01*
X162290172Y-89013035D01*
X162255897Y-89002819D01*
X162202461Y-88994000D01*
X162135332Y-88986895D01*
X162059977Y-88981819D01*
X161981863Y-88979092D01*
X161906457Y-88979028D01*
X161839226Y-88981947D01*
X161785638Y-88988164D01*
X161778457Y-88989553D01*
X161739910Y-89003512D01*
X161726035Y-89021744D01*
X161512404Y-89021744D01*
X161512833Y-88995002D01*
X161533445Y-88923925D01*
X161578230Y-88863608D01*
X161646431Y-88814923D01*
X161737293Y-88778744D01*
X161766055Y-88771425D01*
X161806253Y-88765057D01*
X161854807Y-88762105D01*
X161917907Y-88762253D01*
X162001740Y-88765184D01*
X162059688Y-88768426D01*
X162183889Y-88780876D01*
X162308191Y-88801759D01*
X162440488Y-88832550D01*
X162588675Y-88874722D01*
X162702447Y-88909373D01*
X162777924Y-88874837D01*
X162812533Y-88858254D01*
X162876417Y-88823777D01*
X162931917Y-88789019D01*
X162973519Y-88757569D01*
X162995714Y-88733018D01*
X163001482Y-88716399D01*
X163000642Y-88687489D01*
X162999898Y-88685879D01*
X162981487Y-88665874D01*
X162945966Y-88637862D01*
X162899480Y-88605882D01*
X162848175Y-88573973D01*
X162798196Y-88546173D01*
X162755690Y-88526522D01*
X162754351Y-88526003D01*
X162730100Y-88517324D01*
X162708460Y-88512968D01*
X162683718Y-88513587D01*
X162650163Y-88519832D01*
X162602080Y-88532351D01*
X162533758Y-88551797D01*
X162407751Y-88585119D01*
X162246212Y-88618594D01*
X162096228Y-88638921D01*
X161959580Y-88646211D01*
X161838053Y-88640573D01*
X161733427Y-88622115D01*
X161647487Y-88590946D01*
X161582015Y-88547176D01*
X161538792Y-88490914D01*
X161536457Y-88486180D01*
X161512575Y-88411665D01*
X161512577Y-88376510D01*
X161724957Y-88376510D01*
X161731434Y-88393743D01*
X161761837Y-88411101D01*
X161781030Y-88415913D01*
X161824999Y-88421992D01*
X161883035Y-88426942D01*
X161947707Y-88430009D01*
X162006963Y-88430888D01*
X162096582Y-88428679D01*
X162171688Y-88422253D01*
X162229178Y-88412058D01*
X162265947Y-88398544D01*
X162278894Y-88382158D01*
X162268835Y-88373334D01*
X162235561Y-88362144D01*
X162182909Y-88350515D01*
X162114905Y-88339319D01*
X162035573Y-88329429D01*
X162015069Y-88327489D01*
X161943042Y-88324565D01*
X161876355Y-88327310D01*
X161818105Y-88334802D01*
X161771390Y-88346115D01*
X161739308Y-88360326D01*
X161724957Y-88376510D01*
X161512577Y-88376510D01*
X161512580Y-88339771D01*
X161536525Y-88275421D01*
X161551070Y-88253151D01*
X161586819Y-88212348D01*
X161632954Y-88179972D01*
X161697627Y-88149658D01*
X161704221Y-88146992D01*
X161738601Y-88134871D01*
X161773521Y-88126926D01*
X161815600Y-88122385D01*
X161871455Y-88120474D01*
X161947707Y-88120420D01*
X162017883Y-88121968D01*
X162178833Y-88134983D01*
X162336830Y-88162550D01*
X162503385Y-88206451D01*
X162506614Y-88207422D01*
X162594968Y-88231362D01*
X162665334Y-88243596D01*
X162723854Y-88244205D01*
X162776667Y-88233275D01*
X162829916Y-88210888D01*
X162877283Y-88184017D01*
X162926663Y-88150362D01*
X162968689Y-88116331D01*
X162997905Y-88086371D01*
X163008856Y-88064934D01*
X163008387Y-88060541D01*
X162992318Y-88033344D01*
X162957520Y-88001120D01*
X162909653Y-87967225D01*
X162854376Y-87935018D01*
X162797347Y-87907855D01*
X162744228Y-87889096D01*
X162700676Y-87882097D01*
X162679427Y-87883805D01*
X162631628Y-87891846D01*
X162571650Y-87904978D01*
X162507662Y-87921531D01*
X162313248Y-87970037D01*
X162136744Y-88001450D01*
X161980552Y-88015098D01*
X161844688Y-88010983D01*
X161729171Y-87989104D01*
X161634016Y-87949459D01*
X161615960Y-87938182D01*
X161558131Y-87884166D01*
X161521300Y-87817090D01*
X161508668Y-87743456D01*
X161726689Y-87743456D01*
X161735857Y-87761896D01*
X161771541Y-87781403D01*
X161777811Y-87783714D01*
X161822589Y-87792756D01*
X161885686Y-87798054D01*
X161960079Y-87799603D01*
X162038747Y-87797398D01*
X162114670Y-87791434D01*
X162180825Y-87781706D01*
X162211627Y-87775404D01*
X162252876Y-87764959D01*
X162271244Y-87755408D01*
X162269305Y-87744871D01*
X162249636Y-87731467D01*
X162247928Y-87730609D01*
X162218901Y-87723399D01*
X162169632Y-87717324D01*
X162106019Y-87712532D01*
X162033957Y-87709170D01*
X161959346Y-87707387D01*
X161888081Y-87707331D01*
X161826061Y-87709149D01*
X161779182Y-87712990D01*
X161753342Y-87719003D01*
X161743631Y-87724690D01*
X161726689Y-87743456D01*
X161508668Y-87743456D01*
X161508377Y-87741762D01*
X161511590Y-87705711D01*
X161536579Y-87639505D01*
X161584608Y-87582623D01*
X161653622Y-87536635D01*
X161741566Y-87503111D01*
X161846384Y-87483620D01*
X161863947Y-87482056D01*
X161957385Y-87480688D01*
X162068282Y-87488077D01*
X162190315Y-87503308D01*
X162317164Y-87525466D01*
X162442508Y-87553637D01*
X162560025Y-87586906D01*
X162600508Y-87599545D01*
X162648578Y-87612835D01*
X162682511Y-87618535D01*
X162709254Y-87617597D01*
X162735756Y-87610971D01*
X162755617Y-87603969D01*
X162811057Y-87578998D01*
X162868224Y-87547019D01*
X162921853Y-87511677D01*
X162966678Y-87476616D01*
X162997434Y-87445481D01*
X163008856Y-87421917D01*
X163006317Y-87412131D01*
X162985081Y-87384995D01*
X162946898Y-87352740D01*
X162897360Y-87318754D01*
X162842057Y-87286423D01*
X162786581Y-87259136D01*
X162736521Y-87240279D01*
X162697468Y-87233241D01*
X162682402Y-87234512D01*
X162639826Y-87242426D01*
X162584227Y-87255978D01*
X162523713Y-87273300D01*
X162466746Y-87290409D01*
X162350833Y-87321324D01*
X162245229Y-87342820D01*
X162140272Y-87356670D01*
X162026301Y-87364650D01*
X161985301Y-87366151D01*
X161858990Y-87364323D01*
X161754788Y-87351179D01*
X161670544Y-87326144D01*
X161604105Y-87288641D01*
X161553322Y-87238097D01*
X161544786Y-87226496D01*
X161526372Y-87193775D01*
X161517657Y-87157157D01*
X161515527Y-87108849D01*
X161726909Y-87108849D01*
X161745604Y-87127820D01*
X161785638Y-87141011D01*
X161818403Y-87144558D01*
X161873144Y-87147349D01*
X161939876Y-87148940D01*
X162010802Y-87149297D01*
X162078122Y-87148387D01*
X162134038Y-87146177D01*
X162170751Y-87142635D01*
X162227558Y-87131313D01*
X162271205Y-87118984D01*
X162293560Y-87107582D01*
X162291832Y-87098132D01*
X162268774Y-87089833D01*
X162219411Y-87080101D01*
X162153771Y-87071862D01*
X162077931Y-87065426D01*
X161997965Y-87061100D01*
X161919948Y-87059193D01*
X161849958Y-87060013D01*
X161794067Y-87063868D01*
X161758354Y-87071066D01*
X161731196Y-87088310D01*
X161726909Y-87108849D01*
X161515527Y-87108849D01*
X161515365Y-87105165D01*
X161515580Y-87081710D01*
X161519643Y-87037909D01*
X161531416Y-87004666D01*
X161554244Y-86970381D01*
X161557750Y-86965941D01*
X161605994Y-86921438D01*
X161669145Y-86884310D01*
X161706214Y-86869992D01*
X161799873Y-86849383D01*
X161912962Y-86841235D01*
X162042482Y-86845382D01*
X162185433Y-86861660D01*
X162338817Y-86889904D01*
X162499634Y-86929949D01*
X162503027Y-86930900D01*
X162568323Y-86948506D01*
X162626182Y-86962910D01*
X162670432Y-86972649D01*
X162694904Y-86976259D01*
X162717451Y-86972172D01*
X162761419Y-86955977D01*
X162815027Y-86930876D01*
X162871115Y-86900547D01*
X162922524Y-86868671D01*
X162962094Y-86838928D01*
X162966443Y-86835081D01*
X162994349Y-86806720D01*
X163005048Y-86783210D01*
X163003136Y-86755171D01*
X162995739Y-86729795D01*
X162966870Y-86684857D01*
X162917740Y-86648051D01*
X162846190Y-86617999D01*
X162750060Y-86593317D01*
X162738017Y-86590947D01*
X162669973Y-86579993D01*
X162592548Y-86570452D01*
X162520257Y-86564163D01*
X162499225Y-86562816D01*
X162432188Y-86558136D01*
X162369638Y-86553271D01*
X162322827Y-86549080D01*
X162251858Y-86541886D01*
X162251858Y-85630231D01*
X162251858Y-84718577D01*
X161864904Y-84015266D01*
X161798807Y-83894733D01*
X161733336Y-83774505D01*
X161673243Y-83663294D01*
X161619632Y-83563189D01*
X161589859Y-83506965D01*
X161832805Y-83506965D01*
X161833835Y-83509247D01*
X161845093Y-83530200D01*
X161867458Y-83570597D01*
X161899302Y-83627535D01*
X161938998Y-83698111D01*
X161984920Y-83779423D01*
X162035442Y-83868567D01*
X162238079Y-84225524D01*
X162238210Y-83863922D01*
X162238267Y-83704155D01*
X162483888Y-83704155D01*
X162484074Y-83790736D01*
X162484806Y-83885847D01*
X162488420Y-84235136D01*
X162687808Y-83876291D01*
X162707718Y-83840421D01*
X162755877Y-83753329D01*
X162798875Y-83675110D01*
X162835110Y-83608708D01*
X162862977Y-83557072D01*
X162880874Y-83523148D01*
X162887196Y-83509883D01*
X162884768Y-83508698D01*
X162861894Y-83506182D01*
X162818770Y-83504158D01*
X162760144Y-83502810D01*
X162690763Y-83502320D01*
X162640505Y-83502532D01*
X162571673Y-83504033D01*
X162525232Y-83507186D01*
X162498242Y-83512239D01*
X162487761Y-83519439D01*
X162486303Y-83533551D01*
X162485034Y-83571766D01*
X162484219Y-83629899D01*
X162483888Y-83704155D01*
X162238267Y-83704155D01*
X162238340Y-83502320D01*
X162035573Y-83502320D01*
X161999245Y-83502395D01*
X161933437Y-83502957D01*
X161880646Y-83503977D01*
X161845544Y-83505348D01*
X161832805Y-83506965D01*
X161589859Y-83506965D01*
X161573610Y-83476280D01*
X161536282Y-83404655D01*
X161508755Y-83350403D01*
X161492133Y-83315613D01*
X161487524Y-83302375D01*
X161488732Y-83301860D01*
X161509781Y-83299655D01*
X161554311Y-83297571D01*
X161619429Y-83295624D01*
X161702238Y-83293833D01*
X161799843Y-83292215D01*
X161909348Y-83290788D01*
X162027857Y-83289569D01*
X162152475Y-83288576D01*
X162280307Y-83287826D01*
X162408456Y-83287338D01*
X162534027Y-83287129D01*
X162654124Y-83287217D01*
X162765852Y-83287619D01*
X162866316Y-83288353D01*
X162952618Y-83289436D01*
X163021865Y-83290886D01*
X163071160Y-83292722D01*
X163248365Y-83302118D01*
X163167457Y-83452911D01*
X163152647Y-83480388D01*
X163136655Y-83509883D01*
X163121194Y-83538398D01*
G37*
%TD*%
M02*
