%TF.GenerationSoftware,KiCad,Pcbnew,9.0.4*%
%TF.CreationDate,2025-11-06T12:47:48+01:00*%
%TF.ProjectId,SAUBerry_front_v1,53415542-6572-4727-995f-66726f6e745f,rev?*%
%TF.SameCoordinates,Original*%
%TF.FileFunction,Copper,L1,Top*%
%TF.FilePolarity,Positive*%
%FSLAX46Y46*%
G04 Gerber Fmt 4.6, Leading zero omitted, Abs format (unit mm)*
G04 Created by KiCad (PCBNEW 9.0.4) date 2025-11-06 12:47:48*
%MOMM*%
%LPD*%
G01*
G04 APERTURE LIST*
G04 APERTURE END LIST*
%TA.AperFunction,Conductor*%
%TO.N,GND*%
G36*
X423432539Y-118690185D02*
G01*
X423478294Y-118742989D01*
X423489500Y-118794500D01*
X423489500Y-246845500D01*
X423469815Y-246912539D01*
X423417011Y-246958294D01*
X423365500Y-246969500D01*
X113464500Y-246969500D01*
X113397461Y-246949815D01*
X113351706Y-246897011D01*
X113340500Y-246845500D01*
X113340500Y-238573223D01*
X162227500Y-238573223D01*
X162227500Y-238874776D01*
X162227501Y-238874793D01*
X162266861Y-239173766D01*
X162344913Y-239465060D01*
X162460314Y-239743661D01*
X162460318Y-239743671D01*
X162611099Y-240004831D01*
X162794679Y-240244078D01*
X162794685Y-240244085D01*
X163007914Y-240457314D01*
X163007921Y-240457320D01*
X163247168Y-240640900D01*
X163508328Y-240791681D01*
X163508329Y-240791681D01*
X163508332Y-240791683D01*
X163694072Y-240868619D01*
X163786939Y-240907086D01*
X163786940Y-240907086D01*
X163786942Y-240907087D01*
X164078232Y-240985138D01*
X164377217Y-241024500D01*
X164377224Y-241024500D01*
X164678776Y-241024500D01*
X164678783Y-241024500D01*
X164977768Y-240985138D01*
X165269058Y-240907087D01*
X165547668Y-240791683D01*
X165808832Y-240640900D01*
X166048080Y-240457319D01*
X166261319Y-240244080D01*
X166444900Y-240004832D01*
X166595683Y-239743668D01*
X166711087Y-239465058D01*
X166789138Y-239173768D01*
X166828500Y-238874783D01*
X166828500Y-238573217D01*
X166827448Y-238565223D01*
X175587900Y-238565223D01*
X175587900Y-238866776D01*
X175587901Y-238866793D01*
X175627261Y-239165766D01*
X175705313Y-239457060D01*
X175820714Y-239735661D01*
X175820718Y-239735671D01*
X175971499Y-239996831D01*
X176155079Y-240236078D01*
X176155085Y-240236085D01*
X176368314Y-240449314D01*
X176368321Y-240449320D01*
X176607568Y-240632900D01*
X176868728Y-240783681D01*
X176868729Y-240783681D01*
X176868732Y-240783683D01*
X177054472Y-240860619D01*
X177147339Y-240899086D01*
X177147340Y-240899086D01*
X177147342Y-240899087D01*
X177438632Y-240977138D01*
X177737617Y-241016500D01*
X177737624Y-241016500D01*
X178039176Y-241016500D01*
X178039183Y-241016500D01*
X178338168Y-240977138D01*
X178629458Y-240899087D01*
X178908068Y-240783683D01*
X179169232Y-240632900D01*
X179408480Y-240449319D01*
X179621719Y-240236080D01*
X179805300Y-239996832D01*
X179956083Y-239735668D01*
X180071487Y-239457058D01*
X180149538Y-239165768D01*
X180188900Y-238866783D01*
X180188900Y-238565217D01*
X180149538Y-238266232D01*
X180071487Y-237974942D01*
X179956083Y-237696332D01*
X179805300Y-237435168D01*
X179675793Y-237266391D01*
X179621720Y-237195921D01*
X179621714Y-237195914D01*
X179408485Y-236982685D01*
X179408478Y-236982679D01*
X179169231Y-236799099D01*
X178908071Y-236648318D01*
X178908061Y-236648314D01*
X178629460Y-236532913D01*
X178338166Y-236454861D01*
X178039193Y-236415501D01*
X178039188Y-236415500D01*
X178039183Y-236415500D01*
X177737617Y-236415500D01*
X177737611Y-236415500D01*
X177737606Y-236415501D01*
X177438633Y-236454861D01*
X177147339Y-236532913D01*
X176868738Y-236648314D01*
X176868728Y-236648318D01*
X176607568Y-236799099D01*
X176368321Y-236982679D01*
X176368314Y-236982685D01*
X176155085Y-237195914D01*
X176155079Y-237195921D01*
X175971499Y-237435168D01*
X175820718Y-237696328D01*
X175820714Y-237696338D01*
X175705313Y-237974939D01*
X175627261Y-238266233D01*
X175587901Y-238565206D01*
X175587900Y-238565223D01*
X166827448Y-238565223D01*
X166789138Y-238274232D01*
X166711087Y-237982942D01*
X166707773Y-237974942D01*
X166595685Y-237704338D01*
X166595681Y-237704328D01*
X166444900Y-237443168D01*
X166261320Y-237203921D01*
X166261314Y-237203914D01*
X166048085Y-236990685D01*
X166048078Y-236990679D01*
X165808831Y-236807099D01*
X165547671Y-236656318D01*
X165547661Y-236656314D01*
X165269060Y-236540913D01*
X164977766Y-236462861D01*
X164678793Y-236423501D01*
X164678788Y-236423500D01*
X164678783Y-236423500D01*
X164377217Y-236423500D01*
X164377211Y-236423500D01*
X164377206Y-236423501D01*
X164078233Y-236462861D01*
X163786939Y-236540913D01*
X163508338Y-236656314D01*
X163508328Y-236656318D01*
X163247168Y-236807099D01*
X163007921Y-236990679D01*
X163007914Y-236990685D01*
X162794685Y-237203914D01*
X162794679Y-237203921D01*
X162611099Y-237443168D01*
X162460318Y-237704328D01*
X162460314Y-237704338D01*
X162344913Y-237982939D01*
X162266861Y-238274233D01*
X162227501Y-238573206D01*
X162227500Y-238573223D01*
X113340500Y-238573223D01*
X113340500Y-231562332D01*
X119299500Y-231562332D01*
X119299500Y-231837667D01*
X119299501Y-231837684D01*
X119335438Y-232110655D01*
X119335439Y-232110660D01*
X119335440Y-232110666D01*
X119335441Y-232110668D01*
X119406704Y-232376630D01*
X119512075Y-232631017D01*
X119512080Y-232631028D01*
X119591809Y-232769121D01*
X119649751Y-232869479D01*
X119649753Y-232869482D01*
X119649754Y-232869483D01*
X119817370Y-233087926D01*
X119817376Y-233087933D01*
X120012066Y-233282623D01*
X120012072Y-233282628D01*
X120230521Y-233450249D01*
X120383778Y-233538732D01*
X120468971Y-233587919D01*
X120468976Y-233587921D01*
X120468979Y-233587923D01*
X120723368Y-233693295D01*
X120989334Y-233764560D01*
X121262326Y-233800500D01*
X121262333Y-233800500D01*
X121537667Y-233800500D01*
X121537674Y-233800500D01*
X121810666Y-233764560D01*
X122076632Y-233693295D01*
X122331021Y-233587923D01*
X122569479Y-233450249D01*
X122787928Y-233282628D01*
X122982628Y-233087928D01*
X123150249Y-232869479D01*
X123287923Y-232631021D01*
X123393295Y-232376632D01*
X123464560Y-232110666D01*
X123500500Y-231837674D01*
X123500500Y-231562326D01*
X123464560Y-231289334D01*
X123393295Y-231023368D01*
X123287923Y-230768979D01*
X123287921Y-230768976D01*
X123287919Y-230768971D01*
X123238732Y-230683778D01*
X123150249Y-230530521D01*
X122982628Y-230312072D01*
X122982623Y-230312066D01*
X122787933Y-230117376D01*
X122787926Y-230117370D01*
X122569483Y-229949754D01*
X122569482Y-229949753D01*
X122569479Y-229949751D01*
X122474407Y-229894861D01*
X122331028Y-229812080D01*
X122331017Y-229812075D01*
X122076630Y-229706704D01*
X121943649Y-229671072D01*
X121810666Y-229635440D01*
X121810660Y-229635439D01*
X121810655Y-229635438D01*
X121537684Y-229599501D01*
X121537679Y-229599500D01*
X121537674Y-229599500D01*
X121262326Y-229599500D01*
X121262320Y-229599500D01*
X121262315Y-229599501D01*
X120989344Y-229635438D01*
X120989337Y-229635439D01*
X120989334Y-229635440D01*
X120933125Y-229650500D01*
X120723369Y-229706704D01*
X120468982Y-229812075D01*
X120468971Y-229812080D01*
X120230516Y-229949754D01*
X120012073Y-230117370D01*
X120012066Y-230117376D01*
X119817376Y-230312066D01*
X119817370Y-230312073D01*
X119649754Y-230530516D01*
X119512080Y-230768971D01*
X119512075Y-230768982D01*
X119406704Y-231023369D01*
X119335441Y-231289331D01*
X119335438Y-231289344D01*
X119299501Y-231562315D01*
X119299500Y-231562332D01*
X113340500Y-231562332D01*
X113340500Y-223234108D01*
X126899500Y-223234108D01*
X126899500Y-236865891D01*
X126933608Y-236993187D01*
X126966554Y-237050250D01*
X126999500Y-237107314D01*
X127092686Y-237200500D01*
X127206814Y-237266392D01*
X127334108Y-237300500D01*
X127334110Y-237300500D01*
X143465890Y-237300500D01*
X143465892Y-237300500D01*
X143593186Y-237266392D01*
X143707314Y-237200500D01*
X143800500Y-237107314D01*
X143866392Y-236993186D01*
X143900500Y-236865892D01*
X143900500Y-231562332D01*
X146799500Y-231562332D01*
X146799500Y-231837667D01*
X146799501Y-231837684D01*
X146835438Y-232110655D01*
X146835439Y-232110660D01*
X146835440Y-232110666D01*
X146835441Y-232110668D01*
X146906704Y-232376630D01*
X147012075Y-232631017D01*
X147012080Y-232631028D01*
X147091809Y-232769121D01*
X147149751Y-232869479D01*
X147149753Y-232869482D01*
X147149754Y-232869483D01*
X147317370Y-233087926D01*
X147317376Y-233087933D01*
X147512066Y-233282623D01*
X147512072Y-233282628D01*
X147730521Y-233450249D01*
X147883778Y-233538732D01*
X147968971Y-233587919D01*
X147968976Y-233587921D01*
X147968979Y-233587923D01*
X148223368Y-233693295D01*
X148489334Y-233764560D01*
X148762326Y-233800500D01*
X148762333Y-233800500D01*
X149037667Y-233800500D01*
X149037674Y-233800500D01*
X149310666Y-233764560D01*
X149576632Y-233693295D01*
X149831021Y-233587923D01*
X150069479Y-233450249D01*
X150287928Y-233282628D01*
X150482628Y-233087928D01*
X150650249Y-232869479D01*
X150787923Y-232631021D01*
X150893295Y-232376632D01*
X150964560Y-232110666D01*
X151000500Y-231837674D01*
X151000500Y-231562326D01*
X150964560Y-231289334D01*
X150893295Y-231023368D01*
X150787923Y-230768979D01*
X150787921Y-230768976D01*
X150787919Y-230768971D01*
X150738732Y-230683778D01*
X150650249Y-230530521D01*
X150482628Y-230312072D01*
X150482623Y-230312066D01*
X150287933Y-230117376D01*
X150287926Y-230117370D01*
X150069483Y-229949754D01*
X150069482Y-229949753D01*
X150069479Y-229949751D01*
X149974407Y-229894861D01*
X149831028Y-229812080D01*
X149831017Y-229812075D01*
X149576630Y-229706704D01*
X149443649Y-229671072D01*
X149310666Y-229635440D01*
X149310660Y-229635439D01*
X149310655Y-229635438D01*
X149037684Y-229599501D01*
X149037679Y-229599500D01*
X149037674Y-229599500D01*
X148762326Y-229599500D01*
X148762320Y-229599500D01*
X148762315Y-229599501D01*
X148489344Y-229635438D01*
X148489337Y-229635439D01*
X148489334Y-229635440D01*
X148433125Y-229650500D01*
X148223369Y-229706704D01*
X147968982Y-229812075D01*
X147968971Y-229812080D01*
X147730516Y-229949754D01*
X147512073Y-230117370D01*
X147512066Y-230117376D01*
X147317376Y-230312066D01*
X147317370Y-230312073D01*
X147149754Y-230530516D01*
X147012080Y-230768971D01*
X147012075Y-230768982D01*
X146906704Y-231023369D01*
X146835441Y-231289331D01*
X146835438Y-231289344D01*
X146799501Y-231562315D01*
X146799500Y-231562332D01*
X143900500Y-231562332D01*
X143900500Y-223234108D01*
X143866392Y-223106814D01*
X143800500Y-222992686D01*
X143707314Y-222899500D01*
X143650250Y-222866554D01*
X143593187Y-222833608D01*
X143529539Y-222816554D01*
X143465892Y-222799500D01*
X127465892Y-222799500D01*
X127334108Y-222799500D01*
X127206812Y-222833608D01*
X127092686Y-222899500D01*
X127092683Y-222899502D01*
X126999502Y-222992683D01*
X126999500Y-222992686D01*
X126933608Y-223106812D01*
X126899500Y-223234108D01*
X113340500Y-223234108D01*
X113340500Y-205910049D01*
X130949500Y-205910049D01*
X130949500Y-206289950D01*
X130982610Y-206668397D01*
X130982610Y-206668401D01*
X131048575Y-207042508D01*
X131048577Y-207042518D01*
X131146901Y-207409467D01*
X131276833Y-207766450D01*
X131276836Y-207766457D01*
X131276837Y-207766459D01*
X131437378Y-208110742D01*
X131437383Y-208110751D01*
X131627330Y-208439749D01*
X131627334Y-208439755D01*
X131627341Y-208439766D01*
X131845228Y-208750941D01*
X131958137Y-208885500D01*
X132089419Y-209041956D01*
X132358044Y-209310581D01*
X132403973Y-209349120D01*
X132649058Y-209554771D01*
X132960233Y-209772658D01*
X132960240Y-209772662D01*
X132960251Y-209772670D01*
X133163937Y-209890268D01*
X133289242Y-209962613D01*
X133289257Y-209962621D01*
X133377412Y-210003728D01*
X133633550Y-210123167D01*
X133990533Y-210253099D01*
X134357482Y-210351423D01*
X134731605Y-210417390D01*
X135110051Y-210450499D01*
X135110052Y-210450500D01*
X135110053Y-210450500D01*
X135489948Y-210450500D01*
X135489948Y-210450499D01*
X135868395Y-210417390D01*
X136242518Y-210351423D01*
X136609467Y-210253099D01*
X136966450Y-210123167D01*
X137310751Y-209962617D01*
X137639749Y-209772670D01*
X137950940Y-209554772D01*
X138241956Y-209310581D01*
X138510581Y-209041956D01*
X138754772Y-208750940D01*
X138972670Y-208439749D01*
X139162617Y-208110751D01*
X139323167Y-207766450D01*
X139453099Y-207409467D01*
X139551423Y-207042518D01*
X139617390Y-206668395D01*
X139650500Y-206289947D01*
X139650500Y-205910053D01*
X139617390Y-205531605D01*
X139551423Y-205157482D01*
X139453099Y-204790533D01*
X139323167Y-204433550D01*
X139162617Y-204089249D01*
X138972670Y-203760251D01*
X138972662Y-203760240D01*
X138972658Y-203760233D01*
X138754771Y-203449058D01*
X138510578Y-203158041D01*
X138241958Y-202889421D01*
X137950941Y-202645228D01*
X137639766Y-202427341D01*
X137639755Y-202427334D01*
X137639749Y-202427330D01*
X137542004Y-202370897D01*
X137310757Y-202237386D01*
X137310742Y-202237378D01*
X136966459Y-202076837D01*
X136966457Y-202076836D01*
X136966450Y-202076833D01*
X136609467Y-201946901D01*
X136376832Y-201884566D01*
X136242519Y-201848577D01*
X136242508Y-201848575D01*
X135868399Y-201782610D01*
X135489950Y-201749500D01*
X135489947Y-201749500D01*
X135110053Y-201749500D01*
X135110049Y-201749500D01*
X134731602Y-201782610D01*
X134731598Y-201782610D01*
X134357491Y-201848575D01*
X134357480Y-201848577D01*
X134160832Y-201901269D01*
X133990533Y-201946901D01*
X133990530Y-201946902D01*
X133990529Y-201946902D01*
X133791123Y-202019480D01*
X133633550Y-202076833D01*
X133633546Y-202076834D01*
X133633540Y-202076837D01*
X133289257Y-202237378D01*
X133289242Y-202237386D01*
X132960259Y-202427325D01*
X132960233Y-202427341D01*
X132649058Y-202645228D01*
X132358041Y-202889421D01*
X132089421Y-203158041D01*
X131845228Y-203449058D01*
X131627341Y-203760233D01*
X131627325Y-203760259D01*
X131437386Y-204089242D01*
X131437378Y-204089257D01*
X131276837Y-204433540D01*
X131146902Y-204790529D01*
X131146902Y-204790531D01*
X131048577Y-205157480D01*
X131048575Y-205157491D01*
X130982610Y-205531598D01*
X130982610Y-205531602D01*
X130949500Y-205910049D01*
X113340500Y-205910049D01*
X113340500Y-189874980D01*
X130949500Y-189874980D01*
X130949500Y-190254881D01*
X130982610Y-190633328D01*
X130982610Y-190633332D01*
X131048575Y-191007439D01*
X131048577Y-191007449D01*
X131146901Y-191374398D01*
X131276833Y-191731381D01*
X131276836Y-191731388D01*
X131276837Y-191731390D01*
X131437378Y-192075673D01*
X131437383Y-192075682D01*
X131627330Y-192404680D01*
X131627334Y-192404686D01*
X131627341Y-192404697D01*
X131845228Y-192715872D01*
X132021730Y-192926218D01*
X132089419Y-193006887D01*
X132358044Y-193275512D01*
X132403973Y-193314051D01*
X132649058Y-193519702D01*
X132960233Y-193737589D01*
X132960240Y-193737593D01*
X132960251Y-193737601D01*
X133268588Y-193915619D01*
X133289242Y-193927544D01*
X133289257Y-193927552D01*
X133442271Y-193998903D01*
X133633550Y-194088098D01*
X133990533Y-194218030D01*
X134357482Y-194316354D01*
X134731605Y-194382321D01*
X135110051Y-194415430D01*
X135110052Y-194415431D01*
X135110053Y-194415431D01*
X135489948Y-194415431D01*
X135489948Y-194415430D01*
X135868395Y-194382321D01*
X136242518Y-194316354D01*
X136609467Y-194218030D01*
X136966450Y-194088098D01*
X137310751Y-193927548D01*
X137639749Y-193737601D01*
X137950940Y-193519703D01*
X138241956Y-193275512D01*
X138510581Y-193006887D01*
X138754772Y-192715871D01*
X138972670Y-192404680D01*
X139162617Y-192075682D01*
X139323167Y-191731381D01*
X139453099Y-191374398D01*
X139551423Y-191007449D01*
X139617390Y-190633326D01*
X139650500Y-190254878D01*
X139650500Y-189874984D01*
X139617390Y-189496536D01*
X139551423Y-189122413D01*
X139453099Y-188755464D01*
X139323167Y-188398481D01*
X139196153Y-188126099D01*
X139162621Y-188054188D01*
X139162613Y-188054173D01*
X139053114Y-187864515D01*
X138972670Y-187725182D01*
X138972662Y-187725171D01*
X138972658Y-187725164D01*
X138754771Y-187413989D01*
X138510578Y-187122972D01*
X138241958Y-186854352D01*
X137950941Y-186610159D01*
X137639766Y-186392272D01*
X137639755Y-186392265D01*
X137639749Y-186392261D01*
X137385408Y-186245417D01*
X137310757Y-186202317D01*
X137310742Y-186202309D01*
X136966459Y-186041768D01*
X136966457Y-186041767D01*
X136966450Y-186041764D01*
X136609467Y-185911832D01*
X136376832Y-185849497D01*
X136242519Y-185813508D01*
X136242508Y-185813506D01*
X135868399Y-185747541D01*
X135489950Y-185714431D01*
X135489947Y-185714431D01*
X135110053Y-185714431D01*
X135110049Y-185714431D01*
X134731602Y-185747541D01*
X134731598Y-185747541D01*
X134357491Y-185813506D01*
X134357480Y-185813508D01*
X134160832Y-185866200D01*
X133990533Y-185911832D01*
X133990530Y-185911833D01*
X133990529Y-185911833D01*
X133791123Y-185984411D01*
X133633550Y-186041764D01*
X133633546Y-186041765D01*
X133633540Y-186041768D01*
X133289257Y-186202309D01*
X133289242Y-186202317D01*
X132960259Y-186392256D01*
X132960233Y-186392272D01*
X132649058Y-186610159D01*
X132358041Y-186854352D01*
X132089421Y-187122972D01*
X131845228Y-187413989D01*
X131627341Y-187725164D01*
X131627325Y-187725190D01*
X131437386Y-188054173D01*
X131437378Y-188054188D01*
X131276837Y-188398471D01*
X131276834Y-188398477D01*
X131276833Y-188398481D01*
X131249799Y-188472755D01*
X131191535Y-188632835D01*
X131146901Y-188755464D01*
X131135083Y-188799569D01*
X131048577Y-189122411D01*
X131048575Y-189122422D01*
X130982610Y-189496529D01*
X130982610Y-189496533D01*
X130949500Y-189874980D01*
X113340500Y-189874980D01*
X113340500Y-166182332D01*
X118688500Y-166182332D01*
X118688500Y-166457667D01*
X118688501Y-166457684D01*
X118724438Y-166730655D01*
X118724439Y-166730660D01*
X118724440Y-166730666D01*
X118753725Y-166839959D01*
X118795704Y-166996630D01*
X118901075Y-167251017D01*
X118901080Y-167251028D01*
X118965271Y-167362208D01*
X119038751Y-167489479D01*
X119038753Y-167489482D01*
X119038754Y-167489483D01*
X119206370Y-167707926D01*
X119206376Y-167707933D01*
X119401066Y-167902623D01*
X119401072Y-167902628D01*
X119619521Y-168070249D01*
X119772778Y-168158732D01*
X119857971Y-168207919D01*
X119857976Y-168207921D01*
X119857979Y-168207923D01*
X120112368Y-168313295D01*
X120378334Y-168384560D01*
X120651326Y-168420500D01*
X120651333Y-168420500D01*
X120926667Y-168420500D01*
X120926674Y-168420500D01*
X121199666Y-168384560D01*
X121465632Y-168313295D01*
X121720021Y-168207923D01*
X121958479Y-168070249D01*
X122176928Y-167902628D01*
X122371628Y-167707928D01*
X122539249Y-167489479D01*
X122676923Y-167251021D01*
X122782295Y-166996632D01*
X122853560Y-166730666D01*
X122889500Y-166457674D01*
X122889500Y-166182326D01*
X122853560Y-165909334D01*
X122782295Y-165643368D01*
X122676923Y-165388979D01*
X122676921Y-165388976D01*
X122676919Y-165388971D01*
X122614511Y-165280879D01*
X122539249Y-165150521D01*
X122470099Y-165060403D01*
X122371629Y-164932073D01*
X122371623Y-164932066D01*
X122176933Y-164737376D01*
X122176926Y-164737370D01*
X121958483Y-164569754D01*
X121958482Y-164569753D01*
X121958479Y-164569751D01*
X121839212Y-164500892D01*
X121720028Y-164432080D01*
X121720017Y-164432075D01*
X121465630Y-164326704D01*
X121311628Y-164285440D01*
X121199666Y-164255440D01*
X121199660Y-164255439D01*
X121199655Y-164255438D01*
X120926684Y-164219501D01*
X120926679Y-164219500D01*
X120926674Y-164219500D01*
X120651326Y-164219500D01*
X120651320Y-164219500D01*
X120651315Y-164219501D01*
X120378344Y-164255438D01*
X120378337Y-164255439D01*
X120378334Y-164255440D01*
X120322125Y-164270500D01*
X120112369Y-164326704D01*
X119857982Y-164432075D01*
X119857971Y-164432080D01*
X119650800Y-164551692D01*
X119620909Y-164568950D01*
X119619516Y-164569754D01*
X119401073Y-164737370D01*
X119401066Y-164737376D01*
X119206376Y-164932066D01*
X119206370Y-164932073D01*
X119038754Y-165150516D01*
X118901080Y-165388971D01*
X118901075Y-165388982D01*
X118795704Y-165643369D01*
X118724441Y-165909331D01*
X118724438Y-165909344D01*
X118688501Y-166182315D01*
X118688500Y-166182332D01*
X113340500Y-166182332D01*
X113340500Y-162634108D01*
X127278500Y-162634108D01*
X127278500Y-169765892D01*
X127295554Y-169829539D01*
X127312608Y-169893187D01*
X127345554Y-169950250D01*
X127378500Y-170007314D01*
X127471686Y-170100500D01*
X127585814Y-170166392D01*
X127713108Y-170200500D01*
X127713110Y-170200500D01*
X142844890Y-170200500D01*
X142844892Y-170200500D01*
X142972186Y-170166392D01*
X143086314Y-170100500D01*
X143179500Y-170007314D01*
X143245392Y-169893186D01*
X143279500Y-169765892D01*
X143279500Y-166212332D01*
X148028500Y-166212332D01*
X148028500Y-166487667D01*
X148028501Y-166487684D01*
X148064438Y-166760655D01*
X148064439Y-166760660D01*
X148064440Y-166760666D01*
X148093851Y-166870430D01*
X148135704Y-167026630D01*
X148241075Y-167281017D01*
X148241080Y-167281028D01*
X148319071Y-167416111D01*
X148378751Y-167519479D01*
X148378753Y-167519482D01*
X148378754Y-167519483D01*
X148546370Y-167737926D01*
X148546376Y-167737933D01*
X148741066Y-167932623D01*
X148741072Y-167932628D01*
X148959521Y-168100249D01*
X149112778Y-168188732D01*
X149197971Y-168237919D01*
X149197976Y-168237921D01*
X149197979Y-168237923D01*
X149452368Y-168343295D01*
X149718334Y-168414560D01*
X149991326Y-168450500D01*
X149991333Y-168450500D01*
X150266667Y-168450500D01*
X150266674Y-168450500D01*
X150539666Y-168414560D01*
X150805632Y-168343295D01*
X151060021Y-168237923D01*
X151298479Y-168100249D01*
X151516928Y-167932628D01*
X151711628Y-167737928D01*
X151879249Y-167519479D01*
X152016923Y-167281021D01*
X152122295Y-167026632D01*
X152193560Y-166760666D01*
X152229500Y-166487674D01*
X152229500Y-166212326D01*
X152193560Y-165939334D01*
X152122295Y-165673368D01*
X152016923Y-165418979D01*
X152016921Y-165418976D01*
X152016919Y-165418971D01*
X151950652Y-165304194D01*
X151879249Y-165180521D01*
X151711628Y-164962072D01*
X151711623Y-164962066D01*
X151516933Y-164767376D01*
X151516926Y-164767370D01*
X151298483Y-164599754D01*
X151298482Y-164599753D01*
X151298479Y-164599751D01*
X151165023Y-164522700D01*
X151060028Y-164462080D01*
X151060017Y-164462075D01*
X150805630Y-164356704D01*
X150672649Y-164321072D01*
X150539666Y-164285440D01*
X150539660Y-164285439D01*
X150539655Y-164285438D01*
X150266684Y-164249501D01*
X150266679Y-164249500D01*
X150266674Y-164249500D01*
X149991326Y-164249500D01*
X149991320Y-164249500D01*
X149991315Y-164249501D01*
X149718344Y-164285438D01*
X149718337Y-164285439D01*
X149718334Y-164285440D01*
X149662125Y-164300500D01*
X149452369Y-164356704D01*
X149197982Y-164462075D01*
X149197971Y-164462080D01*
X148959516Y-164599754D01*
X148741073Y-164767370D01*
X148741066Y-164767376D01*
X148546376Y-164962066D01*
X148546370Y-164962073D01*
X148378754Y-165180516D01*
X148241080Y-165418971D01*
X148241075Y-165418982D01*
X148135704Y-165673369D01*
X148090569Y-165841818D01*
X148072479Y-165909334D01*
X148064441Y-165939331D01*
X148064438Y-165939344D01*
X148028501Y-166212315D01*
X148028500Y-166212332D01*
X143279500Y-166212332D01*
X143279500Y-162634108D01*
X143245392Y-162506814D01*
X143179500Y-162392686D01*
X143086314Y-162299500D01*
X143029250Y-162266554D01*
X142972187Y-162233608D01*
X142908539Y-162216554D01*
X142844892Y-162199500D01*
X127844892Y-162199500D01*
X127713108Y-162199500D01*
X127585812Y-162233608D01*
X127471686Y-162299500D01*
X127471683Y-162299502D01*
X127378502Y-162392683D01*
X127378500Y-162392686D01*
X127312608Y-162506812D01*
X127302465Y-162544668D01*
X127278500Y-162634108D01*
X113340500Y-162634108D01*
X113340500Y-135062108D01*
X161805500Y-135062108D01*
X161805500Y-225193891D01*
X161839608Y-225321187D01*
X161872554Y-225378250D01*
X161905500Y-225435314D01*
X161998686Y-225528500D01*
X162112814Y-225594392D01*
X162240108Y-225628500D01*
X162240110Y-225628500D01*
X319371890Y-225628500D01*
X319371892Y-225628500D01*
X319499186Y-225594392D01*
X319613314Y-225528500D01*
X319706500Y-225435314D01*
X319772392Y-225321186D01*
X319806500Y-225193892D01*
X319806500Y-212689471D01*
X361861100Y-212689471D01*
X361861100Y-213082528D01*
X361899626Y-213473702D01*
X361976304Y-213859194D01*
X361976307Y-213859205D01*
X362090410Y-214235354D01*
X362240830Y-214598499D01*
X362240832Y-214598504D01*
X362426111Y-214945137D01*
X362426122Y-214945155D01*
X362644487Y-215271960D01*
X362644497Y-215271974D01*
X362893854Y-215575817D01*
X363171782Y-215853745D01*
X363171787Y-215853749D01*
X363171788Y-215853750D01*
X363475631Y-216103107D01*
X363802451Y-216321482D01*
X363802460Y-216321487D01*
X363802462Y-216321488D01*
X364149095Y-216506767D01*
X364149097Y-216506767D01*
X364149103Y-216506771D01*
X364512247Y-216657190D01*
X364888385Y-216771290D01*
X364888391Y-216771291D01*
X364888394Y-216771292D01*
X364888405Y-216771295D01*
X365273897Y-216847973D01*
X365665068Y-216886500D01*
X365665071Y-216886500D01*
X366058129Y-216886500D01*
X366058132Y-216886500D01*
X366449303Y-216847973D01*
X366524348Y-216833045D01*
X366834794Y-216771295D01*
X366834805Y-216771292D01*
X366834805Y-216771291D01*
X366834815Y-216771290D01*
X367210953Y-216657190D01*
X367574097Y-216506771D01*
X367920749Y-216321482D01*
X368247569Y-216103107D01*
X368551412Y-215853750D01*
X368829350Y-215575812D01*
X369078707Y-215271969D01*
X369297082Y-214945149D01*
X369482371Y-214598497D01*
X369632790Y-214235353D01*
X369746890Y-213859215D01*
X369746892Y-213859205D01*
X369746895Y-213859194D01*
X369823573Y-213473702D01*
X369862100Y-213082528D01*
X369862100Y-212689471D01*
X369846696Y-212533075D01*
X369823573Y-212298297D01*
X369746895Y-211912805D01*
X369746892Y-211912794D01*
X369746891Y-211912791D01*
X369746890Y-211912785D01*
X369632790Y-211536647D01*
X369482371Y-211173503D01*
X369469955Y-211150275D01*
X369297088Y-210826862D01*
X369297087Y-210826860D01*
X369297082Y-210826851D01*
X369078707Y-210500031D01*
X368829350Y-210196188D01*
X368829349Y-210196187D01*
X368829345Y-210196182D01*
X368551417Y-209918254D01*
X368517316Y-209890268D01*
X405206340Y-209890268D01*
X405206340Y-209918617D01*
X405206340Y-210283332D01*
X405218056Y-210402287D01*
X405244866Y-210674502D01*
X405321544Y-211059994D01*
X405321547Y-211060005D01*
X405435650Y-211436154D01*
X405586070Y-211799299D01*
X405586072Y-211799304D01*
X405771351Y-212145937D01*
X405771362Y-212145955D01*
X405989727Y-212472760D01*
X405989737Y-212472774D01*
X406239094Y-212776617D01*
X406517022Y-213054545D01*
X406517027Y-213054549D01*
X406517028Y-213054550D01*
X406820871Y-213303907D01*
X407147691Y-213522282D01*
X407147700Y-213522287D01*
X407147702Y-213522288D01*
X407494335Y-213707567D01*
X407494337Y-213707567D01*
X407494343Y-213707571D01*
X407857487Y-213857990D01*
X408233625Y-213972090D01*
X408233631Y-213972091D01*
X408233634Y-213972092D01*
X408233645Y-213972095D01*
X408619137Y-214048773D01*
X409010308Y-214087300D01*
X409010311Y-214087300D01*
X409403369Y-214087300D01*
X409403372Y-214087300D01*
X409794543Y-214048773D01*
X409869588Y-214033845D01*
X410180034Y-213972095D01*
X410180045Y-213972092D01*
X410180045Y-213972091D01*
X410180055Y-213972090D01*
X410556193Y-213857990D01*
X410919337Y-213707571D01*
X411265989Y-213522282D01*
X411592809Y-213303907D01*
X411896652Y-213054550D01*
X412174590Y-212776612D01*
X412423947Y-212472769D01*
X412642322Y-212145949D01*
X412827611Y-211799297D01*
X412978030Y-211436153D01*
X413092130Y-211060015D01*
X413092132Y-211060005D01*
X413092135Y-211059994D01*
X413168813Y-210674502D01*
X413185997Y-210500031D01*
X413207340Y-210283332D01*
X413207340Y-209890268D01*
X413168813Y-209499097D01*
X413158145Y-209445465D01*
X413092135Y-209113605D01*
X413092132Y-209113594D01*
X413092131Y-209113591D01*
X413092130Y-209113585D01*
X412978030Y-208737447D01*
X412827611Y-208374303D01*
X412815195Y-208351075D01*
X412642328Y-208027662D01*
X412642327Y-208027660D01*
X412642322Y-208027651D01*
X412423947Y-207700831D01*
X412174590Y-207396988D01*
X412174589Y-207396987D01*
X412174585Y-207396982D01*
X411896657Y-207119054D01*
X411592814Y-206869697D01*
X411592813Y-206869696D01*
X411592809Y-206869693D01*
X411265989Y-206651318D01*
X411265984Y-206651315D01*
X411265977Y-206651311D01*
X410919344Y-206466032D01*
X410919339Y-206466030D01*
X410556194Y-206315610D01*
X410180045Y-206201507D01*
X410180034Y-206201504D01*
X409794542Y-206124826D01*
X409499929Y-206095810D01*
X409403372Y-206086300D01*
X409010308Y-206086300D01*
X408921091Y-206095087D01*
X408619137Y-206124826D01*
X408233645Y-206201504D01*
X408233634Y-206201507D01*
X407857485Y-206315610D01*
X407494340Y-206466030D01*
X407494335Y-206466032D01*
X407147702Y-206651311D01*
X407147684Y-206651322D01*
X406820879Y-206869687D01*
X406820865Y-206869697D01*
X406517022Y-207119054D01*
X406239094Y-207396982D01*
X405989737Y-207700825D01*
X405989727Y-207700839D01*
X405771362Y-208027644D01*
X405771351Y-208027662D01*
X405586072Y-208374295D01*
X405586070Y-208374300D01*
X405435650Y-208737445D01*
X405321547Y-209113594D01*
X405321544Y-209113605D01*
X405244866Y-209499097D01*
X405217922Y-209772670D01*
X405206340Y-209890268D01*
X368517316Y-209890268D01*
X368247574Y-209668897D01*
X368247573Y-209668896D01*
X368247569Y-209668893D01*
X367920749Y-209450518D01*
X367920744Y-209450515D01*
X367920737Y-209450511D01*
X367574104Y-209265232D01*
X367574099Y-209265230D01*
X367210954Y-209114810D01*
X366834805Y-209000707D01*
X366834794Y-209000704D01*
X366449302Y-208924026D01*
X366154689Y-208895010D01*
X366058132Y-208885500D01*
X365665068Y-208885500D01*
X365575851Y-208894287D01*
X365273897Y-208924026D01*
X364888405Y-209000704D01*
X364888394Y-209000707D01*
X364512245Y-209114810D01*
X364149100Y-209265230D01*
X364149095Y-209265232D01*
X363802462Y-209450511D01*
X363802444Y-209450522D01*
X363475639Y-209668887D01*
X363475625Y-209668897D01*
X363171782Y-209918254D01*
X362893854Y-210196182D01*
X362644497Y-210500025D01*
X362644487Y-210500039D01*
X362426122Y-210826844D01*
X362426111Y-210826862D01*
X362240832Y-211173495D01*
X362240830Y-211173500D01*
X362090410Y-211536645D01*
X361976307Y-211912794D01*
X361976304Y-211912805D01*
X361899626Y-212298297D01*
X361861100Y-212689471D01*
X319806500Y-212689471D01*
X319806500Y-186217071D01*
X405193500Y-186217071D01*
X405193500Y-186610128D01*
X405232026Y-187001302D01*
X405308704Y-187386794D01*
X405308707Y-187386805D01*
X405422810Y-187762954D01*
X405573230Y-188126099D01*
X405573232Y-188126104D01*
X405758511Y-188472737D01*
X405758522Y-188472755D01*
X405976887Y-188799560D01*
X405976897Y-188799574D01*
X406226254Y-189103417D01*
X406504182Y-189381345D01*
X406504187Y-189381349D01*
X406504188Y-189381350D01*
X406808031Y-189630707D01*
X407134851Y-189849082D01*
X407134860Y-189849087D01*
X407134862Y-189849088D01*
X407481495Y-190034367D01*
X407481497Y-190034367D01*
X407481503Y-190034371D01*
X407844647Y-190184790D01*
X408220785Y-190298890D01*
X408220791Y-190298891D01*
X408220794Y-190298892D01*
X408220805Y-190298895D01*
X408606297Y-190375573D01*
X408997468Y-190414100D01*
X408997471Y-190414100D01*
X409390529Y-190414100D01*
X409390532Y-190414100D01*
X409781703Y-190375573D01*
X409856748Y-190360645D01*
X410167194Y-190298895D01*
X410167205Y-190298892D01*
X410167205Y-190298891D01*
X410167215Y-190298890D01*
X410543353Y-190184790D01*
X410906497Y-190034371D01*
X411253149Y-189849082D01*
X411579969Y-189630707D01*
X411883812Y-189381350D01*
X412161750Y-189103412D01*
X412411107Y-188799569D01*
X412629482Y-188472749D01*
X412814771Y-188126097D01*
X412965190Y-187762953D01*
X413079290Y-187386815D01*
X413079292Y-187386805D01*
X413079295Y-187386794D01*
X413155973Y-187001302D01*
X413164371Y-186916035D01*
X413194500Y-186610132D01*
X413194500Y-186217068D01*
X413155973Y-185825897D01*
X413133801Y-185714431D01*
X413079295Y-185440405D01*
X413079292Y-185440394D01*
X413079291Y-185440391D01*
X413079290Y-185440385D01*
X412965190Y-185064247D01*
X412814771Y-184701103D01*
X412802355Y-184677875D01*
X412629488Y-184354462D01*
X412629487Y-184354460D01*
X412629482Y-184354451D01*
X412411107Y-184027631D01*
X412161750Y-183723788D01*
X412161749Y-183723787D01*
X412161745Y-183723782D01*
X411883817Y-183445854D01*
X411579974Y-183196497D01*
X411579973Y-183196496D01*
X411579969Y-183196493D01*
X411253149Y-182978118D01*
X411253144Y-182978115D01*
X411253137Y-182978111D01*
X410906504Y-182792832D01*
X410906499Y-182792830D01*
X410543354Y-182642410D01*
X410167205Y-182528307D01*
X410167194Y-182528304D01*
X409781702Y-182451626D01*
X409487089Y-182422610D01*
X409390532Y-182413100D01*
X408997468Y-182413100D01*
X408908251Y-182421887D01*
X408606297Y-182451626D01*
X408220805Y-182528304D01*
X408220794Y-182528307D01*
X407844645Y-182642410D01*
X407481500Y-182792830D01*
X407481495Y-182792832D01*
X407134862Y-182978111D01*
X407134844Y-182978122D01*
X406808039Y-183196487D01*
X406808025Y-183196497D01*
X406504182Y-183445854D01*
X406226254Y-183723782D01*
X405976897Y-184027625D01*
X405976887Y-184027639D01*
X405758522Y-184354444D01*
X405758511Y-184354462D01*
X405573232Y-184701095D01*
X405573230Y-184701100D01*
X405422810Y-185064245D01*
X405308707Y-185440394D01*
X405308704Y-185440405D01*
X405232026Y-185825897D01*
X405193500Y-186217071D01*
X319806500Y-186217071D01*
X319806500Y-167893575D01*
X338587500Y-167893575D01*
X338587500Y-167925048D01*
X338587500Y-168242425D01*
X338594480Y-168313295D01*
X338621692Y-168589594D01*
X338689744Y-168931721D01*
X338689747Y-168931732D01*
X338791016Y-169265571D01*
X338924516Y-169587867D01*
X338924518Y-169587872D01*
X339088955Y-169895511D01*
X339088972Y-169895539D01*
X339282759Y-170185563D01*
X339282776Y-170185586D01*
X339504084Y-170455251D01*
X339750748Y-170701915D01*
X339750753Y-170701919D01*
X339750754Y-170701920D01*
X340020419Y-170923228D01*
X340020426Y-170923233D01*
X340020436Y-170923240D01*
X340310460Y-171117027D01*
X340310465Y-171117030D01*
X340310477Y-171117038D01*
X340310486Y-171117042D01*
X340310488Y-171117044D01*
X340618127Y-171281481D01*
X340618129Y-171281481D01*
X340618135Y-171281485D01*
X340940430Y-171414984D01*
X341274258Y-171516250D01*
X341274264Y-171516251D01*
X341274267Y-171516252D01*
X341274278Y-171516255D01*
X341616405Y-171584307D01*
X341963575Y-171618500D01*
X341963578Y-171618500D01*
X342312422Y-171618500D01*
X342312425Y-171618500D01*
X342659595Y-171584307D01*
X342726197Y-171571059D01*
X343001721Y-171516255D01*
X343001732Y-171516252D01*
X343001732Y-171516251D01*
X343001742Y-171516250D01*
X343335570Y-171414984D01*
X343657865Y-171281485D01*
X343965523Y-171117038D01*
X344255581Y-170923228D01*
X344525246Y-170701920D01*
X344771920Y-170455246D01*
X344993228Y-170185581D01*
X345187038Y-169895523D01*
X345351485Y-169587865D01*
X345484984Y-169265570D01*
X345586250Y-168931742D01*
X345586252Y-168931732D01*
X345586255Y-168931721D01*
X345641059Y-168656197D01*
X345654307Y-168589595D01*
X345688500Y-168242425D01*
X345688500Y-167898778D01*
X352557500Y-167898778D01*
X352557500Y-168247621D01*
X352591692Y-168594794D01*
X352659744Y-168936921D01*
X352659747Y-168936932D01*
X352761016Y-169270771D01*
X352894516Y-169593067D01*
X352894518Y-169593072D01*
X353058955Y-169900711D01*
X353058972Y-169900739D01*
X353252759Y-170190763D01*
X353252776Y-170190786D01*
X353474084Y-170460451D01*
X353720748Y-170707115D01*
X353720753Y-170707119D01*
X353720754Y-170707120D01*
X353990419Y-170928428D01*
X353990426Y-170928433D01*
X353990436Y-170928440D01*
X354280460Y-171122227D01*
X354280465Y-171122230D01*
X354280477Y-171122238D01*
X354280486Y-171122242D01*
X354280488Y-171122244D01*
X354588127Y-171286681D01*
X354588129Y-171286681D01*
X354588135Y-171286685D01*
X354910430Y-171420184D01*
X355244258Y-171521450D01*
X355244264Y-171521451D01*
X355244267Y-171521452D01*
X355244278Y-171521455D01*
X355586405Y-171589507D01*
X355933575Y-171623700D01*
X355933578Y-171623700D01*
X356282422Y-171623700D01*
X356282425Y-171623700D01*
X356629595Y-171589507D01*
X356739227Y-171567700D01*
X356971721Y-171521455D01*
X356971732Y-171521452D01*
X356971732Y-171521451D01*
X356971742Y-171521450D01*
X357305570Y-171420184D01*
X357627865Y-171286685D01*
X357935523Y-171122238D01*
X358225581Y-170928428D01*
X358495246Y-170707120D01*
X358741920Y-170460446D01*
X358963228Y-170190781D01*
X359157038Y-169900723D01*
X359321485Y-169593065D01*
X359454984Y-169270770D01*
X359556250Y-168936942D01*
X359556252Y-168936932D01*
X359556255Y-168936921D01*
X359624307Y-168594794D01*
X359629822Y-168538795D01*
X359658500Y-168247625D01*
X359658500Y-167898778D01*
X366578300Y-167898778D01*
X366578300Y-168247621D01*
X366612492Y-168594794D01*
X366680544Y-168936921D01*
X366680547Y-168936932D01*
X366781816Y-169270771D01*
X366915316Y-169593067D01*
X366915318Y-169593072D01*
X367079755Y-169900711D01*
X367079772Y-169900739D01*
X367273559Y-170190763D01*
X367273576Y-170190786D01*
X367494884Y-170460451D01*
X367741548Y-170707115D01*
X367741553Y-170707119D01*
X367741554Y-170707120D01*
X368011219Y-170928428D01*
X368011226Y-170928433D01*
X368011236Y-170928440D01*
X368301260Y-171122227D01*
X368301265Y-171122230D01*
X368301277Y-171122238D01*
X368301286Y-171122242D01*
X368301288Y-171122244D01*
X368608927Y-171286681D01*
X368608929Y-171286681D01*
X368608935Y-171286685D01*
X368931230Y-171420184D01*
X369265058Y-171521450D01*
X369265064Y-171521451D01*
X369265067Y-171521452D01*
X369265078Y-171521455D01*
X369607205Y-171589507D01*
X369954375Y-171623700D01*
X369954378Y-171623700D01*
X370303222Y-171623700D01*
X370303225Y-171623700D01*
X370650395Y-171589507D01*
X370760027Y-171567700D01*
X370992521Y-171521455D01*
X370992532Y-171521452D01*
X370992532Y-171521451D01*
X370992542Y-171521450D01*
X371326370Y-171420184D01*
X371648665Y-171286685D01*
X371956323Y-171122238D01*
X372246381Y-170928428D01*
X372516046Y-170707120D01*
X372762720Y-170460446D01*
X372984028Y-170190781D01*
X373177838Y-169900723D01*
X373342285Y-169593065D01*
X373475784Y-169270770D01*
X373577050Y-168936942D01*
X373577052Y-168936932D01*
X373577055Y-168936921D01*
X373645107Y-168594794D01*
X373650622Y-168538795D01*
X373679300Y-168247625D01*
X373679300Y-167898775D01*
X373673784Y-167842775D01*
X380548300Y-167842775D01*
X380548300Y-167874248D01*
X380548300Y-168191625D01*
X380558698Y-168297198D01*
X380582492Y-168538794D01*
X380650544Y-168880921D01*
X380650547Y-168880932D01*
X380751816Y-169214771D01*
X380885316Y-169537067D01*
X380885318Y-169537072D01*
X381049755Y-169844711D01*
X381049772Y-169844739D01*
X381243559Y-170134763D01*
X381243576Y-170134786D01*
X381464884Y-170404451D01*
X381711548Y-170651115D01*
X381711553Y-170651119D01*
X381711554Y-170651120D01*
X381981219Y-170872428D01*
X381981226Y-170872433D01*
X381981236Y-170872440D01*
X382271260Y-171066227D01*
X382271265Y-171066230D01*
X382271277Y-171066238D01*
X382271286Y-171066242D01*
X382271288Y-171066244D01*
X382578927Y-171230681D01*
X382578929Y-171230681D01*
X382578935Y-171230685D01*
X382901230Y-171364184D01*
X383235058Y-171465450D01*
X383235064Y-171465451D01*
X383235067Y-171465452D01*
X383235078Y-171465455D01*
X383577205Y-171533507D01*
X383924375Y-171567700D01*
X383924378Y-171567700D01*
X384273222Y-171567700D01*
X384273225Y-171567700D01*
X384620395Y-171533507D01*
X384707152Y-171516250D01*
X384962521Y-171465455D01*
X384962532Y-171465452D01*
X384962532Y-171465451D01*
X384962542Y-171465450D01*
X385296370Y-171364184D01*
X385618665Y-171230685D01*
X385926323Y-171066238D01*
X386216381Y-170872428D01*
X386486046Y-170651120D01*
X386732720Y-170404446D01*
X386954028Y-170134781D01*
X387147838Y-169844723D01*
X387312285Y-169537065D01*
X387445784Y-169214770D01*
X387547050Y-168880942D01*
X387547052Y-168880932D01*
X387547055Y-168880921D01*
X387615107Y-168538794D01*
X387627343Y-168414558D01*
X387649300Y-168191625D01*
X387649300Y-167842775D01*
X387615107Y-167495605D01*
X387605262Y-167446111D01*
X387547055Y-167153478D01*
X387547052Y-167153467D01*
X387547051Y-167153464D01*
X387547050Y-167153458D01*
X387445784Y-166819630D01*
X387312285Y-166497335D01*
X387307126Y-166487684D01*
X387147844Y-166189688D01*
X387147842Y-166189686D01*
X387147838Y-166189677D01*
X387147827Y-166189660D01*
X386954040Y-165899636D01*
X386954033Y-165899626D01*
X386954028Y-165899619D01*
X386732720Y-165629954D01*
X386732719Y-165629953D01*
X386732715Y-165629948D01*
X386486051Y-165383284D01*
X386216386Y-165161976D01*
X386216363Y-165161959D01*
X385926339Y-164968172D01*
X385926311Y-164968155D01*
X385618672Y-164803718D01*
X385618667Y-164803716D01*
X385610538Y-164800349D01*
X385419012Y-164721016D01*
X385296371Y-164670216D01*
X384965192Y-164569754D01*
X384962542Y-164568950D01*
X384962541Y-164568949D01*
X384962532Y-164568947D01*
X384962521Y-164568944D01*
X384620394Y-164500892D01*
X384358920Y-164475140D01*
X384273225Y-164466700D01*
X383924375Y-164466700D01*
X383845194Y-164474498D01*
X383577205Y-164500892D01*
X383235078Y-164568944D01*
X383235067Y-164568947D01*
X382901228Y-164670216D01*
X382578932Y-164803716D01*
X382578927Y-164803718D01*
X382271288Y-164968155D01*
X382271260Y-164968172D01*
X381981236Y-165161959D01*
X381981213Y-165161976D01*
X381711548Y-165383284D01*
X381464884Y-165629948D01*
X381243576Y-165899613D01*
X381243559Y-165899636D01*
X381049772Y-166189660D01*
X381049755Y-166189688D01*
X380885318Y-166497327D01*
X380885316Y-166497332D01*
X380751816Y-166819628D01*
X380650547Y-167153467D01*
X380650544Y-167153478D01*
X380582492Y-167495605D01*
X380558627Y-167737926D01*
X380548300Y-167842775D01*
X373673784Y-167842775D01*
X373660503Y-167707928D01*
X373645107Y-167551605D01*
X373577055Y-167209478D01*
X373577052Y-167209467D01*
X373577051Y-167209464D01*
X373577050Y-167209458D01*
X373475784Y-166875630D01*
X373342285Y-166553335D01*
X373339501Y-166548127D01*
X373177844Y-166245688D01*
X373177842Y-166245686D01*
X373177838Y-166245677D01*
X373174371Y-166240488D01*
X372984040Y-165955636D01*
X372984033Y-165955626D01*
X372984028Y-165955619D01*
X372762720Y-165685954D01*
X372762719Y-165685953D01*
X372762715Y-165685948D01*
X372516051Y-165439284D01*
X372246386Y-165217976D01*
X372246363Y-165217959D01*
X371956339Y-165024172D01*
X371956311Y-165024155D01*
X371648672Y-164859718D01*
X371648667Y-164859716D01*
X371636113Y-164854516D01*
X371554268Y-164820614D01*
X371326371Y-164726216D01*
X370992532Y-164624947D01*
X370992521Y-164624944D01*
X370650394Y-164556892D01*
X370388920Y-164531140D01*
X370303225Y-164522700D01*
X369954375Y-164522700D01*
X369875194Y-164530498D01*
X369607205Y-164556892D01*
X369265078Y-164624944D01*
X369265067Y-164624947D01*
X368931228Y-164726216D01*
X368608932Y-164859716D01*
X368608927Y-164859718D01*
X368301288Y-165024155D01*
X368301260Y-165024172D01*
X368011236Y-165217959D01*
X368011213Y-165217976D01*
X367741548Y-165439284D01*
X367494884Y-165685948D01*
X367273576Y-165955613D01*
X367273559Y-165955636D01*
X367079772Y-166245660D01*
X367079755Y-166245688D01*
X366915318Y-166553327D01*
X366915316Y-166553332D01*
X366781816Y-166875628D01*
X366680547Y-167209467D01*
X366680544Y-167209478D01*
X366612492Y-167551605D01*
X366597096Y-167707933D01*
X366583816Y-167842775D01*
X366578300Y-167898778D01*
X359658500Y-167898778D01*
X359658500Y-167898775D01*
X359624307Y-167551605D01*
X359611950Y-167489483D01*
X359556255Y-167209478D01*
X359556252Y-167209467D01*
X359556251Y-167209464D01*
X359556250Y-167209458D01*
X359454984Y-166875630D01*
X359321485Y-166553335D01*
X359318701Y-166548127D01*
X359157044Y-166245688D01*
X359157042Y-166245686D01*
X359157038Y-166245677D01*
X359153571Y-166240488D01*
X358963240Y-165955636D01*
X358963233Y-165955626D01*
X358963228Y-165955619D01*
X358741920Y-165685954D01*
X358741919Y-165685953D01*
X358741915Y-165685948D01*
X358495251Y-165439284D01*
X358225586Y-165217976D01*
X358225563Y-165217959D01*
X357935539Y-165024172D01*
X357935511Y-165024155D01*
X357627872Y-164859718D01*
X357627867Y-164859716D01*
X357615313Y-164854516D01*
X357533468Y-164820614D01*
X357305571Y-164726216D01*
X356971732Y-164624947D01*
X356971721Y-164624944D01*
X356629594Y-164556892D01*
X356368120Y-164531140D01*
X356282425Y-164522700D01*
X355933575Y-164522700D01*
X355854394Y-164530498D01*
X355586405Y-164556892D01*
X355244278Y-164624944D01*
X355244267Y-164624947D01*
X354910428Y-164726216D01*
X354588132Y-164859716D01*
X354588127Y-164859718D01*
X354280488Y-165024155D01*
X354280460Y-165024172D01*
X353990436Y-165217959D01*
X353990413Y-165217976D01*
X353720748Y-165439284D01*
X353474084Y-165685948D01*
X353252776Y-165955613D01*
X353252759Y-165955636D01*
X353058972Y-166245660D01*
X353058955Y-166245688D01*
X352894518Y-166553327D01*
X352894516Y-166553332D01*
X352761016Y-166875628D01*
X352659747Y-167209467D01*
X352659744Y-167209478D01*
X352591692Y-167551605D01*
X352576296Y-167707933D01*
X352563016Y-167842775D01*
X352557500Y-167898778D01*
X345688500Y-167898778D01*
X345688500Y-167893575D01*
X345654307Y-167546405D01*
X345642984Y-167489479D01*
X345586255Y-167204278D01*
X345586252Y-167204267D01*
X345586251Y-167204264D01*
X345586250Y-167204258D01*
X345484984Y-166870430D01*
X345351485Y-166548135D01*
X345332378Y-166512389D01*
X345187044Y-166240488D01*
X345187042Y-166240486D01*
X345187038Y-166240477D01*
X345187027Y-166240460D01*
X344993240Y-165950436D01*
X344993233Y-165950426D01*
X344993228Y-165950419D01*
X344771920Y-165680754D01*
X344771919Y-165680753D01*
X344771915Y-165680748D01*
X344525251Y-165434084D01*
X344255586Y-165212776D01*
X344255563Y-165212759D01*
X343965539Y-165018972D01*
X343965511Y-165018955D01*
X343657872Y-164854518D01*
X343657867Y-164854516D01*
X343335571Y-164721016D01*
X343001732Y-164619747D01*
X343001721Y-164619744D01*
X342659594Y-164551692D01*
X342398120Y-164525940D01*
X342312425Y-164517500D01*
X341963575Y-164517500D01*
X341884394Y-164525298D01*
X341616405Y-164551692D01*
X341274278Y-164619744D01*
X341274267Y-164619747D01*
X340940428Y-164721016D01*
X340618132Y-164854516D01*
X340618127Y-164854518D01*
X340310488Y-165018955D01*
X340310460Y-165018972D01*
X340020436Y-165212759D01*
X340020413Y-165212776D01*
X339750748Y-165434084D01*
X339504084Y-165680748D01*
X339282776Y-165950413D01*
X339282759Y-165950436D01*
X339088972Y-166240460D01*
X339088955Y-166240488D01*
X338924518Y-166548127D01*
X338924516Y-166548132D01*
X338791016Y-166870428D01*
X338689747Y-167204267D01*
X338689744Y-167204278D01*
X338621692Y-167546405D01*
X338602829Y-167737933D01*
X338587500Y-167893575D01*
X319806500Y-167893575D01*
X319806500Y-162544671D01*
X405193500Y-162544671D01*
X405193500Y-162937728D01*
X405232026Y-163328902D01*
X405308704Y-163714394D01*
X405308707Y-163714405D01*
X405422810Y-164090554D01*
X405573230Y-164453699D01*
X405573232Y-164453704D01*
X405758511Y-164800337D01*
X405758522Y-164800355D01*
X405976887Y-165127160D01*
X405976897Y-165127174D01*
X406226254Y-165431017D01*
X406504182Y-165708945D01*
X406504187Y-165708949D01*
X406504188Y-165708950D01*
X406808031Y-165958307D01*
X407134851Y-166176682D01*
X407134860Y-166176687D01*
X407134862Y-166176688D01*
X407481495Y-166361967D01*
X407481497Y-166361967D01*
X407481503Y-166361971D01*
X407844647Y-166512390D01*
X408220785Y-166626490D01*
X408220791Y-166626491D01*
X408220794Y-166626492D01*
X408220805Y-166626495D01*
X408606297Y-166703173D01*
X408997468Y-166741700D01*
X408997471Y-166741700D01*
X409390529Y-166741700D01*
X409390532Y-166741700D01*
X409781703Y-166703173D01*
X409856748Y-166688245D01*
X410167194Y-166626495D01*
X410167205Y-166626492D01*
X410167205Y-166626491D01*
X410167215Y-166626490D01*
X410543353Y-166512390D01*
X410906497Y-166361971D01*
X411253149Y-166176682D01*
X411579969Y-165958307D01*
X411883812Y-165708950D01*
X412161750Y-165431012D01*
X412411107Y-165127169D01*
X412629482Y-164800349D01*
X412814771Y-164453697D01*
X412965190Y-164090553D01*
X413079290Y-163714415D01*
X413079292Y-163714405D01*
X413079295Y-163714394D01*
X413155973Y-163328902D01*
X413164371Y-163243635D01*
X413194500Y-162937732D01*
X413194500Y-162544668D01*
X413155973Y-162153497D01*
X413079295Y-161768005D01*
X413079292Y-161767994D01*
X413079291Y-161767991D01*
X413079290Y-161767985D01*
X412965190Y-161391847D01*
X412814771Y-161028703D01*
X412802355Y-161005475D01*
X412629488Y-160682062D01*
X412629487Y-160682060D01*
X412629482Y-160682051D01*
X412411107Y-160355231D01*
X412161750Y-160051388D01*
X412161749Y-160051387D01*
X412161745Y-160051382D01*
X411883817Y-159773454D01*
X411579974Y-159524097D01*
X411579973Y-159524096D01*
X411579969Y-159524093D01*
X411253149Y-159305718D01*
X411253144Y-159305715D01*
X411253137Y-159305711D01*
X410906504Y-159120432D01*
X410906499Y-159120430D01*
X410896680Y-159116363D01*
X410800135Y-159076372D01*
X410543354Y-158970010D01*
X410167205Y-158855907D01*
X410167194Y-158855904D01*
X409781702Y-158779226D01*
X409469229Y-158748451D01*
X409390532Y-158740700D01*
X408997468Y-158740700D01*
X408918771Y-158748451D01*
X408606297Y-158779226D01*
X408220805Y-158855904D01*
X408220794Y-158855907D01*
X407844645Y-158970010D01*
X407481500Y-159120430D01*
X407481495Y-159120432D01*
X407134862Y-159305711D01*
X407134844Y-159305722D01*
X406808039Y-159524087D01*
X406808025Y-159524097D01*
X406504182Y-159773454D01*
X406226254Y-160051382D01*
X405976897Y-160355225D01*
X405976887Y-160355239D01*
X405758522Y-160682044D01*
X405758511Y-160682062D01*
X405573232Y-161028695D01*
X405573230Y-161028700D01*
X405422810Y-161391845D01*
X405308707Y-161767994D01*
X405308704Y-161768005D01*
X405232026Y-162153497D01*
X405208469Y-162392683D01*
X405197229Y-162506812D01*
X405193500Y-162544671D01*
X319806500Y-162544671D01*
X319806500Y-156875175D01*
X338587500Y-156875175D01*
X338587500Y-156906648D01*
X338587500Y-157224025D01*
X338597898Y-157329598D01*
X338621692Y-157571194D01*
X338689744Y-157913321D01*
X338689747Y-157913332D01*
X338791016Y-158247171D01*
X338924516Y-158569467D01*
X338924518Y-158569472D01*
X339088955Y-158877111D01*
X339088972Y-158877139D01*
X339282759Y-159167163D01*
X339282776Y-159167186D01*
X339504084Y-159436851D01*
X339750748Y-159683515D01*
X339750753Y-159683519D01*
X339750754Y-159683520D01*
X340020419Y-159904828D01*
X340020426Y-159904833D01*
X340020436Y-159904840D01*
X340310460Y-160098627D01*
X340310465Y-160098630D01*
X340310477Y-160098638D01*
X340310486Y-160098642D01*
X340310488Y-160098644D01*
X340618127Y-160263081D01*
X340618129Y-160263081D01*
X340618135Y-160263085D01*
X340940430Y-160396584D01*
X341274258Y-160497850D01*
X341274264Y-160497851D01*
X341274267Y-160497852D01*
X341274278Y-160497855D01*
X341616405Y-160565907D01*
X341963575Y-160600100D01*
X341963578Y-160600100D01*
X342312422Y-160600100D01*
X342312425Y-160600100D01*
X342659595Y-160565907D01*
X342726197Y-160552659D01*
X343001721Y-160497855D01*
X343001732Y-160497852D01*
X343001732Y-160497851D01*
X343001742Y-160497850D01*
X343335570Y-160396584D01*
X343657865Y-160263085D01*
X343965523Y-160098638D01*
X344255581Y-159904828D01*
X344525246Y-159683520D01*
X344771920Y-159436846D01*
X344993228Y-159167181D01*
X345187038Y-158877123D01*
X345351485Y-158569465D01*
X345484984Y-158247170D01*
X345586250Y-157913342D01*
X345586252Y-157913332D01*
X345586255Y-157913321D01*
X345641059Y-157637797D01*
X345654307Y-157571195D01*
X345688500Y-157224025D01*
X345688500Y-156880378D01*
X352557500Y-156880378D01*
X352557500Y-157229221D01*
X352591692Y-157576394D01*
X352659744Y-157918521D01*
X352659747Y-157918532D01*
X352761016Y-158252371D01*
X352894516Y-158574667D01*
X352894518Y-158574672D01*
X353058955Y-158882311D01*
X353058972Y-158882339D01*
X353252759Y-159172363D01*
X353252776Y-159172386D01*
X353474084Y-159442051D01*
X353720748Y-159688715D01*
X353720753Y-159688719D01*
X353720754Y-159688720D01*
X353990419Y-159910028D01*
X353990426Y-159910033D01*
X353990436Y-159910040D01*
X354280460Y-160103827D01*
X354280465Y-160103830D01*
X354280477Y-160103838D01*
X354280486Y-160103842D01*
X354280488Y-160103844D01*
X354588127Y-160268281D01*
X354588129Y-160268281D01*
X354588135Y-160268285D01*
X354910430Y-160401784D01*
X355244258Y-160503050D01*
X355244264Y-160503051D01*
X355244267Y-160503052D01*
X355244278Y-160503055D01*
X355586405Y-160571107D01*
X355933575Y-160605300D01*
X355933578Y-160605300D01*
X356282422Y-160605300D01*
X356282425Y-160605300D01*
X356629595Y-160571107D01*
X356739227Y-160549300D01*
X356971721Y-160503055D01*
X356971732Y-160503052D01*
X356971732Y-160503051D01*
X356971742Y-160503050D01*
X357305570Y-160401784D01*
X357627865Y-160268285D01*
X357935523Y-160103838D01*
X358225581Y-159910028D01*
X358495246Y-159688720D01*
X358741920Y-159442046D01*
X358963228Y-159172381D01*
X359157038Y-158882323D01*
X359321485Y-158574665D01*
X359454984Y-158252370D01*
X359556250Y-157918542D01*
X359556252Y-157918532D01*
X359556255Y-157918521D01*
X359624307Y-157576394D01*
X359629822Y-157520395D01*
X359658500Y-157229225D01*
X359658500Y-156880378D01*
X366578300Y-156880378D01*
X366578300Y-157229221D01*
X366612492Y-157576394D01*
X366680544Y-157918521D01*
X366680547Y-157918532D01*
X366781816Y-158252371D01*
X366915316Y-158574667D01*
X366915318Y-158574672D01*
X367079755Y-158882311D01*
X367079772Y-158882339D01*
X367273559Y-159172363D01*
X367273576Y-159172386D01*
X367494884Y-159442051D01*
X367741548Y-159688715D01*
X367741553Y-159688719D01*
X367741554Y-159688720D01*
X368011219Y-159910028D01*
X368011226Y-159910033D01*
X368011236Y-159910040D01*
X368301260Y-160103827D01*
X368301265Y-160103830D01*
X368301277Y-160103838D01*
X368301286Y-160103842D01*
X368301288Y-160103844D01*
X368608927Y-160268281D01*
X368608929Y-160268281D01*
X368608935Y-160268285D01*
X368931230Y-160401784D01*
X369265058Y-160503050D01*
X369265064Y-160503051D01*
X369265067Y-160503052D01*
X369265078Y-160503055D01*
X369607205Y-160571107D01*
X369954375Y-160605300D01*
X369954378Y-160605300D01*
X370303222Y-160605300D01*
X370303225Y-160605300D01*
X370650395Y-160571107D01*
X370760027Y-160549300D01*
X370992521Y-160503055D01*
X370992532Y-160503052D01*
X370992532Y-160503051D01*
X370992542Y-160503050D01*
X371326370Y-160401784D01*
X371648665Y-160268285D01*
X371956323Y-160103838D01*
X372246381Y-159910028D01*
X372516046Y-159688720D01*
X372762720Y-159442046D01*
X372984028Y-159172381D01*
X373177838Y-158882323D01*
X373342285Y-158574665D01*
X373475784Y-158252370D01*
X373577050Y-157918542D01*
X373577052Y-157918532D01*
X373577055Y-157918521D01*
X373645107Y-157576394D01*
X373650622Y-157520395D01*
X373679300Y-157229225D01*
X373679300Y-156880375D01*
X373673785Y-156824375D01*
X380599100Y-156824375D01*
X380599100Y-156855848D01*
X380599100Y-157173225D01*
X380609498Y-157278798D01*
X380633292Y-157520394D01*
X380701344Y-157862521D01*
X380701347Y-157862532D01*
X380802616Y-158196371D01*
X380936116Y-158518667D01*
X380936118Y-158518672D01*
X381100555Y-158826311D01*
X381100572Y-158826339D01*
X381294359Y-159116363D01*
X381294376Y-159116386D01*
X381515684Y-159386051D01*
X381762348Y-159632715D01*
X381762353Y-159632719D01*
X381762354Y-159632720D01*
X382032019Y-159854028D01*
X382032026Y-159854033D01*
X382032036Y-159854040D01*
X382322060Y-160047827D01*
X382322065Y-160047830D01*
X382322077Y-160047838D01*
X382322086Y-160047842D01*
X382322088Y-160047844D01*
X382629727Y-160212281D01*
X382629729Y-160212281D01*
X382629735Y-160212285D01*
X382952030Y-160345784D01*
X383285858Y-160447050D01*
X383285864Y-160447051D01*
X383285867Y-160447052D01*
X383285878Y-160447055D01*
X383628005Y-160515107D01*
X383975175Y-160549300D01*
X383975178Y-160549300D01*
X384324022Y-160549300D01*
X384324025Y-160549300D01*
X384671195Y-160515107D01*
X384757952Y-160497850D01*
X385013321Y-160447055D01*
X385013332Y-160447052D01*
X385013332Y-160447051D01*
X385013342Y-160447050D01*
X385347170Y-160345784D01*
X385669465Y-160212285D01*
X385977123Y-160047838D01*
X386267181Y-159854028D01*
X386536846Y-159632720D01*
X386783520Y-159386046D01*
X387004828Y-159116381D01*
X387198638Y-158826323D01*
X387363085Y-158518665D01*
X387496584Y-158196370D01*
X387597850Y-157862542D01*
X387597852Y-157862532D01*
X387597855Y-157862521D01*
X387665907Y-157520394D01*
X387675218Y-157425857D01*
X387700100Y-157173225D01*
X387700100Y-156824375D01*
X387665907Y-156477205D01*
X387597855Y-156135078D01*
X387597852Y-156135067D01*
X387597851Y-156135064D01*
X387597850Y-156135058D01*
X387496584Y-155801230D01*
X387363085Y-155478935D01*
X387297347Y-155355949D01*
X387198644Y-155171288D01*
X387198642Y-155171286D01*
X387198638Y-155171277D01*
X387198627Y-155171260D01*
X387004840Y-154881236D01*
X387004833Y-154881226D01*
X387004828Y-154881219D01*
X386783520Y-154611554D01*
X386783519Y-154611553D01*
X386783515Y-154611548D01*
X386536851Y-154364884D01*
X386267186Y-154143576D01*
X386267163Y-154143559D01*
X385977139Y-153949772D01*
X385977111Y-153949755D01*
X385669472Y-153785318D01*
X385669467Y-153785316D01*
X385347171Y-153651816D01*
X385013332Y-153550547D01*
X385013321Y-153550544D01*
X384671194Y-153482492D01*
X384409720Y-153456740D01*
X384324025Y-153448300D01*
X383975175Y-153448300D01*
X383895994Y-153456098D01*
X383628005Y-153482492D01*
X383285878Y-153550544D01*
X383285867Y-153550547D01*
X382952028Y-153651816D01*
X382629732Y-153785316D01*
X382629727Y-153785318D01*
X382322088Y-153949755D01*
X382322060Y-153949772D01*
X382032036Y-154143559D01*
X382032013Y-154143576D01*
X381762348Y-154364884D01*
X381515684Y-154611548D01*
X381294376Y-154881213D01*
X381294359Y-154881236D01*
X381100572Y-155171260D01*
X381100555Y-155171288D01*
X380936118Y-155478927D01*
X380936116Y-155478932D01*
X380802616Y-155801228D01*
X380701347Y-156135067D01*
X380701344Y-156135078D01*
X380633292Y-156477205D01*
X380618466Y-156627743D01*
X380599100Y-156824375D01*
X373673785Y-156824375D01*
X373645107Y-156533205D01*
X373633968Y-156477205D01*
X373577055Y-156191078D01*
X373577052Y-156191067D01*
X373577051Y-156191064D01*
X373577050Y-156191058D01*
X373475784Y-155857230D01*
X373342285Y-155534935D01*
X373339501Y-155529727D01*
X373177844Y-155227288D01*
X373177842Y-155227286D01*
X373177838Y-155227277D01*
X373174371Y-155222088D01*
X372984040Y-154937236D01*
X372984033Y-154937226D01*
X372984028Y-154937219D01*
X372762720Y-154667554D01*
X372762719Y-154667553D01*
X372762715Y-154667548D01*
X372516051Y-154420884D01*
X372246386Y-154199576D01*
X372246363Y-154199559D01*
X371956339Y-154005772D01*
X371956311Y-154005755D01*
X371648672Y-153841318D01*
X371648667Y-153841316D01*
X371636113Y-153836116D01*
X371554268Y-153802214D01*
X371326371Y-153707816D01*
X370992532Y-153606547D01*
X370992521Y-153606544D01*
X370650394Y-153538492D01*
X370388920Y-153512740D01*
X370303225Y-153504300D01*
X369954375Y-153504300D01*
X369875194Y-153512098D01*
X369607205Y-153538492D01*
X369265078Y-153606544D01*
X369265067Y-153606547D01*
X368931228Y-153707816D01*
X368608932Y-153841316D01*
X368608927Y-153841318D01*
X368301288Y-154005755D01*
X368301260Y-154005772D01*
X368011236Y-154199559D01*
X368011213Y-154199576D01*
X367741548Y-154420884D01*
X367494884Y-154667548D01*
X367273576Y-154937213D01*
X367273559Y-154937236D01*
X367079772Y-155227260D01*
X367079755Y-155227288D01*
X366915318Y-155534927D01*
X366915316Y-155534932D01*
X366781816Y-155857228D01*
X366680547Y-156191067D01*
X366680544Y-156191078D01*
X366612492Y-156533205D01*
X366586098Y-156801194D01*
X366583816Y-156824375D01*
X366578300Y-156880378D01*
X359658500Y-156880378D01*
X359658500Y-156880375D01*
X359624307Y-156533205D01*
X359613168Y-156477205D01*
X359556255Y-156191078D01*
X359556252Y-156191067D01*
X359556251Y-156191064D01*
X359556250Y-156191058D01*
X359454984Y-155857230D01*
X359321485Y-155534935D01*
X359318701Y-155529727D01*
X359157044Y-155227288D01*
X359157042Y-155227286D01*
X359157038Y-155227277D01*
X359153571Y-155222088D01*
X358963240Y-154937236D01*
X358963233Y-154937226D01*
X358963228Y-154937219D01*
X358741920Y-154667554D01*
X358741919Y-154667553D01*
X358741915Y-154667548D01*
X358495251Y-154420884D01*
X358225586Y-154199576D01*
X358225563Y-154199559D01*
X357935539Y-154005772D01*
X357935511Y-154005755D01*
X357627872Y-153841318D01*
X357627867Y-153841316D01*
X357615313Y-153836116D01*
X357533468Y-153802214D01*
X357305571Y-153707816D01*
X356971732Y-153606547D01*
X356971721Y-153606544D01*
X356629594Y-153538492D01*
X356368120Y-153512740D01*
X356282425Y-153504300D01*
X355933575Y-153504300D01*
X355854394Y-153512098D01*
X355586405Y-153538492D01*
X355244278Y-153606544D01*
X355244267Y-153606547D01*
X354910428Y-153707816D01*
X354588132Y-153841316D01*
X354588127Y-153841318D01*
X354280488Y-154005755D01*
X354280460Y-154005772D01*
X353990436Y-154199559D01*
X353990413Y-154199576D01*
X353720748Y-154420884D01*
X353474084Y-154667548D01*
X353252776Y-154937213D01*
X353252759Y-154937236D01*
X353058972Y-155227260D01*
X353058955Y-155227288D01*
X352894518Y-155534927D01*
X352894516Y-155534932D01*
X352761016Y-155857228D01*
X352659747Y-156191067D01*
X352659744Y-156191078D01*
X352591692Y-156533205D01*
X352565298Y-156801194D01*
X352563016Y-156824375D01*
X352557500Y-156880378D01*
X345688500Y-156880378D01*
X345688500Y-156875175D01*
X345654307Y-156528005D01*
X345644202Y-156477205D01*
X345586255Y-156185878D01*
X345586252Y-156185867D01*
X345586251Y-156185864D01*
X345586250Y-156185858D01*
X345484984Y-155852030D01*
X345351485Y-155529735D01*
X345324327Y-155478927D01*
X345187044Y-155222088D01*
X345187042Y-155222086D01*
X345187038Y-155222077D01*
X345153095Y-155171277D01*
X344993240Y-154932036D01*
X344993233Y-154932026D01*
X344993228Y-154932019D01*
X344771920Y-154662354D01*
X344771919Y-154662353D01*
X344771915Y-154662348D01*
X344525251Y-154415684D01*
X344255586Y-154194376D01*
X344255563Y-154194359D01*
X343965539Y-154000572D01*
X343965511Y-154000555D01*
X343657872Y-153836118D01*
X343657867Y-153836116D01*
X343335571Y-153702616D01*
X343001732Y-153601347D01*
X343001721Y-153601344D01*
X342659594Y-153533292D01*
X342398120Y-153507540D01*
X342312425Y-153499100D01*
X341963575Y-153499100D01*
X341884394Y-153506898D01*
X341616405Y-153533292D01*
X341274278Y-153601344D01*
X341274267Y-153601347D01*
X340940428Y-153702616D01*
X340618132Y-153836116D01*
X340618127Y-153836118D01*
X340310488Y-154000555D01*
X340310460Y-154000572D01*
X340020436Y-154194359D01*
X340020413Y-154194376D01*
X339750748Y-154415684D01*
X339504084Y-154662348D01*
X339282776Y-154932013D01*
X339282759Y-154932036D01*
X339088972Y-155222060D01*
X339088955Y-155222088D01*
X338924518Y-155529727D01*
X338924516Y-155529732D01*
X338791016Y-155852028D01*
X338689747Y-156185867D01*
X338689744Y-156185878D01*
X338621692Y-156528005D01*
X338595298Y-156795994D01*
X338587500Y-156875175D01*
X319806500Y-156875175D01*
X319806500Y-145912378D01*
X338550700Y-145912378D01*
X338550700Y-146261221D01*
X338584892Y-146608394D01*
X338652944Y-146950521D01*
X338652947Y-146950532D01*
X338754216Y-147284371D01*
X338887716Y-147606667D01*
X338887718Y-147606672D01*
X339052155Y-147914311D01*
X339052172Y-147914339D01*
X339245959Y-148204363D01*
X339245976Y-148204386D01*
X339467284Y-148474051D01*
X339713948Y-148720715D01*
X339713953Y-148720719D01*
X339713954Y-148720720D01*
X339983619Y-148942028D01*
X339983626Y-148942033D01*
X339983636Y-148942040D01*
X340273660Y-149135827D01*
X340273665Y-149135830D01*
X340273677Y-149135838D01*
X340273686Y-149135842D01*
X340273688Y-149135844D01*
X340581327Y-149300281D01*
X340581329Y-149300281D01*
X340581335Y-149300285D01*
X340903630Y-149433784D01*
X341237458Y-149535050D01*
X341237464Y-149535051D01*
X341237467Y-149535052D01*
X341237478Y-149535055D01*
X341579605Y-149603107D01*
X341926775Y-149637300D01*
X341926778Y-149637300D01*
X342275622Y-149637300D01*
X342275625Y-149637300D01*
X342622795Y-149603107D01*
X342693178Y-149589107D01*
X342964921Y-149535055D01*
X342964932Y-149535052D01*
X342964932Y-149535051D01*
X342964942Y-149535050D01*
X343298770Y-149433784D01*
X343621065Y-149300285D01*
X343928723Y-149135838D01*
X344218781Y-148942028D01*
X344488446Y-148720720D01*
X344735120Y-148474046D01*
X344956428Y-148204381D01*
X345150238Y-147914323D01*
X345314685Y-147606665D01*
X345448184Y-147284370D01*
X345549450Y-146950542D01*
X345549452Y-146950532D01*
X345549455Y-146950521D01*
X345617507Y-146608394D01*
X345651700Y-146261221D01*
X345651700Y-145912378D01*
X352520700Y-145912378D01*
X352520700Y-146261221D01*
X352554892Y-146608394D01*
X352622944Y-146950521D01*
X352622947Y-146950532D01*
X352724216Y-147284371D01*
X352857716Y-147606667D01*
X352857718Y-147606672D01*
X353022155Y-147914311D01*
X353022172Y-147914339D01*
X353215959Y-148204363D01*
X353215976Y-148204386D01*
X353437284Y-148474051D01*
X353683948Y-148720715D01*
X353683953Y-148720719D01*
X353683954Y-148720720D01*
X353953619Y-148942028D01*
X353953626Y-148942033D01*
X353953636Y-148942040D01*
X354243660Y-149135827D01*
X354243665Y-149135830D01*
X354243677Y-149135838D01*
X354243686Y-149135842D01*
X354243688Y-149135844D01*
X354551327Y-149300281D01*
X354551329Y-149300281D01*
X354551335Y-149300285D01*
X354873630Y-149433784D01*
X355207458Y-149535050D01*
X355207464Y-149535051D01*
X355207467Y-149535052D01*
X355207478Y-149535055D01*
X355549605Y-149603107D01*
X355896775Y-149637300D01*
X355896778Y-149637300D01*
X356245622Y-149637300D01*
X356245625Y-149637300D01*
X356592795Y-149603107D01*
X356663178Y-149589107D01*
X356934921Y-149535055D01*
X356934932Y-149535052D01*
X356934932Y-149535051D01*
X356934942Y-149535050D01*
X357268770Y-149433784D01*
X357591065Y-149300285D01*
X357898723Y-149135838D01*
X358188781Y-148942028D01*
X358458446Y-148720720D01*
X358705120Y-148474046D01*
X358926428Y-148204381D01*
X359120238Y-147914323D01*
X359284685Y-147606665D01*
X359418184Y-147284370D01*
X359519450Y-146950542D01*
X359519452Y-146950532D01*
X359519455Y-146950521D01*
X359587507Y-146608394D01*
X359621700Y-146261221D01*
X359621700Y-145912377D01*
X359617594Y-145870684D01*
X359616697Y-145861575D01*
X366541500Y-145861575D01*
X366541500Y-145893048D01*
X366541500Y-146210425D01*
X366551898Y-146315998D01*
X366575692Y-146557594D01*
X366643744Y-146899721D01*
X366643747Y-146899732D01*
X366745016Y-147233571D01*
X366878516Y-147555867D01*
X366878518Y-147555872D01*
X367042955Y-147863511D01*
X367042972Y-147863539D01*
X367236759Y-148153563D01*
X367236776Y-148153586D01*
X367458084Y-148423251D01*
X367704748Y-148669915D01*
X367704753Y-148669919D01*
X367704754Y-148669920D01*
X367974419Y-148891228D01*
X367974426Y-148891233D01*
X367974436Y-148891240D01*
X368264460Y-149085027D01*
X368264465Y-149085030D01*
X368264477Y-149085038D01*
X368264486Y-149085042D01*
X368264488Y-149085044D01*
X368572127Y-149249481D01*
X368572129Y-149249481D01*
X368572135Y-149249485D01*
X368894430Y-149382984D01*
X369228258Y-149484250D01*
X369228264Y-149484251D01*
X369228267Y-149484252D01*
X369228278Y-149484255D01*
X369570405Y-149552307D01*
X369917575Y-149586500D01*
X369917578Y-149586500D01*
X370266422Y-149586500D01*
X370266425Y-149586500D01*
X370613595Y-149552307D01*
X370700352Y-149535050D01*
X370955721Y-149484255D01*
X370955732Y-149484252D01*
X370955732Y-149484251D01*
X370955742Y-149484250D01*
X371289570Y-149382984D01*
X371611865Y-149249485D01*
X371919523Y-149085038D01*
X372209581Y-148891228D01*
X372479246Y-148669920D01*
X372725920Y-148423246D01*
X372947228Y-148153581D01*
X373141038Y-147863523D01*
X373305485Y-147555865D01*
X373438984Y-147233570D01*
X373540250Y-146899742D01*
X373540252Y-146899732D01*
X373540255Y-146899721D01*
X373608307Y-146557594D01*
X373617618Y-146463057D01*
X373642500Y-146210425D01*
X373642500Y-145898375D01*
X380525500Y-145898375D01*
X380525500Y-145929848D01*
X380525500Y-146247225D01*
X380526879Y-146261225D01*
X380559692Y-146594394D01*
X380627744Y-146936521D01*
X380627747Y-146936532D01*
X380627749Y-146936541D01*
X380627750Y-146936542D01*
X380631994Y-146950532D01*
X380729016Y-147270371D01*
X380862516Y-147592667D01*
X380862518Y-147592672D01*
X381026955Y-147900311D01*
X381026972Y-147900339D01*
X381220759Y-148190363D01*
X381220776Y-148190386D01*
X381442084Y-148460051D01*
X381688748Y-148706715D01*
X381688753Y-148706719D01*
X381688754Y-148706720D01*
X381958419Y-148928028D01*
X381958426Y-148928033D01*
X381958436Y-148928040D01*
X382248460Y-149121827D01*
X382248465Y-149121830D01*
X382248477Y-149121838D01*
X382248486Y-149121842D01*
X382248488Y-149121844D01*
X382556127Y-149286281D01*
X382556129Y-149286281D01*
X382556135Y-149286285D01*
X382878430Y-149419784D01*
X383212258Y-149521050D01*
X383212264Y-149521051D01*
X383212267Y-149521052D01*
X383212278Y-149521055D01*
X383554405Y-149589107D01*
X383901575Y-149623300D01*
X383901578Y-149623300D01*
X384250422Y-149623300D01*
X384250425Y-149623300D01*
X384597595Y-149589107D01*
X384664197Y-149575859D01*
X384939721Y-149521055D01*
X384939732Y-149521052D01*
X384939732Y-149521051D01*
X384939742Y-149521050D01*
X385273570Y-149419784D01*
X385595865Y-149286285D01*
X385903523Y-149121838D01*
X386193581Y-148928028D01*
X386463246Y-148706720D01*
X386709920Y-148460046D01*
X386931228Y-148190381D01*
X387125038Y-147900323D01*
X387289485Y-147592665D01*
X387422984Y-147270370D01*
X387524250Y-146936542D01*
X387524252Y-146936532D01*
X387524255Y-146936521D01*
X387592307Y-146594394D01*
X387595931Y-146557595D01*
X387626500Y-146247225D01*
X387626500Y-145898375D01*
X387592307Y-145551205D01*
X387558453Y-145381008D01*
X387524255Y-145209078D01*
X387524252Y-145209067D01*
X387524251Y-145209064D01*
X387524250Y-145209058D01*
X387422984Y-144875230D01*
X387289485Y-144552935D01*
X387269813Y-144516132D01*
X387125044Y-144245288D01*
X387125042Y-144245286D01*
X387125038Y-144245277D01*
X387125027Y-144245260D01*
X386931240Y-143955236D01*
X386931233Y-143955226D01*
X386931228Y-143955219D01*
X386709920Y-143685554D01*
X386709919Y-143685553D01*
X386709915Y-143685548D01*
X386463251Y-143438884D01*
X386193586Y-143217576D01*
X386193563Y-143217559D01*
X385903539Y-143023772D01*
X385903511Y-143023755D01*
X385595872Y-142859318D01*
X385595867Y-142859316D01*
X385547276Y-142839189D01*
X385501468Y-142820214D01*
X385273571Y-142725816D01*
X384939732Y-142624547D01*
X384939721Y-142624544D01*
X384597594Y-142556492D01*
X384336120Y-142530740D01*
X384250425Y-142522300D01*
X383901575Y-142522300D01*
X383822394Y-142530098D01*
X383554405Y-142556492D01*
X383212278Y-142624544D01*
X383212267Y-142624547D01*
X382878428Y-142725816D01*
X382556132Y-142859316D01*
X382556127Y-142859318D01*
X382248488Y-143023755D01*
X382248460Y-143023772D01*
X381958436Y-143217559D01*
X381958413Y-143217576D01*
X381688748Y-143438884D01*
X381442084Y-143685548D01*
X381220776Y-143955213D01*
X381220759Y-143955236D01*
X381026972Y-144245260D01*
X381026955Y-144245288D01*
X380862518Y-144552927D01*
X380862516Y-144552932D01*
X380729016Y-144875228D01*
X380627747Y-145209067D01*
X380627744Y-145209078D01*
X380559692Y-145551205D01*
X380533298Y-145819194D01*
X380525500Y-145898375D01*
X373642500Y-145898375D01*
X373642500Y-145861575D01*
X373608307Y-145514405D01*
X373578988Y-145367008D01*
X373540255Y-145172278D01*
X373540252Y-145172267D01*
X373540251Y-145172264D01*
X373540250Y-145172258D01*
X373438984Y-144838430D01*
X373305485Y-144516135D01*
X373141038Y-144208477D01*
X373125876Y-144185785D01*
X372947240Y-143918436D01*
X372947233Y-143918426D01*
X372947228Y-143918419D01*
X372725920Y-143648754D01*
X372725919Y-143648753D01*
X372725915Y-143648748D01*
X372479251Y-143402084D01*
X372209586Y-143180776D01*
X372209563Y-143180759D01*
X371919539Y-142986972D01*
X371919511Y-142986955D01*
X371611872Y-142822518D01*
X371611867Y-142822516D01*
X371289571Y-142689016D01*
X370955732Y-142587747D01*
X370955721Y-142587744D01*
X370613594Y-142519692D01*
X370352120Y-142493940D01*
X370266425Y-142485500D01*
X369917575Y-142485500D01*
X369838394Y-142493298D01*
X369570405Y-142519692D01*
X369228278Y-142587744D01*
X369228267Y-142587747D01*
X368894428Y-142689016D01*
X368572132Y-142822516D01*
X368572127Y-142822518D01*
X368264488Y-142986955D01*
X368264460Y-142986972D01*
X367974436Y-143180759D01*
X367974413Y-143180776D01*
X367704748Y-143402084D01*
X367458084Y-143648748D01*
X367236776Y-143918413D01*
X367236759Y-143918436D01*
X367042972Y-144208460D01*
X367042955Y-144208488D01*
X366878518Y-144516127D01*
X366878516Y-144516132D01*
X366745016Y-144838428D01*
X366643747Y-145172267D01*
X366643744Y-145172278D01*
X366575692Y-145514405D01*
X366549298Y-145782394D01*
X366541500Y-145861575D01*
X359616697Y-145861575D01*
X359587507Y-145565205D01*
X359519455Y-145223078D01*
X359519452Y-145223067D01*
X359519451Y-145223064D01*
X359519450Y-145223058D01*
X359418184Y-144889230D01*
X359284685Y-144566935D01*
X359257527Y-144516127D01*
X359120244Y-144259288D01*
X359120242Y-144259286D01*
X359120238Y-144259277D01*
X359110884Y-144245277D01*
X358926440Y-143969236D01*
X358926433Y-143969226D01*
X358926428Y-143969219D01*
X358705120Y-143699554D01*
X358705119Y-143699553D01*
X358705115Y-143699548D01*
X358458451Y-143452884D01*
X358188786Y-143231576D01*
X358188763Y-143231559D01*
X357898739Y-143037772D01*
X357898711Y-143037755D01*
X357591072Y-142873318D01*
X357591067Y-142873316D01*
X357268771Y-142739816D01*
X356934932Y-142638547D01*
X356934921Y-142638544D01*
X356592794Y-142570492D01*
X356331320Y-142544740D01*
X356245625Y-142536300D01*
X355896775Y-142536300D01*
X355817594Y-142544098D01*
X355549605Y-142570492D01*
X355207478Y-142638544D01*
X355207467Y-142638547D01*
X354873628Y-142739816D01*
X354551332Y-142873316D01*
X354551327Y-142873318D01*
X354243688Y-143037755D01*
X354243660Y-143037772D01*
X353953636Y-143231559D01*
X353953613Y-143231576D01*
X353683948Y-143452884D01*
X353437284Y-143699548D01*
X353215976Y-143969213D01*
X353215959Y-143969236D01*
X353022172Y-144259260D01*
X353022155Y-144259288D01*
X352857718Y-144566927D01*
X352857716Y-144566932D01*
X352724216Y-144889228D01*
X352622947Y-145223067D01*
X352622944Y-145223078D01*
X352554892Y-145565205D01*
X352520700Y-145912378D01*
X345651700Y-145912378D01*
X345646696Y-145861575D01*
X345617507Y-145565205D01*
X345607402Y-145514405D01*
X345549455Y-145223078D01*
X345549452Y-145223067D01*
X345549451Y-145223064D01*
X345549450Y-145223058D01*
X345448184Y-144889230D01*
X345314685Y-144566935D01*
X345287527Y-144516127D01*
X345150244Y-144259288D01*
X345150242Y-144259286D01*
X345150238Y-144259277D01*
X345140884Y-144245277D01*
X344956440Y-143969236D01*
X344956433Y-143969226D01*
X344956428Y-143969219D01*
X344735120Y-143699554D01*
X344735119Y-143699553D01*
X344735115Y-143699548D01*
X344488451Y-143452884D01*
X344218786Y-143231576D01*
X344218763Y-143231559D01*
X343928739Y-143037772D01*
X343928711Y-143037755D01*
X343621072Y-142873318D01*
X343621067Y-142873316D01*
X343298771Y-142739816D01*
X342964932Y-142638547D01*
X342964921Y-142638544D01*
X342622794Y-142570492D01*
X342361320Y-142544740D01*
X342275625Y-142536300D01*
X341926775Y-142536300D01*
X341847594Y-142544098D01*
X341579605Y-142570492D01*
X341237478Y-142638544D01*
X341237467Y-142638547D01*
X340903628Y-142739816D01*
X340581332Y-142873316D01*
X340581327Y-142873318D01*
X340273688Y-143037755D01*
X340273660Y-143037772D01*
X339983636Y-143231559D01*
X339983613Y-143231576D01*
X339713948Y-143452884D01*
X339467284Y-143699548D01*
X339245976Y-143969213D01*
X339245959Y-143969236D01*
X339052172Y-144259260D01*
X339052155Y-144259288D01*
X338887718Y-144566927D01*
X338887716Y-144566932D01*
X338754216Y-144889228D01*
X338652947Y-145223067D01*
X338652944Y-145223078D01*
X338584892Y-145565205D01*
X338550700Y-145912378D01*
X319806500Y-145912378D01*
X319806500Y-138871471D01*
X405193500Y-138871471D01*
X405193500Y-139264528D01*
X405232026Y-139655702D01*
X405308704Y-140041194D01*
X405308707Y-140041205D01*
X405422810Y-140417354D01*
X405573230Y-140780499D01*
X405573232Y-140780504D01*
X405758511Y-141127137D01*
X405758522Y-141127155D01*
X405976887Y-141453960D01*
X405976897Y-141453974D01*
X406226254Y-141757817D01*
X406504182Y-142035745D01*
X406504187Y-142035749D01*
X406504188Y-142035750D01*
X406808031Y-142285107D01*
X407134851Y-142503482D01*
X407134860Y-142503487D01*
X407134862Y-142503488D01*
X407481495Y-142688767D01*
X407481497Y-142688767D01*
X407481503Y-142688771D01*
X407844647Y-142839190D01*
X408220785Y-142953290D01*
X408220791Y-142953291D01*
X408220794Y-142953292D01*
X408220805Y-142953295D01*
X408575037Y-143023755D01*
X408606297Y-143029973D01*
X408997468Y-143068500D01*
X408997471Y-143068500D01*
X409390529Y-143068500D01*
X409390532Y-143068500D01*
X409781703Y-143029973D01*
X409856748Y-143015045D01*
X410167194Y-142953295D01*
X410167205Y-142953292D01*
X410167205Y-142953291D01*
X410167215Y-142953290D01*
X410543353Y-142839190D01*
X410906497Y-142688771D01*
X411253149Y-142503482D01*
X411579969Y-142285107D01*
X411883812Y-142035750D01*
X412161750Y-141757812D01*
X412411107Y-141453969D01*
X412629482Y-141127149D01*
X412814771Y-140780497D01*
X412965190Y-140417353D01*
X413079290Y-140041215D01*
X413079292Y-140041205D01*
X413079295Y-140041194D01*
X413155973Y-139655702D01*
X413194500Y-139264528D01*
X413194500Y-138871471D01*
X413172126Y-138644307D01*
X413155973Y-138480297D01*
X413152131Y-138460983D01*
X413079295Y-138094805D01*
X413079292Y-138094794D01*
X413079291Y-138094791D01*
X413079290Y-138094785D01*
X412965190Y-137718647D01*
X412814771Y-137355503D01*
X412802355Y-137332275D01*
X412629488Y-137008862D01*
X412629487Y-137008860D01*
X412629482Y-137008851D01*
X412411107Y-136682031D01*
X412161750Y-136378188D01*
X412161749Y-136378187D01*
X412161745Y-136378182D01*
X411883817Y-136100254D01*
X411579974Y-135850897D01*
X411579973Y-135850896D01*
X411579969Y-135850893D01*
X411253149Y-135632518D01*
X411253144Y-135632515D01*
X411253137Y-135632511D01*
X410906504Y-135447232D01*
X410906499Y-135447230D01*
X410543354Y-135296810D01*
X410167205Y-135182707D01*
X410167194Y-135182704D01*
X409781702Y-135106026D01*
X409487089Y-135077010D01*
X409390532Y-135067500D01*
X408997468Y-135067500D01*
X408908251Y-135076287D01*
X408606297Y-135106026D01*
X408220805Y-135182704D01*
X408220794Y-135182707D01*
X407844645Y-135296810D01*
X407481500Y-135447230D01*
X407481495Y-135447232D01*
X407134862Y-135632511D01*
X407134844Y-135632522D01*
X406808039Y-135850887D01*
X406808025Y-135850897D01*
X406504182Y-136100254D01*
X406226254Y-136378182D01*
X405976897Y-136682025D01*
X405976887Y-136682039D01*
X405758522Y-137008844D01*
X405758511Y-137008862D01*
X405573232Y-137355495D01*
X405573230Y-137355500D01*
X405422810Y-137718645D01*
X405308707Y-138094794D01*
X405308704Y-138094805D01*
X405232026Y-138480297D01*
X405193500Y-138871471D01*
X319806500Y-138871471D01*
X319806500Y-135062108D01*
X319777420Y-134953578D01*
X338587500Y-134953578D01*
X338587500Y-135302421D01*
X338621692Y-135649594D01*
X338689744Y-135991721D01*
X338689747Y-135991732D01*
X338791016Y-136325571D01*
X338885023Y-136552522D01*
X338913687Y-136621725D01*
X338924516Y-136647867D01*
X338924518Y-136647872D01*
X339088955Y-136955511D01*
X339088972Y-136955539D01*
X339282759Y-137245563D01*
X339282776Y-137245586D01*
X339504084Y-137515251D01*
X339750748Y-137761915D01*
X339750753Y-137761919D01*
X339750754Y-137761920D01*
X340020419Y-137983228D01*
X340020426Y-137983233D01*
X340020436Y-137983240D01*
X340310460Y-138177027D01*
X340310465Y-138177030D01*
X340310477Y-138177038D01*
X340310486Y-138177042D01*
X340310488Y-138177044D01*
X340618127Y-138341481D01*
X340618129Y-138341481D01*
X340618135Y-138341485D01*
X340940430Y-138474984D01*
X341274258Y-138576250D01*
X341274264Y-138576251D01*
X341274267Y-138576252D01*
X341274278Y-138576255D01*
X341616405Y-138644307D01*
X341963575Y-138678500D01*
X341963578Y-138678500D01*
X342312422Y-138678500D01*
X342312425Y-138678500D01*
X342659595Y-138644307D01*
X342729978Y-138630307D01*
X343001721Y-138576255D01*
X343001732Y-138576252D01*
X343001732Y-138576251D01*
X343001742Y-138576250D01*
X343335570Y-138474984D01*
X343657865Y-138341485D01*
X343965523Y-138177038D01*
X344255581Y-137983228D01*
X344525246Y-137761920D01*
X344771920Y-137515246D01*
X344993228Y-137245581D01*
X345187038Y-136955523D01*
X345351485Y-136647865D01*
X345484984Y-136325570D01*
X345586250Y-135991742D01*
X345586252Y-135991732D01*
X345586255Y-135991721D01*
X345654307Y-135649594D01*
X345655686Y-135635594D01*
X345688500Y-135302425D01*
X345688500Y-134953578D01*
X352557500Y-134953578D01*
X352557500Y-135302421D01*
X352591692Y-135649594D01*
X352659744Y-135991721D01*
X352659747Y-135991732D01*
X352761016Y-136325571D01*
X352855023Y-136552522D01*
X352883687Y-136621725D01*
X352894516Y-136647867D01*
X352894518Y-136647872D01*
X353058955Y-136955511D01*
X353058972Y-136955539D01*
X353252759Y-137245563D01*
X353252776Y-137245586D01*
X353474084Y-137515251D01*
X353720748Y-137761915D01*
X353720753Y-137761919D01*
X353720754Y-137761920D01*
X353990419Y-137983228D01*
X353990426Y-137983233D01*
X353990436Y-137983240D01*
X354280460Y-138177027D01*
X354280465Y-138177030D01*
X354280477Y-138177038D01*
X354280486Y-138177042D01*
X354280488Y-138177044D01*
X354588127Y-138341481D01*
X354588129Y-138341481D01*
X354588135Y-138341485D01*
X354910430Y-138474984D01*
X355244258Y-138576250D01*
X355244264Y-138576251D01*
X355244267Y-138576252D01*
X355244278Y-138576255D01*
X355586405Y-138644307D01*
X355933575Y-138678500D01*
X355933578Y-138678500D01*
X356282422Y-138678500D01*
X356282425Y-138678500D01*
X356629595Y-138644307D01*
X356699978Y-138630307D01*
X356971721Y-138576255D01*
X356971732Y-138576252D01*
X356971732Y-138576251D01*
X356971742Y-138576250D01*
X357305570Y-138474984D01*
X357627865Y-138341485D01*
X357935523Y-138177038D01*
X358225581Y-137983228D01*
X358495246Y-137761920D01*
X358741920Y-137515246D01*
X358963228Y-137245581D01*
X359157038Y-136955523D01*
X359321485Y-136647865D01*
X359454984Y-136325570D01*
X359556250Y-135991742D01*
X359556252Y-135991732D01*
X359556255Y-135991721D01*
X359624307Y-135649594D01*
X359625686Y-135635594D01*
X359658500Y-135302425D01*
X359658500Y-134953575D01*
X359653497Y-134902775D01*
X366578300Y-134902775D01*
X366578300Y-134934248D01*
X366578300Y-135251625D01*
X366588698Y-135357198D01*
X366612492Y-135598794D01*
X366680544Y-135940921D01*
X366680547Y-135940932D01*
X366781816Y-136274771D01*
X366915316Y-136597067D01*
X366915318Y-136597072D01*
X367079755Y-136904711D01*
X367079772Y-136904739D01*
X367273559Y-137194763D01*
X367273576Y-137194786D01*
X367494884Y-137464451D01*
X367741548Y-137711115D01*
X367741553Y-137711119D01*
X367741554Y-137711120D01*
X368011219Y-137932428D01*
X368011226Y-137932433D01*
X368011236Y-137932440D01*
X368301260Y-138126227D01*
X368301265Y-138126230D01*
X368301277Y-138126238D01*
X368301286Y-138126242D01*
X368301288Y-138126244D01*
X368608927Y-138290681D01*
X368608929Y-138290681D01*
X368608935Y-138290685D01*
X368931230Y-138424184D01*
X369265058Y-138525450D01*
X369265064Y-138525451D01*
X369265067Y-138525452D01*
X369265078Y-138525455D01*
X369607205Y-138593507D01*
X369954375Y-138627700D01*
X369954378Y-138627700D01*
X370303222Y-138627700D01*
X370303225Y-138627700D01*
X370650395Y-138593507D01*
X370737152Y-138576250D01*
X370992521Y-138525455D01*
X370992532Y-138525452D01*
X370992532Y-138525451D01*
X370992542Y-138525450D01*
X371326370Y-138424184D01*
X371648665Y-138290685D01*
X371956323Y-138126238D01*
X372246381Y-137932428D01*
X372516046Y-137711120D01*
X372762720Y-137464446D01*
X372984028Y-137194781D01*
X373177838Y-136904723D01*
X373342285Y-136597065D01*
X373475784Y-136274770D01*
X373577050Y-135940942D01*
X373577052Y-135940932D01*
X373577055Y-135940921D01*
X373645107Y-135598794D01*
X373654418Y-135504257D01*
X373679300Y-135251625D01*
X373679300Y-134939575D01*
X380562300Y-134939575D01*
X380562300Y-134971048D01*
X380562300Y-135288425D01*
X380563679Y-135302425D01*
X380596492Y-135635594D01*
X380664544Y-135977721D01*
X380664547Y-135977732D01*
X380664549Y-135977741D01*
X380664550Y-135977742D01*
X380668794Y-135991732D01*
X380765816Y-136311571D01*
X380860214Y-136539468D01*
X380894286Y-136621725D01*
X380899316Y-136633867D01*
X380899318Y-136633872D01*
X381063755Y-136941511D01*
X381063772Y-136941539D01*
X381257559Y-137231563D01*
X381257576Y-137231586D01*
X381478884Y-137501251D01*
X381725548Y-137747915D01*
X381725553Y-137747919D01*
X381725554Y-137747920D01*
X381995219Y-137969228D01*
X381995226Y-137969233D01*
X381995236Y-137969240D01*
X382285260Y-138163027D01*
X382285265Y-138163030D01*
X382285277Y-138163038D01*
X382285286Y-138163042D01*
X382285288Y-138163044D01*
X382592927Y-138327481D01*
X382592929Y-138327481D01*
X382592935Y-138327485D01*
X382915230Y-138460984D01*
X383249058Y-138562250D01*
X383249064Y-138562251D01*
X383249067Y-138562252D01*
X383249078Y-138562255D01*
X383591205Y-138630307D01*
X383938375Y-138664500D01*
X383938378Y-138664500D01*
X384287222Y-138664500D01*
X384287225Y-138664500D01*
X384634395Y-138630307D01*
X384700997Y-138617059D01*
X384976521Y-138562255D01*
X384976532Y-138562252D01*
X384976532Y-138562251D01*
X384976542Y-138562250D01*
X385310370Y-138460984D01*
X385632665Y-138327485D01*
X385940323Y-138163038D01*
X386230381Y-137969228D01*
X386500046Y-137747920D01*
X386746720Y-137501246D01*
X386968028Y-137231581D01*
X387161838Y-136941523D01*
X387326285Y-136633865D01*
X387459784Y-136311570D01*
X387561050Y-135977742D01*
X387561052Y-135977732D01*
X387561055Y-135977721D01*
X387629107Y-135635594D01*
X387632731Y-135598795D01*
X387663300Y-135288425D01*
X387663300Y-134939575D01*
X387629107Y-134592405D01*
X387595253Y-134422208D01*
X387561055Y-134250278D01*
X387561052Y-134250267D01*
X387561051Y-134250264D01*
X387561050Y-134250258D01*
X387459784Y-133916430D01*
X387326285Y-133594135D01*
X387306613Y-133557332D01*
X387161844Y-133286488D01*
X387161842Y-133286486D01*
X387161838Y-133286477D01*
X387161827Y-133286460D01*
X386968040Y-132996436D01*
X386968033Y-132996426D01*
X386968028Y-132996419D01*
X386746720Y-132726754D01*
X386746719Y-132726753D01*
X386746715Y-132726748D01*
X386500051Y-132480084D01*
X386230386Y-132258776D01*
X386230363Y-132258759D01*
X385940339Y-132064972D01*
X385940311Y-132064955D01*
X385632672Y-131900518D01*
X385632667Y-131900516D01*
X385310371Y-131767016D01*
X384976532Y-131665747D01*
X384976521Y-131665744D01*
X384634394Y-131597692D01*
X384372920Y-131571940D01*
X384287225Y-131563500D01*
X383938375Y-131563500D01*
X383859194Y-131571298D01*
X383591205Y-131597692D01*
X383249078Y-131665744D01*
X383249067Y-131665747D01*
X382915228Y-131767016D01*
X382592932Y-131900516D01*
X382592927Y-131900518D01*
X382285288Y-132064955D01*
X382285260Y-132064972D01*
X381995236Y-132258759D01*
X381995213Y-132258776D01*
X381725548Y-132480084D01*
X381478884Y-132726748D01*
X381257576Y-132996413D01*
X381257559Y-132996436D01*
X381063772Y-133286460D01*
X381063755Y-133286488D01*
X380899318Y-133594127D01*
X380899316Y-133594132D01*
X380765816Y-133916428D01*
X380664547Y-134250267D01*
X380664544Y-134250278D01*
X380596492Y-134592405D01*
X380583187Y-134727500D01*
X380562300Y-134939575D01*
X373679300Y-134939575D01*
X373679300Y-134902775D01*
X373645107Y-134555605D01*
X373615788Y-134408208D01*
X373577055Y-134213478D01*
X373577052Y-134213467D01*
X373577051Y-134213464D01*
X373577050Y-134213458D01*
X373475784Y-133879630D01*
X373342285Y-133557335D01*
X373177838Y-133249677D01*
X373162676Y-133226985D01*
X372984040Y-132959636D01*
X372984033Y-132959626D01*
X372984028Y-132959619D01*
X372762720Y-132689954D01*
X372762719Y-132689953D01*
X372762715Y-132689948D01*
X372516051Y-132443284D01*
X372246386Y-132221976D01*
X372246363Y-132221959D01*
X371956339Y-132028172D01*
X371956311Y-132028155D01*
X371648672Y-131863718D01*
X371648667Y-131863716D01*
X371326371Y-131730216D01*
X370992532Y-131628947D01*
X370992521Y-131628944D01*
X370650394Y-131560892D01*
X370388920Y-131535140D01*
X370303225Y-131526700D01*
X369954375Y-131526700D01*
X369875194Y-131534498D01*
X369607205Y-131560892D01*
X369265078Y-131628944D01*
X369265067Y-131628947D01*
X368931228Y-131730216D01*
X368608932Y-131863716D01*
X368608927Y-131863718D01*
X368301288Y-132028155D01*
X368301260Y-132028172D01*
X368011236Y-132221959D01*
X368011213Y-132221976D01*
X367741548Y-132443284D01*
X367494884Y-132689948D01*
X367273576Y-132959613D01*
X367273559Y-132959636D01*
X367079772Y-133249660D01*
X367079755Y-133249688D01*
X366915318Y-133557327D01*
X366915316Y-133557332D01*
X366781816Y-133879628D01*
X366680547Y-134213467D01*
X366680544Y-134213478D01*
X366612492Y-134555605D01*
X366586385Y-134820683D01*
X366578300Y-134902775D01*
X359653497Y-134902775D01*
X359645411Y-134820683D01*
X359624307Y-134606405D01*
X359556255Y-134264278D01*
X359556252Y-134264267D01*
X359556251Y-134264264D01*
X359556250Y-134264258D01*
X359454984Y-133930430D01*
X359321485Y-133608135D01*
X359294327Y-133557327D01*
X359157044Y-133300488D01*
X359157042Y-133300486D01*
X359157038Y-133300477D01*
X359147684Y-133286477D01*
X358963240Y-133010436D01*
X358963233Y-133010426D01*
X358963228Y-133010419D01*
X358741920Y-132740754D01*
X358741919Y-132740753D01*
X358741915Y-132740748D01*
X358495251Y-132494084D01*
X358225586Y-132272776D01*
X358225563Y-132272759D01*
X357935539Y-132078972D01*
X357935511Y-132078955D01*
X357627872Y-131914518D01*
X357627867Y-131914516D01*
X357305571Y-131781016D01*
X356971732Y-131679747D01*
X356971721Y-131679744D01*
X356629594Y-131611692D01*
X356368120Y-131585940D01*
X356282425Y-131577500D01*
X355933575Y-131577500D01*
X355854394Y-131585298D01*
X355586405Y-131611692D01*
X355244278Y-131679744D01*
X355244267Y-131679747D01*
X354910428Y-131781016D01*
X354588132Y-131914516D01*
X354588127Y-131914518D01*
X354280488Y-132078955D01*
X354280460Y-132078972D01*
X353990436Y-132272759D01*
X353990413Y-132272776D01*
X353720748Y-132494084D01*
X353474084Y-132740748D01*
X353252776Y-133010413D01*
X353252759Y-133010436D01*
X353058972Y-133300460D01*
X353058955Y-133300488D01*
X352894518Y-133608127D01*
X352894516Y-133608132D01*
X352761016Y-133930428D01*
X352659747Y-134264267D01*
X352659744Y-134264278D01*
X352591692Y-134606405D01*
X352557500Y-134953578D01*
X345688500Y-134953578D01*
X345688500Y-134953575D01*
X345654307Y-134606405D01*
X345644202Y-134555605D01*
X345586255Y-134264278D01*
X345586252Y-134264267D01*
X345586251Y-134264264D01*
X345586250Y-134264258D01*
X345484984Y-133930430D01*
X345351485Y-133608135D01*
X345324327Y-133557327D01*
X345187044Y-133300488D01*
X345187042Y-133300486D01*
X345187038Y-133300477D01*
X345177684Y-133286477D01*
X344993240Y-133010436D01*
X344993233Y-133010426D01*
X344993228Y-133010419D01*
X344771920Y-132740754D01*
X344771919Y-132740753D01*
X344771915Y-132740748D01*
X344525251Y-132494084D01*
X344255586Y-132272776D01*
X344255563Y-132272759D01*
X343965539Y-132078972D01*
X343965511Y-132078955D01*
X343657872Y-131914518D01*
X343657867Y-131914516D01*
X343335571Y-131781016D01*
X343001732Y-131679747D01*
X343001721Y-131679744D01*
X342659594Y-131611692D01*
X342398120Y-131585940D01*
X342312425Y-131577500D01*
X341963575Y-131577500D01*
X341884394Y-131585298D01*
X341616405Y-131611692D01*
X341274278Y-131679744D01*
X341274267Y-131679747D01*
X340940428Y-131781016D01*
X340618132Y-131914516D01*
X340618127Y-131914518D01*
X340310488Y-132078955D01*
X340310460Y-132078972D01*
X340020436Y-132272759D01*
X340020413Y-132272776D01*
X339750748Y-132494084D01*
X339504084Y-132740748D01*
X339282776Y-133010413D01*
X339282759Y-133010436D01*
X339088972Y-133300460D01*
X339088955Y-133300488D01*
X338924518Y-133608127D01*
X338924516Y-133608132D01*
X338791016Y-133930428D01*
X338689747Y-134264267D01*
X338689744Y-134264278D01*
X338621692Y-134606405D01*
X338587500Y-134953578D01*
X319777420Y-134953578D01*
X319772392Y-134934814D01*
X319706500Y-134820686D01*
X319613314Y-134727500D01*
X319556250Y-134694554D01*
X319499187Y-134661608D01*
X319435539Y-134644554D01*
X319371892Y-134627500D01*
X162371892Y-134627500D01*
X162240108Y-134627500D01*
X162112812Y-134661608D01*
X161998686Y-134727500D01*
X161998683Y-134727502D01*
X161905502Y-134820683D01*
X161905500Y-134820686D01*
X161839608Y-134934812D01*
X161805500Y-135062108D01*
X113340500Y-135062108D01*
X113340500Y-127586908D01*
X134818500Y-127586908D01*
X134818500Y-129018691D01*
X134852608Y-129145987D01*
X134885554Y-129203050D01*
X134918500Y-129260114D01*
X135011686Y-129353300D01*
X135125814Y-129419192D01*
X135253108Y-129453300D01*
X135253110Y-129453300D01*
X136734890Y-129453300D01*
X136734892Y-129453300D01*
X136862186Y-129419192D01*
X136976314Y-129353300D01*
X137069500Y-129260114D01*
X137135392Y-129145986D01*
X137169500Y-129018692D01*
X137169500Y-127586908D01*
X137135392Y-127459614D01*
X137069500Y-127345486D01*
X136976314Y-127252300D01*
X136919250Y-127219354D01*
X136862187Y-127186408D01*
X136798539Y-127169354D01*
X136734892Y-127152300D01*
X135384892Y-127152300D01*
X135253108Y-127152300D01*
X135125812Y-127186408D01*
X135011686Y-127252300D01*
X135011683Y-127252302D01*
X134918502Y-127345483D01*
X134918500Y-127345486D01*
X134852608Y-127459612D01*
X134818500Y-127586908D01*
X113340500Y-127586908D01*
X113340500Y-123898908D01*
X163534262Y-123898908D01*
X163534262Y-125330691D01*
X163568370Y-125457987D01*
X163601316Y-125515050D01*
X163634262Y-125572114D01*
X163727448Y-125665300D01*
X163841576Y-125731192D01*
X163968870Y-125765300D01*
X163968872Y-125765300D01*
X165450652Y-125765300D01*
X165450654Y-125765300D01*
X165577948Y-125731192D01*
X165692076Y-125665300D01*
X165785262Y-125572114D01*
X165851154Y-125457986D01*
X165885262Y-125330692D01*
X165885262Y-123898908D01*
X165881832Y-123886108D01*
X168307900Y-123886108D01*
X168307900Y-125317892D01*
X168311330Y-125330692D01*
X168342008Y-125445187D01*
X168374954Y-125502250D01*
X168407900Y-125559314D01*
X168501086Y-125652500D01*
X168615214Y-125718392D01*
X168742508Y-125752500D01*
X168742510Y-125752500D01*
X170224290Y-125752500D01*
X170224292Y-125752500D01*
X170351586Y-125718392D01*
X170465714Y-125652500D01*
X170558900Y-125559314D01*
X170624792Y-125445186D01*
X170658900Y-125317892D01*
X170658900Y-123886108D01*
X170624792Y-123758814D01*
X170558900Y-123644686D01*
X170465714Y-123551500D01*
X170408650Y-123518554D01*
X170351587Y-123485608D01*
X170287939Y-123468554D01*
X170224292Y-123451500D01*
X168874292Y-123451500D01*
X168742508Y-123451500D01*
X168615212Y-123485608D01*
X168501086Y-123551500D01*
X168501083Y-123551502D01*
X168407902Y-123644683D01*
X168407900Y-123644686D01*
X168342008Y-123758812D01*
X168338578Y-123771614D01*
X168307900Y-123886108D01*
X165881832Y-123886108D01*
X165851154Y-123771614D01*
X165785262Y-123657486D01*
X165692076Y-123564300D01*
X165635012Y-123531354D01*
X165577949Y-123498408D01*
X165514301Y-123481354D01*
X165450654Y-123464300D01*
X164100654Y-123464300D01*
X163968870Y-123464300D01*
X163841574Y-123498408D01*
X163727448Y-123564300D01*
X163727445Y-123564302D01*
X163634264Y-123657483D01*
X163634262Y-123657486D01*
X163568370Y-123771612D01*
X163534262Y-123898908D01*
X113340500Y-123898908D01*
X113340500Y-118794500D01*
X113360185Y-118727461D01*
X113412989Y-118681706D01*
X113464500Y-118670500D01*
X423365500Y-118670500D01*
X423432539Y-118690185D01*
G37*
%TD.AperFunction*%
%TD*%
M02*
