%TF.GenerationSoftware,KiCad,Pcbnew,9.0.4*%
%TF.CreationDate,2025-11-06T12:47:49+01:00*%
%TF.ProjectId,SAUBerry_front_v1,53415542-6572-4727-995f-66726f6e745f,rev?*%
%TF.SameCoordinates,Original*%
%TF.FileFunction,Profile,NP*%
%FSLAX46Y46*%
G04 Gerber Fmt 4.6, Leading zero omitted, Abs format (unit mm)*
G04 Created by KiCad (PCBNEW 9.0.4) date 2025-11-06 12:47:49*
%MOMM*%
%LPD*%
G01*
G04 APERTURE LIST*
%TA.AperFunction,Profile*%
%ADD10C,0.050000*%
%TD*%
%TA.AperFunction,Profile*%
%ADD11C,0.200000*%
%TD*%
%TA.AperFunction,Profile*%
%ADD12C,0.100000*%
%TD*%
G04 APERTURE END LIST*
D10*
X135319000Y-127652800D02*
X136669000Y-127652800D01*
X136669000Y-128952800D01*
X135319000Y-128952800D01*
X135319000Y-127652800D01*
X127400000Y-223300000D02*
X143400000Y-223300000D01*
X143400000Y-236800000D01*
X127400000Y-236800000D01*
X127400000Y-223300000D01*
D11*
X359158000Y-168073200D02*
G75*
G02*
X353058000Y-168073200I-3050000J0D01*
G01*
X353058000Y-168073200D02*
G75*
G02*
X359158000Y-168073200I3050000J0D01*
G01*
X373142000Y-146036000D02*
G75*
G02*
X367042000Y-146036000I-3050000J0D01*
G01*
X367042000Y-146036000D02*
G75*
G02*
X373142000Y-146036000I3050000J0D01*
G01*
D12*
X412694000Y-139068000D02*
G75*
G02*
X405694000Y-139068000I-3500000J0D01*
G01*
X405694000Y-139068000D02*
G75*
G02*
X412694000Y-139068000I3500000J0D01*
G01*
X412694000Y-162741200D02*
G75*
G02*
X405694000Y-162741200I-3500000J0D01*
G01*
X405694000Y-162741200D02*
G75*
G02*
X412694000Y-162741200I3500000J0D01*
G01*
D10*
X168808400Y-123952000D02*
X170158400Y-123952000D01*
X170158400Y-125252000D01*
X168808400Y-125252000D01*
X168808400Y-123952000D01*
D11*
X387126000Y-146072800D02*
G75*
G02*
X381026000Y-146072800I-3050000J0D01*
G01*
X381026000Y-146072800D02*
G75*
G02*
X387126000Y-146072800I3050000J0D01*
G01*
D12*
X369361600Y-212886000D02*
G75*
G02*
X362361600Y-212886000I-3500000J0D01*
G01*
X362361600Y-212886000D02*
G75*
G02*
X369361600Y-212886000I3500000J0D01*
G01*
D11*
X387162800Y-135114000D02*
G75*
G02*
X381062800Y-135114000I-3050000J0D01*
G01*
X381062800Y-135114000D02*
G75*
G02*
X387162800Y-135114000I3050000J0D01*
G01*
X373178800Y-135077200D02*
G75*
G02*
X367078800Y-135077200I-3050000J0D01*
G01*
X367078800Y-135077200D02*
G75*
G02*
X373178800Y-135077200I3050000J0D01*
G01*
X127779000Y-162700000D02*
X142779000Y-162700000D01*
X142779000Y-169700000D01*
X127779000Y-169700000D01*
X127779000Y-162700000D01*
X345188000Y-135128000D02*
G75*
G02*
X339088000Y-135128000I-3050000J0D01*
G01*
X339088000Y-135128000D02*
G75*
G02*
X345188000Y-135128000I3050000J0D01*
G01*
D10*
X123000000Y-231700000D02*
G75*
G02*
X119800000Y-231700000I-1600000J0D01*
G01*
X119800000Y-231700000D02*
G75*
G02*
X123000000Y-231700000I1600000J0D01*
G01*
D11*
X373178800Y-157054800D02*
G75*
G02*
X367078800Y-157054800I-3050000J0D01*
G01*
X367078800Y-157054800D02*
G75*
G02*
X373178800Y-157054800I3050000J0D01*
G01*
X139150000Y-190064931D02*
G75*
G02*
X131450000Y-190064931I-3850000J0D01*
G01*
X131450000Y-190064931D02*
G75*
G02*
X139150000Y-190064931I3850000J0D01*
G01*
D12*
X412694000Y-186413600D02*
G75*
G02*
X405694000Y-186413600I-3500000J0D01*
G01*
X405694000Y-186413600D02*
G75*
G02*
X412694000Y-186413600I3500000J0D01*
G01*
D11*
X387199600Y-156998800D02*
G75*
G02*
X381099600Y-156998800I-3050000J0D01*
G01*
X381099600Y-156998800D02*
G75*
G02*
X387199600Y-156998800I3050000J0D01*
G01*
X345151200Y-146086800D02*
G75*
G02*
X339051200Y-146086800I-3050000J0D01*
G01*
X339051200Y-146086800D02*
G75*
G02*
X345151200Y-146086800I3050000J0D01*
G01*
X345188000Y-157049600D02*
G75*
G02*
X339088000Y-157049600I-3050000J0D01*
G01*
X339088000Y-157049600D02*
G75*
G02*
X345188000Y-157049600I3050000J0D01*
G01*
X387148800Y-168017200D02*
G75*
G02*
X381048800Y-168017200I-3050000J0D01*
G01*
X381048800Y-168017200D02*
G75*
G02*
X387148800Y-168017200I3050000J0D01*
G01*
D10*
X162306000Y-135128000D02*
X319306000Y-135128000D01*
X319306000Y-225128000D01*
X162306000Y-225128000D01*
X162306000Y-135128000D01*
D11*
X359121200Y-146086800D02*
G75*
G02*
X353021200Y-146086800I-3050000J0D01*
G01*
X353021200Y-146086800D02*
G75*
G02*
X359121200Y-146086800I3050000J0D01*
G01*
D10*
X150500000Y-231700000D02*
G75*
G02*
X147300000Y-231700000I-1600000J0D01*
G01*
X147300000Y-231700000D02*
G75*
G02*
X150500000Y-231700000I1600000J0D01*
G01*
X164034762Y-123964800D02*
X165384762Y-123964800D01*
X165384762Y-125264800D01*
X164034762Y-125264800D01*
X164034762Y-123964800D01*
X151729000Y-166350000D02*
G75*
G02*
X148529000Y-166350000I-1600000J0D01*
G01*
X148529000Y-166350000D02*
G75*
G02*
X151729000Y-166350000I1600000J0D01*
G01*
D11*
X166328000Y-238724000D02*
G75*
G02*
X162728000Y-238724000I-1800000J0D01*
G01*
X162728000Y-238724000D02*
G75*
G02*
X166328000Y-238724000I1800000J0D01*
G01*
X373178800Y-168073200D02*
G75*
G02*
X367078800Y-168073200I-3050000J0D01*
G01*
X367078800Y-168073200D02*
G75*
G02*
X373178800Y-168073200I3050000J0D01*
G01*
D12*
X412706840Y-210086800D02*
G75*
G02*
X405706840Y-210086800I-3500000J0D01*
G01*
X405706840Y-210086800D02*
G75*
G02*
X412706840Y-210086800I3500000J0D01*
G01*
D11*
X139150000Y-206100000D02*
G75*
G02*
X131450000Y-206100000I-3850000J0D01*
G01*
X131450000Y-206100000D02*
G75*
G02*
X139150000Y-206100000I3850000J0D01*
G01*
X359158000Y-157054800D02*
G75*
G02*
X353058000Y-157054800I-3050000J0D01*
G01*
X353058000Y-157054800D02*
G75*
G02*
X359158000Y-157054800I3050000J0D01*
G01*
X359158000Y-135128000D02*
G75*
G02*
X353058000Y-135128000I-3050000J0D01*
G01*
X353058000Y-135128000D02*
G75*
G02*
X359158000Y-135128000I3050000J0D01*
G01*
D10*
X122389000Y-166320000D02*
G75*
G02*
X119189000Y-166320000I-1600000J0D01*
G01*
X119189000Y-166320000D02*
G75*
G02*
X122389000Y-166320000I1600000J0D01*
G01*
D11*
X179688400Y-238716000D02*
G75*
G02*
X176088400Y-238716000I-1800000J0D01*
G01*
X176088400Y-238716000D02*
G75*
G02*
X179688400Y-238716000I1800000J0D01*
G01*
X345188000Y-168068000D02*
G75*
G02*
X339088000Y-168068000I-3050000J0D01*
G01*
X339088000Y-168068000D02*
G75*
G02*
X345188000Y-168068000I3050000J0D01*
G01*
D12*
X112840000Y-118170000D02*
X423990000Y-118170000D01*
X423990000Y-247470000D01*
X112840000Y-247470000D01*
X112840000Y-118170000D01*
M02*
