%TF.GenerationSoftware,KiCad,Pcbnew,9.0.4*%
%TF.CreationDate,2025-11-06T12:47:48+01:00*%
%TF.ProjectId,SAUBerry_front_v1,53415542-6572-4727-995f-66726f6e745f,rev?*%
%TF.SameCoordinates,Original*%
%TF.FileFunction,Legend,Bot*%
%TF.FilePolarity,Positive*%
%FSLAX46Y46*%
G04 Gerber Fmt 4.6, Leading zero omitted, Abs format (unit mm)*
G04 Created by KiCad (PCBNEW 9.0.4) date 2025-11-06 12:47:48*
%MOMM*%
%LPD*%
G01*
G04 APERTURE LIST*
%ADD10C,0.750000*%
%ADD11C,0.150000*%
%ADD12C,0.120000*%
%ADD13C,0.127000*%
%ADD14C,0.200000*%
%ADD15C,0.152400*%
G04 APERTURE END LIST*
D10*
X160220000Y-133130000D02*
X168470000Y-133130000D01*
X171470000Y-133130000D02*
X179720000Y-133130000D01*
X182720000Y-133130000D02*
X190970000Y-133130000D01*
X193970000Y-133130000D02*
X202220000Y-133130000D01*
X205220000Y-133130000D02*
X213470000Y-133130000D01*
X216470000Y-133130000D02*
X224720000Y-133130000D01*
X227720000Y-133130000D02*
X235970000Y-133130000D01*
X238970000Y-133130000D02*
X247220000Y-133130000D01*
X250220000Y-133130000D02*
X258470000Y-133130000D01*
X261470000Y-133130000D02*
X269720000Y-133130000D01*
X272720000Y-133130000D02*
X280970000Y-133130000D01*
X283970000Y-133130000D02*
X292220000Y-133130000D01*
X295220000Y-133130000D02*
X303470000Y-133130000D01*
X306470000Y-133130000D02*
X314720000Y-133130000D01*
X317720000Y-133130000D02*
X325220000Y-133130000D01*
X325220000Y-133130000D02*
X325220000Y-141380000D01*
X325220000Y-144380000D02*
X325220000Y-152630000D01*
X325220000Y-155630000D02*
X325220000Y-163880000D01*
X325220000Y-166880000D02*
X325220000Y-175130000D01*
X325220000Y-178130000D02*
X325220000Y-186380000D01*
X325220000Y-189380000D02*
X325220000Y-197630000D01*
X325220000Y-200630000D02*
X325220000Y-208880000D01*
X325220000Y-211880000D02*
X325220000Y-220130000D01*
X325220000Y-223130000D02*
X325220000Y-231380000D01*
X325220000Y-233130000D02*
X316970000Y-233130000D01*
X313970000Y-233130000D02*
X305720000Y-233130000D01*
X302720000Y-233130000D02*
X294470000Y-233130000D01*
X291470000Y-233130000D02*
X283220000Y-233130000D01*
X280220000Y-233130000D02*
X271970000Y-233130000D01*
X268970000Y-233130000D02*
X260720000Y-233130000D01*
X257720000Y-233130000D02*
X249470000Y-233130000D01*
X246470000Y-233130000D02*
X238220000Y-233130000D01*
X235220000Y-233130000D02*
X226970000Y-233130000D01*
X223970000Y-233130000D02*
X215720000Y-233130000D01*
X212720000Y-233130000D02*
X204470000Y-233130000D01*
X201470000Y-233130000D02*
X193220000Y-233130000D01*
X190220000Y-233130000D02*
X181970000Y-233130000D01*
X178970000Y-233130000D02*
X170720000Y-233130000D01*
X167720000Y-233130000D02*
X160220000Y-233130000D01*
X160220000Y-233130000D02*
X160220000Y-224880000D01*
X160220000Y-221880000D02*
X160220000Y-213630000D01*
X160220000Y-210630000D02*
X160220000Y-202380000D01*
X160220000Y-199380000D02*
X160220000Y-191130000D01*
X160220000Y-188130000D02*
X160220000Y-179880000D01*
X160220000Y-176880000D02*
X160220000Y-168630000D01*
X160220000Y-165630000D02*
X160220000Y-157380000D01*
X160220000Y-154380000D02*
X160220000Y-146130000D01*
X160220000Y-143130000D02*
X160220000Y-134880000D01*
D11*
X131061819Y-129015833D02*
X130585628Y-128682500D01*
X131061819Y-128444405D02*
X130061819Y-128444405D01*
X130061819Y-128444405D02*
X130061819Y-128825357D01*
X130061819Y-128825357D02*
X130109438Y-128920595D01*
X130109438Y-128920595D02*
X130157057Y-128968214D01*
X130157057Y-128968214D02*
X130252295Y-129015833D01*
X130252295Y-129015833D02*
X130395152Y-129015833D01*
X130395152Y-129015833D02*
X130490390Y-128968214D01*
X130490390Y-128968214D02*
X130538009Y-128920595D01*
X130538009Y-128920595D02*
X130585628Y-128825357D01*
X130585628Y-128825357D02*
X130585628Y-128444405D01*
X131061819Y-129968214D02*
X131061819Y-129396786D01*
X131061819Y-129682500D02*
X130061819Y-129682500D01*
X130061819Y-129682500D02*
X130204676Y-129587262D01*
X130204676Y-129587262D02*
X130299914Y-129492024D01*
X130299914Y-129492024D02*
X130347533Y-129396786D01*
X165843332Y-234807200D02*
X165700475Y-234854819D01*
X165700475Y-234854819D02*
X165462380Y-234854819D01*
X165462380Y-234854819D02*
X165367142Y-234807200D01*
X165367142Y-234807200D02*
X165319523Y-234759580D01*
X165319523Y-234759580D02*
X165271904Y-234664342D01*
X165271904Y-234664342D02*
X165271904Y-234569104D01*
X165271904Y-234569104D02*
X165319523Y-234473866D01*
X165319523Y-234473866D02*
X165367142Y-234426247D01*
X165367142Y-234426247D02*
X165462380Y-234378628D01*
X165462380Y-234378628D02*
X165652856Y-234331009D01*
X165652856Y-234331009D02*
X165748094Y-234283390D01*
X165748094Y-234283390D02*
X165795713Y-234235771D01*
X165795713Y-234235771D02*
X165843332Y-234140533D01*
X165843332Y-234140533D02*
X165843332Y-234045295D01*
X165843332Y-234045295D02*
X165795713Y-233950057D01*
X165795713Y-233950057D02*
X165748094Y-233902438D01*
X165748094Y-233902438D02*
X165652856Y-233854819D01*
X165652856Y-233854819D02*
X165414761Y-233854819D01*
X165414761Y-233854819D02*
X165271904Y-233902438D01*
X164938570Y-233854819D02*
X164700475Y-234854819D01*
X164700475Y-234854819D02*
X164509999Y-234140533D01*
X164509999Y-234140533D02*
X164319523Y-234854819D01*
X164319523Y-234854819D02*
X164081428Y-233854819D01*
X163176666Y-234854819D02*
X163748094Y-234854819D01*
X163462380Y-234854819D02*
X163462380Y-233854819D01*
X163462380Y-233854819D02*
X163557618Y-233997676D01*
X163557618Y-233997676D02*
X163652856Y-234092914D01*
X163652856Y-234092914D02*
X163748094Y-234140533D01*
X153254819Y-128300833D02*
X152778628Y-127967500D01*
X153254819Y-127729405D02*
X152254819Y-127729405D01*
X152254819Y-127729405D02*
X152254819Y-128110357D01*
X152254819Y-128110357D02*
X152302438Y-128205595D01*
X152302438Y-128205595D02*
X152350057Y-128253214D01*
X152350057Y-128253214D02*
X152445295Y-128300833D01*
X152445295Y-128300833D02*
X152588152Y-128300833D01*
X152588152Y-128300833D02*
X152683390Y-128253214D01*
X152683390Y-128253214D02*
X152731009Y-128205595D01*
X152731009Y-128205595D02*
X152778628Y-128110357D01*
X152778628Y-128110357D02*
X152778628Y-127729405D01*
X152588152Y-129157976D02*
X153254819Y-129157976D01*
X152207200Y-128919881D02*
X152921485Y-128681786D01*
X152921485Y-128681786D02*
X152921485Y-129300833D01*
X179223332Y-234817200D02*
X179080475Y-234864819D01*
X179080475Y-234864819D02*
X178842380Y-234864819D01*
X178842380Y-234864819D02*
X178747142Y-234817200D01*
X178747142Y-234817200D02*
X178699523Y-234769580D01*
X178699523Y-234769580D02*
X178651904Y-234674342D01*
X178651904Y-234674342D02*
X178651904Y-234579104D01*
X178651904Y-234579104D02*
X178699523Y-234483866D01*
X178699523Y-234483866D02*
X178747142Y-234436247D01*
X178747142Y-234436247D02*
X178842380Y-234388628D01*
X178842380Y-234388628D02*
X179032856Y-234341009D01*
X179032856Y-234341009D02*
X179128094Y-234293390D01*
X179128094Y-234293390D02*
X179175713Y-234245771D01*
X179175713Y-234245771D02*
X179223332Y-234150533D01*
X179223332Y-234150533D02*
X179223332Y-234055295D01*
X179223332Y-234055295D02*
X179175713Y-233960057D01*
X179175713Y-233960057D02*
X179128094Y-233912438D01*
X179128094Y-233912438D02*
X179032856Y-233864819D01*
X179032856Y-233864819D02*
X178794761Y-233864819D01*
X178794761Y-233864819D02*
X178651904Y-233912438D01*
X178318570Y-233864819D02*
X178080475Y-234864819D01*
X178080475Y-234864819D02*
X177889999Y-234150533D01*
X177889999Y-234150533D02*
X177699523Y-234864819D01*
X177699523Y-234864819D02*
X177461428Y-233864819D01*
X177128094Y-233960057D02*
X177080475Y-233912438D01*
X177080475Y-233912438D02*
X176985237Y-233864819D01*
X176985237Y-233864819D02*
X176747142Y-233864819D01*
X176747142Y-233864819D02*
X176651904Y-233912438D01*
X176651904Y-233912438D02*
X176604285Y-233960057D01*
X176604285Y-233960057D02*
X176556666Y-234055295D01*
X176556666Y-234055295D02*
X176556666Y-234150533D01*
X176556666Y-234150533D02*
X176604285Y-234293390D01*
X176604285Y-234293390D02*
X177175713Y-234864819D01*
X177175713Y-234864819D02*
X176556666Y-234864819D01*
X167794819Y-127433333D02*
X167318628Y-127100000D01*
X167794819Y-126861905D02*
X166794819Y-126861905D01*
X166794819Y-126861905D02*
X166794819Y-127242857D01*
X166794819Y-127242857D02*
X166842438Y-127338095D01*
X166842438Y-127338095D02*
X166890057Y-127385714D01*
X166890057Y-127385714D02*
X166985295Y-127433333D01*
X166985295Y-127433333D02*
X167128152Y-127433333D01*
X167128152Y-127433333D02*
X167223390Y-127385714D01*
X167223390Y-127385714D02*
X167271009Y-127338095D01*
X167271009Y-127338095D02*
X167318628Y-127242857D01*
X167318628Y-127242857D02*
X167318628Y-126861905D01*
X166794819Y-127766667D02*
X166794819Y-128385714D01*
X166794819Y-128385714D02*
X167175771Y-128052381D01*
X167175771Y-128052381D02*
X167175771Y-128195238D01*
X167175771Y-128195238D02*
X167223390Y-128290476D01*
X167223390Y-128290476D02*
X167271009Y-128338095D01*
X167271009Y-128338095D02*
X167366247Y-128385714D01*
X167366247Y-128385714D02*
X167604342Y-128385714D01*
X167604342Y-128385714D02*
X167699580Y-128338095D01*
X167699580Y-128338095D02*
X167747200Y-128290476D01*
X167747200Y-128290476D02*
X167794819Y-128195238D01*
X167794819Y-128195238D02*
X167794819Y-127909524D01*
X167794819Y-127909524D02*
X167747200Y-127814286D01*
X167747200Y-127814286D02*
X167699580Y-127766667D01*
X159054523Y-121912295D02*
X159054523Y-122559914D01*
X159054523Y-122559914D02*
X159016428Y-122636104D01*
X159016428Y-122636104D02*
X158978333Y-122674200D01*
X158978333Y-122674200D02*
X158902142Y-122712295D01*
X158902142Y-122712295D02*
X158749761Y-122712295D01*
X158749761Y-122712295D02*
X158673571Y-122674200D01*
X158673571Y-122674200D02*
X158635476Y-122636104D01*
X158635476Y-122636104D02*
X158597380Y-122559914D01*
X158597380Y-122559914D02*
X158597380Y-121912295D01*
X157797381Y-122712295D02*
X158254524Y-122712295D01*
X158025952Y-122712295D02*
X158025952Y-121912295D01*
X158025952Y-121912295D02*
X158102143Y-122026580D01*
X158102143Y-122026580D02*
X158178333Y-122102771D01*
X158178333Y-122102771D02*
X158254524Y-122140866D01*
X170258094Y-123394819D02*
X170258094Y-122394819D01*
X170258094Y-122394819D02*
X170019999Y-122394819D01*
X170019999Y-122394819D02*
X169877142Y-122442438D01*
X169877142Y-122442438D02*
X169781904Y-122537676D01*
X169781904Y-122537676D02*
X169734285Y-122632914D01*
X169734285Y-122632914D02*
X169686666Y-122823390D01*
X169686666Y-122823390D02*
X169686666Y-122966247D01*
X169686666Y-122966247D02*
X169734285Y-123156723D01*
X169734285Y-123156723D02*
X169781904Y-123251961D01*
X169781904Y-123251961D02*
X169877142Y-123347200D01*
X169877142Y-123347200D02*
X170019999Y-123394819D01*
X170019999Y-123394819D02*
X170258094Y-123394819D01*
X169305713Y-122490057D02*
X169258094Y-122442438D01*
X169258094Y-122442438D02*
X169162856Y-122394819D01*
X169162856Y-122394819D02*
X168924761Y-122394819D01*
X168924761Y-122394819D02*
X168829523Y-122442438D01*
X168829523Y-122442438D02*
X168781904Y-122490057D01*
X168781904Y-122490057D02*
X168734285Y-122585295D01*
X168734285Y-122585295D02*
X168734285Y-122680533D01*
X168734285Y-122680533D02*
X168781904Y-122823390D01*
X168781904Y-122823390D02*
X169353332Y-123394819D01*
X169353332Y-123394819D02*
X168734285Y-123394819D01*
X136248733Y-142341820D02*
X136248733Y-143056105D01*
X136248733Y-143056105D02*
X136296352Y-143198962D01*
X136296352Y-143198962D02*
X136391590Y-143294201D01*
X136391590Y-143294201D02*
X136534447Y-143341820D01*
X136534447Y-143341820D02*
X136629685Y-143341820D01*
X135248733Y-143341820D02*
X135820161Y-143341820D01*
X135534447Y-143341820D02*
X135534447Y-142341820D01*
X135534447Y-142341820D02*
X135629685Y-142484677D01*
X135629685Y-142484677D02*
X135724923Y-142579915D01*
X135724923Y-142579915D02*
X135820161Y-142627534D01*
X136722094Y-127119819D02*
X136722094Y-126119819D01*
X136722094Y-126119819D02*
X136483999Y-126119819D01*
X136483999Y-126119819D02*
X136341142Y-126167438D01*
X136341142Y-126167438D02*
X136245904Y-126262676D01*
X136245904Y-126262676D02*
X136198285Y-126357914D01*
X136198285Y-126357914D02*
X136150666Y-126548390D01*
X136150666Y-126548390D02*
X136150666Y-126691247D01*
X136150666Y-126691247D02*
X136198285Y-126881723D01*
X136198285Y-126881723D02*
X136245904Y-126976961D01*
X136245904Y-126976961D02*
X136341142Y-127072200D01*
X136341142Y-127072200D02*
X136483999Y-127119819D01*
X136483999Y-127119819D02*
X136722094Y-127119819D01*
X135198285Y-127119819D02*
X135769713Y-127119819D01*
X135483999Y-127119819D02*
X135483999Y-126119819D01*
X135483999Y-126119819D02*
X135579237Y-126262676D01*
X135579237Y-126262676D02*
X135674475Y-126357914D01*
X135674475Y-126357914D02*
X135769713Y-126405533D01*
X172564819Y-127450833D02*
X172088628Y-127117500D01*
X172564819Y-126879405D02*
X171564819Y-126879405D01*
X171564819Y-126879405D02*
X171564819Y-127260357D01*
X171564819Y-127260357D02*
X171612438Y-127355595D01*
X171612438Y-127355595D02*
X171660057Y-127403214D01*
X171660057Y-127403214D02*
X171755295Y-127450833D01*
X171755295Y-127450833D02*
X171898152Y-127450833D01*
X171898152Y-127450833D02*
X171993390Y-127403214D01*
X171993390Y-127403214D02*
X172041009Y-127355595D01*
X172041009Y-127355595D02*
X172088628Y-127260357D01*
X172088628Y-127260357D02*
X172088628Y-126879405D01*
X171660057Y-127831786D02*
X171612438Y-127879405D01*
X171612438Y-127879405D02*
X171564819Y-127974643D01*
X171564819Y-127974643D02*
X171564819Y-128212738D01*
X171564819Y-128212738D02*
X171612438Y-128307976D01*
X171612438Y-128307976D02*
X171660057Y-128355595D01*
X171660057Y-128355595D02*
X171755295Y-128403214D01*
X171755295Y-128403214D02*
X171850533Y-128403214D01*
X171850533Y-128403214D02*
X171993390Y-128355595D01*
X171993390Y-128355595D02*
X172564819Y-127784167D01*
X172564819Y-127784167D02*
X172564819Y-128403214D01*
X165480594Y-123404819D02*
X165480594Y-122404819D01*
X165480594Y-122404819D02*
X165242499Y-122404819D01*
X165242499Y-122404819D02*
X165099642Y-122452438D01*
X165099642Y-122452438D02*
X165004404Y-122547676D01*
X165004404Y-122547676D02*
X164956785Y-122642914D01*
X164956785Y-122642914D02*
X164909166Y-122833390D01*
X164909166Y-122833390D02*
X164909166Y-122976247D01*
X164909166Y-122976247D02*
X164956785Y-123166723D01*
X164956785Y-123166723D02*
X165004404Y-123261961D01*
X165004404Y-123261961D02*
X165099642Y-123357200D01*
X165099642Y-123357200D02*
X165242499Y-123404819D01*
X165242499Y-123404819D02*
X165480594Y-123404819D01*
X164575832Y-122404819D02*
X163956785Y-122404819D01*
X163956785Y-122404819D02*
X164290118Y-122785771D01*
X164290118Y-122785771D02*
X164147261Y-122785771D01*
X164147261Y-122785771D02*
X164052023Y-122833390D01*
X164052023Y-122833390D02*
X164004404Y-122881009D01*
X164004404Y-122881009D02*
X163956785Y-122976247D01*
X163956785Y-122976247D02*
X163956785Y-123214342D01*
X163956785Y-123214342D02*
X164004404Y-123309580D01*
X164004404Y-123309580D02*
X164052023Y-123357200D01*
X164052023Y-123357200D02*
X164147261Y-123404819D01*
X164147261Y-123404819D02*
X164432975Y-123404819D01*
X164432975Y-123404819D02*
X164528213Y-123357200D01*
X164528213Y-123357200D02*
X164575832Y-123309580D01*
X158982580Y-128313333D02*
X159030200Y-128265714D01*
X159030200Y-128265714D02*
X159077819Y-128122857D01*
X159077819Y-128122857D02*
X159077819Y-128027619D01*
X159077819Y-128027619D02*
X159030200Y-127884762D01*
X159030200Y-127884762D02*
X158934961Y-127789524D01*
X158934961Y-127789524D02*
X158839723Y-127741905D01*
X158839723Y-127741905D02*
X158649247Y-127694286D01*
X158649247Y-127694286D02*
X158506390Y-127694286D01*
X158506390Y-127694286D02*
X158315914Y-127741905D01*
X158315914Y-127741905D02*
X158220676Y-127789524D01*
X158220676Y-127789524D02*
X158125438Y-127884762D01*
X158125438Y-127884762D02*
X158077819Y-128027619D01*
X158077819Y-128027619D02*
X158077819Y-128122857D01*
X158077819Y-128122857D02*
X158125438Y-128265714D01*
X158125438Y-128265714D02*
X158173057Y-128313333D01*
X159077819Y-129265714D02*
X159077819Y-128694286D01*
X159077819Y-128980000D02*
X158077819Y-128980000D01*
X158077819Y-128980000D02*
X158220676Y-128884762D01*
X158220676Y-128884762D02*
X158315914Y-128789524D01*
X158315914Y-128789524D02*
X158363533Y-128694286D01*
D12*
%TO.C,R1*%
X131472000Y-128955436D02*
X131472000Y-129409564D01*
X132942000Y-128955436D02*
X132942000Y-129409564D01*
%TO.C,SW1*%
X161410000Y-237400000D02*
X161410000Y-240000000D01*
X161510000Y-241950000D02*
X167510000Y-241950000D01*
X161610000Y-235450000D02*
X167410000Y-235450000D01*
X167610000Y-237400000D02*
X167610000Y-240000000D01*
X169610000Y-235400000D02*
X168610000Y-235400000D01*
X169610000Y-236400000D02*
X169610000Y-235400000D01*
%TO.C,R4*%
X153715000Y-128240436D02*
X153715000Y-128694564D01*
X155185000Y-128240436D02*
X155185000Y-128694564D01*
%TO.C,SW2*%
X174790000Y-237410000D02*
X174790000Y-240010000D01*
X174890000Y-241960000D02*
X180890000Y-241960000D01*
X174990000Y-235460000D02*
X180790000Y-235460000D01*
X180990000Y-237410000D02*
X180990000Y-240010000D01*
X182990000Y-235410000D02*
X181990000Y-235410000D01*
X182990000Y-236410000D02*
X182990000Y-235410000D01*
%TO.C,R3*%
X164955000Y-127827064D02*
X164955000Y-127372936D01*
X166425000Y-127827064D02*
X166425000Y-127372936D01*
D13*
%TO.C,U1*%
X158115000Y-126050000D02*
X158775000Y-126050000D01*
X158775000Y-123150000D02*
X158115000Y-123150000D01*
X159245000Y-124935000D02*
X159245000Y-124265000D01*
D14*
X156135000Y-125650000D02*
G75*
G02*
X155935000Y-125650000I-100000J0D01*
G01*
X155935000Y-125650000D02*
G75*
G02*
X156135000Y-125650000I100000J0D01*
G01*
D12*
%TO.C,D2*%
X167842500Y-123640000D02*
X170527500Y-123640000D01*
X167842500Y-125560000D02*
X167842500Y-123640000D01*
X170527500Y-125560000D02*
X167842500Y-125560000D01*
D15*
%TO.C,J1*%
X125793500Y-133678001D02*
X128684960Y-133678001D01*
X125793500Y-139766460D02*
X125793500Y-133678001D01*
X130645840Y-133678001D02*
X131184960Y-133678001D01*
X133145840Y-133678001D02*
X133684960Y-133678001D01*
X135645840Y-133678001D02*
X136184960Y-133678001D01*
X138145840Y-133678001D02*
X138684960Y-133678001D01*
X140645840Y-133678001D02*
X141184960Y-133678001D01*
X143145840Y-133678001D02*
X146037300Y-133678001D01*
X144130959Y-143939601D02*
X127699841Y-143939601D01*
X146037300Y-133678001D02*
X146037300Y-139766460D01*
D12*
%TO.C,D1*%
X134994023Y-129252000D02*
X137679023Y-129252000D01*
X137679023Y-127332000D02*
X134994023Y-127332000D01*
X137679023Y-129252000D02*
X137679023Y-127332000D01*
%TO.C,R2*%
X169725000Y-127844564D02*
X169725000Y-127390436D01*
X171195000Y-127844564D02*
X171195000Y-127390436D01*
%TO.C,D3*%
X163065000Y-123650000D02*
X165750000Y-123650000D01*
X163065000Y-125570000D02*
X163065000Y-123650000D01*
X165750000Y-125570000D02*
X163065000Y-125570000D01*
%TO.C,C1*%
X156155000Y-128218748D02*
X156155000Y-128741252D01*
X157625000Y-128218748D02*
X157625000Y-128741252D01*
%TD*%
M02*
