%TF.GenerationSoftware,KiCad,Pcbnew,9.0.4*%
%TF.CreationDate,2025-11-06T12:47:49+01:00*%
%TF.ProjectId,SAUBerry_front_v1,53415542-6572-4727-995f-66726f6e745f,rev?*%
%TF.SameCoordinates,Original*%
%TF.FileFunction,Soldermask,Bot*%
%TF.FilePolarity,Negative*%
%FSLAX46Y46*%
G04 Gerber Fmt 4.6, Leading zero omitted, Abs format (unit mm)*
G04 Created by KiCad (PCBNEW 9.0.4) date 2025-11-06 12:47:49*
%MOMM*%
%LPD*%
G01*
G04 APERTURE LIST*
G04 Aperture macros list*
%AMRoundRect*
0 Rectangle with rounded corners*
0 $1 Rounding radius*
0 $2 $3 $4 $5 $6 $7 $8 $9 X,Y pos of 4 corners*
0 Add a 4 corners polygon primitive as box body*
4,1,4,$2,$3,$4,$5,$6,$7,$8,$9,$2,$3,0*
0 Add four circle primitives for the rounded corners*
1,1,$1+$1,$2,$3*
1,1,$1+$1,$4,$5*
1,1,$1+$1,$6,$7*
1,1,$1+$1,$8,$9*
0 Add four rect primitives between the rounded corners*
20,1,$1+$1,$2,$3,$4,$5,0*
20,1,$1+$1,$4,$5,$6,$7,0*
20,1,$1+$1,$6,$7,$8,$9,0*
20,1,$1+$1,$8,$9,$2,$3,0*%
G04 Aperture macros list end*
%ADD10RoundRect,0.250000X-0.450000X0.262500X-0.450000X-0.262500X0.450000X-0.262500X0.450000X0.262500X0*%
%ADD11R,1.600000X1.400000*%
%ADD12RoundRect,0.250000X0.450000X-0.262500X0.450000X0.262500X-0.450000X0.262500X-0.450000X-0.262500X0*%
%ADD13RoundRect,0.198500X-0.508500X-0.198500X0.508500X-0.198500X0.508500X0.198500X-0.508500X0.198500X0*%
%ADD14RoundRect,0.243750X-0.243750X-0.456250X0.243750X-0.456250X0.243750X0.456250X-0.243750X0.456250X0*%
%ADD15R,1.295400X4.495800*%
%ADD16R,1.803400X3.911600*%
%ADD17RoundRect,0.243750X0.243750X0.456250X-0.243750X0.456250X-0.243750X-0.456250X0.243750X-0.456250X0*%
%ADD18RoundRect,0.250000X-0.475000X0.250000X-0.475000X-0.250000X0.475000X-0.250000X0.475000X0.250000X0*%
G04 APERTURE END LIST*
D10*
%TO.C,R1*%
X132207000Y-128270000D03*
X132207000Y-130095000D03*
%TD*%
D11*
%TO.C,SW1*%
X168510000Y-236450000D03*
X160510000Y-236450000D03*
X168510000Y-240950000D03*
X160510000Y-240950000D03*
%TD*%
D10*
%TO.C,R4*%
X154450000Y-127555000D03*
X154450000Y-129380000D03*
%TD*%
D11*
%TO.C,SW2*%
X181890000Y-236460000D03*
X173890000Y-236460000D03*
X181890000Y-240960000D03*
X173890000Y-240960000D03*
%TD*%
D12*
%TO.C,R3*%
X165690000Y-128512500D03*
X165690000Y-126687500D03*
%TD*%
D13*
%TO.C,U1*%
X157190000Y-125550000D03*
X157190000Y-124600000D03*
X157190000Y-123650000D03*
X159700000Y-123650000D03*
X159700000Y-125550000D03*
%TD*%
D14*
%TO.C,D2*%
X168590000Y-124600000D03*
X170465000Y-124600000D03*
%TD*%
D15*
%TO.C,J1*%
X142165400Y-135255000D03*
X139665400Y-135255000D03*
X137165400Y-135255000D03*
X134665400Y-135255000D03*
X132165400Y-135255000D03*
X129665400Y-135255000D03*
D16*
X145365399Y-142055000D03*
X126465401Y-142055000D03*
%TD*%
D17*
%TO.C,D1*%
X136931523Y-128292000D03*
X135056523Y-128292000D03*
%TD*%
D12*
%TO.C,R2*%
X170460000Y-128530000D03*
X170460000Y-126705000D03*
%TD*%
D14*
%TO.C,D3*%
X163812500Y-124610000D03*
X165687500Y-124610000D03*
%TD*%
D18*
%TO.C,C1*%
X156890000Y-127530000D03*
X156890000Y-129430000D03*
%TD*%
M02*
